<svg xmlns="http://www.w3.org/2000/svg" width="331.057" height="92.696" viewBox="0 0 331.057 92.696">
  <g id="atoms_logo-25" data-name="atoms logo-25" transform="translate(-7.639 -19.518)">
    <g id="Group_1678" data-name="Group 1678" transform="translate(7.64 19.518)">
      <g id="Group_1674" data-name="Group 1674" transform="translate(0 19.491)">
        <path id="Path_216" data-name="Path 216" d="M51.555,68.321H26.913L22.93,78.4H7.64l24.478-57H47.409l23.907,57H55.459ZM47.16,56.928,39.354,36.607,31.388,56.928Z" transform="translate(-7.64 -21.4)" fill="#ad0000"/>
        <path id="Path_217" data-name="Path 217" d="M62.312,21.4V33.677H45.233V78.4H30.355V33.677H13.44V21.4H62.312Z" transform="translate(45.553 -21.4)" fill="#ad0000"/>
      </g>
      <g id="Group_1675" data-name="Group 1675" transform="translate(210.917 18.922)">
        <path id="Path_218" data-name="Path 218" d="M44.807,21.409,59.934,54.662,75.061,21.409H91.325v57H78.15l-.079-36.1L64.816,72.719H55.057L41.8,42.306v36.1H28.548v-57Z" transform="translate(-28.548 -20.754)" fill="#ad0000"/>
        <path id="Path_219" data-name="Path 219" d="M60.652,33.462c-3.576,0-5.94,1.3-5.94,3.9,0,9.436,30.006,4.062,30.006,24.563,0,11.621-10.24,17.56-22.924,17.56A42.841,42.841,0,0,1,35.523,70.38l5.771-11.631c5.86,5.046,14.72,8.621,20.659,8.621,4.39,0,7.151-1.629,7.151-4.638,0-9.674-30.006-3.814-30.006-23.987,0-10.648,9.028-17.4,22.775-17.4A43.679,43.679,0,0,1,84.639,27.77L79.027,39.56C73.009,36.144,65.371,33.462,60.652,33.462Z" transform="translate(35.423 -21.344)" fill="#ad0000"/>
      </g>
      <circle id="Ellipse_48" data-name="Ellipse 48" cx="18.241" cy="18.241" r="18.241" transform="translate(139.81 29.351)" fill="#ad0000"/>
      <g id="Group_1677" data-name="Group 1677" transform="translate(113.26)">
        <path id="Path_220" data-name="Path 220" d="M63.655,110a45.119,45.119,0,1,1,44.8-45.118A45.014,45.014,0,0,1,63.655,110Zm0-87.676a42.559,42.559,0,1,0,42.262,42.558A42.457,42.457,0,0,0,63.655,22.32Z" transform="translate(-18.855 -17.3)" fill="#ad0000"/>
        <circle id="Ellipse_49" data-name="Ellipse 49" cx="9.809" cy="9.809" r="9.809" transform="translate(55.516)" fill="#ad0000"/>
      </g>
    </g>
  </g>
</svg>
