<svg xmlns="http://www.w3.org/2000/svg" xmlns:xlink="http://www.w3.org/1999/xlink" width="1250" height="719" viewBox="0 0 1250 719">
    <defs>
        <radialGradient id="prefix__radial-gradient" cx=".536" cy=".513" r=".51" gradientTransform="matrix(.964 0 0 1 .018 0)" gradientUnits="objectBoundingBox">
            <stop offset="0" stop-color="#ffb533"/>
            <stop offset=".127" stop-color="#ff6712"/>
            <stop offset=".236" stop-color="#c45212"/>
            <stop offset=".345" stop-color="#924013"/>
            <stop offset=".451" stop-color="#693214"/>
            <stop offset=".554" stop-color="#4a2714"/>
            <stop offset=".654" stop-color="#331f14"/>
            <stop offset=".748" stop-color="#251a14"/>
            <stop offset=".831" stop-color="#211915"/>
        </radialGradient>
        <radialGradient id="prefix__radial-gradient-2" cx=".5" cy=".5" r=".5" gradientTransform="rotate(20.12 62.2 33.444)" gradientUnits="objectBoundingBox">
            <stop offset="0" stop-color="#d2ffff"/>
            <stop offset=".003" stop-color="#cffefe"/>
            <stop offset=".042" stop-color="#a6f8fd"/>
            <stop offset=".08" stop-color="#87f3fd"/>
            <stop offset=".118" stop-color="#70effc"/>
            <stop offset=".153" stop-color="#62edfc"/>
            <stop offset=".184" stop-color="#5eedfc"/>
            <stop offset=".239" stop-color="#5be3f1" stop-opacity=".953"/>
            <stop offset=".339" stop-color="#53c9d5" stop-opacity=".831"/>
            <stop offset=".47" stop-color="#479fa7" stop-opacity=".635"/>
            <stop offset=".628" stop-color="#376669" stop-opacity=".365"/>
            <stop offset=".808" stop-color="#221d19" stop-opacity=".02"/>
            <stop offset=".818" stop-color="#211915" stop-opacity="0"/>
        </radialGradient>
        <radialGradient id="prefix__radial-gradient-3" cx=".5" cy=".5" r=".5" gradientTransform="rotate(60.41 -2.806 .58)" xlink:href="#prefix__radial-gradient-2"/>
        <radialGradient id="prefix__radial-gradient-4" cx=".5" cy=".5" r=".5" gradientTransform="rotate(2.56 -2.496 .7)" xlink:href="#prefix__radial-gradient-2"/>
        <radialGradient id="prefix__radial-gradient-5" cx=".5" cy=".5" r=".5" gradientTransform="rotate(17.06 .502 .501)" xlink:href="#prefix__radial-gradient-2"/>
        <radialGradient id="prefix__radial-gradient-6" cx=".5" cy=".5" r=".5" xlink:href="#prefix__radial-gradient-2"/>
        <radialGradient id="prefix__radial-gradient-8" cx=".5" cy=".5" r=".5" xlink:href="#prefix__radial-gradient-2"/>
        <radialGradient id="prefix__radial-gradient-10" cx=".5" cy=".5" r=".5" xlink:href="#prefix__radial-gradient-2"/>
        <radialGradient id="prefix__radial-gradient-11" cx=".5" cy=".5" r=".5" xlink:href="#prefix__radial-gradient-2"/>
        <clipPath id="prefix__clip-path">
            <path id="prefix__Rectangle_2713" d="M0 0H1250V719H0z" class="prefix__cls-1" data-name="Rectangle 2713" transform="translate(0 49)"/>
        </clipPath>
        <clipPath id="prefix__clip-path-2">
            <path id="prefix__Rectangle_2692" d="M0 0H1274V849H0z" data-name="Rectangle 2692" transform="translate(-.231)" style="fill:none"/>
        </clipPath>
        <linearGradient id="prefix__linear-gradient" x1="1.005" x2=".487" y1=".085" y2=".709" gradientUnits="objectBoundingBox">
            <stop offset="0" stop-color="#b45ce3"/>
            <stop offset="1"/>
        </linearGradient>
        <style>
            .prefix__cls-1{opacity:.489;fill:url(#prefix__linear-gradient)}.prefix__cls-13,.prefix__cls-14,.prefix__cls-6,.prefix__cls-8{fill:none}.prefix__cls-9{opacity:.1}.prefix__cls-6{stroke:#d2f5ff}.prefix__cls-13,.prefix__cls-14,.prefix__cls-6,.prefix__cls-8{stroke-miterlimit:10}.prefix__cls-8{stroke:#9cd5ff;stroke-width:.25px}.prefix__cls-11,.prefix__cls-9{fill:#b0fbff}.prefix__cls-11{opacity:.04}.prefix__cls-19{isolation:isolate}.prefix__cls-13,.prefix__cls-14{stroke:#0062d8;stroke-width:.75px}.prefix__cls-14{stroke:#40c5ff}.prefix__cls-19{mix-blend-mode:screen;fill:url(#prefix__radial-gradient-6)}
        </style>
    </defs>
    <g id="prefix__Mask_Group_34" data-name="Mask Group 34" transform="translate(0 -49)">
        <g id="prefix__Group_10692" data-name="Group 10692">
            <g id="prefix__Group_10632" data-name="Group 10632" transform="translate(-23.769 -72)">
                <g id="prefix__Group_10631" data-name="Group 10631">
                    <g id="prefix__Group_10623" data-name="Group 10623" transform="translate(548.559 66.867)" style="opacity:.1">
                        <path id="prefix__Path_24498" d="M687.876 786.946L373.23 656.308l-50.087-320.924 130.119-211.807L759.047 39.39 991.09 255.55l44.466 406.833z" class="prefix__cls-6" data-name="Path 24498" transform="translate(-323.143 -39.39)"/>
                        <path id="prefix__Line_2186" d="M0 531.396L303.214 0" class="prefix__cls-6" data-name="Line 2186" transform="translate(364.733 216.16)"/>
                        <path id="prefix__Line_2187" d="M0 169.942L486.959 0" class="prefix__cls-6" data-name="Line 2187" transform="translate(50.087 446.977)"/>
                        <path id="prefix__Path_24499" d="M860.19 486.366L323.143 335.384 759.047 39.39 860.19 486.366l175.367 176.017" class="prefix__cls-6" data-name="Path 24499" transform="translate(-323.143 -39.39)"/>
                        <path id="prefix__Line_2188" d="M406.928 362.789L0 0" class="prefix__cls-6" data-name="Line 2188" transform="translate(130.119 84.187)"/>
                        <path id="prefix__Line_2189" d="M0 79.834L667.947 0" class="prefix__cls-6" data-name="Line 2189" transform="translate(0 216.16)"/>
                        <path id="prefix__Line_2190" d="M71.171 0L0 747.557" class="prefix__cls-6" data-name="Line 2190" transform="translate(364.733)"/>
                    </g>
                    <g id="prefix__Group_10624" data-name="Group 10624" transform="translate(2115.113 298.276)">
                        <path id="prefix__Path_24500" d="M1579.605 343.684l-78.164 117.572-138.854 61.932-103.495-61.932-13.128-139.656 74.117-122.02 197.127-23.871z" class="prefix__cls-6" data-name="Path 24500" transform="translate(-1245.964 -175.708)"/>
                        <path id="prefix__Line_2191" d="M259.524 144.105L0 0" class="prefix__cls-6" data-name="Line 2191" transform="translate(74.117 23.871)"/>
                        <path id="prefix__Line_2192" d="M68.638 199.473L0 0" class="prefix__cls-6" data-name="Line 2192" transform="translate(186.839 86.075)"/>
                        <path id="prefix__Path_24501" d="M1432.8 261.782l-70.217 261.4L1245.964 321.6l186.836-59.818 84.405-86.075" class="prefix__cls-6" data-name="Path 24501" transform="translate(-1245.964 -175.708)"/>
                        <path id="prefix__Line_2193" d="M173.711 0L0 199.473" class="prefix__cls-6" data-name="Line 2193" transform="translate(13.128 86.075)"/>
                        <path id="prefix__Line_2194" d="M42.505 323.608L0 0" class="prefix__cls-6" data-name="Line 2194" transform="translate(74.117 23.871)"/>
                        <path id="prefix__Line_2195" d="M0 0L333.641 22.085" class="prefix__cls-6" data-name="Line 2195" transform="translate(0 145.891)"/>
                    </g>
                    <g id="prefix__Group_10626" data-name="Group 10626" transform="translate(-547.287 450.495)" style="opacity:.57">
                        <g id="prefix__Group_10625" data-name="Group 10625">
                            <path id="prefix__Path_24502" d="M-322.394 441.764C-85.354 502.734 250 244.752 390.934 320.649c145.472 78.341 327.11 284.26 510.682 257s309.223-181.355 684.629 76.413" class="prefix__cls-8" data-name="Path 24502" transform="translate(322.394 -236.66)"/>
                            <path id="prefix__Path_24503" d="M-317.295 441.843c241.7 68.349 576.261-189.659 720.067-120.612C550.9 392.606 728.667 588.817 910.059 566.784S1222.222 395.3 1579.751 640.8" class="prefix__cls-8" data-name="Path 24503" transform="translate(325.951 -234.685)"/>
                            <path id="prefix__Path_24504" d="M-312.2 441.989c246.363 75.727 580.126-182.309 726.8-120.11C565.392 386.29 739.29 572.794 918.5 555.99s315.1-161.607 654.756 71.612" class="prefix__cls-8" data-name="Path 24504" transform="translate(329.508 -232.777)"/>
                            <path id="prefix__Path_24505" d="M-307.1 442.207c251.027 83.105 584-174.958 733.547-119.607 153.438 57.446 323.465 234.241 500.5 222.667s318.043-151.732 639.82 69.212" class="prefix__cls-8" data-name="Path 24505" transform="translate(333.065 -230.941)"/>
                            <path id="prefix__Path_24506" d="M-302 442.529c255.685 90.484 587.974-167.963 740.282-119.1C594.5 373.54 760.535 541 935.388 534.65s320.985-141.857 624.884 66.811" class="prefix__cls-8" data-name="Path 24506" transform="translate(336.622 -229.211)"/>
                            <path id="prefix__Path_24507" d="M-296.9 442.9c260.346 97.863 591.841-160.68 747.02-118.6 158.869 43.079 321.036 200.9 493.71 199.779s323.927-131.979 609.95 64.414" class="prefix__cls-8" data-name="Path 24507" transform="translate(340.179 -227.53)"/>
                            <path id="prefix__Path_24508" d="M-291.8 443.357C-26.792 548.6 303.9 289.973 461.959 325.26 623.476 361.318 781.78 509.482 952.274 513.6s326.866-122.108 595.012 62.012" class="prefix__cls-8" data-name="Path 24508" transform="translate(343.737 -225.93)"/>
                            <path id="prefix__Path_24509" d="M-286.7 443.894C-17.031 556.514 312.851 297.82 473.8 326.3c164.154 29.051 318.6 167.552 486.919 176.894s329.8-112.233 580.075 59.612" class="prefix__cls-8" data-name="Path 24509" transform="translate(347.294 -224.415)"/>
                            <path id="prefix__Path_24510" d="M-281.6 444.524c274.327 120 603.395-138.754 767.233-117.09 166.794 22.055 317.392 150.876 483.528 165.448s332.744-102.358 565.138 57.211" class="prefix__cls-8" data-name="Path 24510" transform="translate(350.851 -222.991)"/>
                            <path id="prefix__Path_24511" d="M-276.5 445.248C2.487 572.625 330.74 313.827 497.472 328.66 666.9 343.733 813.648 462.865 977.6 482.666s335.686-92.484 550.2 54.811" class="prefix__cls-8" data-name="Path 24511" transform="translate(354.408 -221.661)"/>
                            <path id="prefix__Path_24512" d="M-271.4 446.073C12.248 580.828 339.682 322 509.309 329.988c172.059 8.1 314.962 117.531 476.739 142.562s338.626-82.611 535.266 52.411" class="prefix__cls-8" data-name="Path 24512" transform="translate(357.965 -220.432)"/>
                            <path id="prefix__Path_24513" d="M-266.3 447C22.008 589.135 348.624 330.286 521.146 331.42c174.69 1.148 313.747 100.859 473.344 131.119s341.567-72.736 520.331 50.01" class="prefix__cls-8" data-name="Path 24513" transform="translate(361.523 -219.307)"/>
                            <path id="prefix__Path_24514" d="M-261.2 448.113C31.77 597.625 357.57 338.769 532.986 333.035c177.323-5.8 312.531 84.188 469.949 119.675s344.507-62.861 505.4 47.612" class="prefix__cls-8" data-name="Path 24514" transform="translate(365.08 -218.366)"/>
                            <path id="prefix__Path_24515" d="M-256.1 449.563C41.529 606.454 366.515 347.6 544.821 334.987c179.961-12.73 311.318 67.514 466.555 108.232s347.447-52.986 490.459 45.211" class="prefix__cls-8" data-name="Path 24515" transform="translate(368.637 -217.761)"/>
                            <path id="prefix__Path_24516" d="M-251 451.4c302.289 164.268 626.465-94.572 807.659-114.074 182.6-19.654 310.1 50.842 463.16 96.789s350.389-43.115 475.524 42.811" class="prefix__cls-8" data-name="Path 24516" transform="translate(372.194 -217.544)"/>
                            <path id="prefix__Path_24517" d="M-245.9 453.666C61.049 625.314 384.421 366.5 568.5 340.1c185.247-26.569 308.887 34.169 459.767 85.345s353.327-33.237 460.585 40.411" class="prefix__cls-8" data-name="Path 24517" transform="translate(375.751 -217.758)"/>
                            <path id="prefix__Path_24518" d="M-240.8 456.4c311.61 179.027 634.182-79.759 821.134-113.065 187.9-33.474 307.673 17.5 456.373 73.9s356.267-23.362 445.65 38.01" class="prefix__cls-8" data-name="Path 24518" transform="translate(379.308 -218.439)"/>
                            <path id="prefix__Path_24519" d="M-235.7 459.569C80.569 645.974 402.415 387.534 592.172 347c190.62-40.064 306.457.825 452.978 62.459s359.208-13.487 430.714 35.61" class="prefix__cls-8" data-name="Path 24519" transform="translate(382.866 -219.553)"/>
                            <path id="prefix__Path_24520" d="M-230.606 463.283C90.33 657.066 411.38 398.6 604.01 351.222c193.275-47.03 305.242-15.849 449.583 51.015s362.148-3.614 415.778 33.211" class="prefix__cls-8" data-name="Path 24520" transform="translate(386.423 -221.213)"/>
                            <path id="prefix__Path_24521" d="M-225.506 467.445c325.6 201.162 645.851-57.332 841.352-111.558 195.932-53.995 304.028-32.52 446.19 39.572s365.09 6.261 400.842 30.811" class="prefix__cls-8" data-name="Path 24521" transform="translate(389.98 -223.322)"/>
                            <path id="prefix__Path_24522" d="M-220.407 472c330.257 208.54 649.718-49.98 848.091-111.055 198.589-60.958 302.813-49.194 442.794 28.129s368.03 16.135 385.905 28.411" class="prefix__cls-8" data-name="Path 24522" transform="translate(393.537 -225.823)"/>
                            <path id="prefix__Path_24523" d="M-215.308 476.881C119.609 692.8 438.277 434.252 639.521 366.328s301.6-65.866 439.4 16.685 370.97 26.01 370.97 26.01" class="prefix__cls-8" data-name="Path 24523" transform="translate(397.094 -228.65)"/>
                            <path id="prefix__Path_24524" d="M-215.816 471.775c69.144 41.75 137.167 67.577 203.52 79.339 86.235 15.042 170.305 6.451 250.283-14.251a904.157 904.157 0 0 0 130.485-45.215c47.087-20.3 91.214-43.417 132.434-64.806 48.591-25.214 93.305-48.157 133.942-63.211 43.286-15.949 83.042-29.249 119.249-36.437 67.434-13.389 121.212-11.172 174.023.845 45.756 10.538 90.981 29.054 140.265 55.163q3.674 1.945 7.383 3.93c50.74 27.27 112.52 35.114 171.876 36.191 103.727 1.881 199.2-20.544 203.42-20.013" class="prefix__cls-8" data-name="Path 24524" transform="translate(396.74 -228.628)"/>
                            <path id="prefix__Path_24525" d="M-216.323 467.284c69.517 39.166 137.442 66.662 203.659 79.93 85.513 17.134 169.448 10.868 249.772-7.914a769.747 769.747 0 0 0 131.072-43.541c46.979-20.464 90.374-44.828 130.81-67.38 47.315-26.387 90.893-50.552 131.185-66.828 42.811-17.125 83.32-32.274 120.1-38.6 67.572-11.618 119.825-4.283 172.422 9.983 45.778 12.416 92.214 31.38 142.362 55.334 2.507 1.2 5.032 2.385 7.556 3.6 51.934 24.856 113.591 28.874 173.39 28.186 102.447-1.175 197.8-22.9 206.231-21.843" class="prefix__cls-8" data-name="Path 24525" transform="translate(396.386 -229.223)"/>
                            <path id="prefix__Path_24526" d="M-216.831 463.258c69.891 36.579 137.731 65.642 203.8 80.519 84.809 19.091 168.591 15.287 249.261-1.577 45.22-9.556 89.752-23.372 131.657-41.867 46.87-20.631 89.533-46.228 129.183-69.953 46.042-27.546 88.44-53.042 128.43-70.444 42.292-18.405 83.593-35.313 120.95-40.76 67.7-9.871 118.424 2.686 170.823 19.122 45.789 14.361 93.458 33.693 144.457 55.505 2.565 1.1 5.149 2.17 7.731 3.264 53.124 22.442 114.642 22.663 174.9 20.184 101.14-4.161 196.389-25.265 209.042-23.674" class="prefix__cls-8" data-name="Path 24526" transform="translate(396.032 -230.282)"/>
                            <path id="prefix__Path_24527" d="M-217.339 459.561c70.264 33.994 138.024 64.62 203.941 81.107 84.1 21.038 167.734 19.705 248.75 4.762 45.332-8.491 90.238-21.449 132.242-40.2 46.761-20.8 88.693-47.615 127.559-72.525 44.767-28.691 86.014-55.46 125.675-74.062 41.8-19.605 83.857-38.36 121.8-42.921 67.808-8.148 117.024 9.663 169.222 28.259 45.8 16.315 94.719 36 146.551 55.679 2.626 1 5.269 1.951 7.906 2.928 54.317 20.03 115.677 16.485 176.418 12.182 99.81-7.07 194.983-27.625 211.854-25.5" class="prefix__cls-8" data-name="Path 24527" transform="translate(395.677 -231.669)"/>
                            <path id="prefix__Path_24528" d="M-217.847 456.083c70.639 31.409 138.313 63.583 204.082 81.7 83.4 22.97 166.878 24.124 248.238 11.1 45.446-7.427 90.723-19.524 132.83-38.521 46.653-20.963 87.856-48.992 125.934-75.1 43.5-29.821 83.588-57.875 122.918-77.681 41.309-20.8 84.116-41.421 122.649-45.082 67.911-6.452 115.623 16.65 167.622 37.4 45.812 18.278 95.991 38.29 148.648 55.852 2.686.9 5.386 1.735 8.08 2.6 55.507 17.616 116.7 10.342 177.933 4.179 98.462-9.909 193.576-29.986 214.665-27.334" class="prefix__cls-8" data-name="Path 24528" transform="translate(395.323 -233.275)"/>
                            <path id="prefix__Path_24529" d="M-218.355 452.751c71.013 28.823 138.6 62.537 204.221 82.285 82.7 24.886 166.022 28.541 247.728 17.436 45.558-6.361 91.209-17.6 133.416-36.848 46.544-21.131 87.021-50.357 124.308-77.671 42.23-30.935 81.164-60.284 120.163-81.3 40.82-21.994 84.373-44.492 123.5-47.242C802.987 304.633 849.2 333.059 901 355.946c45.823 20.247 97.271 40.567 150.743 56.023 2.745.794 5.505 1.519 8.255 2.263 56.7 15.2 117.711 4.232 179.445-3.825 97.1-12.674 192.17-32.346 217.478-29.163" class="prefix__cls-8" data-name="Path 24529" transform="translate(394.969 -235.028)"/>
                            <path id="prefix__Path_24530" d="M-218.862 449.519C-147.477 475.757-79.97 511-14.5 532.393c81.991 26.791 165.165 32.96 247.217 23.773 45.67-5.3 91.693-15.675 134-35.174 46.435-21.3 86.189-51.71 122.683-80.244 40.971-32.037 78.74-62.69 117.407-84.916 40.331-23.182 84.624-47.576 124.35-49.4 68.095-3.132 112.817 30.65 164.42 55.67 45.831 22.223 98.563 42.83 152.837 56.2 2.808.691 5.624 1.3 8.43 1.928 57.892 12.79 118.72-1.837 180.959-11.827 95.743-15.368 190.765-34.707 220.289-30.994" class="prefix__cls-8" data-name="Path 24530" transform="translate(394.615 -236.88)"/>
                            <path id="prefix__Path_24531" d="M-219.37 446.355c71.758 23.654 139.184 60.415 204.5 83.464 81.29 28.684 164.323 37.55 246.706 30.11 45.79-4.137 92.176-13.752 134.587-33.5 46.327-21.466 85.364-53.051 121.059-82.818C527.2 410.488 563.8 378.52 602.134 355.08c39.845-24.367 84.875-50.676 125.2-51.565 68.181-1.506 111.412 37.661 162.821 64.808 45.838 24.207 99.858 45.079 154.932 56.368 2.869.587 5.743 1.085 8.605 1.6 59.082 10.375 119.725-7.868 182.474-19.831 94.378-17.993 189.357-37.066 223.1-32.823" class="prefix__cls-8" data-name="Path 24531" transform="translate(394.261 -238.801)"/>
                            <path id="prefix__Path_24532" d="M-219.878 443.268c72.133 21.068 139.478 59.338 204.642 84.052a579.937 579.937 0 0 0 246.2 36.447c45.9-3.066 92.662-11.825 135.172-31.826 46.22-21.63 84.544-54.378 119.433-85.39 38.472-34.2 73.9-67.489 111.9-92.149 39.36-25.547 85.143-52.487 126.051-53.726 68.234-2.066 110 44.68 161.22 73.946 45.841 26.2 101.16 47.311 157.029 56.539 2.93.484 5.862.869 8.778 1.261 60.276 7.963 120.735-13.857 183.988-27.833 93.02-20.551 187.952-39.426 225.911-34.652" class="prefix__cls-8" data-name="Path 24532" transform="translate(393.906 -240.798)"/>
                            <path id="prefix__Path_24533" d="M-220.386 440.154c72.507 18.481 139.776 58.254 204.786 84.641 79.9 32.432 162.6 46.4 245.684 42.784 46.011-2 93.146-9.9 135.758-30.152 46.111-21.8 83.734-55.7 117.808-87.963 37.234-35.259 71.481-69.884 109.14-95.767 38.878-26.721 85.371-56.908 126.9-55.887 68.349 1.679 108.588 51.7 159.619 83.084 45.843 28.19 102.464 49.53 159.124 56.712 2.993.378 5.981.652 8.955.927 61.467 5.549 121.748-19.807 185.5-35.836 91.672-23.048 186.546-41.787 228.724-36.482" class="prefix__cls-8" data-name="Path 24533" transform="translate(393.552 -242.769)"/>
                            <path id="prefix__Path_24534" d="M-220.894 437.083c72.88 15.9 140.078 57.159 204.924 85.23 79.209 34.287 161.739 50.815 245.17 49.121 46.123-.935 93.631-7.977 136.346-28.478 46-21.967 82.931-57.008 116.183-90.537 36.007-36.309 69.066-72.274 106.383-99.384 38.4-27.894 85.62-60.041 127.751-58.048 68.434 3.241 107.173 58.734 158.02 92.222 45.84 30.19 103.767 51.735 161.218 56.884 3.054.273 6.1.435 9.128.594 62.659 3.135 122.773-25.717 187.016-43.84 90.336-25.484 185.139-44.147 231.535-38.312" class="prefix__cls-8" data-name="Path 24534" transform="translate(393.197 -244.782)"/>
                            <path id="prefix__Path_24535" d="M-221.4 434.024c73.254 13.311 140.382 56.055 205.063 85.819 78.525 36.133 160.879 55.229 244.661 55.458 46.232.127 94.117-6.052 136.933-26.8 45.892-22.133 82.139-58.308 114.555-93.11 34.792-37.35 66.653-74.663 103.628-103 37.92-29.062 85.872-63.19 128.6-60.208 68.521 4.78 105.752 65.769 156.419 101.359 45.833 32.194 105.073 53.927 163.315 57.055 3.115.168 6.217.219 9.3.261 63.851.721 123.811-31.585 188.529-51.842 89.022-27.866 183.733-46.508 234.346-40.142" class="prefix__cls-8" data-name="Path 24535" transform="translate(392.844 -246.808)"/>
                            <path id="prefix__Path_24536" d="M-221.909 430.977c73.627 10.725 140.693 54.942 205.2 86.408 77.846 37.968 160.016 59.639 244.15 61.8 46.342 1.188 94.6-4.129 137.519-25.131 45.783-22.3 81.356-59.6 112.931-95.684 33.586-38.384 64.243-77.048 100.873-106.618 37.445-30.232 86.123-66.351 129.45-62.37 68.611 6.3 104.326 72.807 154.82 110.5 45.821 34.2 106.373 56.1 165.408 57.229 3.178.059 6.337 0 9.479-.073 65.042-1.693 124.866-37.413 190.043-59.846 87.729-30.2 182.326-48.868 237.157-41.972" class="prefix__cls-8" data-name="Path 24536" transform="translate(392.489 -248.844)"/>
                            <path id="prefix__Path_24537" d="M-222.417 427.936c74 8.142 141.009 53.823 205.345 87 77.173 39.794 159.164 63.888 243.639 68.134 46.456 2.158 95.084-2.2 138.1-23.459 45.675-22.466 80.587-60.883 111.3-98.255 32.395-39.409 61.837-79.429 98.118-110.235 36.975-31.395 86.379-69.524 130.3-64.531 68.706 7.809 102.9 79.85 153.219 119.635 45.806 36.213 107.674 58.272 167.5 57.4 3.239-.048 6.454-.216 9.652-.407 66.234-4.1 125.944-43.2 191.557-67.847 86.462-32.481 180.92-51.229 239.969-43.8" class="prefix__cls-8" data-name="Path 24537" transform="translate(392.135 -250.89)"/>
                            <path id="prefix__Path_24538" d="M-222.925 424.905c74.376 5.556 141.331 52.694 205.486 87.586C59.069 554.1 140.868 580.8 225.689 586.962c46.568 3.222 95.57-.28 138.69-21.785 45.566-22.634 79.83-62.163 109.68-100.829 31.213-40.429 59.432-81.809 95.361-113.853 36.506-32.556 86.639-72.707 131.153-66.692 68.8 9.3 101.46 86.9 151.617 128.773 45.786 38.224 108.968 60.424 169.6 57.571 3.3-.154 6.573-.431 9.827-.74 67.426-6.517 127.043-48.949 193.07-75.851 85.226-34.724 179.515-53.589 242.781-45.632" class="prefix__cls-8" data-name="Path 24538" transform="translate(391.781 -252.943)"/>
                            <path id="prefix__Path_24539" d="M-223.433 421.881c74.749 2.971 141.659 51.559 205.627 88.175 75.851 43.419 157.45 72.724 242.617 80.808 46.681 4.288 96.054 1.645 139.276-20.111 45.459-22.8 79.085-63.437 108.055-103.4 30.044-41.444 57.03-84.188 92.606-117.47 36.039-33.717 86.9-75.9 132-68.853 68.91 10.77 100.022 93.942 150.019 137.907 45.763 40.243 110.257 62.574 171.694 57.745 3.361-.265 6.693-.649 10-1.075 68.617-8.931 128.172-54.662 194.586-83.855 84.02-36.931 178.108-55.949 245.593-47.461" class="prefix__cls-8" data-name="Path 24539" transform="translate(391.426 -255.003)"/>
                            <path id="prefix__Path_24540" d="M-223.94 418.862c75.121.384 141.993 50.414 205.766 88.764 75.2 45.22 156.592 77.141 242.106 87.145 46.794 5.352 96.539 3.568 139.861-18.437 45.351-22.968 78.351-64.706 106.429-105.976 28.888-42.458 54.633-86.564 89.851-121.088 35.578-34.875 87.169-79.108 132.852-71.014 69.023 12.231 98.578 101 148.417 147.049 45.736 42.261 111.544 64.713 173.791 57.916 3.422-.373 6.811-.864 10.177-1.407 69.809-11.345 129.326-60.34 196.1-91.857 82.848-39.105 176.7-58.31 248.4-49.292" class="prefix__cls-8" data-name="Path 24540" transform="translate(391.073 -257.068)"/>
                            <path id="prefix__Path_24541" d="M-224.448 415.847c75.5-2.2 142.336 49.265 205.907 89.353 74.559 47.014 155.735 81.56 241.593 93.482 46.907 6.417 97.025 5.493 140.449-16.763 45.242-23.135 77.632-65.974 104.8-108.549 27.743-43.468 52.306-88.873 87.094-124.7 35.187-35.966 87.442-82.325 133.7-73.176 69.145 13.676 97.13 108.045 146.816 156.185 45.705 44.281 112.822 66.842 175.887 58.087 3.482-.482 6.93-1.081 10.35-1.74 71-13.759 130.514-65.986 197.613-99.861 81.712-41.251 175.3-60.67 251.217-51.121" class="prefix__cls-8" data-name="Path 24541" transform="translate(390.718 -259.137)"/>
                            <path id="prefix__Path_24542" d="M-224.956 412.837c75.87-4.785 142.684 48.113 206.048 89.942 73.924 48.8 154.878 85.979 241.082 99.821 47.019 7.481 97.508 7.418 141.034-15.091 45.133-23.3 76.925-67.237 103.18-111.121 26.609-44.478 49.893-91.268 84.339-128.321 34.708-37.143 87.72-85.552 134.551-75.337 69.275 15.109 95.609 115.17 145.222 165.322 45.6 46.366 114.094 68.965 177.98 58.261 3.543-.594 7.048-1.3 10.527-2.076 72.193-16.171 131.733-71.6 199.127-107.862 80.611-43.376 173.889-63.031 254.026-52.952" class="prefix__cls-8" data-name="Path 24542" transform="translate(390.364 -261.213)"/>
                            <path id="prefix__Path_24543" d="M-225.464 409.832c76.243-7.371 143.093 46.877 206.189 90.531 73.359 50.5 154.022 90.4 240.571 106.158 47.131 8.546 97.994 9.342 141.62-13.418 45.025-23.467 76.229-68.5 101.554-113.695 25.491-45.488 47.483-93.663 81.584-131.939 34.233-38.319 88.005-88.788 135.4-77.5 69.414 16.534 94.186 122.186 143.616 174.461 45.6 48.355 115.34 70.984 180.077 58.432q5.4-1.064 10.7-2.409c73.384-18.583 132.986-77.185 200.639-115.866 79.548-45.481 172.483-65.39 256.839-54.782" class="prefix__cls-8" data-name="Path 24543" transform="translate(390.01 -263.293)"/>
                            <path id="prefix__Path_24544" d="M-225.972 406.831c76.618-9.956 143.406 45.787 206.33 91.121 72.682 52.365 153.165 94.814 240.06 112.495 47.243 9.61 98.478 11.267 142.206-11.744 44.916-23.635 75.549-69.768 99.929-116.268s45.07-96.059 78.827-135.556 88.3-92.034 136.252-79.659c69.56 17.948 92.764 129.2 142.017 183.6 45.587 50.347 116.618 73.2 182.172 58.6 79.723-17.746 141.885-83.509 213.03-126.61 78.523-47.573 171.076-67.752 259.649-56.612" class="prefix__cls-8" data-name="Path 24544" transform="translate(389.655 -265.376)"/>
                        </g>
                    </g>
                    <circle id="prefix__Ellipse_671" cx="69.758" cy="69.758" r="69.758" class="prefix__cls-9" data-name="Ellipse 671" transform="rotate(-76.951 688.33 -649.055)"/>
                    <circle id="prefix__Ellipse_672" cx="69.758" cy="69.758" r="69.758" class="prefix__cls-9" data-name="Ellipse 672" transform="rotate(-82.982 136.257 183.129)"/>
                    <circle id="prefix__Ellipse_673" cx="69.758" cy="69.758" r="69.758" data-name="Ellipse 673" transform="rotate(-77.087 694.935 265.766)" style="opacity:.06;fill:#b0fbff"/>
                    <circle id="prefix__Ellipse_674" cx="103.146" cy="103.146" r="103.146" class="prefix__cls-11" data-name="Ellipse 674" transform="translate(423.969 -29.461)"/>
                    <circle id="prefix__Ellipse_675" cx="106.447" cy="106.447" r="106.447" class="prefix__cls-11" data-name="Ellipse 675" transform="translate(1126.18 417.398)"/>
                    <g id="prefix__Group_10630" data-name="Group 10630" transform="translate(557.798 184.197)">
                        <path id="prefix__Path_24545" d="M618.874 476.389c-76.574 10.323-157.735 5.94-190.955-37.905-48.17-63.579 28.5-235.336 136.42-260.465 125.72-29.275 145.674 61.366 163.824 142.229 18.543 82.617-9.58 142.698-109.289 156.141z" data-name="Path 24545" transform="translate(-269.546 -63.939)"/>
                        <g id="prefix__Group_10627" data-name="Group 10627" transform="translate(132.602 34.865)">
                            <path id="prefix__Path_24546" d="M782.937 401.694c-29.507 90.085-108.3 158.047-184.337 161.239-110.251 4.631-216.983-132.443-170.98-260.453 53.59-149.127 131.88-196.652 234.995-144.296C747.138 201.1 831 254.946 782.937 401.694z" class="prefix__cls-13" data-name="Path 24546" transform="translate(-399.756 -123.054)"/>
                            <path id="prefix__Path_24547" d="M425.485 303.327c50.64-156.479 140.722-195.735 243.1-145.791 87.699 42.779 169.015 100.817 116.167 246.109C752.5 492.586 670.322 562.9 591.66 563.677c-108.804 1.072-206.851-134.667-166.175-260.35z" class="prefix__cls-13" data-name="Path 24547" transform="translate(-400.148 -123.397)"/>
                            <path id="prefix__Path_24548" d="M423.4 304.212c47.486-164.007 149.612-194.9 251.213-147.286 90.9 42.6 169.64 104.874 112 248.711-35 87.8-120.528 160.556-201.85 158.821-107.31-2.29-197.028-137.058-161.363-260.246z" class="prefix__cls-13" data-name="Path 24548" transform="translate(-400.594 -123.78)"/>
                            <path id="prefix__Path_24549" d="M421.371 305.137C465.464 133.446 579.917 111 680.693 156.357c94.135 42.363 170.265 108.93 107.843 251.31-37.737 86.651-126.6 161.96-210.607 157.613-105.803-5.48-187.519-139.592-156.558-260.143z" class="prefix__cls-13" data-name="Path 24549" transform="translate(-401.09 -124.203)"/>
                            <path id="prefix__Path_24550" d="M419.386 306.1C459.807 126.6 586.9 112.664 686.82 155.828c97.4 42.078 170.889 112.989 103.683 253.912-40.48 85.5-132.667 163.469-219.365 156.4-104.283-8.495-178.282-142.225-151.752-260.04z" class="prefix__cls-13" data-name="Path 24550" transform="translate(-401.633 -124.667)"/>
                            <path id="prefix__Path_24551" d="M417.446 307.114c36.43-187.422 176.52-192.814 275.543-151.771C793.68 197.076 864.5 272.387 792.512 411.856c-43.225 84.359-138.734 165.087-228.123 155.192-102.764-11.374-169.295-144.942-146.943-259.934z" class="prefix__cls-13" data-name="Path 24551" transform="translate(-402.22 -125.173)"/>
                            <path id="prefix__Path_24552" d="M415.548 308.165C447.629 112.746 601.1 115.917 699.2 154.9c104.013 41.328 172.139 121.1 95.365 259.112C748.6 497.227 649.754 580.833 557.683 568c-101.257-14.121-160.541-147.71-142.135-259.835z" class="prefix__cls-13" data-name="Path 24552" transform="translate(-402.85 -125.722)"/>
                            <path id="prefix__Path_24553" d="M413.693 309.258c27.334-203.466 194.6-191.741 291.761-154.761 107.354 40.859 172.765 125.157 91.205 261.715-48.712 82.069-150.911 168.669-245.64 152.775-99.774-16.742-152-150.501-137.326-259.729z" class="prefix__cls-13" data-name="Path 24553" transform="translate(-403.522 -126.312)"/>
                            <path id="prefix__Path_24554" d="M411.879 310.391C434.025 98.854 615.548 119.1 711.75 154.135c110.722 40.321 173.39 129.214 87.05 264.315-51.455 80.925-157.041 170.636-254.4 151.566-98.324-19.26-143.654-153.296-132.521-259.625z" class="prefix__cls-13" data-name="Path 24554" transform="translate(-404.236 -126.943)"/>
                            <path id="prefix__Path_24555" d="M410.11 311.564c16.48-219.6 212.751-190.89 307.982-157.752C832.2 193.518 892.1 287.082 800.977 420.728c-54.2 79.779-163.211 172.723-263.157 150.356-96.904-21.684-135.473-156.077-127.71-259.52z" class="prefix__cls-13" data-name="Path 24555" transform="translate(-404.995 -127.611)"/>
                            <path id="prefix__Path_24556" d="M408.4 312.769C418.688 85.14 630.239 122.23 724.486 153.522 842 192.539 899.126 290.848 803.211 423.038 746.27 501.673 633.784 597.966 531.3 572.187c-95.535-24.031-127.454-158.823-122.9-259.418z" class="prefix__cls-13" data-name="Path 24556" transform="translate(-405.808 -128.314)"/>
                            <path id="prefix__Path_24557" d="M805.525 425.378c-59.685 77.489-175.7 177.249-280.671 147.938C430.645 547.011 405.287 411.8 406.759 314 410.3 78.427 637.7 123.769 730.959 153.261c120.941 38.245 175.264 141.384 74.566 272.117z" class="prefix__cls-13" data-name="Path 24557" transform="translate(-406.699 -129.045)"/>
                        </g>
                        <g id="prefix__Group_10628" data-name="Group 10628" transform="translate(74.713 77.483)">
                            <path id="prefix__Path_24558" d="M618.874 476.389c-76.574 10.323-157.735 5.94-190.955-37.905-48.17-63.579 28.5-235.336 136.42-260.465 125.72-29.275 145.674 61.366 163.824 142.229 18.543 82.617-9.58 142.698-109.289 156.141z" class="prefix__cls-14" data-name="Path 24558" transform="translate(-344.26 -141.422)"/>
                            <path id="prefix__Path_24559" d="M565.384 177.417c129.043-33.089 150.756 66.869 167.808 146 19.918 92.436-9.3 144.771-113.416 156.431-76.735 8.595-164.551 2.577-197.134-43.775-45.123-64.192 38.383-231.897 142.742-258.656z" class="prefix__cls-14" data-name="Path 24559" transform="translate(-346.428 -142.457)"/>
                            <path id="prefix__Path_24560" d="M566.535 176.835c132.371-37.035 155.723 72.4 171.791 149.765 21.24 102.274-8.992 146.92-117.543 156.725-76.876 6.943-171.409-.72-203.31-49.645-42.183-64.688 48.238-228.635 149.062-256.845z" class="prefix__cls-14" data-name="Path 24560" transform="translate(-348.702 -143.512)"/>
                            <path id="prefix__Path_24561" d="M567.782 176.274c135.692-41.132 160.609 77.951 175.777 153.54 22.5 112.125-8.668 149.145-121.672 157.013-77 5.361-178.321-3.955-209.487-55.514-39.345-65.093 58.069-225.541 155.382-255.039z" class="prefix__cls-14" data-name="Path 24561" transform="translate(-351.075 -144.587)"/>
                            <path id="prefix__Path_24562" d="M569.121 175.734c138.985-45.38 165.428 83.514 179.761 157.309 23.695 121.994-8.332 151.454-125.8 157.305-77.122 3.843-185.3-7.133-215.663-61.384-36.612-65.41 67.867-222.592 161.702-253.23z" class="prefix__cls-14" data-name="Path 24562" transform="translate(-353.538 -145.684)"/>
                            <path id="prefix__Path_24563" d="M570.541 175.219c142.238-49.793 170.2 89.088 183.745 161.079C779.1 468.174 746.3 490.139 624.358 493.9c-77.236 2.38-192.35-10.262-221.84-67.254-33.977-65.669 77.631-219.784 168.023-251.427z" class="prefix__cls-14" data-name="Path 24563" transform="translate(-356.082 -146.805)"/>
                            <path id="prefix__Path_24564" d="M572.034 174.729c145.432-54.385 174.924 94.671 187.729 164.85 25.866 141.773-7.641 156.307-134.055 157.888-77.35.968-199.485-13.346-228.018-73.125-31.439-65.864 87.355-217.084 174.344-249.613z" class="prefix__cls-14" data-name="Path 24564" transform="translate(-358.698 -147.952)"/>
                            <path id="prefix__Path_24565" d="M573.591 174.268C722.144 115.1 753.211 274.526 765.3 342.887c26.83 151.683-7.3 158.854-138.184 158.18-77.464-.4-206.706-16.393-234.2-78.995-28.984-66.027 97.046-214.496 180.675-247.804z" class="prefix__cls-14" data-name="Path 24565" transform="translate(-361.379 -149.127)"/>
                            <path id="prefix__Path_24566" d="M575.2 173.836c151.58-64.151 184.292 105.85 195.7 172.39 27.7 161.607-6.958 161.48-142.312 158.47-77.581-1.725-214.023-19.41-240.371-84.863C361.583 353.668 494.89 207.826 575.2 173.836z" class="prefix__cls-14" data-name="Path 24566" transform="translate(-364.116 -150.331)"/>
                            <path id="prefix__Path_24567" d="M576.865 173.437C731.354 104.081 765.8 284.88 776.547 349.6c28.482 171.546-6.627 164.186-146.439 158.762-77.7-3.015-221.44-22.4-246.548-90.735-24.36-66.29 116.257-209.601 193.305-244.19z" class="prefix__cls-14" data-name="Path 24567" transform="translate(-366.903 -151.569)"/>
                            <path id="prefix__Path_24568" d="M578.57 173.072C735.83 98.279 772.137 290.111 782.236 353c29.149 181.5-6.31 166.966-150.566 159.052-77.835-4.271-228.963-25.377-252.726-96.6-22.155-66.408 125.79-207.264 199.626-242.38z" class="prefix__cls-14" data-name="Path 24568" transform="translate(-369.731 -152.841)"/>
                            <path id="prefix__Path_24569" d="M633.268 515.789c-77.973-5.5-236.592-28.341-258.9-102.474-20.025-66.529 135.268-204.988 205.948-240.57 159.869-80.48 198.18 122.636 207.65 183.7 29.696 191.472-6.011 169.826-154.698 159.344z" class="prefix__cls-14" data-name="Path 24569" transform="translate(-372.598 -154.15)"/>
                        </g>
                        <g id="prefix__Group_10629" data-name="Group 10629" transform="translate(180.78 114.079)">
                            <path id="prefix__Path_24570" d="M768.72 343.684l-78.164 117.572L551.7 523.187l-103.493-61.931L435.079 321.6 509.2 199.579l197.127-23.871z" class="prefix__cls-6" data-name="Path 24570" transform="translate(-435.079 -175.708)"/>
                            <path id="prefix__Line_2196" d="M259.524 144.105L0 0" class="prefix__cls-6" data-name="Line 2196" transform="translate(74.117 23.871)"/>
                            <path id="prefix__Line_2197" d="M68.638 199.473L0 0" class="prefix__cls-6" data-name="Line 2197" transform="translate(186.839 86.075)"/>
                            <path id="prefix__Path_24571" d="M621.918 261.782L551.7 523.187 435.079 321.6l186.839-59.816 84.405-86.075" class="prefix__cls-6" data-name="Path 24571" transform="translate(-435.079 -175.708)"/>
                            <path id="prefix__Line_2198" d="M173.711 0L0 199.473" class="prefix__cls-6" data-name="Line 2198" transform="translate(13.127 86.075)"/>
                            <path id="prefix__Line_2199" d="M42.505 323.608L0 0" class="prefix__cls-6" data-name="Line 2199" transform="translate(74.117 23.871)"/>
                            <path id="prefix__Line_2200" d="M0 0L333.641 22.085" class="prefix__cls-6" data-name="Line 2200" transform="translate(0 145.891)"/>
                        </g>
                        <circle id="prefix__Ellipse_676" cx="19.424" cy="19.424" r="19.424" data-name="Ellipse 676" transform="rotate(-77 199.558 67.512)"/>
                        <circle id="prefix__Ellipse_677" cx="19.424" cy="19.424" r="19.424" data-name="Ellipse 677" transform="rotate(-57.86 460.895 -421.502)"/>
                        <path id="prefix__Path_24572" d="M647.562 386.09a19.424 19.424 0 1 1-18.531-20.279 19.424 19.424 0 0 1 18.531 20.279z" data-name="Path 24572" transform="translate(-133.163 70.968)"/>
                        <circle id="prefix__Ellipse_678" cx="16.806" cy="16.806" r="16.806" data-name="Ellipse 678" transform="rotate(-17.045 254.356 -1473.084)"/>
                        <path id="prefix__Path_24573" d="M462.232 401.822a9.71 9.71 0 1 1-9.71-9.71 9.71 9.71 0 0 1 9.71 9.71z" class="prefix__cls-19" data-name="Path 24573" transform="translate(-248.905 89.329)"/>
                        <path id="prefix__Path_24574" d="M563.159 313.806a9.71 9.71 0 1 1-9.71-9.71 9.71 9.71 0 0 1 9.71 9.71z" class="prefix__cls-19" data-name="Path 24574" transform="translate(-178.501 27.931)"/>
                        <path id="prefix__Path_24575" d="M639.6 130.584a9.71 9.71 0 1 1-9.71-9.71 9.71 9.71 0 0 1 9.71 9.71z" data-name="Path 24575" transform="translate(-125.181 -99.879)"/>
                        <path id="prefix__Path_24576" d="M348.006 300.6a9.71 9.71 0 1 1-9.71-9.71 9.71 9.71 0 0 1 9.71 9.71z" class="prefix__cls-19" data-name="Path 24576" transform="translate(-328.586 18.716)"/>
                        <path id="prefix__Path_24577" d="M732.919 325.246a9.71 9.71 0 1 1-9.71-9.71 9.711 9.711 0 0 1 9.71 9.71z" data-name="Path 24577" transform="translate(-60.082 35.912)"/>
                        <path id="prefix__Path_24578" d="M408.341 152.42a9.71 9.71 0 1 1-9.71-9.71 9.71 9.71 0 0 1 9.71 9.71z" data-name="Path 24578" transform="translate(-286.498 -84.647)"/>
                    </g>
                </g>
            </g>
            <path id="prefix__Rectangle_2693" d="M0 0H1250V719H0z" class="prefix__cls-1" data-name="Rectangle 2693" transform="translate(0 49)"/>
        </g>
    </g>
</svg>
