<svg xmlns="http://www.w3.org/2000/svg" xmlns:xlink="http://www.w3.org/1999/xlink" width="281" height="295" viewBox="0 0 281 295">
  <defs>
    <linearGradient id="linear-gradient" x1="0.637" y1="0.747" x2="0.294" y2="0.486" gradientUnits="objectBoundingBox">
      <stop offset="0" stop-color="#fff" stop-opacity="0.302"/>
      <stop offset="1" stop-color="#fff" stop-opacity="0"/>
    </linearGradient>
    <clipPath id="clip-Artboard_1">
      <rect width="281" height="295"/>
    </clipPath>

    <style>
      .custom-highlight{fill: var(--highlight-primary) !important}
    </style>
  </defs>
  <g id="Artboard_1" data-name="Artboard – 1" clip-path="url(#clip-Artboard_1)">
    <g id="OBJECTS" transform="translate(-57.089 -43.359)">
      <g id="Group_14043" data-name="Group 14043" transform="translate(66.401 44.012)">
        <g id="Group_14034" data-name="Group 14034" transform="translate(34.216 212.75)">
          <rect id="Rectangle_3055" data-name="Rectangle 3055" width="7.919" height="46.993" transform="translate(45.453)" fill="#217180"/>
          <rect id="Rectangle_3056" data-name="Rectangle 3056" width="13.64" height="28.488" transform="translate(42.593 18.505)" fill="#217180"/>
          <path id="Path_24753" data-name="Path 24753" d="M158.967,407.226l-41.565,9.69v5.025h10.767v-3.291l43.184-4.815,1.254-6.609Z" transform="translate(-116.374 -360.233)" fill="#217180"/>
          <path id="Path_24754" data-name="Path 24754" d="M188.043,407.226l41.565,9.69v5.025H218.841v-3.291l-43.184-4.815-1.254-6.609Z" transform="translate(-132.612 -360.233)" fill="#217180"/>
          <circle id="Ellipse_679" data-name="Ellipse 679" cx="6.005" cy="6.005" r="6.005" transform="translate(0 57.298)" fill="#217180"/>
          <ellipse id="Ellipse_680" data-name="Ellipse 680" cx="3.002" cy="6.005" rx="3.002" ry="6.005" transform="translate(42.493 57.298)" fill="#217180"/>
          <ellipse id="Ellipse_681" data-name="Ellipse 681" cx="3.002" cy="6.005" rx="3.002" ry="6.005" transform="translate(34.254 57.298)" fill="#217180"/>
          <circle id="Ellipse_682" data-name="Ellipse 682" cx="6.005" cy="6.005" r="6.005" transform="translate(84.986 57.298)" fill="#217180"/>
          <path id="Path_24755" data-name="Path 24755" d="M173.085,407.226l-3.306,10.305v4.41h7.043v-4.41l9.9-10.305Z" transform="translate(-131.295 -360.233)" fill="#217180"/>
        </g>
        <path id="Rectangle_3057" data-name="Rectangle 3057" d="M3.911,0h83.15a3.911,3.911,0,0,1,3.911,3.911v0A12.141,12.141,0,0,1,78.831,16.053H12.141A12.141,12.141,0,0,1,0,3.911v0A3.911,3.911,0,0,1,3.911,0Z" transform="translate(38.911 197.365)" fill="#217180"/>
        <path id="Path_24756" data-name="Path 24756" d="M142.433,204.384s-14.639-4.236-29.823-.706a7.076,7.076,0,0,0-5.428,6.824c-.371,26.606,6.988,63.321,6.988,63.321l52.661-2.218Z" transform="translate(-79.243 -89.097)" fill="#217180"/>
        <path id="Path_24757" data-name="Path 24757" d="M161.7,106.175a2.891,2.891,0,0,0-.245-2.431,8.563,8.563,0,0,0-1.605-1.939,1.681,1.681,0,0,0,.839.595c.343.069.764-.185.724-.531-.049-.423-.624-.5-1.049-.47a4.533,4.533,0,0,0,3.511-2.717,12.072,12.072,0,0,0,.9-4.532c.079-1.349.058-2.875-.912-3.815a4.067,4.067,0,0,0-1.815-.9c-1.128-.3-2.532-.353-3.249.569a2.649,2.649,0,0,0,.28-1.9c-.231-.616-1.216-.91-1.539-.337a8.069,8.069,0,0,0-4.19-7.143,10.893,10.893,0,0,0-8.451-.7,4.967,4.967,0,0,0-1.9.963c-1.424,1.28-1.335,3.5-1.134,5.4a2.574,2.574,0,0,0-4.806,1.611,9.171,9.171,0,0,0-11,.548,5.276,5.276,0,0,0-1.37,1.724,7.01,7.01,0,0,0-.492,2.047,14.188,14.188,0,0,0-.136,3.36,8.229,8.229,0,0,0,3.558,5.869,1.844,1.844,0,0,0-1.517,1.274,1.3,1.3,0,0,0,.97,1.586c-1.774-.245-2.655,2.311-.488,2.559a3.406,3.406,0,0,0-2.318,2.268,5.26,5.26,0,0,0,.126,4.47,3.517,3.517,0,0,0,3.908,1.739c-.5.035-1.048.375-1.056.879s.849.785,1,.306a1.153,1.153,0,0,0,.138.785c.165.215.576.237.665-.02a2.5,2.5,0,0,0-.34,3.286,4.125,4.125,0,0,0,5.406,1.336,4.624,4.624,0,0,0,4.3,3.961,6.583,6.583,0,0,0,5.481-2.717,11.715,11.715,0,0,0,2.124-5.923,18.923,18.923,0,0,1,.581-4,8.551,8.551,0,0,1,4.146-4.565,17.565,17.565,0,0,1,3.25-1.327c1.01-.315,2.022-.833,3.021-1.086,1.334-.338,1.321.829,2.26,1.2A2.174,2.174,0,0,0,161.7,106.175Z" transform="translate(-83.991 -54.09)" fill="#0b4854"/>
        <path id="Path_24758" class="custom-highlight" data-name="Path 24758" d="M149.367,179.059s-13.037-6.545-16.318-7.921-5.823-.106-6.67,7.2,0,31.018,0,31.018,5.928-5.4,16.092-1.588c-.847,3.811-9.422,21.384-9.422,21.384S139.507,255.3,140.036,259c-2.012.212.847,5.505.847,5.505s-.212,6.034,1.377,9.1c5.187-4.87,37.052-18.314,46.156-19.585-4.023-7.3-10.269-33.982-11.539-41.181,0,0,6.352-8.786,12.809-9.21-5.4-11.433-13.233-33.559-17.255-31.865s-16.35,7.286-16.35,7.286l-1.688,3.089Z" transform="translate(-84.608 -80.088)" fill="#b45ce3"/>
        <path id="Path_24759" data-name="Path 24759" d="M157.773,155.418s.74,15.213.645,19.3c4.183,9.128,11.144,10.744,6.713,0l-1.377.38-2.1-18.445Z" transform="translate(-93.659 -75.749)" fill="#ffc88f"/>
        <path id="Path_24760" data-name="Path 24760" d="M161.651,156.654l-3.878-1.236s.1,1.974.214,4.688l4.078.182Z" transform="translate(-93.659 -75.749)" fill="#efac70"/>
        <path id="Path_24761" data-name="Path 24761" d="M160.105,104.476s4.122,5.1,5.206,9.328c.109,5.857.109,14.642,4.122,20.174.217,2.6-6.833,9.87-6.833,9.87s-8.786-.434-14.968-5.858A207.084,207.084,0,0,1,142.1,117.6c-.542-2.928.434-5.857,4.23-8.135A41.558,41.558,0,0,1,160.105,104.476Z" transform="translate(-89.155 -61.237)" fill="#ffc88f"/>
        <path id="Path_24762" data-name="Path 24762" d="M158.839,121.223s-1.4,7.493-8.353,5.892C153.523,125.45,158.2,122.248,158.839,121.223Z" transform="translate(-91.583 -66.007)" fill="#0b4854"/>
        <path id="Path_24763" data-name="Path 24763" d="M166.136,119.387s3.989-4.937,6.084-1.476c-.262-1.985-1.236-3.455-2.774-3.071C167.228,115.394,166.136,119.387,166.136,119.387Z" transform="translate(-96.041 -64.172)" fill="#0b4854"/>
        <path id="Path_24764" data-name="Path 24764" d="M140.6,139.722h-.02a.286.286,0,0,1-.265-.3l.611-8.839a.286.286,0,0,1,.285-.266h6.438a.285.285,0,0,1,0,.571h-6.172l-.592,8.574A.285.285,0,0,1,140.6,139.722Z" transform="translate(-88.685 -68.597)" fill="#ff3f52"/>
        <path id="Path_24765" data-name="Path 24765" d="M144.278,133.414s-1.627-3.9-4.447-3.471-.385,9.111,2.03,9.111,3.067-.887,3.067-.887Z" transform="translate(-88.187 -68.482)" fill="#ffc88f"/>
        <path id="Path_24766" data-name="Path 24766" d="M155.573,136.076c-3.043,0-5.519-3.02-5.519-6.732s2.477-6.731,5.519-6.731,5.52,3.02,5.52,6.731S158.618,136.076,155.573,136.076Zm0-12.846c-2.7,0-4.9,2.742-4.9,6.114s2.2,6.115,4.9,6.115,4.9-2.743,4.9-6.115S158.276,123.23,155.573,123.23Z" transform="translate(-91.46 -66.403)" fill="#ff3f52"/>
        <path id="Path_24767" data-name="Path 24767" d="M172.751,130.376c-2.811,0-5.1-2.789-5.1-6.217s2.287-6.217,5.1-6.217,5.1,2.789,5.1,6.217S175.562,130.376,172.751,130.376Zm0-11.864c-2.5,0-4.527,2.533-4.527,5.647s2.031,5.647,4.527,5.647,4.527-2.533,4.527-5.647S175.248,118.512,172.751,118.512Z" transform="translate(-96.473 -65.072)" fill="#ff3f52"/>
        <path id="Path_24768" data-name="Path 24768" d="M164.374,127.366l-.544-.292a2.684,2.684,0,0,1,1.66-1.34,1.843,1.843,0,0,1,1.586.647l-.438.436a1.262,1.262,0,0,0-1.056-.472C164.879,126.446,164.379,127.357,164.374,127.366Z" transform="translate(-95.384 -67.288)" fill="#ff3f52"/>
        <path id="Path_24769" data-name="Path 24769" d="M162.053,132.741c0,.673-.315,1.219-.7,1.219s-.7-.546-.7-1.219.315-1.219.7-1.219S162.053,132.068,162.053,132.741Z" transform="translate(-94.477 -68.941)" fill="#0b4854"/>
        <path id="Path_24770" data-name="Path 24770" d="M171.188,129.425c0,.673-.315,1.219-.7,1.219s-.7-.546-.7-1.219.315-1.219.7-1.219S171.188,128.752,171.188,129.425Z" transform="translate(-97.079 -67.997)" fill="#0b4854"/>
        <g id="Group_14035" data-name="Group 14035" transform="translate(51.663 62.001)">
          <path id="Path_24771" data-name="Path 24771" d="M167.241,130.711c.114,1.082.262,2.155.473,3.207a11.028,11.028,0,0,0,.959,3l-.433-.1a9.411,9.411,0,0,1,1.058-.664,3.061,3.061,0,0,1,.614-.251,1.184,1.184,0,0,1,.794.006.871.871,0,0,1,.486.716,2.363,2.363,0,0,1-.014.684,5.473,5.473,0,0,1-.344,1.22,6.523,6.523,0,0,1-1.292,2.122,1.718,1.718,0,0,1-.536.381.722.722,0,0,1-.686-.044,1.769,1.769,0,0,1-.564-1.095,1.886,1.886,0,0,0,.661.93c.32.157.636-.124.872-.406a7.058,7.058,0,0,0,1.046-2.071,4.957,4.957,0,0,0,.264-1.111c.054-.358-.008-.766-.134-.771-.157-.074-.574.074-.89.235a8.772,8.772,0,0,0-.993.6l-.286.2-.147-.3a9.741,9.741,0,0,1-.855-3.218A18.006,18.006,0,0,1,167.241,130.711Z" transform="translate(-148.005 -130.711)" fill="#ffa967"/>
          <path id="Path_24772" data-name="Path 24772" d="M172.726,147.519a9.589,9.589,0,0,0-4.091.923,5.7,5.7,0,0,0-1.651,1.219,9.927,9.927,0,0,0-1.284,1.706,5.066,5.066,0,0,1,.917-2.019,5.414,5.414,0,0,1,.775-.835,6.383,6.383,0,0,1,.96-.621,5.835,5.835,0,0,1,2.172-.606A5.644,5.644,0,0,1,172.726,147.519Z" transform="translate(-147.58 -135.427)" fill="#ffa967"/>
          <path id="Path_24773" data-name="Path 24773" d="M140.362,134.394a1.977,1.977,0,0,1,.345-.8,1.292,1.292,0,0,1,.769-.521,2.147,2.147,0,0,1,1.728.579,4.183,4.183,0,0,1,.636.609,4.928,4.928,0,0,1,.548.672,13.22,13.22,0,0,1,.921,1.442l.224.372-.423.016a2.155,2.155,0,0,0-.557.072c-.174.061-.213.086-.185.249a1.447,1.447,0,0,0,.292.5,5.911,5.911,0,0,0,.431.473,3.341,3.341,0,0,1-.561-.339,1.533,1.533,0,0,1-.467-.521.524.524,0,0,1-.011-.457.839.839,0,0,1,.15-.19,1.726,1.726,0,0,1,.177-.109,2.513,2.513,0,0,1,.693-.186l-.2.388c-.329-.446-.625-.917-.968-1.342-.165-.22-.333-.434-.514-.632l-.267-.3c-.1-.088-.194-.179-.289-.271a1.938,1.938,0,0,0-1.294-.631A1.627,1.627,0,0,0,140.362,134.394Z" transform="translate(-140.362 -131.376)" fill="#ffa967"/>
        </g>
        <path id="Path_24774" data-name="Path 24774" d="M126.529,220.963s1.806,19.868,11.551,25.084c9.942-5.414,7.481-27.562,7.481-27.562L143.3,211.4l-2.953,7.186S132.5,216.255,126.529,220.963Z" transform="translate(-84.758 -91.696)" fill="#ffc88f"/>
        <path id="Path_24775" data-name="Path 24775" d="M204.441,210.873c-7.58-2.953-13.618-14.5-13.618-14.5a30.036,30.036,0,0,1,6.929-7.1c1.763-4.113,4.236-20.141,4.58-24.871s-1.523-18.689-1.523-18.689-5.938-2.822-7.029-5.549c1.455,6.968-7.574-.424-8.907-2.115a6.442,6.442,0,0,1-.546-6.551c-.667-1.636,1.455-3.7,1.455-3.7a7.4,7.4,0,0,1,1.091-3.576c.727-.667,4.241-.687,4.241-.687l-3.636-5.069a43.869,43.869,0,0,1-8.639-1.151c-3.853-1.03-4.751-4.969-3.071-4.473s9.711,1.5,13.286,2.17c1.939,1.758,9.574,7.926,9.574,7.926l5.813,14.682s8.72,25.582,8.72,42.468a65.57,65.57,0,0,1-7.751,30.088A1.739,1.739,0,0,1,204.441,210.873Z" transform="translate(-98.555 -63.609)" fill="#ffc88f"/>
        <path id="Path_24776" data-name="Path 24776" d="M149.388,212.8a27.355,27.355,0,0,1,.559-3.352c.31-1.055,6.681-3.352,9.89-2.173s7.679,2.607,10.72,2.483,5.277-.062,2.794,2.359-7.574,1.241-7.574,1.241l5.215,5.9s3.353,7.822,4.656,10.368-1.3,2.545-3.29,0a60.929,60.929,0,0,1-4.683-8.132l-1.028-.932s2.359,10.926,3.229,13.1-.683,2.918-2.918,1.056c-.124,1.987-3.25.124-4.263-1.179-.517,1.427-3.87-.124-5.918-8.071C155.037,224.165,150.009,216.343,149.388,212.8Z" transform="translate(-91.27 -90.429)" fill="#ffc88f"/>
        <path id="Path_24777" data-name="Path 24777" d="M253.675,271.127l-2.306-6.153H199.662l-24.137,4.368,1.48,3.126Z" transform="translate(-98.716 -106.958)" fill="#217180"/>
        <g id="Group_14037" data-name="Group 14037" transform="translate(188.983 16.462)">
          <path id="Path_24778" data-name="Path 24778" d="M416.824,135.54,370.278,96.434l3.05-3.973,46.647,39.5-.556.656L373.461,93.7l-2,2.6,45.916,38.577Z" transform="translate(-343.18 -74.276)" fill="#217180"/>
          <path id="Path_24779" data-name="Path 24779" d="M411,230.64l7.783.2,14-81.346-7.3-1.07Z" transform="translate(-354.781 -90.22)" fill="#217180"/>
          <rect id="Rectangle_3058" data-name="Rectangle 3058" width="18.152" height="9.947" transform="translate(69.431 151.997) rotate(180)" fill="#217180"/>
          <rect id="Rectangle_3059" data-name="Rectangle 3059" width="12.257" height="9.947" transform="translate(66.484 149.851) rotate(180)" fill="#217180"/>
          <g id="Group_14036" data-name="Group 14036" transform="translate(72.418 56.234)">
            <path id="Path_24780" data-name="Path 24780" d="M434.313,147.567a1.749,1.749,0,1,0,2.142-1.236A1.749,1.749,0,0,0,434.313,147.567Z" transform="translate(-433.822 -145.84)" fill="#ff3f52"/>
            <path id="Path_24781" data-name="Path 24781" d="M435.83,150.028a2.2,2.2,0,0,1-.564-.074,2.181,2.181,0,1,1,.564.074Zm0-3.5a1.318,1.318,0,0,0-1.271.978h0a1.318,1.318,0,0,0,.932,1.615,1.32,1.32,0,0,0,1.615-.933,1.319,1.319,0,0,0-.932-1.616A1.348,1.348,0,0,0,435.828,146.529Zm-1.687.866h0Z" transform="translate(-433.65 -145.668)" fill="#ff3f52"/>
          </g>
          <path id="Path_24782" data-name="Path 24782" d="M372.512,93.943l-1.695-1.5-1.3,1.872,2.244.6" transform="translate(-342.964 -74.27)" fill="#217180"/>
          <path id="Path_24783" data-name="Path 24783" d="M355.9,92.075l6.134-11.124L336.085,67.032l-3.7,6.385Z" transform="translate(-332.385 -67.032)" fill="#217180"/>
        </g>
        <rect id="Rectangle_3060" data-name="Rectangle 3060" width="234.91" height="6.032" transform="translate(16.718 164.168)" fill="#0b4854"/>
        <path id="Path_24784" data-name="Path 24784" d="M88.632,396.984H80.47l24.707-114.971h8.162Z" transform="translate(-71.637 -111.813)" fill="#ffb756"/>
        <path id="Path_24785" data-name="Path 24785" d="M405.3,396.984h8.161L388.76,282.013H380.6Z" transform="translate(-157.136 -111.813)" fill="#ffb756"/>
        <path id="Path_24786" data-name="Path 24786" d="M194.891,287.244s45.945,8.074,67.13,17.325c-2.712,6.1-24.478,78.477-24.478,78.477l-6.565,2.387a17.4,17.4,0,0,0-2.333-8.057C226.2,372.9,233.963,372,233.963,372s-4.469-2.089,1.645-5.968c2.831-16.411,2.244-55.21,2.244-55.21l-59.678,3.887s-26.638,4.728-29.439-7.885A119.157,119.157,0,0,1,194.891,287.244Z" transform="translate(-91.084 -113.303)" fill="#0b4854"/>
        <path id="Path_24787" data-name="Path 24787" d="M205.595,391.092s-7.161-37.3-9.847-62.662-5.819-29.194-14.472-28.6-10.565,15.467-6.551,29.79,20.724,51.024,20.724,51.024-4.056.3-1.431,3.729c-3.045,1.046,1.431,6.716,1.431,6.716Z" transform="translate(-97.916 -116.873)" fill="#0b4854"/>
        <g id="Group_14038" data-name="Group 14038" transform="translate(47.656 125.445)">
          <path id="Path_24788" data-name="Path 24788" d="M172.693,224.119a10.825,10.825,0,0,1-2.08-4.69,9.545,9.545,0,0,1,1.322,2.22A9.656,9.656,0,0,1,172.693,224.119Z" transform="translate(-144.973 -219.429)" fill="#ffa967"/>
          <path id="Path_24789" data-name="Path 24789" d="M165.7,220.753c.3.574.571,1.158.855,1.739s.541,1.171.812,1.756c.541,1.171,1.059,2.353,1.563,3.539l.006.015.006.02q.763,2.681,1.442,5.383c.435,1.807.871,3.613,1.219,5.444-.634-1.752-1.181-3.528-1.729-5.3q-.8-2.671-1.507-5.366l.012.035c-.481-1.2-.948-2.4-1.392-3.61-.22-.606-.46-1.2-.664-1.818S165.895,221.37,165.7,220.753Z" transform="translate(-143.574 -219.806)" fill="#ffa967"/>
          <path id="Path_24790" data-name="Path 24790" d="M165.937,238.225c-.483-1.423-.913-2.859-1.307-4.3s-.762-2.9-1.095-4.354l.024.064c-1-2.042-1.954-4.106-2.785-6.232,1.2,1.939,2.286,3.94,3.323,5.963l.014.028.009.036c.37,1.45.7,2.911,1.015,4.374S165.718,236.738,165.937,238.225Z" transform="translate(-142.17 -220.56)" fill="#ffa967"/>
          <path id="Path_24791" data-name="Path 24791" d="M142.688,221.446c-1.111,2.4-2.385,4.716-3.7,7-1.329,2.278-2.7,4.534-4.231,6.694,1.11-2.406,2.383-4.716,3.7-7C139.786,225.863,141.156,223.607,142.688,221.446Z" transform="translate(-134.759 -220.004)" fill="#ffa967"/>
        </g>
        <g id="Group_14039" data-name="Group 14039" transform="translate(85.772 59.746)">
          <path id="Path_24792" data-name="Path 24792" d="M200.648,150.053a2.364,2.364,0,0,1-1.215-.99,1.946,1.946,0,0,1-.3-1.548c.326.448.564.814.825,1.216A7,7,0,0,1,200.648,150.053Z" transform="translate(-191.196 -133.243)" fill="#ffa967"/>
          <path id="Path_24793" data-name="Path 24793" d="M200.356,146.068a2.346,2.346,0,0,1-1.337,1.006,4.815,4.815,0,0,1-1.675.255c-.282,0-.559-.039-.837-.062-.272-.057-.549-.092-.815-.169a6.906,6.906,0,0,1-1.539-.609c.559.019,1.091.084,1.623.134s1.055.091,1.575.089a7.927,7.927,0,0,0,1.543-.1A3.576,3.576,0,0,0,200.356,146.068Z" transform="translate(-189.795 -132.831)" fill="#ffa967"/>
          <path id="Path_24794" data-name="Path 24794" d="M196.8,147.514a4.765,4.765,0,0,1,1.213.6,6.143,6.143,0,0,1,1.041.867,4.64,4.64,0,0,1,.8,1.113,2.452,2.452,0,0,1,.3,1.341,8.509,8.509,0,0,0-1.551-2.028C198.026,148.785,197.392,148.206,196.8,147.514Z" transform="translate(-190.549 -133.243)" fill="#ffa967"/>
          <path id="Path_24795" data-name="Path 24795" d="M188.059,138.926a34.429,34.429,0,0,1,4.891.089,33.9,33.9,0,0,1,4.841.705,38.748,38.748,0,0,1-9.733-.794Z" transform="translate(-188.059 -130.781)" fill="#ffa967"/>
          <path id="Path_24796" data-name="Path 24796" d="M190.093,133.656a24.744,24.744,0,0,1,4.139-.309,24.447,24.447,0,0,1,4.139.309,24.446,24.446,0,0,1-4.139.308A24.744,24.744,0,0,1,190.093,133.656Z" transform="translate(-188.638 -129.207)" fill="#ffa967"/>
          <path id="Path_24797" data-name="Path 24797" d="M197.549,127.744a9.359,9.359,0,0,1,2.535-.169,9.248,9.248,0,0,1,2.5.447,10.458,10.458,0,0,1-5.037-.277Z" transform="translate(-190.762 -127.558)" fill="#ffa967"/>
        </g>
        <path id="Path_24798" data-name="Path 24798" d="M195.134,219.714c-.564-2.05-1.053-4.117-1.529-6.186s-.913-4.148-1.342-6.227c-.413-2.082-.823-4.166-1.18-6.258l-.532-3.14c-.152-1.051-.328-2.1-.458-3.152.29,1.026.534,2.06.8,3.089l.728,3.1c.483,2.067.913,4.146,1.341,6.224.411,2.081.822,4.162,1.178,6.255S194.858,217.6,195.134,219.714Z" transform="translate(-102.866 -86.953)" fill="#c12946"/>
        <path id="Path_24799" data-name="Path 24799" d="M306.668,126.116l-119.6-82.1L68.118,177.748,184.149,192Z" transform="translate(-68.118 -44.012)" fill="url(#linear-gradient)"/>
        <path id="Path_24800" data-name="Path 24800" d="M206.644,219.735a22.973,22.973,0,0,0,.013,3.712,20.647,20.647,0,0,0,.615,3.622,17.727,17.727,0,0,0,1.248,3.448,23.262,23.262,0,0,0,1.871,3.2,13.156,13.156,0,0,1-2.3-2.981,14.825,14.825,0,0,1-.835-1.706,17.472,17.472,0,0,1-.583-1.809,15.336,15.336,0,0,1-.5-3.755A13.141,13.141,0,0,1,206.644,219.735Z" transform="translate(-107.448 -94.071)" fill="#ffa967"/>
        <path id="Path_24801" data-name="Path 24801" d="M196.338,317.517a27.882,27.882,0,0,0-.292-3.618,25.282,25.282,0,0,0-.725-3.537A16.688,16.688,0,0,0,192.166,304a11.241,11.241,0,0,0-2.633-2.358,12.462,12.462,0,0,0-3.242-1.437,15.2,15.2,0,0,0-1.745-.395l-1.8-.22c-.6-.077-1.2-.147-1.806-.2-.3-.024-.6-.047-.9-.046a2.105,2.105,0,0,0-.224.008c-.064,0-.17.025-.164.054a.9.9,0,0,0,.375.212.816.816,0,0,1-.42-.2c.014-.133.137-.111.2-.137s.153-.024.23-.032c.306-.026.611-.025.916-.024.609.007,1.217.031,1.825.061l1.821.134a15.763,15.763,0,0,1,1.821.323,11.614,11.614,0,0,1,6.227,3.859,16.463,16.463,0,0,1,3.139,6.639A23.431,23.431,0,0,1,196.338,317.517Z" transform="translate(-99.877 -116.717)" fill="#217180"/>
        <path id="Path_24802" data-name="Path 24802" d="M173.149,313.207c-.091,1.646-.222,3.255-.292,4.874-.048.808-.07,1.616-.093,2.427s-.021,1.623-.059,2.45a15.738,15.738,0,0,1-.465-4.908,19.506,19.506,0,0,1,.277-2.454A13.3,13.3,0,0,1,173.149,313.207Z" transform="translate(-97.773 -120.699)" fill="#217180"/>
        <path id="Path_24803" data-name="Path 24803" d="M270.306,421.209s26.65.672,35.016,4.476,11,6.194,11,6.194l-52.11-3.824-.467-4.458Z" transform="translate(-123.847 -151.466)"/>
        <path id="Path_24804" data-name="Path 24804" d="M211.329,426.075s-5.664-7.868-10.145,0a31.8,31.8,0,0,1-6.294,7.15A4.566,4.566,0,0,0,193.4,439.2h21.232A76.543,76.543,0,0,0,211.329,426.075Z" transform="translate(-103.65 -151.856)"/>
        <g id="Group_14042" data-name="Group 14042" transform="translate(114.177 79.634)">
          <g id="Group_14040" data-name="Group 14040">
            <path id="Path_24805" data-name="Path 24805" d="M350.3,155.368H248.78l-21,65.889,1.853,2.471,99.665-2.471,22.854-63.418Z" transform="translate(-227.779 -155.368)" fill="#217180"/>
            <path id="Path_24806" data-name="Path 24806" d="M352.889,158.823H251.371l-21,65.889H331.888Z" transform="translate(-228.517 -156.352)" fill="#0b4854"/>
          </g>
          <g id="Group_14041" data-name="Group 14041" transform="translate(42.859 39.084)">
            <path id="Path_24807" data-name="Path 24807" d="M319.966,210.021H301.18L287.711,252.28l1.188,1.585,17.6-1.585,14.658-40.675Z" transform="translate(-287.711 -210.021)" fill="#217180"/>
            <path id="Path_24808" data-name="Path 24808" d="M321.628,212.237H302.842L289.373,254.5h18.786Z" transform="translate(-288.184 -210.652)" fill="#0b4854"/>
          </g>
          <rect id="Rectangle_3061" data-name="Rectangle 3061" width="45.116" height="3.571" transform="translate(31.489 80.964)" fill="#217180"/>
        </g>
        <path id="Path_24809" data-name="Path 24809" d="M140.988,270.534s10.879-17.194,24.293,0Z" transform="translate(-88.877 -106.366)" fill="#0b4854"/>
      </g>
      <path id="Path_24810" class="custom-highlight" data-name="Path 24810" d="M79.834,59.636a17.742,17.742,0,0,1,14.551,27.9h0l7.49,15.251-12.3-10.571a17.745,17.745,0,1,1-9.738-32.578Z" transform="translate(0 -4.451)" fill="#a40cd5"/>
      <g id="Group_14044" data-name="Group 14044" transform="translate(73.878 63.249)">
        <path id="Path_24811" data-name="Path 24811" d="M84.977,70.912c3.847,0,6.49,2.319,6.49,6.049,0,4.287-2.966,6.049-7.077,6.049L84.3,85.8H81.981l-.117-4.639h.852c3.348,0,6.2-.646,6.2-4.2a3.6,3.6,0,0,0-3.905-3.817c-2.408,0-3.905,1.38-3.905,3.671H78.575C78.546,73.26,81.13,70.912,84.977,70.912Zm-1.85,20.907A1.821,1.821,0,1,1,84.889,90,1.793,1.793,0,0,1,83.127,91.819Z" transform="translate(-78.575 -70.912)" fill="#fff"/>
      </g>
    </g>
  </g>
</svg>
