<svg xmlns="http://www.w3.org/2000/svg" width="96.762" height="98.844" viewBox="0 0 96.762 98.844">
    <defs>
        <style>
            .prefix__cls-1{fill:#b45ce3}
        </style>
    </defs>
    <g id="prefix__success_1_" data-name="success (1)" transform="translate(-.297)">
        <path id="prefix__Path_28334" d="M.3 92.275l1.281 2.884 45.976-19.065 8.01.961 2.883 8.811-3.845 3.685a4.618 4.618 0 0 0-1.121 5.286l1.6 4.005L81.679 88.43l-1.442-3.845a4.529 4.529 0 0 0-4.485-3.044h-5.287l-2.883-6.889 7.049-3.524a4.814 4.814 0 0 0 2.4-5.928L67.9 40.69a4.936 4.936 0 0 0-6.249-2.884.157.157 0 0 0-.16.16l-6.725 2.884-.961-2.4 3.685-4.325a18.853 18.853 0 0 0 4.646-10.253l4.646-5.607a8.413 8.413 0 0 0-1.123-11.859 13.41 13.41 0 0 0-1.922-1.281 7.96 7.96 0 0 0-5.447-.48L57.809 3.2A4.633 4.633 0 0 0 51.722.319l-33.8 12.176a4.689 4.689 0 0 0-2.883 6.087v.16l.8 2.082a8.876 8.876 0 0 0-4.649 10.895 9.112 9.112 0 0 0 7.369 5.927l7.53.8A20.863 20.863 0 0 0 36.5 42.452l5.286.481.961 2.4a4.771 4.771 0 0 0-2.243 3.2l-1.122 5.447L.3 69.847l1.119 3.043 22.428-8.97 5.447 16.34zm76.737-6.728l.321.961-20.506 8.17-.48-.961a2.221 2.221 0 0 1 .321-1.762l5.447-5.127 6.888-2.243h6.408a1.607 1.607 0 0 1 1.598.962zM66.941 81.7l-5.767 1.923-2.082-6.087a3.561 3.561 0 0 0 2.563-.481l2.724-1.281zm-4.326-41.33a1.59 1.59 0 0 1 2.083.8l1.281 3.364L58.13 47.1l.961 3.044 7.85-2.563 1.922 5.127-7.529 2.563.961 3.044 7.689-2.563 1.923 5.126-7.369 2.4.961 3.044 7.529-2.563.8 2.082a1.414 1.414 0 0 1-.8 1.923l-12.655 6.248a2.031 2.031 0 0 1-.961.16L48.518 72.89 42.59 55.109l1.122-5.928a1.7 1.7 0 0 1 .961-1.122zm-.16-32.361a5.307 5.307 0 0 1 2.724 6.891 5.613 5.613 0 0 1-.8 1.281l-1.923 2.4a23.942 23.942 0 0 0-.961-4.646l-2.084-6.246a6.4 6.4 0 0 1 3.044.319zM14.394 30.918a5.519 5.519 0 0 1 2.724-6.889l2.243 5.448a23.209 23.209 0 0 0 3.2 5.447L19.2 34.6a5.359 5.359 0 0 1-4.806-3.682zm22.749 8.49A17.508 17.508 0 0 1 22.4 28.354l-4.16-10.573a1.589 1.589 0 0 1 .8-2.082l33.8-12.176a1.769 1.769 0 0 1 1.282 0 1.642 1.642 0 0 1 .8.961l3.528 10.574a17.609 17.609 0 0 1-3.364 16.981l-4.966 5.767 1.442 3.845-5.767 2.4-1.6-4.005zm-10.252 23.23l3.684-1.438 4.005 12.171 3.044-.961-4.165-12.5 6.408-2.563 5.447 16.181-12.977 5.451zm0 0" class="prefix__cls-1" data-name="Path 28334"/>
        <path id="prefix__Path_28335" d="M363.506 56.818v1.6h3.2v-1.6a7.933 7.933 0 0 1 8.01-8.01V45.6a7.932 7.932 0 0 1-8.01-8.01v-1.6h-3.2v1.6a7.932 7.932 0 0 1-8.01 8.01v3.2a7.932 7.932 0 0 1 8.01 8.018zm1.6-13.457a11.04 11.04 0 0 0 3.845 3.845 11.048 11.048 0 0 0-3.845 3.845 11.049 11.049 0 0 0-3.845-3.845 11.04 11.04 0 0 0 3.847-3.844zm0 0" class="prefix__cls-1" data-name="Path 28335" transform="translate(-284.07 -28.785)"/>
        <path id="prefix__Path_28336" d="M11.506 216.818v1.6h3.2v-1.6a7.933 7.933 0 0 1 8.01-8.01v-3.2a7.932 7.932 0 0 1-8.01-8.01v-1.6h-3.2v1.6A7.932 7.932 0 0 1 3.5 205.6v3.2a7.932 7.932 0 0 1 8.006 8.018zm1.6-13.457a11.04 11.04 0 0 0 3.845 3.845 11.049 11.049 0 0 0-3.845 3.845 11.049 11.049 0 0 0-3.845-3.845 11.04 11.04 0 0 0 3.847-3.844zm0 0" class="prefix__cls-1" data-name="Path 28336" transform="translate(-2.559 -156.744)"/>
        <path id="prefix__Path_28337" d="M398.71 197.594v-1.6h-3.2v1.6a7.932 7.932 0 0 1-8.01 8.01v3.2a7.932 7.932 0 0 1 8.01 8.01v1.6h3.2v-1.6a7.933 7.933 0 0 1 8.01-8.01v-3.2a7.932 7.932 0 0 1-8.01-8.01zm-1.6 13.458a11.049 11.049 0 0 0-3.845-3.845 11.04 11.04 0 0 0 3.845-3.845 11.04 11.04 0 0 0 3.845 3.845 11.049 11.049 0 0 0-3.847 3.845zm0 0" class="prefix__cls-1" data-name="Path 28337" transform="translate(-309.662 -156.744)"/>
        <path id="prefix__Path_28338" d="M236.618 60.5l2.243 2.243c8.811-8.811.641-22.268.16-22.749l-2.721 1.761c.157 0 7.366 11.695.318 18.745zm0 0" class="prefix__cls-1" data-name="Path 28338" transform="translate(-188.74 -31.984)"/>
    </g>
</svg>
