<svg xmlns="http://www.w3.org/2000/svg" width="16.97" height="16.971" viewBox="0 0 16.97 16.971">
    <g data-name="Group 6019">
        <path d="M14.484 8.485a6 6 0 1 0-12 0 6 6 0 1 0 12 0zm-5.998 5.316a5.318 5.318 0 0 1-.001-10.633 5.318 5.318 0 1 1 0 10.635z" data-name="Path 13464"/>
        <path d="M12.535 8.485a.368.368 0 0 0-.37-.37H8.853V4.803a.37.37 0 0 0-.74 0v3.312H4.803a.371.371 0 0 0-.263.631.36.36 0 0 0 .26.107h3.313v3.312a.372.372 0 0 0 .106.261.356.356 0 0 0 .261.107.368.368 0 0 0 .37-.37l.004-3.308h3.312a.368.368 0 0 0 .37-.37z" data-name="Path 13465"/>
    </g>
</svg>
