<svg xmlns="http://www.w3.org/2000/svg" width="35.571" height="23.714" viewBox="0 0 35.571 23.714">
    <defs>
        <style>
            .cls-1{fill:#fff}.cls-2{fill:#f9f9f9}
        </style>
    </defs>
    <g id="AMAZON" transform="translate(-430 -155)">
        <path id="cloud" d="M30.221 19.6A10.153 10.153 0 0 0 20.207 10a10.45 10.45 0 0 0-8.268 4.155c-.044-.023-.091-.039-.136-.06a5.195 5.195 0 0 0-.358-.159c-.068-.027-.135-.051-.2-.075a5.393 5.393 0 0 0-.367-.113l-.2-.053a5.962 5.962 0 0 0-.407-.074c-.06-.009-.119-.021-.179-.027a5.32 5.32 0 0 0-5.934 5.3c0 .075 0 .149.009.224A8.2 8.2 0 0 0 0 26.1a7.624 7.624 0 0 0 7.615 7.616h14.53c.062 0 .123 0 .184-.008H22.445c.06 0 .121.008.183.008h5.812a7.139 7.139 0 0 0 7.131-7.131 7.3 7.3 0 0 0-5.35-6.985zM28.44 32.528h-5.811c-.035 0-.069 0-.1-.005l-.161-.007-.117.007c-.034 0-.068.005-.1.005H7.615a6.437 6.437 0 0 1-6.43-6.43A7.047 7.047 0 0 1 5 20.02l.336-.161v-.373c0-.075 0-.152.009-.229l.005-.095-.007-.124c0-.048-.007-.1-.007-.145a4.122 4.122 0 0 1 4.694-4.11l.138.021a4.041 4.041 0 0 1 .468.1l.063.016a4.038 4.038 0 0 1 .5.19c.042.019.083.04.124.06a4.175 4.175 0 0 1 .416.235c1.142.74 2.349.389 1.19-.59a9.391 9.391 0 0 1 7.283-3.634 8.95 8.95 0 0 1 8.8 8.234 11.324 11.324 0 0 0-2.421.074.593.593 0 0 0 .088 1.179.57.57 0 0 0 .09-.007 10.89 10.89 0 0 1 2.777 0 6.076 6.076 0 0 1 4.841 5.92 5.952 5.952 0 0 1-5.947 5.947z" class="cls-1" transform="translate(430 145)"/>
        <g id="Group_5142" data-name="Group 5142" transform="translate(108.422 -234.137)">
            <path id="Path_13132" d="M358.824 401.945c0 2.3-.026 4.595.015 6.891.013.741-.245.9-.954.941a6.225 6.225 0 0 1-3.7-.931.736.736 0 0 1-.445-.7c-.1-4.149-.1-8.3.009-12.446.006-.215-.037-.442.186-.6a6.232 6.232 0 0 1 4.577-.973c.437.055.307.533.308.842.008 2.331.004 4.651.004 6.976z" class="cls-2" data-name="Path 13132" transform="translate(-17.122)"/>
            <path id="Path_13133" d="M400.507 413.54c0 1.629-.009 3.258 0 4.886 0 .518-.121.672-.679.511-1.941-.559-1.584-.115-1.6-2-.026-2.567-.01-5.135 0-7.7 0-.639 1.577-1.519 2.109-1.18.253.161.165.448.166.683.008 1.598.004 3.199.004 4.8z" class="cls-2" data-name="Path 13133" transform="translate(-54.272 -11.611)"/>
            <path id="Path_13134" d="M334.3 414c0 1.576.009 3.151-.01 4.727 0 .231.181.7-.2.659-.363-.034-.924-.107-.928-.726v-2.239c0-2.267 0-4.534.005-6.8 0-.281-.139-.645.258-.789.252-.092.5-.377.752-.245.236.12.124.451.125.688-.002 1.577-.002 3.152-.002 4.725z" class="cls-2" data-name="Path 13134" transform="translate(0 -12.091)"/>
        </g>
    </g>
</svg>
