<svg xmlns="http://www.w3.org/2000/svg" width="46" height="27.51" viewBox="0 0 46 27.51">
    <defs>
        <style>
            .cls-1{fill:#fff}
        </style>
    </defs>
    <g id="Group_5399" data-name="Group 5399" transform="translate(-290 -194)">
        <path id="Path_13181" d="M2979.991 1214.778c-.061.374-.106.751-.186 1.121a10.145 10.145 0 0 1-2.1 4.5 6.156 6.156 0 0 1-.732.729.768.768 0 0 1-.333.177.259.259 0 0 1-.332-.319 1.328 1.328 0 0 1 .077-.241 30.129 30.129 0 0 0 1.223-3.5 5.883 5.883 0 0 0 .236-1.481.851.851 0 0 0-.729-.974 4.53 4.53 0 0 0-1.129-.157 25.023 25.023 0 0 0-3.871.24c-.12.015-.24.033-.36.041a.325.325 0 0 1-.349-.138.336.336 0 0 1 .081-.383 1.059 1.059 0 0 1 .245-.214 7.851 7.851 0 0 1 3.091-1.181 11.138 11.138 0 0 1 3.127-.107 6.094 6.094 0 0 1 1.466.317.732.732 0 0 1 .547.688.3.3 0 0 0 .03.082z" class="cls-1" data-name="Path 13181" transform="translate(-2643.991 -1001.696)"/>
        <path id="Path_13182" d="M2555.5 1495.867a.18.18 0 0 0 0-.026.215.215 0 0 1 .2-.069q.48-.007.96 0a.214.214 0 0 1 .2.069.128.128 0 0 0 0 .025z" class="cls-1" data-name="Path 13182" transform="translate(-2243.222 -1274.357)"/>
        <path id="Path_13183" d="M1966.007 1247.173h-1.353c-.518-.014-1.039-.008-1.555-.047a47.549 47.549 0 0 1-2.195-.223 32.443 32.443 0 0 1-3.74-.688 33.763 33.763 0 0 1-6.165-2.151 33.383 33.383 0 0 1-8.239-5.4 1.222 1.222 0 0 1-.321-.341.381.381 0 0 1 .025-.443.4.4 0 0 1 .423-.139 1.154 1.154 0 0 1 .33.145 44.415 44.415 0 0 0 9.182 3.963 45.924 45.924 0 0 0 5.866 1.38c1.323.221 2.653.391 3.993.489q.848.062 1.7.107c1.167.06 2.335.059 3.5.018a42.346 42.346 0 0 0 4.219-.378 46.618 46.618 0 0 0 7.2-1.568c1.339-.4 2.65-.888 3.948-1.405a2.859 2.859 0 0 1 .724-.249.764.764 0 0 1 .721.341.645.645 0 0 1-.138.76 8.137 8.137 0 0 1-1.253.909 24.35 24.35 0 0 1-2.346 1.355 33.082 33.082 0 0 1-7.555 2.691 35.689 35.689 0 0 1-4.3.715c-.894.086-1.778.151-2.671.159z" class="cls-1" data-name="Path 13183" transform="translate(-1652.381 -1025.689)"/>
        <path id="Path_13184" d="M2344.35 762.972l.961-4.078q.705-2.989 1.413-5.978c.157-.662.316-.781.99-.781.418 0 .836 0 1.253.006a.652.652 0 0 1 .741.576c.183.707.343 1.421.511 2.132q.952 4.03 1.9 8.059l.031.143c.069-.048.074-.128.093-.2l2.55-9.876c.185-.717.343-.841 1.086-.841h1.235c.306 0 .415.12.4.423a1.673 1.673 0 0 1-.086.444l-3.7 11.86c-.234.748-.363.844-1.15.843-.412 0-.823 0-1.235-.007a.638.638 0 0 1-.707-.548c-.169-.63-.313-1.266-.465-1.9l-1.927-8.016a1.108 1.108 0 0 0-.046-.118c-.171.714-.334 1.39-.5 2.066l-1.849 7.718c-.163.677-.321.794-1.018.794h-1.235a.7.7 0 0 1-.805-.582c-.235-.71-.447-1.429-.665-2.145q-1.511-4.964-3.019-9.929a3.1 3.1 0 0 1-.107-.477.334.334 0 0 1 .364-.423h1.653a.628.628 0 0 1 .637.443 15.333 15.333 0 0 1 .448 1.641q1.1 4.3 2.186 8.6c.02.048.038.086.062.151z" class="cls-1" data-name="Path 13184" transform="translate(-2034.596 -557.738)"/>
        <path id="Path_13185" d="M2006.511 754.192a5.192 5.192 0 0 1-.579-1.535 7.612 7.612 0 0 1-.084-1.1 311.65 311.65 0 0 1 0-4.431 10.362 10.362 0 0 0-.074-1.431 4.774 4.774 0 0 0-.8-2.173 3.955 3.955 0 0 0-2.62-1.543 9.721 9.721 0 0 0-4.733.274 8.019 8.019 0 0 0-1.476.594.7.7 0 0 0-.424.625c0 .339-.017.679 0 1.016s.182.44.5.348c.249-.072.489-.173.732-.264a8.161 8.161 0 0 1 4.152-.6 2.181 2.181 0 0 1 2.134 1.984 12.23 12.23 0 0 1 .094 2.118c0 .142-.1.076-.15.064a17.678 17.678 0 0 0-2.179-.369 7.745 7.745 0 0 0-3.144.238 4.192 4.192 0 0 0-2.683 2.248 4.385 4.385 0 0 0-.305 2.575 3.448 3.448 0 0 0 2.246 2.909 5.492 5.492 0 0 0 5.243-.7 6.215 6.215 0 0 0 1.139-1.056c.072.142.137.269.2.4a4.985 4.985 0 0 0 .758 1.146.638.638 0 0 0 .96.125q.441-.288.875-.583a.573.573 0 0 0 .218-.879zm-3.259-2.516a2.638 2.638 0 0 1-1.247 1.751 4.13 4.13 0 0 1-2.969.6 1.8 1.8 0 0 1-1.514-1.63 3.133 3.133 0 0 1 .052-1.206 2.081 2.081 0 0 1 1.627-1.51 5.982 5.982 0 0 1 1.7-.142 12.248 12.248 0 0 1 2.347.32c.07.016.123.026.124.12a8.619 8.619 0 0 1-.12 1.697z" class="cls-1" data-name="Path 13185" transform="translate(-1702.901 -547.785)"/>
        <path id="Path_13186" d="M2883.854 741.23a9.04 9.04 0 0 1 3.173.588 3.2 3.2 0 0 1 .327.156 1 1 0 0 1 .6 1.041c-.019.235.015.472-.019.707a.341.341 0 0 1-.47.326 4.5 4.5 0 0 1-.658-.253 7.1 7.1 0 0 0-4.006-.374 2.8 2.8 0 0 0-.6.208 1.576 1.576 0 0 0-.237 2.685 6.826 6.826 0 0 0 1.75.771c.882.291 1.787.517 2.645.879a3.639 3.639 0 0 1 2.042 1.855 3.891 3.891 0 0 1-1.071 4.494 5.4 5.4 0 0 1-2.641 1.158 9.608 9.608 0 0 1-5.092-.57 3.152 3.152 0 0 1-.561-.292.834.834 0 0 1-.4-.729 15.497 15.497 0 0 1 0-.835c.011-.38.212-.529.578-.406s.739.3 1.116.424a8.3 8.3 0 0 0 3.792.383 2.728 2.728 0 0 0 1.583-.693 1.635 1.635 0 0 0-.274-2.528 7.152 7.152 0 0 0-1.537-.632c-.884-.286-1.791-.5-2.648-.871a3.846 3.846 0 0 1-2.318-2.51 3.579 3.579 0 0 1 1.26-3.845 5.56 5.56 0 0 1 3.483-1.137z" class="cls-1" data-name="Path 13186" transform="translate(-2554.618 -547.229)"/>
    </g>
</svg>
