<svg xmlns="http://www.w3.org/2000/svg" width="15.733" height="15.386" viewBox="0 0 15.733 15.386">
    <path d="M4.379 1.247L3.251.118A8.225 8.225 0 0 0 0 6.312h1.578a6.664 6.664 0 0 1 2.801-5.065zm9.776 5.065h1.578A8.276 8.276 0 0 0 12.482.118l-1.12 1.128a6.7 6.7 0 0 1 2.793 5.066zm-1.554.395A4.807 4.807 0 0 0 9.05 1.72v-.536a1.184 1.184 0 1 0-2.367 0v.536a4.793 4.793 0 0 0-3.551 4.987v3.945L1.554 12.23v.789h12.625v-.789l-1.578-1.578zM7.87 15.386a1.382 1.382 0 0 0 .316-.032 1.6 1.6 0 0 0 1.136-.931 1.584 1.584 0 0 0 .118-.615H6.281a1.589 1.589 0 0 0 1.589 1.578z"/>
</svg>
