<svg xmlns="http://www.w3.org/2000/svg" id="calendar" width="241.637" height="233" viewBox="0 0 241.637 233">
    <defs>
        <style>
            .cls-1{fill:#253952}
        </style>
    </defs>
    <path id="Path_13262" d="M3.54 172.181a3.539 3.539 0 0 0 3.54-3.54V65.549h209.133v38.908a3.54 3.54 0 1 0 7.079 0V34.5a21.546 21.546 0 0 0-21.52-21.522h-9.282V8.6a8.607 8.607 0 0 0-8.6-8.6h-6.576a8.607 8.607 0 0 0-8.6 8.6v4.384h-23.47V8.6a8.607 8.607 0 0 0-8.6-8.6h-6.576a8.607 8.607 0 0 0-8.6 8.6v4.384H98V8.6A8.607 8.607 0 0 0 89.4 0h-6.577a8.607 8.607 0 0 0-8.6 8.6v4.384H50.749V8.6a8.607 8.607 0 0 0-8.6-8.6h-6.572a8.607 8.607 0 0 0-8.6 8.6v4.384h-5.455A21.546 21.546 0 0 0 0 34.5v134.142a3.539 3.539 0 0 0 3.54 3.539zM175.8 8.6a1.522 1.522 0 0 1 1.519-1.519h6.576a1.52 1.52 0 0 1 1.516 1.519v17.2a1.52 1.52 0 0 1-1.517 1.519h-6.576a1.52 1.52 0 0 1-1.519-1.519zm-47.246 0a1.52 1.52 0 0 1 1.517-1.519h6.576a1.522 1.522 0 0 1 1.517 1.519v17.2a1.522 1.522 0 0 1-1.519 1.519h-6.576a1.519 1.519 0 0 1-1.517-1.519zM81.3 8.6a1.522 1.522 0 0 1 1.519-1.519H89.4A1.522 1.522 0 0 1 90.918 8.6v17.2a1.522 1.522 0 0 1-1.518 1.514h-6.577a1.52 1.52 0 0 1-1.523-1.519zm-47.246 0a1.522 1.522 0 0 1 1.519-1.519h6.576A1.52 1.52 0 0 1 43.67 8.6v17.2a1.52 1.52 0 0 1-1.517 1.519h-6.576a1.52 1.52 0 0 1-1.519-1.519zM21.522 20.061h5.457v5.733a8.607 8.607 0 0 0 8.6 8.6h6.576a8.607 8.607 0 0 0 8.6-8.6v-5.733h23.472v5.733a8.607 8.607 0 0 0 8.6 8.6H89.4a8.607 8.607 0 0 0 8.6-8.6v-5.733h23.476v5.733a8.607 8.607 0 0 0 8.6 8.6h6.576a8.607 8.607 0 0 0 8.6-8.6v-5.733h23.476v5.733a8.607 8.607 0 0 0 8.6 8.6h6.576a8.607 8.607 0 0 0 8.6-8.6v-5.733h9.282A14.458 14.458 0 0 1 216.215 34.5v23.97H7.079V34.5a14.458 14.458 0 0 1 14.443-14.439zm0 0" class="cls-1" data-name="Path 13262"/>
    <path id="Path_13263" d="M40.073 407.878H9.209a2.131 2.131 0 0 1-2.129-2.129v-18.2a3.54 3.54 0 1 0-7.079 0v18.2a9.22 9.22 0 0 0 9.209 9.208h30.863a3.54 3.54 0 0 0 0-7.079zm0 0" class="cls-1" data-name="Path 13263" transform="translate(0 -202.778)"/>
    <path id="Path_13264" d="M66.933 160.762h-12.3a3.54 3.54 0 1 0 0 7.079h12.3a3.54 3.54 0 1 0 0-7.079zm0 0" class="cls-1" data-name="Path 13264" transform="translate(-26.978 -84.891)"/>
    <path id="Path_13265" d="M134.747 167.841h12.3a3.54 3.54 0 1 0 0-7.079h-12.3a3.54 3.54 0 1 0 0 7.079zm0 0" class="cls-1" data-name="Path 13265" transform="translate(-69.284 -84.891)"/>
    <path id="Path_13266" d="M214.864 167.841h12.3a3.54 3.54 0 0 0 0-7.079h-12.3a3.54 3.54 0 1 0 0 7.079zm0 0" class="cls-1" data-name="Path 13266" transform="translate(-111.59 -84.891)"/>
    <path id="Path_13267" d="M294.977 167.841h12.3a3.54 3.54 0 1 0 0-7.079h-12.3a3.54 3.54 0 1 0 0 7.079zm0 0" class="cls-1" data-name="Path 13267" transform="translate(-153.894 -84.891)"/>
    <path id="Path_13268" d="M387.4 160.762h-12.3a3.54 3.54 0 1 0 0 7.079h12.3a3.54 3.54 0 0 0 0-7.079zm0 0" class="cls-1" data-name="Path 13268" transform="translate(-196.2 -84.891)"/>
    <path id="Path_13269" d="M66.933 198.477h-12.3a3.54 3.54 0 0 0 0 7.079h12.3a3.54 3.54 0 0 0 0-7.079zm0 0" class="cls-1" data-name="Path 13269" transform="translate(-26.978 -104.806)"/>
    <path id="Path_13270" d="M134.747 205.556h12.3a3.54 3.54 0 0 0 0-7.079h-12.3a3.54 3.54 0 0 0 0 7.079zm0 0" class="cls-1" data-name="Path 13270" transform="translate(-69.284 -104.806)"/>
    <path id="Path_13271" d="M214.864 205.556h12.3a3.54 3.54 0 0 0 0-7.079h-12.3a3.54 3.54 0 0 0 0 7.079zm0 0" class="cls-1" data-name="Path 13271" transform="translate(-111.59 -104.806)"/>
    <path id="Path_13272" d="M294.977 205.556h12.3a3.54 3.54 0 1 0 0-7.079h-12.3a3.54 3.54 0 0 0 0 7.079zm0 0" class="cls-1" data-name="Path 13272" transform="translate(-153.894 -104.806)"/>
    <path id="Path_13273" d="M387.4 198.477h-12.3a3.54 3.54 0 1 0 0 7.079h12.3a3.54 3.54 0 0 0 0-7.079zm0 0" class="cls-1" data-name="Path 13273" transform="translate(-196.2 -104.806)"/>
    <path id="Path_13274" d="M134.33 298.7l18.2 18.2a13.94 13.94 0 0 0 19.711 0l49.84-49.84a13.939 13.939 0 0 0-19.713-19.713l-39.983 39.983-8.344-8.342A13.939 13.939 0 1 0 134.33 298.7zm5.005-14.708a6.867 6.867 0 0 1 9.7 0l10.846 10.846a3.538 3.538 0 0 0 5.005 0l42.486-42.484a6.859 6.859 0 1 1 9.7 9.7l-49.838 49.838a6.859 6.859 0 0 1-9.7 0l-18.2-18.2a6.866 6.866 0 0 1 .001-9.704zm0 0" class="cls-1" data-name="Path 13274" transform="translate(-68.781 -128.457)"/>
    <path id="Path_13275" d="M282.215 279.8v-28.249a3.54 3.54 0 1 0-7.079 0v23.73a46.952 46.952 0 0 0-64.452 60.782h-95.558a3.54 3.54 0 0 0 0 7.079h99.479a46.946 46.946 0 1 0 67.61-63.346zM253.6 356.884A39.881 39.881 0 1 1 293.481 317a39.925 39.925 0 0 1-39.881 39.884zm0 0" class="cls-1" data-name="Path 13275" transform="translate(-58.923 -130.963)"/>
    <path id="Path_13276" d="M373.6 320.527a34.767 34.767 0 1 0 34.766 34.767 34.808 34.808 0 0 0-34.766-34.767zm3.169 62.268a3.53 3.53 0 0 0 .371-1.569v-4.312a3.54 3.54 0 1 0-7.079 0v4.312a3.505 3.505 0 0 0 .371 1.569 27.73 27.73 0 0 1-24.332-24.331 3.5 3.5 0 0 0 1.569.371h4.31a3.54 3.54 0 1 0 0-7.079h-4.31a3.524 3.524 0 0 0-1.569.371 27.73 27.73 0 0 1 24.331-24.331 3.505 3.505 0 0 0-.371 1.569v4.312a3.54 3.54 0 0 0 7.079 0v-4.312a3.53 3.53 0 0 0-.371-1.569 27.73 27.73 0 0 1 24.332 24.33 3.53 3.53 0 0 0-1.569-.371h-4.312a3.54 3.54 0 1 0 0 7.079h4.312a3.505 3.505 0 0 0 1.569-.371 27.732 27.732 0 0 1-24.335 24.332zm0 0" class="cls-1" data-name="Path 13276" transform="translate(-178.919 -169.255)"/>
    <path id="Path_13277" d="M416.338 378.673h-4.262v-3.63a3.54 3.54 0 0 0-7.079 0v7.17a3.538 3.538 0 0 0 3.54 3.54h7.8a3.54 3.54 0 1 0 0-7.079zm0 0" class="cls-1" data-name="Path 13277" transform="translate(-213.859 -196.174)"/>
</svg>
