<svg xmlns="http://www.w3.org/2000/svg" id="Group_6119" width="8.438" height="8.438" data-name="Group 6119" viewBox="0 0 8.438 8.438">
    <defs>
        <style>
            .change-icon-cls-1{fill:#fff}
        </style>
    </defs>
    <path id="Path_13470" d="M3.349 282.134l.258-.417a.211.211 0 0 0-.36-.222l-.258.417a2.231 2.231 0 0 1-1.835 1.19H.21a.212.212 0 0 0 0 .424h.945a2.649 2.649 0 0 0 2.194-1.392z" class="change-icon-cls-1" data-name="Path 13470" transform="translate(0 -276.107)"/>
    <path id="Path_13471" d="M256.964 26.736l-1.023-1.024a.211.211 0 1 0-.3.3l.665.665h-.98a2.64 2.64 0 0 0-2.193 1.388l-.158.257a.21.21 0 0 0 .069.291.214.214 0 0 0 .11.031.211.211 0 0 0 .179-.1l.158-.257a2.229 2.229 0 0 1 1.835-1.188h.978l-.665.665a.211.211 0 0 0 .3.3l1.024-1.024a.211.211 0 0 0 .001-.304zm-.449.152v-.007z" class="change-icon-cls-1" data-name="Path 13471" transform="translate(-248.589 -25.65)"/>
    <path id="Path_13472" d="M7.052 92.494a.195.195 0 0 0 .3 0l1.024-1.163a.262.262 0 0 0 0-.338l-1.024-1.162a.193.193 0 0 0-.3 0 .262.262 0 0 0 0 .338l.665.755H6.77a2.228 2.228 0 0 1-1.835-1.351l-1.553-2.848a2.622 2.622 0 0 0-2.194-1.575H.21a.243.243 0 0 0 0 .481h.976a2.229 2.229 0 0 1 1.836 1.349l1.553 2.848A2.625 2.625 0 0 0 6.768 91.4h.949l-.665.755a.26.26 0 0 0 0 .339zm.873-1.335v-.008z" class="change-icon-cls-1" data-name="Path 13472" transform="translate(0 -84.126)"/>
</svg>
