<svg xmlns="http://www.w3.org/2000/svg" width="134.049" height="134.047" viewBox="0 0 134.049 134.047">
    <defs>
        <style>
            .cls-1{fill:#fff;font-size:10px;font-family:FiraMono-Regular,Fira Mono}.cls-2{fill:#0092ed}.cls-3{fill:#10cf53}
        </style>
    </defs>
    <g id="Group_5299" data-name="Group 5299" transform="translate(-239.11 -593.389)">
        <text id="Amount_Minus" class="cls-1" data-name="Amount Minus" transform="translate(307.235 649.496)">
            <tspan x="-15" y="0">7,000</tspan><tspan x="-27" y="12">Functions</tspan><tspan x="-24" y="24">Executed</tspan>
        </text>
        <text id="Amount_Minus-2" class="cls-1" data-name="Amount Minus" transform="translate(354.235 618.496)">
            <tspan x="-9" y="0">10K</tspan>
        </text>
        <g id="Group_5293" data-name="Group 5293" transform="translate(239.11 593.389)">
            <g id="Group_5291" data-name="Group 5291">
                <path id="Path_13291" d="M580.735 497.131a67.023 67.023 0 1 1 0-134.047 5.514 5.514 0 0 1 0 11.029 55.961 55.961 0 1 0 48.844 28.59 5.513 5.513 0 1 1 9.611-5.406 67.04 67.04 0 0 1-58.455 99.834z" class="cls-2" data-name="Path 13291" transform="translate(-513.71 -363.084)"/>
            </g>
            <g id="Group_5292" data-name="Group 5292" transform="translate(19.02 19.019)">
                <path id="Path_13292" d="M574.927 472.3a48 48 0 1 1 0-96.009 5.514 5.514 0 0 1 0 11.029 36.975 36.975 0 1 0 30.938 57.235 5.513 5.513 0 1 1 9.219 6.049 47.9 47.9 0 0 1-40.157 21.696z" class="cls-3" data-name="Path 13292" transform="translate(-526.922 -376.295)"/>
            </g>
        </g>
    </g>
</svg>
