<svg xmlns="http://www.w3.org/2000/svg" width="123" height="74.756" viewBox="0 0 123 74.756">
    <defs>
        <style>
            .cls-1{fill:#192e49}.cls-2{clip-path:url(#clip-path)}.cls-3{fill:none;stroke:#b90000}.cls-4{opacity:.535;fill:url(#linear-gradient)}
        </style>
        <clipPath id="clip-path">
            <rect id="Rectangle_2089" width="123" height="74.755" class="cls-1" data-name="Rectangle 2089" rx="2" transform="translate(13280 16549)"/>
        </clipPath>
        <linearGradient id="linear-gradient" x1=".513" x2=".516" y2="1.07" gradientUnits="objectBoundingBox">
            <stop offset="0" stop-color="#b22b2b" stop-opacity=".718"/>
            <stop offset=".315" stop-color="#b22b2b" stop-opacity=".263"/>
            <stop offset=".665" stop-color="#b22b2b" stop-opacity=".204"/>
            <stop offset="1" stop-color="#b22b2b" stop-opacity="0"/>
        </linearGradient>
    </defs>
    <g id="Mask_Group_13" class="cls-2" data-name="Mask Group 13" transform="translate(-13280 -16549)">
        <g id="Group_5297" data-name="Group 5297" transform="translate(13266.816 16573.412)">
            <path id="Path_13294" d="M12727.609 17075.018l11.786-18.045 12.813 18.158 14.783-23.355 12.444 20.229 27.586-30.48 22.259 22.514 14.6-13.641 18.5 18.762 8.065-9.672 8.436 12.561" class="cls-3" data-name="Path 13294" transform="translate(-12727.609 -17041.523)"/>
            <path id="Path_13295" d="M12879.168 17072.408l-8.859-12.516-8.056 9.672-18.485-18.762-14.586 13.641-22.095-22.3-27.7 30.264-12.432-20.227-15.05 23.24-12.52-18.043-11.775 18.043v23.621h151.559z" class="cls-4" data-name="Path 13295" transform="translate(-12727.609 -17041.93)"/>
        </g>
    </g>
</svg>
