<svg xmlns="http://www.w3.org/2000/svg" width="87.115" height="83.301" viewBox="0 0 87.115 83.301">
    <defs>
        <style>
            .cls-1{fill:#fba202}
        </style>
    </defs>
    <g id="check" transform="translate(0 -11.206)">
        <g id="Group_4992" data-name="Group 4992" transform="translate(0 11.206)">
            <g id="Group_4991" data-name="Group 4991">
                <path id="Path_13010" d="M79.782 45.813a3.519 3.519 0 0 0-3.519 3.519v3.544a34.612 34.612 0 0 1-34.612 34.593h-.02a34.613 34.613 0 0 1 .019-69.225h.02a34.4 34.4 0 0 1 14.068 3 3.519 3.519 0 0 0 2.862-6.432 41.387 41.387 0 0 0-16.928-3.606h-.022a41.651 41.651 0 0 0-29.468 71.085 41.379 41.379 0 0 0 29.445 12.216h.024A41.651 41.651 0 0 0 83.3 52.878v-3.546a3.519 3.519 0 0 0-3.518-3.519z" class="cls-1" data-name="Path 13010" transform="translate(0 -11.206)"/>
            </g>
        </g>
        <g id="Group_4994" data-name="Group 4994" transform="translate(26.692 15.041)">
            <g id="Group_4993" data-name="Group 4993">
                <path id="Path_13011" d="M216.271 34.777a3.519 3.519 0 0 0-4.977 0l-39.456 39.456-8.951-8.951a3.519 3.519 0 0 0-4.976 4.977l11.44 11.44a3.519 3.519 0 0 0 4.977 0l41.944-41.945a3.519 3.519 0 0 0-.001-4.977z" class="cls-1" data-name="Path 13011" transform="translate(-156.879 -33.746)"/>
            </g>
        </g>
    </g>
</svg>
