<svg xmlns="http://www.w3.org/2000/svg" width="9.93" height="9.925" viewBox="0 0 9.93 9.925">
    <defs>
        <style>
            .cls-1{fill:#efefef}
        </style>
    </defs>
    <g id="clock" transform="translate(0 -.168)">
        <g id="Group_5252" data-name="Group 5252" transform="translate(0 .168)">
            <path id="Path_13195" d="M9.534 3.2A4.865 4.865 0 0 0 6.89.564a4.88 4.88 0 0 0-1.933-.4 4.83 4.83 0 0 0-1.927.4A4.88 4.88 0 0 0 .391 3.2a4.961 4.961 0 0 0 0 3.86A4.891 4.891 0 0 0 3.03 9.7a4.83 4.83 0 0 0 1.927.4 4.882 4.882 0 0 0 1.933-.4 4.876 4.876 0 0 0 2.644-2.642 4.9 4.9 0 0 0 0-3.86zm-.793 4.118a4.356 4.356 0 0 1-1.6 1.591 4.276 4.276 0 0 1-2.184.591 4.2 4.2 0 0 1-1.694-.347 4.439 4.439 0 0 1-1.39-.928 4.413 4.413 0 0 1-.928-1.4 4.275 4.275 0 0 1-.345-1.7 4.268 4.268 0 0 1 .581-2.183 4.358 4.358 0 0 1 1.594-1.59A4.243 4.243 0 0 1 4.957.765a4.276 4.276 0 0 1 2.188.586 4.369 4.369 0 0 1 1.6 1.591 4.244 4.244 0 0 1 .586 2.183 4.284 4.284 0 0 1-.59 2.193z" class="cls-1" data-name="Path 13195" transform="translate(0 -.168)"/>
            <path id="Path_13196" d="M287.707 114.037v-2.812a.313.313 0 0 0-.315-.3.306.306 0 0 0-.3.3v2.856a.248.248 0 0 1 .011.043.284.284 0 0 0 .081.244l1.623 1.623a.309.309 0 0 0 .418 0 .293.293 0 0 0 0-.423z" class="cls-1" data-name="Path 13196" transform="translate(-282.435 -109.124)"/>
        </g>
    </g>
</svg>
