<svg xmlns="http://www.w3.org/2000/svg" width="36" height="36" viewBox="0 0 36 36">
    <g id="prefix__Group_14109" data-name="Group 14109" transform="translate(-546 19611)">
        <circle id="prefix__Ellipse_1747" cx="18" cy="18" r="18" data-name="Ellipse 1747" transform="translate(546 -19611)" style="fill:#9a43e9"/>
        <path id="prefix__Path_28374" d="M74.624 88.248a13.624 13.624 0 1 1 13.624-13.624 13.64 13.64 0 0 1-13.624 13.624z" data-name="Path 28374" transform="translate(489.262 -19667.738)" style="fill:#b45ce3"/>
        <path id="prefix__Path_28368" d="M21.751.075l-1.194 2.013-.95 1.712a21.087 21.087 0 0 0-4.769-.492 24.54 24.54 0 0 0-3.081.191q-.691.086-1.416.221c-.487.091-.985.2-1.489.331q-.537.137-1.084.308-.707.221-1.426.5-.256.1-.513.208c-.621.262-1.246.559-1.869.9q-.816.442-1.627.981A21.353 21.353 0 0 0 .022 8.725H0A23.068 23.068 0 0 1 4.4 4.67q.684-.483 1.378-.9A24.3 24.3 0 0 1 8.853 2.2 26.658 26.658 0 0 1 12.742.891q.5-.127.984-.231c.837-.18 1.637-.314 2.387-.412a26.323 26.323 0 0 1 5.638-.173z" data-name="Path 28368" transform="rotate(-3 -373903.964 -20352.573)" style="fill:#fff"/>
    </g>
</svg>
