<svg xmlns="http://www.w3.org/2000/svg" width="18" height="18" viewBox="0 0 18 18">
    <defs>
        <style>
            .database-cls-1{fill:#f0f0f0}.cls-2{fill:none}
        </style>
    </defs>
    <g id="Group_3479" data-name="Group 3479" transform="translate(-179 -73)">
        <g id="database_2_" data-name="database (2)" transform="translate(181 76)">
            <path id="Path_850" d="M11.909 7.7V2.053a.231.231 0 0 0-.032-.112C11.625.962 9.744 0 6.455 0S1.284.962 1.032 1.941A.231.231 0 0 0 1 2.053v8.439a.22.22 0 0 0 .026.1c.257 1.116 2.563 1.95 5.429 1.95a13.448 13.448 0 0 0 2-.147 2.74 2.74 0 0 0 1.707.6A2.906 2.906 0 0 0 13 10.035 3.008 3.008 0 0 0 11.909 7.7zm-.709-.422l-.092-.035q-.1-.038-.207-.067l-.1-.028a3.08 3.08 0 0 0-.217-.042c-.032-.005-.064-.012-.1-.016a2.78 2.78 0 0 0-.319-.02 2.68 2.68 0 0 0-.268.014l-.089.016a2.55 2.55 0 0 0-.175.028l-.1.022a3.123 3.123 0 0 0-.159.043l-.1.03a3.21 3.21 0 0 0-.163.062l-.078.032q-.108.049-.212.107l-.017.009a2.806 2.806 0 0 0-.227.144l-.024.018q-.095.068-.184.144l-.043.038q-.078.069-.152.144l-.044.046q-.07.075-.135.156l-.04.049a3.102 3.102 0 0 0-.126.175l-.03.044c-.047.074-.093.15-.134.229l-.009.019c-.036.071-.07.145-.1.22-.018.044-.033.089-.05.134s-.027.073-.039.11c-.017.053-.031.108-.046.162 0 .018-.01.034-.015.052q-.13.009-.261.016l-.174.009c-.175.006-.349.01-.524.01s-.357 0-.531-.01c-.105 0-.207-.011-.309-.017-.065 0-.132-.006-.2-.011-.136-.01-.268-.023-.4-.038l-.08-.008q-.225-.026-.437-.058h-.016a8.164 8.164 0 0 1-1.865-.494h-.011a4.749 4.749 0 0 1-.256-.117l-.031-.015a2.162 2.162 0 0 1-.2-.112l-.048-.029c-.056-.034-.107-.069-.156-.1l-.057-.042a1.09 1.09 0 0 1-.113-.1c-.02-.018-.04-.036-.058-.055s-.054-.059-.078-.088-.034-.043-.049-.065A.789.789 0 0 1 1.51 7.9a.75.75 0 0 1-.032-.069.586.586 0 0 1-.025-.081.52.52 0 0 1-.017-.111v-1.87l.012.011c.051.047.1.093.161.138A8.188 8.188 0 0 0 6.455 7.07a8.205 8.205 0 0 0 4.839-1.148c.063-.048.12-.1.174-.149h.005v1.633l-.036-.017a2.843 2.843 0 0 0-.237-.111zM1.567 3.147c.065.054.136.107.213.159l.05.032q.1.063.2.123l.08.044q.119.064.251.124l.042.02c.1.045.211.089.324.13l.1.034q.135.048.279.091l.1.032c.128.037.259.072.4.1l.059.013c.122.028.249.054.379.078l.134.024q.186.032.382.059l.1.014c.162.021.33.038.5.053l.13.01q.207.016.424.026l.159.007c.188.007.38.011.578.011s.39 0 .578-.011l.159-.007q.217-.01.424-.026l.13-.01c.173-.015.341-.033.5-.053l.1-.014q.2-.027.382-.059l.134-.024c.13-.024.257-.05.379-.078L9.3 4.04c.138-.032.27-.068.4-.1l.1-.04q.144-.044.279-.091l.1-.034c.113-.042.222-.085.324-.13l.042-.02q.132-.06.251-.124l.08-.044q.107-.06.2-.123l.05-.032c.077-.052.147-.1.213-.159l.047-.041c.028-.025.058-.049.084-.074V4.9a.513.513 0 0 1-.017.112.6.6 0 0 1-.024.08.722.722 0 0 1-.032.07.843.843 0 0 1-.049.081 1.57 1.57 0 0 1-.127.153c-.028.029-.039.038-.059.056s-.071.063-.112.095l-.059.043c-.048.035-.1.07-.154.1l-.05.03c-.064.038-.13.075-.2.111l-.033.016c-.081.04-.165.079-.254.116l-.013.005a8.172 8.172 0 0 1-1.864.494h-.016q-.213.032-.437.058l-.08.008c-.131.014-.263.027-.4.038-.064 0-.131.007-.2.011-.1.006-.2.013-.309.017-.174.006-.351.01-.531.01s-.357 0-.531-.01c-.105 0-.207-.011-.309-.017-.065 0-.132-.006-.2-.011-.136-.01-.268-.023-.4-.038l-.08-.008q-.214-.02-.43-.048h-.016a8.164 8.164 0 0 1-1.865-.494h-.011a4.749 4.749 0 0 1-.256-.117l-.031-.015a2.162 2.162 0 0 1-.2-.112L2.072 5.7c-.056-.034-.107-.069-.156-.1l-.057-.042a1.09 1.09 0 0 1-.113-.1c-.02-.018-.04-.036-.058-.055s-.054-.059-.078-.088-.034-.043-.049-.065a.79.79 0 0 1-.05-.083.75.75 0 0 1-.033-.067.586.586 0 0 1-.025-.081.52.52 0 0 1-.017-.119V3.032c.026.025.056.049.084.074zM6.455.456c2.957 0 5.018.9 5.018 1.711s-2.061 1.71-5.018 1.71-5.018-.9-5.018-1.711S3.5.456 6.455.456zm0 11.632c-2.844 0-4.887-.845-5.011-1.633a.22.22 0 0 0-.007-.03v-1.92l.012.011c.051.047.1.093.161.138a8.188 8.188 0 0 0 4.845 1.153c.174 0 .348 0 .522-.011l.156-.007c.069 0 .137-.005.206-.01q-.011.13-.011.256c0 .1.005.193.014.289 0 .031.008.061.012.091.008.064.016.128.028.192.006.034.015.066.022.1.013.06.027.119.044.177l.029.094a2.828 2.828 0 0 0 .096.259q.038.089.081.175l.038.073q.047.087.1.17l.042.066c.036.055.074.107.114.159l.05.064.04.052a13.425 13.425 0 0 1-1.583.092zm3.709.456a2.328 2.328 0 0 1-1.519-.568q-.1-.082-.182-.173c-.024-.025-.045-.052-.067-.078l-.1-.115c-.034-.04-.05-.069-.074-.1s-.048-.069-.07-.105l-.067-.114a2.602 2.602 0 0 1-.161-.354l-.041-.115c-.013-.039-.027-.1-.039-.144s-.019-.071-.026-.107a2.493 2.493 0 0 1-.028-.173c0-.029-.01-.058-.013-.088a2.635 2.635 0 0 1-.014-.27c0-.078 0-.155.011-.232s.017-.151.031-.229a2.67 2.67 0 0 1 .04-.182c0-.017.008-.033.012-.05a3.199 3.199 0 0 1 .123-.348c.017-.04.03-.068.047-.1l.049-.095c.017-.032.045-.079.069-.118s.029-.048.045-.071c.031-.046.063-.091.1-.135l.034-.045q.068-.086.143-.165a2.464 2.464 0 0 1 .346-.3l.044-.029c.046-.031.093-.062.142-.09l.067-.037c.042-.023.085-.045.128-.065l.081-.035c.041-.017.084-.033.126-.048l.087-.029c.043-.013.087-.024.131-.035l.088-.021c.048-.01.1-.017.147-.024.026 0 .051-.008.077-.011.076-.007.153-.012.231-.012s.148 0 .22.012l.068.008c.051.006.1.015.151.024l.073.015c.053.012.106.027.157.042l.052.015a2.51 2.51 0 0 1 .375.163c.033.017.065.036.1.055l.08.051c.033.022.066.043.1.067a2.541 2.541 0 0 1 1.029 2.056 2.459 2.459 0 0 1-2.403 2.502z" class="database-cls-1" data-name="Path 850"/>
            <path id="Path_851" d="M38.965 38.368h-1.14v-1.14a.228.228 0 1 0-.456 0v1.14h-1.14a.228.228 0 1 0 0 .456h1.14v1.14a.228.228 0 0 0 .456 0v-1.14h1.14a.228.228 0 1 0 0-.456z" class="database-cls-1" data-name="Path 851" transform="translate(-27.561 -28.561)"/>
        </g>
    </g>
</svg>
