<svg xmlns="http://www.w3.org/2000/svg" width="29.376" height="29.376" viewBox="0 0 29.376 29.376">
    <defs>
        <style>
            .cls-1{fill:#fefefe}
        </style>
    </defs>
    <path id="database_3_" d="M17.136 0C11.676 0 7.065 1.267 5.491 3.17 2.286 3.954.433 5.275.071 6.614a.48.48 0 0 0-.071.24V24.97a.46.46 0 0 0 .057.221c.578 2.4 5.751 4.186 12.183 4.186 5.5 0 10.075-1.312 11.646-3.191 3.113-.757 5.075-2 5.43-3.427a.485.485 0 0 0 .061-.236V4.651C29.376 2.4 25.086 0 17.136 0zm6.269 19.265a1.407 1.407 0 0 1-.07.145 1.659 1.659 0 0 1-.113.181 2.597 2.597 0 0 1-.285.328c-.04.039-.083.077-.127.116-.08.07-.164.14-.258.209-.04.03-.083.059-.126.088a6.182 6.182 0 0 1-.353.227c-.033.02-.069.039-.1.059-.146.082-.3.164-.463.243l-.065.03c-.184.087-.376.172-.581.254l-.018.007a18.98 18.98 0 0 1-4.191 1.062h-.025q-.483.071-.992.127l-.169.016c-.3.031-.6.059-.9.082-.141.01-.289.015-.432.024-.232.014-.462.029-.7.037a33.178 33.178 0 0 1-2.381-.002c-.238-.008-.468-.024-.7-.037-.143-.008-.291-.014-.432-.024a28.901 28.901 0 0 1-.9-.082l-.169-.016q-.509-.056-.992-.127h-.025a18.98 18.98 0 0 1-4.191-1.062l-.018-.007a9.44 9.44 0 0 1-.581-.254l-.065-.03a7.933 7.933 0 0 1-.463-.243c-.034-.02-.071-.039-.1-.059a5.253 5.253 0 0 1-.353-.227c-.042-.029-.086-.058-.126-.088a4.101 4.101 0 0 1-.258-.209c-.044-.038-.088-.076-.127-.116a2.556 2.556 0 0 1-.178-.192 1.872 1.872 0 0 1-.107-.136 1.825 1.825 0 0 1-.113-.181 1.515 1.515 0 0 1-.07-.145 1.186 1.186 0 0 1-.057-.178 1.059 1.059 0 0 1-.038-.236 1.045 1.045 0 0 1 .015-.165.488.488 0 0 0-.015-.218v-3.635l.045.038c.107.094.215.188.338.278 1.844 1.395 5.532 2.479 10.878 2.479 5.323 0 9-1.075 10.854-2.462a4.984 4.984 0 0 0 .406-.332v3.635a.488.488 0 0 0-.015.218 1.045 1.045 0 0 1 .015.165 1.059 1.059 0 0 1-.039.237 1.246 1.246 0 0 1-.07.178zM1.273 9.2c.147.116.306.23.477.341l.113.069q.216.134.456.263l.18.094q.268.137.564.265l.094.043c.23.1.473.19.727.281.07.025.143.048.215.073q.3.1.626.2c.078.023.154.046.234.068.286.079.582.155.893.224.043.01.089.018.132.027.274.06.558.115.849.167l.3.051q.416.068.857.125c.075.01.147.021.224.03.364.044.741.082 1.129.114l.292.021q.465.034.951.056l.356.015c.423.014.852.024 1.3.024s.875-.01 1.3-.024l.356-.015q.486-.022.951-.056c.1-.007.2-.013.292-.021.387-.032.764-.07 1.129-.114.076-.009.148-.021.224-.03q.44-.057.857-.125l.3-.051c.292-.052.576-.107.849-.167l.132-.027c.31-.07.606-.145.893-.224.08-.022.156-.045.234-.068q.324-.095.626-.2c.072-.024.145-.048.215-.073.254-.09.5-.183.727-.281l.094-.043q.3-.129.564-.265l.18-.094q.24-.129.456-.263l.113-.069a6.16 6.16 0 0 0 .477-.341c.037-.029.07-.059.105-.088.064-.053.131-.105.189-.159v3.635a.488.488 0 0 0-.015.218 1.045 1.045 0 0 1 .015.165 1.059 1.059 0 0 1-.039.237 1.2 1.2 0 0 1-.057.178 1.407 1.407 0 0 1-.07.145 1.66 1.66 0 0 1-.113.181 2.597 2.597 0 0 1-.285.328c-.04.039-.083.077-.127.116-.08.07-.164.14-.258.209-.04.03-.083.059-.126.088a6.182 6.182 0 0 1-.353.227c-.033.02-.069.039-.1.059-.146.082-.3.164-.463.243l-.065.03c-.184.087-.376.172-.581.254l-.018.007a18.98 18.98 0 0 1-4.191 1.062h-.025q-.483.071-.992.127l-.169.016c-.3.031-.6.059-.9.082-.141.01-.289.015-.432.024-.232.014-.462.029-.7.037a33.178 33.178 0 0 1-2.381-.002c-.238-.008-.468-.024-.7-.037-.143-.008-.291-.014-.432-.024a28.901 28.901 0 0 1-.9-.082l-.169-.016q-.509-.056-.992-.127h-.025a18.98 18.98 0 0 1-4.191-1.062l-.018-.007a9.44 9.44 0 0 1-.581-.254l-.065-.03a7.933 7.933 0 0 1-.463-.243c-.034-.02-.071-.039-.1-.059a5.253 5.253 0 0 1-.353-.227c-.042-.029-.086-.058-.126-.088a4.101 4.101 0 0 1-.258-.209c-.044-.038-.088-.076-.127-.116a2.555 2.555 0 0 1-.178-.192 1.872 1.872 0 0 1-.107-.136 1.825 1.825 0 0 1-.113-.181 1.515 1.515 0 0 1-.07-.145 1.186 1.186 0 0 1-.057-.178 1.059 1.059 0 0 1-.038-.236 1.045 1.045 0 0 1 .015-.165.488.488 0 0 0-.015-.218V8.956c.059.053.126.106.189.159a.283.283 0 0 0 .087.085zm23.207 9.938v-4.855l.062-.018q.294-.082.572-.169h.006a8.963 8.963 0 0 0 3.28-1.681V16.4a1.016 1.016 0 0 1-.017.171 1.142 1.142 0 0 1-.035.141c0 .014-.007.027-.012.042a1.3 1.3 0 0 1-.065.154l-.009.019c-.405.791-1.7 1.568-3.559 2.144zM28.4 6.535v3.992a1.016 1.016 0 0 1-.017.171 1.142 1.142 0 0 1-.035.141c0 .014-.007.027-.012.042a1.3 1.3 0 0 1-.065.154l-.009.019c-.405.791-1.7 1.568-3.559 2.144l-.218.066V8.407l.119-.035c.113-.032.222-.065.331-.1a14.998 14.998 0 0 0 .602-.196c.081-.028.164-.056.242-.085.113-.042.221-.085.33-.128.067-.027.137-.053.2-.08.125-.053.245-.107.363-.163l.129-.058q.238-.115.456-.235L27.3 7.3c.128-.071.251-.144.368-.219.041-.026.078-.053.118-.08.086-.057.171-.115.251-.174.044-.032.083-.066.124-.1.069-.055.138-.11.2-.165l.039-.027zM17.136.979C23.773.979 28.4 2.914 28.4 4.651a1.017 1.017 0 0 1-.02.2c0 .022-.012.043-.018.064a1.217 1.217 0 0 1-.039.132c-.01.025-.023.051-.034.076s-.036.079-.058.119-.033.054-.05.081-.049.076-.077.114-.044.055-.066.082-.062.074-.1.111-.053.055-.08.082a2.773 2.773 0 0 1-.21.19 4.344 4.344 0 0 1-.397.293l-.118.077a5.852 5.852 0 0 1-.176.106l-.126.073c-.065.036-.133.071-.2.107-.044.023-.086.046-.131.068-.075.037-.154.073-.233.11l-.128.059c-.1.046-.212.092-.323.136l-.064.027c-.134.053-.273.106-.416.157l-.122.042c-.1.036-.21.072-.319.108-.057.019-.117.036-.175.054l-.238.072v-.537a.45.45 0 0 0-.032-.154.436.436 0 0 0-.023-.056.041.041 0 0 0 0-.007 3.042 3.042 0 0 0-1.173-1.605l-.01-.008a3.728 3.728 0 0 0-.286-.2c-1.737-1.229-4.933-2.193-9.466-2.343a34.15 34.15 0 0 0-2.494 0 30.688 30.688 0 0 0-3.37.291A21.737 21.737 0 0 1 17.136.979zM6.606 3.947c.123-.024.251-.046.377-.069a21.98 21.98 0 0 1 1.437-.22c.144-.018.287-.037.433-.052q.44-.048.9-.083c.116-.009.234-.015.351-.023.237-.016.476-.029.72-.04l.346-.014a34.04 34.04 0 0 1 1.069-.019q.607 0 1.191.022c.235.008.462.024.691.037.147.008.3.014.442.024.3.022.6.05.892.08.06.006.123.01.183.017q.5.054.969.124l.049.006a19.014 19.014 0 0 1 4.174 1.056l.038.015c.2.08.385.163.563.246l.083.038c.159.077.306.156.447.235.039.022.08.044.118.067.122.072.234.145.341.219.047.032.094.064.137.1.09.067.171.134.248.2.047.041.093.081.135.122a2.668 2.668 0 0 1 .284.327 1.677 1.677 0 0 1 .11.176 1.42 1.42 0 0 1 .071.149 1.211 1.211 0 0 1 .056.175 1.049 1.049 0 0 1 .039.238c0 1.737-4.624 3.672-11.261 3.672S.979 8.836.979 7.1c0-1.186 2.154-2.461 5.627-3.153zM12.24 28.4c-6.382 0-10.968-1.816-11.245-3.51a.454.454 0 0 0-.016-.064v-4.119l.045.038c.107.094.215.188.338.278C3.206 22.417 6.895 23.5 12.24 23.5c5.323 0 9-1.075 10.854-2.462a4.984 4.984 0 0 0 .406-.332v4.118a.5.5 0 0 0-.016.066 1.188 1.188 0 0 1-.1.3c-.018.039-.045.077-.067.116C22.436 26.868 18.1 28.4 12.24 28.4zm16.141-5.955c-.155.95-1.623 1.905-3.9 2.573v-4.86l.062-.018q.294-.082.572-.169h.006A8.963 8.963 0 0 0 28.4 18.29v4.086a.475.475 0 0 0-.019.066z" class="cls-1" data-name="database (3)"/>
</svg>
