<svg xmlns="http://www.w3.org/2000/svg" width="340.088" height="322.984" viewBox="0 0 340.088 322.984">
    <defs>
        <style>
            .prefix__cls-2{fill:#09192e}.prefix__cls-3{fill:#c2deed;opacity:.073}.prefix__cls-6{fill:#4a6570}.prefix__cls-7{fill:#729cad}.prefix__cls-8{fill:#ffbe9d}.prefix__cls-10{fill:#fff}.prefix__cls-11{fill:#c1d8e0}.prefix__cls-12{fill:#48b59d}.prefix__cls-13{fill:#3c464f}.prefix__cls-15{fill:#b45ce3}.prefix__cls-16{fill:#9532c9}.prefix__cls-21{fill:#2f2f2f}.prefix__cls-22{fill:#feacac}.prefix__cls-23{fill:#fd7777}
        </style>
    </defs>
    <g id="prefix__Group_14120" data-name="Group 14120" transform="translate(-1325.909 -131.994)">
        <g id="prefix__Group_14118" data-name="Group 14118" transform="translate(403.909 -128.006)">
            <g id="prefix__Group_14117" data-name="Group 14117" transform="translate(922 260)">
                <path id="prefix__Path_24775" d="M354.094 125.36c19.465 33.592 17.784 79.3 3.857 114.55-38.452 97.33-162.172 103.1-242.424 58.064-19.065-10.7-36.479-24.518-50.468-41.374-24.4-29.394-37.3-68.881-31.591-106.651 8.925-59.083 69.742-110.471 130.611-87.508 13.3 5.016 25.141 13.62 38.818 17.475 20.992 5.916 43.213-.033 64.906-2.3 29.7-3.109 58.1 11.533 76.827 34.162a99.6 99.6 0 0 1 9.464 13.582z" data-name="Path 24775" transform="translate(-32.128 -49.16)" style="fill:#0b233f"/>
                <g id="prefix__Group_14032" data-name="Group 14032" transform="translate(74.734 26.048)">
                    <g id="prefix__Group_13995" data-name="Group 13995" transform="translate(7.821 7.821)">
                        <circle id="prefix__Ellipse_4" cx="12.501" cy="12.501" r="12.501" class="prefix__cls-2" data-name="Ellipse 4" transform="rotate(-76.809 15.353 12.17)"/>
                    </g>
                    <g id="prefix__Group_13998" data-name="Group 13998" transform="translate(20.098)">
                        <g id="prefix__Group_13996" data-name="Group 13996" transform="translate(2.409 2.746)">
                            <path id="prefix__Rectangle_2684" d="M0 0H0.674V20.098H0z" class="prefix__cls-2" data-name="Rectangle 2684"/>
                        </g>
                        <g id="prefix__Group_13997" data-name="Group 13997">
                            <path id="prefix__Path_24776" d="M157.79 82.86a2.746 2.746 0 1 1-2.746-2.746 2.746 2.746 0 0 1 2.746 2.746z" class="prefix__cls-2" data-name="Path 24776" transform="translate(-152.297 -80.114)"/>
                        </g>
                    </g>
                    <g id="prefix__Group_14001" data-name="Group 14001" transform="translate(10.048 2.692)">
                        <g id="prefix__Group_13999" data-name="Group 13999" transform="translate(2.455 2.578)">
                            <path id="prefix__Rectangle_2685" d="M0 0H0.674V20.098H0z" class="prefix__cls-2" data-name="Rectangle 2685" transform="rotate(-30 .629 .168)"/>
                        </g>
                        <g id="prefix__Group_14000" data-name="Group 14000">
                            <path id="prefix__Path_24777" d="M144.687 84.9a2.746 2.746 0 1 1-3.751-1.005 2.746 2.746 0 0 1 3.751 1.005z" class="prefix__cls-2" data-name="Path 24777" transform="translate(-139.562 -83.525)"/>
                        </g>
                    </g>
                    <g id="prefix__Group_14004" data-name="Group 14004" transform="translate(2.692 10.049)">
                        <g id="prefix__Group_14002" data-name="Group 14002" transform="translate(2.578 2.455)">
                            <path id="prefix__Rectangle_2686" d="M0 0H0.674V20.098H0z" class="prefix__cls-2" data-name="Rectangle 2686" transform="rotate(-60 .506 .292)"/>
                        </g>
                        <g id="prefix__Group_14003" data-name="Group 14003">
                            <path id="prefix__Path_24778" d="M134.36 93.216a2.746 2.746 0 1 1-3.752 1.005 2.747 2.747 0 0 1 3.752-1.005z" class="prefix__cls-2" data-name="Path 24778" transform="translate(-130.24 -92.847)"/>
                        </g>
                    </g>
                    <g id="prefix__Group_14007" data-name="Group 14007" transform="translate(0 20.098)">
                        <g id="prefix__Group_14005" data-name="Group 14005" transform="translate(2.746 2.409)">
                            <path id="prefix__Rectangle_2687" d="M0 0H20.098V0.674H0z" class="prefix__cls-2" data-name="Rectangle 2687"/>
                        </g>
                        <g id="prefix__Group_14006" data-name="Group 14006">
                            <path id="prefix__Path_24779" d="M129.575 105.582a2.746 2.746 0 1 1-2.746 2.746 2.746 2.746 0 0 1 2.746-2.746z" class="prefix__cls-2" data-name="Path 24779" transform="translate(-126.829 -105.582)"/>
                        </g>
                    </g>
                    <g id="prefix__Group_14010" data-name="Group 14010" transform="translate(2.692 22.554)">
                        <g id="prefix__Group_14008" data-name="Group 14008" transform="translate(2.578)">
                            <path id="prefix__Rectangle_2688" d="M0 0H20.098V0.674H0z" class="prefix__cls-2" data-name="Rectangle 2688" transform="rotate(-29.994 18.752 5.024)"/>
                        </g>
                        <g id="prefix__Group_14009" data-name="Group 14009" transform="translate(0 7.593)">
                            <path id="prefix__Path_24780" d="M131.614 118.684a2.746 2.746 0 1 1-1.005 3.752 2.747 2.747 0 0 1 1.005-3.752z" class="prefix__cls-2" data-name="Path 24780" transform="translate(-130.24 -118.315)"/>
                        </g>
                    </g>
                    <g id="prefix__Group_14013" data-name="Group 14013" transform="translate(10.048 22.676)">
                        <g id="prefix__Group_14011" data-name="Group 14011" transform="translate(2.455)">
                            <path id="prefix__Rectangle_2689" d="M0 0H20.098V0.674H0z" class="prefix__cls-2" data-name="Rectangle 2689" transform="rotate(-60 15.073 8.703)"/>
                        </g>
                        <g id="prefix__Group_14012" data-name="Group 14012" transform="translate(0 14.827)">
                            <path id="prefix__Path_24781" d="M139.931 129.011a2.746 2.746 0 1 1 1.005 3.752 2.747 2.747 0 0 1-1.005-3.752z" class="prefix__cls-2" data-name="Path 24781" transform="translate(-139.562 -127.637)"/>
                        </g>
                    </g>
                    <g id="prefix__Group_14016" data-name="Group 14016" transform="translate(20.098 22.845)">
                        <g id="prefix__Group_14014" data-name="Group 14014" transform="translate(2.409)">
                            <path id="prefix__Rectangle_2690" d="M0 0H0.674V20.098H0z" class="prefix__cls-2" data-name="Rectangle 2690"/>
                        </g>
                        <g id="prefix__Group_14015" data-name="Group 14015" transform="translate(0 17.352)">
                            <circle id="prefix__Ellipse_5" cx="2.746" cy="2.746" r="2.746" class="prefix__cls-2" data-name="Ellipse 5"/>
                        </g>
                    </g>
                    <g id="prefix__Group_14019" data-name="Group 14019" transform="translate(22.552 22.676)">
                        <g id="prefix__Group_14017" data-name="Group 14017">
                            <path id="prefix__Rectangle_2691" d="M0 0H0.674V20.098H0z" class="prefix__cls-2" data-name="Rectangle 2691" transform="rotate(-30 .629 .169)"/>
                        </g>
                        <g id="prefix__Group_14018" data-name="Group 14018" transform="translate(7.594 14.827)">
                            <path id="prefix__Path_24782" d="M165.4 131.757a2.746 2.746 0 1 1 3.752 1.005 2.746 2.746 0 0 1-3.752-1.005z" class="prefix__cls-2" data-name="Path 24782" transform="translate(-165.03 -127.637)"/>
                        </g>
                    </g>
                    <g id="prefix__Group_14022" data-name="Group 14022" transform="translate(22.676 22.553)">
                        <g id="prefix__Group_14020" data-name="Group 14020">
                            <path id="prefix__Rectangle_2692" d="M0 0H0.674V20.098H0z" class="prefix__cls-2" data-name="Rectangle 2692" transform="rotate(-60 .506 .292)"/>
                        </g>
                        <g id="prefix__Group_14021" data-name="Group 14021" transform="translate(14.827 7.594)">
                            <path id="prefix__Path_24783" d="M175.726 123.441a2.746 2.746 0 1 1 3.752-1.005 2.746 2.746 0 0 1-3.752 1.005z" class="prefix__cls-2" data-name="Path 24783" transform="translate(-174.352 -118.315)"/>
                        </g>
                    </g>
                    <g id="prefix__Group_14025" data-name="Group 14025" transform="translate(22.844 20.098)">
                        <g id="prefix__Group_14023" data-name="Group 14023" transform="translate(0 2.409)">
                            <path id="prefix__Rectangle_2693" d="M0 0H20.098V0.674H0z" class="prefix__cls-2" data-name="Rectangle 2693"/>
                        </g>
                        <g id="prefix__Group_14024" data-name="Group 14024" transform="translate(17.352)">
                            <circle id="prefix__Ellipse_6" cx="2.746" cy="2.746" r="2.746" class="prefix__cls-2" data-name="Ellipse 6"/>
                        </g>
                    </g>
                    <g id="prefix__Group_14028" data-name="Group 14028" transform="translate(22.676 10.049)">
                        <g id="prefix__Group_14026" data-name="Group 14026" transform="translate(0 2.455)">
                            <path id="prefix__Rectangle_2694" d="M0 0H20.098V0.674H0z" class="prefix__cls-2" data-name="Rectangle 2694" transform="rotate(-30 18.752 5.024)"/>
                        </g>
                        <g id="prefix__Group_14027" data-name="Group 14027" transform="translate(14.827)">
                            <path id="prefix__Path_24784" d="M178.472 97.973a2.746 2.746 0 1 1 1.005-3.752 2.746 2.746 0 0 1-1.005 3.752z" class="prefix__cls-2" data-name="Path 24784" transform="translate(-174.352 -92.847)"/>
                        </g>
                    </g>
                    <g id="prefix__Group_14031" data-name="Group 14031" transform="translate(22.553 2.692)">
                        <g id="prefix__Group_14029" data-name="Group 14029" transform="translate(0 2.578)">
                            <path id="prefix__Rectangle_2695" d="M0 0H20.098V0.674H0z" class="prefix__cls-2" data-name="Rectangle 2695" transform="rotate(-60.006 15.073 8.704)"/>
                        </g>
                        <g id="prefix__Group_14030" data-name="Group 14030" transform="translate(7.594)">
                            <path id="prefix__Path_24785" d="M170.156 87.645a2.746 2.746 0 1 1-1.005-3.752 2.746 2.746 0 0 1 1.005 3.752z" class="prefix__cls-2" data-name="Path 24785" transform="translate(-165.03 -83.525)"/>
                        </g>
                    </g>
                </g>
                <g id="prefix__Group_14070" data-name="Group 14070" transform="translate(312.87 177.328)">
                    <g id="prefix__Group_14033" data-name="Group 14033" transform="translate(6.071 6.071)">
                        <path id="prefix__Path_24786" d="M450.874 289.7a7.535 7.535 0 1 1-4.4-9.707 7.535 7.535 0 0 1 4.4 9.707z" class="prefix__cls-2" data-name="Path 24786" transform="translate(-436.284 -279.506)"/>
                    </g>
                    <g id="prefix__Group_14036" data-name="Group 14036" transform="translate(13.418 .614)">
                        <g id="prefix__Group_14034" data-name="Group 14034" transform="translate(0 1.585)">
                            <path id="prefix__Rectangle_2696" d="M0 0H12.115V0.406H0z" class="prefix__cls-2" data-name="Rectangle 2696" transform="rotate(-69.376 8.191 5.67)"/>
                        </g>
                        <g id="prefix__Group_14035" data-name="Group 14035" transform="translate(2.801)">
                            <path id="prefix__Path_24787" d="M452.349 274.829a1.655 1.655 0 1 1-.967-2.132 1.656 1.656 0 0 1 .967 2.132z" class="prefix__cls-2" data-name="Path 24787" transform="translate(-449.143 -272.59)"/>
                        </g>
                    </g>
                    <g id="prefix__Group_14039" data-name="Group 14039" transform="translate(9.978)">
                        <g id="prefix__Group_14037" data-name="Group 14037" transform="translate(1.455 1.622)">
                            <path id="prefix__Rectangle_2697" d="M0 0H0.407V12.116H0z" class="prefix__cls-2" data-name="Rectangle 2697" transform="rotate(-9.382 .402 .033)"/>
                        </g>
                        <g id="prefix__Group_14038" data-name="Group 14038">
                            <path id="prefix__Path_24788" d="M444.523 273.2a1.655 1.655 0 1 1-1.9-1.363 1.655 1.655 0 0 1 1.9 1.363z" class="prefix__cls-2" data-name="Path 24788" transform="translate(-441.235 -271.813)"/>
                        </g>
                    </g>
                    <g id="prefix__Group_14042" data-name="Group 14042" transform="translate(4.266 2.589)">
                        <g id="prefix__Group_14040" data-name="Group 14040" transform="translate(1.498 1.527)">
                            <path id="prefix__Rectangle_2698" d="M0 0H0.406V12.115H0z" class="prefix__cls-2" data-name="Rectangle 2698" transform="rotate(-39.382 .36 .129)"/>
                        </g>
                        <g id="prefix__Group_14041" data-name="Group 14041">
                            <path id="prefix__Path_24789" d="M436.932 275.7a1.656 1.656 0 1 1-2.33-.23 1.655 1.655 0 0 1 2.33.23z" class="prefix__cls-2" data-name="Path 24789" transform="translate(-433.997 -275.093)"/>
                        </g>
                    </g>
                    <g id="prefix__Group_14045" data-name="Group 14045" transform="translate(.614 7.687)">
                        <g id="prefix__Group_14043" data-name="Group 14043" transform="translate(1.584 1.466)">
                            <path id="prefix__Rectangle_2699" d="M0 0H0.406V12.115H0z" class="prefix__cls-2" data-name="Rectangle 2699" transform="rotate(-69.39 .274 .19)"/>
                        </g>
                        <g id="prefix__Group_14044" data-name="Group 14044">
                            <path id="prefix__Path_24790" d="M431.607 281.66a1.655 1.655 0 1 1-2.132.967 1.656 1.656 0 0 1 2.132-.967z" class="prefix__cls-2" data-name="Path 24790" transform="translate(-429.368 -281.553)"/>
                        </g>
                    </g>
                    <g id="prefix__Group_14048" data-name="Group 14048" transform="translate(0 13.409)">
                        <g id="prefix__Group_14046" data-name="Group 14046" transform="translate(1.622)">
                            <path id="prefix__Rectangle_2700" d="M0 0H12.115V0.407H0z" class="prefix__cls-2" data-name="Rectangle 2700" transform="rotate(-9.373 12.034 .987)"/>
                        </g>
                        <g id="prefix__Group_14047" data-name="Group 14047" transform="translate(0 .519)">
                            <path id="prefix__Path_24791" d="M429.976 289.484a1.656 1.656 0 1 1-1.363 1.9 1.656 1.656 0 0 1 1.363-1.9z" class="prefix__cls-2" data-name="Path 24791" transform="translate(-428.591 -289.462)"/>
                        </g>
                    </g>
                    <g id="prefix__Group_14051" data-name="Group 14051" transform="translate(2.589 13.452)">
                        <g id="prefix__Group_14049" data-name="Group 14049" transform="translate(1.527)">
                            <path id="prefix__Rectangle_2701" d="M0 0H12.115V0.407H0z" class="prefix__cls-2" data-name="Rectangle 2701" transform="rotate(-39.383 10.74 3.844)"/>
                        </g>
                        <g id="prefix__Group_14050" data-name="Group 14050" transform="translate(0 6.189)">
                            <path id="prefix__Path_24792" d="M432.476 297.077a1.655 1.655 0 1 1-.229 2.33 1.655 1.655 0 0 1 .229-2.33z" class="prefix__cls-2" data-name="Path 24792" transform="translate(-431.871 -296.701)"/>
                        </g>
                    </g>
                    <g id="prefix__Group_14054" data-name="Group 14054" transform="translate(7.687 13.537)">
                        <g id="prefix__Group_14052" data-name="Group 14052" transform="translate(1.465)">
                            <path id="prefix__Rectangle_2702" d="M0 0H12.115V0.406H0z" class="prefix__cls-2" data-name="Rectangle 2702" transform="rotate(-69.38 8.19 5.67)"/>
                        </g>
                        <g id="prefix__Group_14053" data-name="Group 14053" transform="translate(0 9.755)">
                            <path id="prefix__Path_24793" d="M438.438 302.4a1.656 1.656 0 1 1 .967 2.132 1.655 1.655 0 0 1-.967-2.132z" class="prefix__cls-2" data-name="Path 24793" transform="translate(-438.331 -301.328)"/>
                        </g>
                    </g>
                    <g id="prefix__Group_14057" data-name="Group 14057" transform="translate(13.408 13.576)">
                        <g id="prefix__Group_14055" data-name="Group 14055">
                            <path id="prefix__Rectangle_2703" d="M0 0H0.407V12.115H0z" class="prefix__cls-2" data-name="Rectangle 2703" transform="rotate(-9.382 .402 .033)"/>
                        </g>
                        <g id="prefix__Group_14056" data-name="Group 14056" transform="translate(.52 10.331)">
                            <path id="prefix__Path_24794" d="M446.262 304.032a1.656 1.656 0 1 1 1.9 1.364 1.655 1.655 0 0 1-1.9-1.364z" class="prefix__cls-2" data-name="Path 24794" transform="translate(-446.24 -302.107)"/>
                        </g>
                    </g>
                    <g id="prefix__Group_14060" data-name="Group 14060" transform="translate(13.452 13.48)">
                        <g id="prefix__Group_14058" data-name="Group 14058">
                            <path id="prefix__Rectangle_2704" d="M0 0H0.406V12.115H0z" class="prefix__cls-2" data-name="Rectangle 2704" transform="rotate(-39.382 .36 .129)"/>
                        </g>
                        <g id="prefix__Group_14059" data-name="Group 14059" transform="translate(6.189 7.838)">
                            <path id="prefix__Path_24795" d="M453.855 301.532a1.655 1.655 0 1 1 2.33.229 1.656 1.656 0 0 1-2.33-.229z" class="prefix__cls-2" data-name="Path 24795" transform="translate(-453.479 -298.826)"/>
                        </g>
                    </g>
                    <g id="prefix__Group_14063" data-name="Group 14063" transform="translate(13.537 13.419)">
                        <g id="prefix__Group_14061" data-name="Group 14061">
                            <path id="prefix__Rectangle_2705" d="M0 0H0.406V12.115H0z" class="prefix__cls-2" data-name="Rectangle 2705" transform="rotate(-69.382 .274 .19)"/>
                        </g>
                        <g id="prefix__Group_14062" data-name="Group 14062" transform="translate(9.755 2.8)">
                            <path id="prefix__Path_24796" d="M459.179 295.571a1.656 1.656 0 1 1 2.132-.967 1.655 1.655 0 0 1-2.132.967z" class="prefix__cls-2" data-name="Path 24796" transform="translate(-458.106 -292.365)"/>
                        </g>
                    </g>
                    <g id="prefix__Group_14066" data-name="Group 14066" transform="translate(13.576 9.978)">
                        <g id="prefix__Group_14064" data-name="Group 14064" transform="translate(0 1.455)">
                            <path id="prefix__Rectangle_2706" d="M0 0H12.115V0.407H0z" class="prefix__cls-2" data-name="Rectangle 2706" transform="rotate(-9.38 12.042 .988)"/>
                        </g>
                        <g id="prefix__Group_14065" data-name="Group 14065" transform="translate(10.331)">
                            <path id="prefix__Path_24797" d="M460.81 287.745a1.655 1.655 0 1 1 1.364-1.9 1.654 1.654 0 0 1-1.364 1.9z" class="prefix__cls-2" data-name="Path 24797" transform="translate(-458.885 -284.457)"/>
                        </g>
                    </g>
                    <g id="prefix__Group_14069" data-name="Group 14069" transform="translate(13.48 4.266)">
                        <g id="prefix__Group_14067" data-name="Group 14067" transform="translate(0 1.498)">
                            <path id="prefix__Rectangle_2707" d="M0 0H12.116V0.407H0z" class="prefix__cls-2" data-name="Rectangle 2707" transform="rotate(-39.384 10.74 3.843)"/>
                        </g>
                        <g id="prefix__Group_14068" data-name="Group 14068" transform="translate(7.838)">
                            <path id="prefix__Path_24798" d="M458.31 280.154a1.655 1.655 0 1 1 .229-2.33 1.656 1.656 0 0 1-.229 2.33z" class="prefix__cls-2" data-name="Path 24798" transform="translate(-455.604 -277.219)"/>
                        </g>
                    </g>
                </g>
                <g id="prefix__Group_14108" data-name="Group 14108" transform="translate(176.444)">
                    <g id="prefix__Group_14071" data-name="Group 14071" transform="translate(6.071 6.071)">
                        <path id="prefix__Path_24799" d="M278 64.991a7.535 7.535 0 1 1-4.4-9.707 7.534 7.534 0 0 1 4.4 9.707z" class="prefix__cls-2" data-name="Path 24799" transform="translate(-263.407 -54.8)"/>
                    </g>
                    <g id="prefix__Group_14074" data-name="Group 14074" transform="translate(13.418 .614)">
                        <g id="prefix__Group_14072" data-name="Group 14072" transform="translate(0 1.585)">
                            <path id="prefix__Rectangle_2708" d="M0 0H12.115V0.406H0z" class="prefix__cls-2" data-name="Rectangle 2708" transform="rotate(-69.376 8.191 5.67)"/>
                        </g>
                        <g id="prefix__Group_14073" data-name="Group 14073" transform="translate(2.801)">
                            <path id="prefix__Path_24800" d="M279.472 50.123a1.656 1.656 0 1 1-.967-2.132 1.656 1.656 0 0 1 .967 2.132z" class="prefix__cls-2" data-name="Path 24800" transform="translate(-276.266 -47.884)"/>
                        </g>
                    </g>
                    <g id="prefix__Group_14077" data-name="Group 14077" transform="translate(9.978)">
                        <g id="prefix__Group_14075" data-name="Group 14075" transform="translate(1.455 1.622)">
                            <path id="prefix__Rectangle_2709" d="M0 0H0.407V12.116H0z" class="prefix__cls-2" data-name="Rectangle 2709" transform="rotate(-9.382 .402 .033)"/>
                        </g>
                        <g id="prefix__Group_14076" data-name="Group 14076">
                            <path id="prefix__Path_24801" d="M271.646 48.492a1.655 1.655 0 1 1-1.9-1.363 1.655 1.655 0 0 1 1.9 1.363z" class="prefix__cls-2" data-name="Path 24801" transform="translate(-268.358 -47.107)"/>
                        </g>
                    </g>
                    <g id="prefix__Group_14080" data-name="Group 14080" transform="translate(4.266 2.589)">
                        <g id="prefix__Group_14078" data-name="Group 14078" transform="translate(1.498 1.527)">
                            <path id="prefix__Rectangle_2710" d="M0 0H0.407V12.115H0z" class="prefix__cls-2" data-name="Rectangle 2710" transform="rotate(-39.36 .36 .129)"/>
                        </g>
                        <g id="prefix__Group_14079" data-name="Group 14079">
                            <path id="prefix__Path_24802" d="M264.055 50.992a1.655 1.655 0 1 1-2.33-.229 1.655 1.655 0 0 1 2.33.229z" class="prefix__cls-2" data-name="Path 24802" transform="translate(-261.12 -50.387)"/>
                        </g>
                    </g>
                    <g id="prefix__Group_14083" data-name="Group 14083" transform="translate(.614 7.687)">
                        <g id="prefix__Group_14081" data-name="Group 14081" transform="translate(1.584 1.466)">
                            <path id="prefix__Rectangle_2711" d="M0 0H0.406V12.115H0z" class="prefix__cls-2" data-name="Rectangle 2711" transform="rotate(-69.39 .274 .19)"/>
                        </g>
                        <g id="prefix__Group_14082" data-name="Group 14082">
                            <path id="prefix__Path_24803" d="M258.73 56.954a1.656 1.656 0 1 1-2.132.967 1.656 1.656 0 0 1 2.132-.967z" class="prefix__cls-2" data-name="Path 24803" transform="translate(-256.491 -56.847)"/>
                        </g>
                    </g>
                    <g id="prefix__Group_14086" data-name="Group 14086" transform="translate(0 13.409)">
                        <g id="prefix__Group_14084" data-name="Group 14084" transform="translate(1.622)">
                            <path id="prefix__Rectangle_2712" d="M0 0H12.115V0.407H0z" class="prefix__cls-2" data-name="Rectangle 2712" transform="rotate(-9.373 12.034 .987)"/>
                        </g>
                        <g id="prefix__Group_14085" data-name="Group 14085" transform="translate(0 .519)">
                            <path id="prefix__Path_24804" d="M257.1 64.778a1.656 1.656 0 1 1-1.363 1.9 1.657 1.657 0 0 1 1.363-1.9z" class="prefix__cls-2" data-name="Path 24804" transform="translate(-255.714 -64.756)"/>
                        </g>
                    </g>
                    <g id="prefix__Group_14089" data-name="Group 14089" transform="translate(2.589 13.452)">
                        <g id="prefix__Group_14087" data-name="Group 14087" transform="translate(1.526)">
                            <path id="prefix__Rectangle_2713" d="M0 0H12.115V0.407H0z" class="prefix__cls-2" data-name="Rectangle 2713" transform="matrix(.773 -.634 .634 .773 0 7.686)"/>
                        </g>
                        <g id="prefix__Group_14088" data-name="Group 14088" transform="translate(0 6.188)">
                            <path id="prefix__Path_24805" d="M259.6 72.371a1.655 1.655 0 1 1-.23 2.33 1.655 1.655 0 0 1 .23-2.33z" class="prefix__cls-2" data-name="Path 24805" transform="translate(-258.994 -71.995)"/>
                        </g>
                    </g>
                    <g id="prefix__Group_14092" data-name="Group 14092" transform="translate(7.102 13.537)">
                        <g id="prefix__Group_14090" data-name="Group 14090" transform="translate(2.05)">
                            <path id="prefix__Rectangle_2714" d="M0 0H12.115V0.406H0z" class="prefix__cls-2" data-name="Rectangle 2714" transform="rotate(-69.38 8.19 5.67)"/>
                        </g>
                        <g id="prefix__Group_14091" data-name="Group 14091" transform="translate(0 9.171)">
                            <circle id="prefix__Ellipse_7" cx="1.655" cy="1.655" r="1.655" class="prefix__cls-2" data-name="Ellipse 7" transform="rotate(-61.9 2.435 1.46)"/>
                        </g>
                    </g>
                    <g id="prefix__Group_14095" data-name="Group 14095" transform="translate(13.408 13.576)">
                        <g id="prefix__Group_14093" data-name="Group 14093">
                            <path id="prefix__Rectangle_2715" d="M0 0H0.407V12.115H0z" class="prefix__cls-2" data-name="Rectangle 2715" transform="rotate(-9.383 .402 .033)"/>
                        </g>
                        <g id="prefix__Group_14094" data-name="Group 14094" transform="translate(.52 10.331)">
                            <path id="prefix__Path_24806" d="M273.385 79.326a1.656 1.656 0 1 1 1.9 1.364 1.655 1.655 0 0 1-1.9-1.364z" class="prefix__cls-2" data-name="Path 24806" transform="translate(-273.363 -77.401)"/>
                        </g>
                    </g>
                    <g id="prefix__Group_14098" data-name="Group 14098" transform="translate(13.452 13.48)">
                        <g id="prefix__Group_14096" data-name="Group 14096">
                            <path id="prefix__Rectangle_2716" d="M0 0H0.406V12.115H0z" class="prefix__cls-2" data-name="Rectangle 2716" transform="rotate(-39.382 .36 .129)"/>
                        </g>
                        <g id="prefix__Group_14097" data-name="Group 14097" transform="translate(6.189 7.838)">
                            <path id="prefix__Path_24807" d="M280.978 76.826a1.656 1.656 0 1 1 2.33.229 1.656 1.656 0 0 1-2.33-.229z" class="prefix__cls-2" data-name="Path 24807" transform="translate(-280.602 -74.12)"/>
                        </g>
                    </g>
                    <g id="prefix__Group_14101" data-name="Group 14101" transform="translate(13.537 13.419)">
                        <g id="prefix__Group_14099" data-name="Group 14099">
                            <path id="prefix__Rectangle_2717" d="M0 0H0.406V12.115H0z" class="prefix__cls-2" data-name="Rectangle 2717" transform="rotate(-69.382 .274 .19)"/>
                        </g>
                        <g id="prefix__Group_14100" data-name="Group 14100" transform="translate(9.755 2.8)">
                            <path id="prefix__Path_24808" d="M286.3 70.865a1.655 1.655 0 1 1 2.132-.967 1.655 1.655 0 0 1-2.132.967z" class="prefix__cls-2" data-name="Path 24808" transform="translate(-285.229 -67.659)"/>
                        </g>
                    </g>
                    <g id="prefix__Group_14104" data-name="Group 14104" transform="translate(13.576 9.978)">
                        <g id="prefix__Group_14102" data-name="Group 14102" transform="translate(0 1.455)">
                            <path id="prefix__Rectangle_2718" d="M0 0H12.115V0.407H0z" class="prefix__cls-2" data-name="Rectangle 2718" transform="rotate(-9.38 12.042 .988)"/>
                        </g>
                        <g id="prefix__Group_14103" data-name="Group 14103" transform="translate(10.331)">
                            <path id="prefix__Path_24809" d="M287.933 63.039a1.655 1.655 0 1 1 1.364-1.9 1.654 1.654 0 0 1-1.364 1.9z" class="prefix__cls-2" data-name="Path 24809" transform="translate(-286.008 -59.751)"/>
                        </g>
                    </g>
                    <g id="prefix__Group_14107" data-name="Group 14107" transform="translate(13.48 4.266)">
                        <g id="prefix__Group_14105" data-name="Group 14105" transform="translate(0 1.498)">
                            <path id="prefix__Rectangle_2719" d="M0 0H12.115V0.407H0z" class="prefix__cls-2" data-name="Rectangle 2719" transform="rotate(-39.384 10.74 3.843)"/>
                        </g>
                        <g id="prefix__Group_14106" data-name="Group 14106" transform="translate(7.838)">
                            <path id="prefix__Path_24810" d="M285.433 55.448a1.656 1.656 0 1 1 .229-2.33 1.656 1.656 0 0 1-.229 2.33z" class="prefix__cls-2" data-name="Path 24810" transform="translate(-282.727 -52.513)"/>
                        </g>
                    </g>
                </g>
                <ellipse id="prefix__Ellipse_8" cx="49.959" cy="5.751" class="prefix__cls-3" data-name="Ellipse 8" rx="49.959" ry="5.751" transform="translate(9.437 311.482)"/>
                <ellipse id="prefix__Ellipse_9" cx="49.959" cy="5.751" class="prefix__cls-3" data-name="Ellipse 9" rx="49.959" ry="5.751" transform="translate(228.309 311.482)"/>
                <g id="prefix__Group_14112" data-name="Group 14112" transform="translate(199.627 60.708)">
                    <g id="prefix__Group_14111" data-name="Group 14111">
                        <g id="prefix__POLYLINE" transform="translate(80.643 242.17)">
                            <path id="prefix__Path_24811" d="M406.437 431.9c.4 2.517 1.308 6 1.731 8.51a6.929 6.929 0 0 1 .078 1.246 2.611 2.611 0 0 1-.4 1.394 2 2 0 0 1-.944.7 4.958 4.958 0 0 1-1.3.284c-.366.037-.766.052-1.134.059-2.469.038-5.422-.073-7.9-.181-3.215-.141-6.073-.181-9.285-.388.792-2.917 1.657-5.971 3.769-8.135 2.32-2.378 5.728-3.264 8.957-4.051a9.166 9.166 0 0 1 3.4-.387c1.135.16 2.845-.186 3.028.949z" data-name="Path 24811" transform="translate(-387.28 -430.907)" style="fill:#3d535c"/>
                        </g>
                        <g id="prefix__POLYLINE-2" data-name="POLYLINE" transform="translate(76.211 125.073)">
                            <path id="prefix__Path_24812" d="M400.014 305.56c-.672 5-.981 10.461-1.207 15.5a79.251 79.251 0 0 0 .126 10.191 56.283 56.283 0 0 0 1.769 9.084l1.827 6.462a81.575 81.575 0 0 1 2.734 19.189c.04 1.783.14 10.16.25 11.793.07 1.707.4 4.774.581 6.5a19.48 19.48 0 0 1 .084 3.721 8.354 8.354 0 0 1-.434 1.858 20.408 20.408 0 0 0-1.05 3.091 6.031 6.031 0 0 0-.1 1.733A5.934 5.934 0 0 0 404.9 396a12.728 12.728 0 0 1 .548 1.82 6.136 6.136 0 0 1 .048 1.639 5.234 5.234 0 0 1-.223 1.1 1.689 1.689 0 0 1-.267.529 1.563 1.563 0 0 1-.781.47 11.717 11.717 0 0 1-2.645.368c-7.019.35-9.374-2.131-11.312-8.925a225.284 225.284 0 0 1-5.74-97.422c.484-2.99 1.057-6.05 2.641-8.632s4.411-4.616 7.432-4.409c3.312.227 5.974 3.094 6.979 6.257 1.858 5.861-.795 11.041-1.566 16.765z" data-name="Path 24812" transform="translate(-381.664 -282.525)" style="fill:#59889c"/>
                        </g>
                        <g id="prefix__POLYLINE-3" data-name="POLYLINE" transform="translate(60.57 242.675)">
                            <path id="prefix__Path_24813" d="M392.853 438.881c-.181-2.78-.188-5.573-3.12-6.739a10.557 10.557 0 0 0-3.985-.594c-5.811.038-9.516 2.518-14.588 4.648a19.32 19.32 0 0 1-4.216 1.134 31.651 31.651 0 0 0-3.882.728 1.814 1.814 0 0 0-.694.42 1.51 1.51 0 0 0-.351.728 7.951 7.951 0 0 0-.174 1.623 6 6 0 0 0 .138 1.4 2.286 2.286 0 0 0 .511 1.024 2.486 2.486 0 0 0 1.177.67 11.532 11.532 0 0 0 2.624.293c2.108.039 20.655.026 23.116.005a12.005 12.005 0 0 0 1.517-.115 2.147 2.147 0 0 0 1.158-.482 2.113 2.113 0 0 0 .515-1.075 13.94 13.94 0 0 0 .254-3.668z" class="prefix__cls-6" data-name="Path 24813" transform="translate(-361.844 -431.546)"/>
                        </g>
                        <g id="prefix__POLYLINE-4" data-name="POLYLINE" transform="translate(53.924 120.359)">
                            <path id="prefix__Path_24814" d="M380.781 301.322c2.262-3.527 5.379-5.79 5.144-10.191a15.16 15.16 0 0 0-5.451-10.4c-4.411-3.674-10.583-4.836-16.236-3.838-3.826.675-7.731 2.5-9.589 5.908-2.068 3.8-1.113 8.463-.1 12.669 2.409 10.05 4.639 20.069 7.461 30 .432 1.447 1.084 3.561 1.567 4.978l2.7 7.706a54.167 54.167 0 0 1 1.907 6.916c.42 2.11.635 6.169.837 8.359.35 3.58.837 7.358 1.51 10.89.473 2.548 1.347 5.694 1.893 8.233.459 1.992.546 4.349.886 6.363a21.17 21.17 0 0 0 1.225 3.892 9.59 9.59 0 0 1 .492 1.783 20.528 20.528 0 0 1 .093 2.655 18.523 18.523 0 0 0 .679 3.972 12.04 12.04 0 0 1 .309 2.2 14.779 14.779 0 0 1-.215 2.728c-.063.4-.31 1.8-.346 2.18a3.774 3.774 0 0 0 .039 1.3 3.393 3.393 0 0 0 1.779 1.989 9.074 9.074 0 0 0 3.475 1.06 15.6 15.6 0 0 0 4.37-.261 21.663 21.663 0 0 0 3.13-.831 6.1 6.1 0 0 0 1.166-.515 1.5 1.5 0 0 0 .452-.428 1.6 1.6 0 0 0 .234-.612 4.926 4.926 0 0 0 .048-1.072c-.06-1.256-.4-2.832-.523-4.084-.142-1.914-.628-5.38-.9-7.255-.346-2.588-.635-5.323-.723-7.933-.184-5.083.155-11.547-.657-16.568-.782-4.945-2.161-11.5-2.907-16.437-1.091-7.361-3.652-26.21-4.514-33.687a51.962 51.962 0 0 1-.338-7.445 10.357 10.357 0 0 1 .582-3.19 7.313 7.313 0 0 1 .521-1.034z" class="prefix__cls-7" data-name="Path 24814" transform="translate(-353.422 -276.55)"/>
                        </g>
                        <g id="prefix__POLYLINE-5" data-name="POLYLINE" transform="translate(10.426 21.402)">
                            <path id="prefix__Path_24815" d="M313.85 156.7c2.438 2.89 14.86 10.755 9.642 15.517a3.46 3.46 0 0 1-3.744.3c-2.073-.982-3.259-3.231-4.957-4.7a13.063 13.063 0 0 0-1.822-1.469 3.8 3.8 0 0 0-1.191-.455c-1.23-.245-2.674-.13-3.915-.3a8.477 8.477 0 0 1-3.956-1.488 12.853 12.853 0 0 1-2.539-2.685 35.879 35.879 0 0 1-2.674-3.887 3.832 3.832 0 0 1-.365-1.1 4.156 4.156 0 0 1 .693-2.582l6.3-2.707a9.277 9.277 0 0 1 4.311 1.224 11.642 11.642 0 0 1 2.5 2.293z" class="prefix__cls-8" data-name="Path 24815" transform="translate(-298.303 -151.154)"/>
                        </g>
                        <g id="prefix__POLYLINE-6" data-name="POLYLINE" transform="translate(28.254 34.588)">
                            <path id="prefix__Path_24816" d="M365.521 205.731c-6.167 1.388-12.14-2.578-17.222-6.338-8.528-6.308-17.793-12.158-25.914-18.936a5.63 5.63 0 0 1-1.34-1.458 1.3 1.3 0 0 1-.149-.532 1.975 1.975 0 0 1 .114-.692 42.934 42.934 0 0 1 3.265-7.172 13.377 13.377 0 0 1 1.143-1.672 4.313 4.313 0 0 1 .842-.807 1.326 1.326 0 0 1 .741-.263 2.1 2.1 0 0 1 1.175.534l.9.711.651.48c9.882 7.183 19.44 12.077 31.448 14.325 3.937.737 8.18 1.2 11.258 3.767a10.217 10.217 0 0 1 2.9 11.244c-1.496 3.854-5.78 5.902-9.812 6.809z" data-name="Path 24816" transform="translate(-320.894 -167.863)" style="fill:#d0e9f2"/>
                        </g>
                        <g id="prefix__POLYLINE-7" data-name="POLYLINE" transform="translate(0 15.016)">
                            <path id="prefix__Path_24817" d="M296.831 143.277a7.914 7.914 0 0 1 3.682 1.611c2.588 2.211 5.568 9.138 7.172 12.346a1.03 1.03 0 0 1 .1.2 1.009 1.009 0 0 1-.583 1.3 1.053 1.053 0 0 1-.245.06c-.025-.007-5.068.593-5.094.583a1.341 1.341 0 0 1-1.05-.364 1.38 1.38 0 0 1-.176-.207c-1.211-1.756-2.247-4.631-3.792-6.025a8.975 8.975 0 0 0-5-2.047c-1.6-.207-3.64.627-5.157-.068-1.569-.718-2.237-5.615-.823-6.652a6.826 6.826 0 0 1 3.515-.85c1.6-.078 3.207-.067 4.807-.1a12.972 12.972 0 0 1 2.644.213z" class="prefix__cls-10" data-name="Path 24817" transform="translate(-285.091 -143.062)"/>
                        </g>
                        <g id="prefix__Group_14109" data-name="Group 14109" transform="translate(.548 21.275)">
                            <path id="prefix__Path_24818" d="M296.4 153.469a8.974 8.974 0 0 0-5-2.047c-1.6-.207-3.64.627-5.157-.068a1.481 1.481 0 0 1-.458-.361 2.472 2.472 0 0 0 1.05 1.347c1.518.694 3.553-.139 5.157.068a8.974 8.974 0 0 1 5 2.047 7.459 7.459 0 0 1 1.2 1.488 9.846 9.846 0 0 0-1.792-2.474z" class="prefix__cls-11" data-name="Path 24818" transform="translate(-285.786 -150.993)"/>
                            <path id="prefix__Path_24819" d="M311.68 161.123a1.068 1.068 0 0 1-.148-.68l-.124.376a3.512 3.512 0 0 1-.833.594 1.091 1.091 0 0 1-.245.06c-.025-.007-5.068.593-5.094.583a1.341 1.341 0 0 1-1.05-.364 1.374 1.374 0 0 1-.176-.207c-.039-.057-.077-.124-.117-.184.234.419.467.821.709 1.17a1.378 1.378 0 0 0 .176.207 1.341 1.341 0 0 0 1.05.364c.026.01 5.069-.59 5.094-.583a1.094 1.094 0 0 0 .245-.06 1.016 1.016 0 0 0 .6-.633.943.943 0 0 0-.087-.643z" class="prefix__cls-7" data-name="Path 24819" transform="translate(-289.604 -152.985)"/>
                        </g>
                        <g id="prefix__Group_14110" data-name="Group 14110" transform="translate(0 15.053)">
                            <path id="prefix__Path_24820" d="M288.267 150.678c-1.569-.718-2.237-5.615-.823-6.652a9.98 9.98 0 0 1 1.965-.882 5.849 5.849 0 0 0-3.543.882c-1.414 1.037-.746 5.934.823 6.652a4.707 4.707 0 0 0 2.426.227 3.046 3.046 0 0 1-.848-.227z" class="prefix__cls-12" data-name="Path 24820" transform="translate(-285.091 -143.11)"/>
                        </g>
                        <g id="prefix__POLYLINE-8" data-name="POLYLINE" transform="translate(61.594 9.488)">
                            <path id="prefix__Path_24821" d="M365.935 160.683c1.014 1.337 1.789 1.151 3.355.72a2.5 2.5 0 0 1 2.433.3 2.786 2.786 0 0 1 .6 1.368c.207.877 2.42 9.9 2.944 9.883l11.85-.347a38.378 38.378 0 0 0-.271-9.145c-.683-3.568-3.424-5.915-3.94-9.331-.363-2.4.338-4.73-.1-7.187a13.1 13.1 0 0 0-14.05-10.844 5.878 5.878 0 0 0-3.074.992c-1.849 1.391-.784 3.339-.929 5.249a28.26 28.26 0 0 1-.621 4.832c-.679 2.637-1.381 3.617-.736 6.536.446 2.018 1.104 5.083 2.539 6.974z" class="prefix__cls-8" data-name="Path 24821" transform="translate(-363.141 -136.057)"/>
                        </g>
                        <g id="prefix__POLYLINE-9" data-name="POLYLINE" transform="translate(60.578)">
                            <path id="prefix__Path_24822" d="M386.487 126.021c4.748 2.477 6.943 7.342 7.719 12.421.7 4.609-2.517 20.691-10.121 18.6-2.064-.567-5.186-3.662-5.38-5.847a8.835 8.835 0 0 1 .4-2.925c.353-1.392 1.121-2.867 1.025-4.31a2.449 2.449 0 0 0-4.818-.783c-.269.622-.112 1.734-.877 1.93-.443.113-1.845-1.106-2.238-1.353a20.834 20.834 0 0 0-5.282-2.674c-2.034-.58-3.779-1.267-4.654-3.367-1.08-2.595.107-5.688 2.124-7.645 5.962-5.776 14.553-7.986 22.102-4.047z" data-name="Path 24822" transform="translate(-361.854 -124.034)"/>
                        </g>
                        <g id="prefix__POLYLINE-10" data-name="POLYLINE" transform="translate(65.955 37.289)">
                            <path id="prefix__Path_24823" d="M393.67 178.422a7.633 7.633 0 0 0-.085-2.141 10.619 10.619 0 0 0-.981-2.885 3.91 3.91 0 0 0-1.553-1.727 3.618 3.618 0 0 0-1.4-.365 11.82 11.82 0 0 0-2.025.073 47.376 47.376 0 0 0-7.193 1.288 16.966 16.966 0 0 0-4.027 1.574 13.528 13.528 0 0 0-3.687 3.394 30.438 30.438 0 0 0-3.3 4.671c-.632 1.166-.4 2.1-.751 3.377l16.768-1.4a13.505 13.505 0 0 0 5.619-1.3 5.439 5.439 0 0 0 2.615-4.559z" class="prefix__cls-10" data-name="Path 24823" transform="translate(-368.668 -171.286)"/>
                        </g>
                        <path id="prefix__Path_24824" d="M344.662 241.3a9.243 9.243 0 0 1 3.558-5.069 27.514 27.514 0 0 1 5.536-3.016l2.586 14.98c.084.483-8.438-.29-9.341-.806a5.53 5.53 0 0 1-2.339-6.089z" class="prefix__cls-8" data-name="Path 24824" transform="translate(-297.617 -147.054)"/>
                        <g id="prefix__POLYLINE-11" data-name="POLYLINE" transform="translate(50.992 42.534)">
                            <path id="prefix__Path_24825" d="M352.6 263.135c-1.057 16.478-2.113 32.966-2.894 49.505a90.327 90.327 0 0 0 46.457-2.705c1.57-.785.238-20.7.267-23.235.08-6.97 1.283-14.276.931-21.085l-.994-13.737a159.03 159.03 0 0 1-.093-17.358c.377-7.873 2.136-19.85 2.818-27.746a51.626 51.626 0 0 0-.485-13.477 21 21 0 0 0-3.276-8.249 19.081 19.081 0 0 0-5.439-5.089 13.6 13.6 0 0 0-4.033-1.755 12.156 12.156 0 0 0-4.415-.133 36.471 36.471 0 0 0-5.706 1.343c-3.872 1.256-7.883 2.536-11.236 4.909a7.464 7.464 0 0 0-2.588 2.891 9.833 9.833 0 0 0-.533 3.886l.036 2.282A44.629 44.629 0 0 0 356 206.266a57.783 57.783 0 0 0-1.241 12.107c-.012 2.555.033 8.957-.107 11.425-.626 11.117-1.339 22.225-2.052 33.337z" class="prefix__cls-10" data-name="Path 24825" transform="translate(-349.707 -177.933)"/>
                        </g>
                        <path id="prefix__Path_24826" d="M354.512 250.333a10.558 10.558 0 0 0 5.371 2.341c5.425 1.147 13.585 3.41 17.776-2.293 1.788-2.433 1.724-6.221 2.274-9.056.906-4.666 2.177-9.254 3.079-13.922 1.717-8.884 1.9-18.849-3.477-26.126a147.491 147.491 0 0 1-14 27.443c-2.747 4.233-16.195 16.538-11.023 21.613z" class="prefix__cls-11" data-name="Path 24826" transform="translate(-299.481 -140.32)"/>
                    </g>
                    <path id="prefix__Path_24827" d="M380.315 203.14a107.306 107.306 0 0 0-2.722 14.037 59.05 59.05 0 0 0-.551 11.38 33.952 33.952 0 0 1 .212 6.666 9.693 9.693 0 0 1-1.239 3.449 48.524 48.524 0 0 1-3.738 5.175c-4.4 5.863-20.069-.922-24.858-3.588-3.961-2.2 1.533-9.845 4.576-10.373 3.217-.558 10.032 3.961 10.3-2.077.107-2.433-.95-5.152-1.108-7.631-.185-2.578-.49-23.588-.575-26.639 3.817-3.734 9.372-5.429 13.959-2.694s7.142 7.14 5.744 12.295z" class="prefix__cls-10" data-name="Path 24827" transform="translate(-297.941 -137.837)"/>
                    <path id="prefix__Path_24828" d="M412.837 145.023c3.412 4.147 4.8 9.674 4.806 15.044s-1.267 10.654-2.671 15.838c-1.376 5.08-2.746 11 .424 15.2-9.639-2.99-15.976-14.052-13.679-23.881.748-3.2 2.263-6.166 3.353-9.27s1.746-6.535.724-9.661c-.986-3.022-4.01-5.692-7.338-5.222-1.109-3.359 2.725-3.966 5.115-3.587a15.6 15.6 0 0 1 9.266 5.539z" data-name="Path 24828" transform="translate(-308.952 -127.272)"/>
                    <path id="prefix__Path_24829" d="M379.239 153.371a20.122 20.122 0 0 1-2.846 2.9c-.442.4-4.679 3.356-4.624 3.6l-1.427-6.4c.78-.605 1.49-1.3 2.214-1.972a21.841 21.841 0 0 0 3.138-3.43 32.468 32.468 0 0 0-3.641 2.64c-.728.672-1.5 1.328-2.173 2.058-1.365-.118-6.775-.568-6.809-.333-1.518 10.6 4.046 11.96 4.046 11.96l4.321-3.574a24.946 24.946 0 0 0 5.481-3.908 13.359 13.359 0 0 0 2.122-2 21.29 21.29 0 0 0 1.078-3.024 8.192 8.192 0 0 1-.88 1.483z" class="prefix__cls-12" data-name="Path 24829" transform="translate(-301.478 -129.102)"/>
                    <path id="prefix__Path_24830" d="M304.274 146.366a.394.394 0 0 0-.37-.221c-1 .041-4.612.222-4.393.675.208.434 1.147 2.839 1.468 3.666a.4.4 0 0 0 .412.249l4.243-.436a.4.4 0 0 0 .317-.576z" class="prefix__cls-12" data-name="Path 24830" transform="translate(-288.129 -128.696)"/>
                </g>
                <ellipse id="prefix__Ellipse_10" cx="49.959" cy="5.751" class="prefix__cls-3" data-name="Ellipse 10" rx="49.959" ry="5.751" transform="translate(121.763 311.482)"/>
                <g id="prefix__Group_14114" data-name="Group 14114" transform="translate(131.251 68.677)">
                    <g id="prefix__Group_14113" data-name="Group 14113">
                        <g id="prefix__POLYLINE-12" data-name="POLYLINE" transform="translate(41.467 233.774)">
                            <path id="prefix__Path_24831" d="M251.957 432.216a10.558 10.558 0 0 0-.934 4.467c-.047 1.412-.032 2.825-.012 4.238.01.743.022 1.487.04 2.232.006.228-.114 1.071.03 1.26.081.107.195.052.377.066 1.786.136 3.627-.006 5.419 0 1.126 0 2.252.016 3.379.024 3.262.024 6.522.062 9.782.046a48.432 48.432 0 0 0 7.767-.38 2.172 2.172 0 0 0 1.881-2.46c0-3.124-2.961-4.385-5.47-5.425-2.209-.916-4.677-1.423-6.767-2.588a6.64 6.64 0 0 1-2.3-2.14 8.851 8.851 0 0 1-.657-1.189" class="prefix__cls-13" data-name="Path 24831" transform="translate(-250.992 -430.366)"/>
                        </g>
                        <g id="prefix__POLYLINE-13" data-name="POLYLINE" transform="translate(14.911 232.775)">
                            <path id="prefix__Path_24832" d="M218.925 430.305c-.268 2.217-.091 4.509-.411 6.708-.236 1.615-1.166 3.056-1.173 4.711a3.116 3.116 0 0 0 1.15 2.574 4.637 4.637 0 0 0 2.731.571l13.1.012a4.1 4.1 0 0 0 2.656-.615c3.544-2.9-2.869-10.753-3.984-13.567l-.634-1.6" class="prefix__cls-13" data-name="Path 24832" transform="translate(-217.341 -429.1)"/>
                        </g>
                        <g id="prefix__POLYLINE-14" data-name="POLYLINE" transform="translate(62.548 123.535)">
                            <path id="prefix__Path_24833" d="M287.034 292.02c1.626 3.637-2.688 13.569-3.925 16.2-.612 1.3-1.783 2.8-3.149 2.349-1.1-.361-1.417-1.727-1.563-2.871-.122-.941-1.082-15.817-.511-15.575a4.776 4.776 0 0 0 3.7-.451 7.184 7.184 0 0 1 3.663-.971 2.123 2.123 0 0 1 1.785 1.319z" class="prefix__cls-8" data-name="Path 24833" transform="translate(-277.706 -290.674)"/>
                        </g>
                        <g id="prefix__POLYLINE-15" data-name="POLYLINE" transform="translate(38.975 106.123)">
                            <path id="prefix__Path_24834" d="M272.452 290.674c.215 7.194.161 14.393-.339 21.575-.477 6.854-1.006 14.022-3.018 20.625a21.107 21.107 0 0 1-1.664 4.041 29.5 29.5 0 0 0-1.9 3.288 14.09 14.09 0 0 0-.409 6.234c.137 1.6.518 3.171.62 4.776a42.977 42.977 0 0 1 0 4.928 25.605 25.605 0 0 1-.522 4.381 18.658 18.658 0 0 0-.665 3.055c-.114 2.1.992 4.119 1.167 6.207.262 3.117-.578 6.274-.9 9.357a75.192 75.192 0 0 0-.177 10.708 31.019 31.019 0 0 0 1.849 9.034 29.855 29.855 0 0 0-16.209 6.11c-2.03-4.57-2.366-9.785-2.427-14.688-.075-6.053.115-12.12.1-18.175-.028-11.944-.167-23.889.058-35.834.1-5.277 4.556-65.5 3.681-65.5l19.294-2.185c.273 7.453 1.238 14.583 1.461 22.063z" data-name="Path 24834" transform="translate(-247.835 -268.609)" style="fill:#345480"/>
                        </g>
                        <g id="prefix__POLYLINE-16" data-name="POLYLINE" transform="translate(48.115 41.746)">
                            <path id="prefix__Path_24835" d="M281.946 270.083c-2.232.063-5.315 1.835-7.374.5-1.866-1.21-2.234-4.9-2.721-6.822-1.595-6.283-2.64-12.69-3.686-19.083q-4.254-25.99-8.51-51.979a8.243 8.243 0 0 1-.037-3.71c1.277-4.2 6.984-.571 9.127 1 5.152 3.781 6.542 12.627 8.467 18.368 2.648 7.895 5.87 16.162 7.244 24.4.7 4.18.212 7.9-.239 12.042-.837 7.683 1.159 15.579.829 23.349-.035.818-.161 1.682-1.085 1.879a11.3 11.3 0 0 1-2.015.056z" class="prefix__cls-15" data-name="Path 24835" transform="translate(-259.416 -187.032)"/>
                        </g>
                        <path id="prefix__Path_24836" d="M275.541 266.068c1.522-21.89 2.821-44.987-6.941-64.638a538.837 538.837 0 0 0-1.8 57.3 12.475 12.475 0 0 0 .878 5.223c1.74 3.585 4.771 2.229 7.863 2.115z" class="prefix__cls-16" data-name="Path 24836" transform="translate(-212.831 -148.322)"/>
                        <g id="prefix__POLYLINE-17" data-name="POLYLINE" transform="translate(12.36 105.459)">
                            <path id="prefix__Path_24837" d="M214.248 371.182c.075 2.877.26 5.742.591 8.587.47 4.031 1.765 8.272 1.806 12.318.039 3.758-.621 6.207 1.634 9.759.576-1.492 2.405-1.982 3.979-2.269a29.072 29.072 0 0 1 6.712-.693 9.768 9.768 0 0 1 6.194 2.352c-1.118-1.043-1.385-6.721-1.749-8.35-.617-2.764-.283-5.575-.245-8.436.089-6.561-.124-13.122-.058-19.683.075-7.581 2.5-14.93 3.983-22.366l10.145-50.977c0-6.7 3.628-13.995 5.646-20.255-6.515.1-11.791.32-17.862-1.746-4.608-1.569-11.554-2.976-15.623.524-3.625 3.118-3.389 8.69-2.949 13.452 1.248 13.5-.875 27.52-1.432 41.156-.637 15.531-1.175 31.081-.772 46.627z" data-name="Path 24837" transform="translate(-214.108 -267.769)" style="fill:#40628f"/>
                        </g>
                        <g id="prefix__POLYLINE-18" data-name="POLYLINE" transform="translate(12.557 120.585)">
                            <path id="prefix__Path_24838" d="M214.358 291.1c.781 2.652 1.832 11.279 4.83 12.443a4.947 4.947 0 0 0 3.385-.364l8.515-3.049c-.073.026-1.845-3.912-2-4.262 1.426 2.108 4.616 2.414 6.784 1.353.444-.217-3.831-3.924-4-4.047-2.539-1.884-5.218-3.562-7.928-5.188-.59-.354-1.185-.7-1.78-1.047z" class="prefix__cls-8" data-name="Path 24838" transform="translate(-214.358 -286.935)"/>
                        </g>
                        <g id="prefix__POLYLINE-19" data-name="POLYLINE" transform="translate(26.893 5.895)">
                            <path id="prefix__Path_24839" d="M257.971 151.718c-.211-1.982-.435-5.181-1.574-6.661-1.123-1.458-3.364-1.528-5.013-2.015-2.547-.75-4.6-1.8-7.37-1.312a12.468 12.468 0 0 0-9.142 7.31 24.544 24.544 0 0 0-1.418 8c-.269 4.168-2.017 10.621.117 14.465 1.7 3.054 6.4 8.1 9.98 8.569 1.988.257 3.861-.878 5.543-1.968.3-1.2.477-4.366 1.319-5.241 1.162-1.2 3.177-.7 4.458-2.272a10.675 10.675 0 0 0 1.734-3.557 35.427 35.427 0 0 0 1.409-14.928l-.043-.39z" class="prefix__cls-8" data-name="Path 24839" transform="translate(-232.525 -141.603)"/>
                        </g>
                        <g id="prefix__POLYLINE-20" data-name="POLYLINE" transform="translate(22.19)">
                            <path id="prefix__Path_24840" d="M237.573 150.913a11.6 11.6 0 0 0 1.731 1.361 4.9 4.9 0 0 1 1.292 1.679c.285.495.7 1.514 1.265 1.81.631.33 1-.461 1.154-.96.391-1.263-.005-2.689.541-3.908.541-1.2 1.761-1.666 1.742-3.135-.017-1.379-.84-3.157-.219-4.5.477-1.031 1.967-1.127 2.959-1.136a12.108 12.108 0 0 1 4.721 1.07c.919.38 1.854 1.159 2.763.43 1.439-1.154.284-9.332.279-9.33a11.824 11.824 0 0 1-7.233.35 18.121 18.121 0 0 0-6.694-.38 32.026 32.026 0 0 0-6.7 1.1c-1.6.493-4.07 1.635-4.636 3.388-.16.5.079 1.01-.008 1.494-.186 1.038.031.473-.657 1.093-.613.553-1.383.75-1.943 1.45-2.068 2.585-1.514 6.836-.127 9.6 1.787 3.56 2.5 7.126 3.363 10.974-.06-.27 2.33-2.317 2.529-2.952a18.02 18.02 0 0 0 .258-4.466c.017-.859-.249-.537-.243-1.4a7.954 7.954 0 0 1 .271-2.55 2.429 2.429 0 0 1 1.775-1.69c.844-.125 1.919-.245 1.817.608z" data-name="Path 24840" transform="translate(-226.564 -134.133)" style="fill:#b7b7b7"/>
                        </g>
                        <g id="prefix__POLYLINE-21" data-name="POLYLINE" transform="translate(11.84 37.585)">
                            <path id="prefix__Path_24841" d="M239.73 265.744c6.307.161 13.337.211 19.63-1.694 3.864-1.17 5.466-1.413 5.555-5.213.067-2.844-1.718-5.9-2.25-8.684-1.376-7.216-2.761-14.475-2.844-21.847-.036-3.233-.048-6.477.18-9.7.461-6.535.822-13.546-.847-19.951-1.559-5.986-6.992-15.576-14.175-11.445-2.382 1.37-4.859 3.3-7.552 2.756-2.434-.493-3.513-2.625-5.315-4.032a42.261 42.261 0 0 1-5-4.171l-9.128 7.141a12.561 12.561 0 0 0-3.814 4.031c-1.331 2.695-.572 5.905.211 8.807 1.195 4.428 3.078 9.018 2.823 13.6-.278 4.976 1.058 10.149 1.675 15.08q.715 5.339 1.226 10.7c.361 3.789.414 7.6.45 11.4.047 4.965-1.746 12.689 5.189 12.866z" class="prefix__cls-15" data-name="Path 24841" transform="translate(-213.449 -181.76)"/>
                        </g>
                        <path id="prefix__Path_24842" d="M225.487 215.665c6.881 12.814 1.652 29.438-5.15 41.316-1.837-7.38-4.307-13.825-2.475-21.37a64.268 64.268 0 0 1 3.95-11.442c.688-1.509 4.667-6.655 3.675-8.504z" class="prefix__cls-16" data-name="Path 24842" transform="translate(-202.404 -151.323)"/>
                        <g id="prefix__POLYLINE-22" data-name="POLYLINE" transform="translate(0 39.517)">
                            <path id="prefix__Path_24843" d="M220.608 189.234a16.665 16.665 0 0 0-.556 1.676c-1.1 4.959-.766 11.014-.942 16.137-.185 5.4.319 10.794-.01 16.221-.4 6.533-1.14 13.049-1.376 19.591-.163 4.533.921 7.7 1.828 12.018.165.782 2.83 10.724 3.22 10.317l-8.344 8.721c-3.048 3.187-3.872-.875-5.2-3.246a89.2 89.2 0 0 1-4.876-10.09 84.13 84.13 0 0 1-5.5-21.594c-.983-8.189-.036-16.452 1.535-24.506.79-4.05 2.147-8.105 2.668-12.19.386-3.023.518-5.336 2.508-7.958a18.629 18.629 0 0 1 5.4-4.405c1.589-.964 3.12-2.084 4.62-3.18.974-.713 2.39-2.367 3.651-2.51 3.198-.362 2.187 2.74 1.374 4.998z" class="prefix__cls-15" data-name="Path 24843" transform="translate(-198.446 -184.208)"/>
                        </g>
                        <g id="prefix__POLYLINE-23" data-name="POLYLINE" transform="translate(40.49 43.97)">
                            <path id="prefix__Path_24844" d="M250.445 189.851a6.532 6.532 0 0 0-.691.042" data-name="Path 24844" transform="translate(-249.754 -189.851)" style="fill:none;stroke:#ff6b6b;stroke-linecap:round;stroke-linejoin:round;stroke-width:1.521px"/>
                        </g>
                        <g id="prefix__POLYLINE-24" data-name="POLYLINE" transform="translate(41.01 38.687)">
                            <path id="prefix__Path_24845" d="M250.447 188.208c-.277-.777 1.2-1.726 1.613-2.19a9.491 9.491 0 0 0 1.244-1.987c.366-.7.775-1.068 1.565-.773a4.242 4.242 0 0 1 1.834 1.412c.646.909.528 2.322.626 3.367.144 1.53.484 3 .713 4.514.1.636.162 1.454-.724 1.245a4.632 4.632 0 0 1-2.212-1.71 9.907 9.907 0 0 0-2.021-1.854c-.743-.498-2.235-1.102-2.638-2.024z" class="prefix__cls-10" data-name="Path 24845" transform="translate(-250.413 -183.156)"/>
                        </g>
                        <g id="prefix__POLYLINE-25" data-name="POLYLINE" transform="translate(25.054 32.925)">
                            <path id="prefix__Path_24846" d="M231.727 175.865c-.471.12-.654.8-.784 1.2-.24.747-.5 1.522-.677 2.287a3.9 3.9 0 0 0 .815 3.046 24.4 24.4 0 0 0 4.265 4.236 32.159 32.159 0 0 1 4.445 4.763c.322.43 2.318 3.816 3.221 3.119.474-.365.624-1.506.779-2 .325-1.05.74-2.068 1.14-3.091s1.111-2.345.33-3.337c-1.079-1.37-2.987-2.179-4.467-2.994a22.839 22.839 0 0 1-4.657-3.175c-.8-.747-1.514-1.583-2.248-2.4a7.688 7.688 0 0 0-1.514-1.463.918.918 0 0 0-.648-.191z" class="prefix__cls-10" data-name="Path 24846" transform="translate(-230.194 -175.854)"/>
                        </g>
                    </g>
                    <path id="prefix__Path_24847" d="M244.05 171.056c.248 4.139 2.549 7.539 7 8.019a8.083 8.083 0 0 0 6.494-2.3c-2.358-.7-4.816-.923-7.128-1.774-1.131-.417-6.29-2.501-6.366-3.945z" data-name="Path 24847" transform="translate(-208.061 -141.918)" style="fill:#fdaf87"/>
                </g>
                <g id="prefix__Group_14116" data-name="Group 14116" transform="translate(21.906 72.749)">
                    <path id="prefix__Path_24848" d="M141.929 289.784a4.633 4.633 0 0 1 .366 3.1c-.625 1.72-2.9 2.046-4.724 1.936s-3.987-.234-5.128 1.2c.244-.306-1.423-7.268-1.39-8.393.059-2.041.163-5.174 1.788-6.719 5.779-5.497 7.692 5.044 9.088 8.876z" class="prefix__cls-8" data-name="Path 24848" transform="translate(-74.891 -168.823)"/>
                    <path id="prefix__Path_24849" d="M149.861 307.448c.641 5.277 1.171 10.568 1.743 15.853.2 1.86.377 3.857-.529 5.495-1.307 2.361-4.3 3.081-6.956 3.567l-25.138 4.6c-3.721.682-1.058-29.769-.425-32.616 1.586-7.128 8.348-17.249 16.77-15.978 9.574 1.447 13.503 10.59 14.535 19.079z" class="prefix__cls-6" data-name="Path 24849" transform="translate(-71.937 -170.702)"/>
                    <g id="prefix__Group_14115" data-name="Group 14115">
                        <path id="prefix__Path_24850" d="M98.923 154.713a3.338 3.338 0 0 0-.419-4.591 2.8 2.8 0 0 0-3.405-3.767 3.75 3.75 0 0 0-3.665-4.105 2.551 2.551 0 0 0-4.6-1.761c-1.739-1.7-4.576-1.252-6.942-.686a9.474 9.474 0 0 0-3.139 1.161 3.212 3.212 0 0 0-1.548 2.808 3.342 3.342 0 0 0-3.8 4.464c-1.984 1.3-2.8 3.748-3.488 6.017a14.582 14.582 0 0 1-2.2 5.191 13.632 13.632 0 0 0-2.988 5.6c-.308 1.616.508 3.6 2.128 3.888a3.965 3.965 0 0 0-1.521 6.915 4.021 4.021 0 0 0 .6 7.759 3.974 3.974 0 0 0 5.288 3.152 4.09 4.09 0 0 0 3.2 2.764c3.3.521 3.7-3.252 6.708-3.263 2.506-.009 4.2 2.855 6.679 3.2 1.952.268 3.722-1.091 5.173-2.423s3.049-2.81 5.019-2.855c2.984-.069 6.932 2.3 8.991-1.082a4.164 4.164 0 0 0-.772-5.118 3.124 3.124 0 0 0-1.422-5.159 2.44 2.44 0 0 0-.486-4.572c2.769.666-3.363-16.344-4.1-17.809-3.009-5.972-7.793-10.309-14.783-10.333a16.415 16.415 0 0 0-10.151 3.658 14.693 14.693 0 0 0-4.564 7.053 77.438 77.438 0 0 1-2.8 7.768q-.1.208-.212.419" class="prefix__cls-21" data-name="Path 24850" transform="translate(-60.044 -139.292)"/>
                        <g id="prefix__POLYLINE-26" data-name="POLYLINE" transform="translate(32.259 38.038)">
                            <path id="prefix__Path_24851" d="M122.6 218.713l-.329-1.3c-.827-3.27-.974-6.641-1.715-9.834-.713-3.071-3.428-5.773-5.485-8.039-.584-.643-3.692-4.015-4.179-4.593-.555-.624-2.906-3.417-3.512-4.127-.4-.454-1.009-1.145-1.417-1.579-.748-.795-1.207-1-2-1.747a75.672 75.672 0 0 0 .953 46.462c1.267 3.673 2.693 7.789 4.853 11.047 1.78 2.685 4.673 4.869 6.882 7.566 1.23 1.5 10.077 11.541 7.243 14.086a14.505 14.505 0 0 1 10.066-3.662c-1.863-6.3-3.34-12.574-4.939-18.895q-3.212-12.692-6.421-25.385z" class="prefix__cls-22" data-name="Path 24851" transform="translate(-100.764 -187.493)"/>
                        </g>
                        <path id="prefix__Path_24852" d="M122.032 226.634c2.468 5.8 5.421 10.819 5.9 17.185.606 8.038.907 16.113 1.36 24.162-.35-4.892-6.209-11.964-8.307-16.474-1.694-3.641-3.628-7.313-5.114-11.046q-2.594-6.515-4.9-13.139c-4.538-13.031-10.3-27.231-10.493-41.258 0 2.034 8.394 6.87 9.862 8.775 1.739 2.257 2.121 4.475 2.824 7.189 1.749 6.75 2.461 13.24 5.238 19.682l2.465-6.371c-1.437 3.716-.408 7.597 1.165 11.295z" class="prefix__cls-23" data-name="Path 24852" transform="translate(-68.445 -149.154)"/>
                        <g id="prefix__POLYLINE-27" data-name="POLYLINE" transform="translate(13.92 29.425)">
                            <path id="prefix__Path_24853" d="M99.369 181.3c-.473 0 2.714 3.656 2.883 3.845a11.036 11.036 0 0 1 2.74 4.549 9.8 9.8 0 0 1-.9 7.263 19.416 19.416 0 0 1-2.988 3.73c-1.9 2.01-2.263 3.408-4.725 2.382-1.733-.721-3.533-2.753-4.934-3.988a73.6 73.6 0 0 1-9.106-9.617c-1.84-2.332-4.805-5.234-4.813-8.4-.007-2.876 1.905-5.083 4.919-4.332 2.828.7 5.461 2.621 8.353 3.408a32.974 32.974 0 0 0 8.571 1.16z" class="prefix__cls-6" data-name="Path 24853" transform="translate(-77.525 -176.58)"/>
                        </g>
                        <g id="prefix__POLYLINE-28" data-name="POLYLINE" transform="translate(24.512 173.959)">
                            <path id="prefix__Path_24854" d="M91 362.692c.008-.408 12.79-2.52 14.019-2.713 5.232-.825 5.332.278 4.748 5.184-1.048 8.828-.939 17.446-.906 26.325.021 5.627.039 11.785.556 17.377a35.47 35.47 0 0 0 1.552 8.135 14.944 14.944 0 0 0 1.574 3.394 9.3 9.3 0 0 0 1.449 1.72 11.706 11.706 0 0 0 3.82 2.313c.915.357 2.239.725 3.191 1.009a11.869 11.869 0 0 1 1.179.418 4.24 4.24 0 0 1 1.287.81 3.181 3.181 0 0 1 .882 1.7 3.648 3.648 0 0 1-.081 1.79 2.431 2.431 0 0 1-1.238 1.527 2.62 2.62 0 0 1-.772.176c-1.577.112-10.085.024-11.844.047-4.735-.8-10.63-4.979-12.855-9.234s-3.048-9.085-3.725-13.839A290.278 290.278 0 0 1 91 362.692z" data-name="Path 24854" transform="translate(-90.947 -359.73)" style="fill:#3c545e"/>
                        </g>
                        <g id="prefix__POLYLINE-29" data-name="POLYLINE" transform="translate(15.803 178.023)">
                            <path id="prefix__Path_24855" d="M96.372 364.88a20.817 20.817 0 0 1-16.46 1.136c.107 5.315-.171 10.328.466 15.641.689 5.732 1.522 11.456 2.4 17.162a67.281 67.281 0 0 0 1.587 7.634 6.273 6.273 0 0 1 .237 2.382 8.6 8.6 0 0 1-.575 2.116c-.548 1.4-1.46 2.917-2.088 4.284a12.474 12.474 0 0 0-1.109 3.509 11.377 11.377 0 0 0 .016 2.893c.234 2.035.909 4.266 1.314 6.277a41.219 41.219 0 0 1 .5 5.076h3.595l.785-8.235a23.891 23.891 0 0 1 3.133 3 36.152 36.152 0 0 1 2.419 3.274 4.672 4.672 0 0 0 1.221 1.263 4.028 4.028 0 0 0 1.579.537 14.731 14.731 0 0 0 1.739.139c1.716.035 10.525.026 12.154.013a6.69 6.69 0 0 0 1.131-.1 1.8 1.8 0 0 0 .718-.315 2.444 2.444 0 0 0 .69-.831 3.33 3.33 0 0 0 .357-1.7 3.661 3.661 0 0 0-.487-1.7 2.944 2.944 0 0 0-.8-.866 4.942 4.942 0 0 0-1.049-.57c-1.116-.447-2.59-.782-3.722-1.185a11.486 11.486 0 0 1-5.126-3.3 10.638 10.638 0 0 1-1.513-2.416 24.668 24.668 0 0 1-1.614-5.051 116.7 116.7 0 0 1-1.657-16.908c-.421-10.315-.563-21.153.006-31.46z" class="prefix__cls-6" data-name="Path 24855" transform="translate(-79.912 -364.88)"/>
                        </g>
                        <path id="prefix__Path_24856" d="M79.064 359a77.078 77.078 0 0 0 34.7-4.837l1.655-27.107c-.2 3.245-14.041 7.089-16.636 7.844a165.244 165.244 0 0 1-17.417 3.767c-.119 1.433-1.156 20.297-2.302 20.333z" class="prefix__cls-22" data-name="Path 24856" transform="translate(-63.93 -178.881)"/>
                        <path id="prefix__Path_24857" d="M80.31 349.574c.012-.144 33.788-5.5 33.912-7.536s0-18.514 0-18.514H89.94l-7.246 4.214z" class="prefix__cls-23" data-name="Path 24857" transform="translate(-64.193 -178.137)"/>
                        <g id="prefix__POLYLINE-30" data-name="POLYLINE" transform="translate(0 33.479)">
                            <path id="prefix__Path_24858" d="M124.666 275.953c.564 2.513 1.12 5.35 1.555 7.89.172.888 1.482 9.609 1.665 10.785a35.8 35.8 0 0 0 .841 4.011c.144.52.444 1.258.606 1.776a3.121 3.121 0 0 1 .11.472 1.386 1.386 0 0 1-.019.544 1.215 1.215 0 0 1-.284.512l-.022.024-.023.024-.023.024a4.076 4.076 0 0 1-1.107.706 17.078 17.078 0 0 1-2.519.878c-5.867 1.558-14.476 2.622-20.455 3.809-5.086.976-10.538 2.278-15.513 3.707-2.609.729-7.1 2.2-9.726 2.619a10.339 10.339 0 0 1-1.892.148 3.818 3.818 0 0 1-1.2-.209 2.008 2.008 0 0 1-.713-.451 2.5 2.5 0 0 1-.511-.763 11.332 11.332 0 0 1-.625-2.966c-1.3-11.528-2.2-24.414-2.763-36-.233-5.571-.529-19.192-1.107-24.528a73.538 73.538 0 0 0-1.26-8.4 74.668 74.668 0 0 0-2.107-7.526c-1.162-3.47-3.378-9.251-4.277-12.732l-1.581-6.069c-2.76-5.053-2.061-9.42-.093-14.83 2.443-6.716 9.487-23.8 18.13-15.439 6.217 6.016 9.533 14.974 16.115 20.906 2.962 2.67 6.425 3.953 8.705 7.34 3.032 4.5 3.154 9.991 5.113 14.916 1.894 4.763 3.808 9.314 5.334 14.289 3.499 11.423 7.029 22.872 9.646 34.533z" class="prefix__cls-22" data-name="Path 24858" transform="translate(-59.886 -181.716)"/>
                        </g>
                        <path id="prefix__Path_24859" d="M86.533 248.944a10.144 10.144 0 0 0 5.681 1.469c3.1-.377 5.285-3.164 6.894-5.84 3.539-5.886 13.094-22.4 4.622-27.47-2.958-1.77-6.574-1.878-10.006-2.185s-7.122-1-9.46-3.534c-1.456-1.576-2.19-3.665-3.185-5.565s-2.465-3.778-4.557-4.251c-5.32-1.2-11.3 6.82-13.491 10.8-2.535 4.607-1.465 8.308.933 12.779 5.291 9.875 12.436 18.639 22.569 23.797z" class="prefix__cls-23" data-name="Path 24859" transform="translate(-60.242 -152.397)"/>
                        <g id="prefix__POLYLINE-31" data-name="POLYLINE" transform="translate(32.603 46.88)">
                            <path id="prefix__Path_24860" d="M107.819 200.742c2.232 2.952 4.011 7.674 3.116 10.973-.84 3.1-4.956 4.864-7.382 2.359-1.477-1.525-1.976-3.786-2.237-5.821a8.019 8.019 0 0 1 .188-3.643c1.162-2.345 1.918-.011 2.8 1.7l-.157-5.869a1.856 1.856 0 0 1 .425-1.525c.645-.537 1.608.013 2.2.608a11.95 11.95 0 0 1 1.047 1.218z" class="prefix__cls-8" data-name="Path 24860" transform="translate(-101.2 -198.698)"/>
                        </g>
                        <g id="prefix__POLYLINE-32" data-name="POLYLINE" transform="translate(.35 44.79)">
                            <path id="prefix__Path_24861" d="M81.411 207.067c2.506 4.227 4.9 9.546 8.491 12.916.08.075 4.922-8.727 5.449-9.391 3.674-4.621 10.2-.525 12.344 3.552 3.191 6.057-4.471 13.066-7.491 18.129-2.221 3.724-5.989 10.055-11.276 8.441-4.278-1.306-9.112-5.671-12.625-8.41a79.148 79.148 0 0 1-11.979-11.389 19.385 19.385 0 0 1-2.417-3.449 11.108 11.108 0 0 1-.878-2.244 23.548 23.548 0 0 1-.645-4.486 24.567 24.567 0 0 1 .786-8.35 8.575 8.575 0 0 1 9.7-6.24c6.373.898 7.711 6.148 10.541 10.921z" class="prefix__cls-22" data-name="Path 24861" transform="translate(-60.33 -196.049)"/>
                        </g>
                        <g id="prefix__POLYLINE-33" data-name="POLYLINE" transform="translate(13.647 10.073)">
                            <path id="prefix__Path_24862" d="M98.986 154.43c1.065 1.966 1 6.52 1.1 8.359.144 2.693-.06 5.418.169 8.1a8.583 8.583 0 0 1-.463 4.64c-1.278 2.516-4.921 2.008-7.116 1.226a29.694 29.694 0 0 1-7.7-3.922c-1.535-1.137-3.074-2.523-3.337-4.537a1.561 1.561 0 0 1-1.555 1.653 2.52 2.52 0 0 1-2.1-1.42 7.423 7.423 0 0 1-.674-2.561 6.173 6.173 0 0 1-.016-2.4 2.1 2.1 0 0 1 1.6-1.623 3.14 3.14 0 0 1 2.421 1.26c.2-2.547-.2-5.918 1.444-8.028 1.249-1.6 2.539-3 4.708-3.105 2.772-.14 5.743.559 8.494.883a4.406 4.406 0 0 1 2.6.893 2.292 2.292 0 0 1 .425.582z" class="prefix__cls-8" data-name="Path 24862" transform="translate(-77.179 -152.057)"/>
                        </g>
                        <path id="prefix__Path_24863" d="M98.466 165.757a3.959 3.959 0 0 0-3.766-1.509A5.855 5.855 0 0 0 92.12 166a33.241 33.241 0 0 0-3.227 3.516 13.311 13.311 0 0 1-3.617-1.133 13.106 13.106 0 0 1-4.3-3.617c-.17-.216-.539.067-.383.3a12.167 12.167 0 0 0 7.787 5.153c-1.629 2.4-2.08 4.287-.172 6.634a10.028 10.028 0 0 0 6.487 3.494c1.4.162 2.943-.712 4.178-1.329a5.5 5.5 0 0 0 2.826-4.557c.295-3.12-1.246-6.348-3.233-8.704z" class="prefix__cls-10" data-name="Path 24863" transform="translate(-64.244 -144.538)"/>
                    </g>
                    <path id="prefix__Path_24864" d="M101.924 151.219a17.152 17.152 0 0 0-3.6-4.521c-1.765-1.544-4.509-.578-6.623-.646a14.01 14.01 0 0 0-7.278 2.075c-1.143.661-3.863 2.322-3.835 3.847.03 1.607 2.487 2.648 3.79 2.476a3.3 3.3 0 0 0 1.409-.543 3.593 3.593 0 0 0 1.614-2.967c1.327 2.678 5.8 6.022 8.648 3.468a7.627 7.627 0 0 0 .733 2.144 2.585 2.585 0 0 0 1.757 1.322 1.581 1.581 0 0 0 1.767-1.078 5.18 5.18 0 0 0 .365 2.281 1.773 1.773 0 0 0 1.881 1.052c1.027-.259 1.322-1.575 1.282-2.633a14.341 14.341 0 0 0-1.91-6.277z" class="prefix__cls-21" data-name="Path 24864" transform="translate(-64.251 -140.668)"/>
                    <path id="prefix__Path_24865" d="M112.037 277.895c-.073-.475-.728-.358-.791.061-.019.126-.02.264-.035.395a.5.5 0 0 0-.485-.009c-6.694 3.262-13.5 6.683-19.9 10.495a.35.35 0 0 0-.1.535.322.322 0 0 0-.257.41c.426 1.392.981 2.731 1.454 4.108a.537.537 0 0 0 .758.358c3.236-1.533 6.407-3.219 9.6-4.848a97.587 97.587 0 0 0 9.532-4.968.491.491 0 0 0 .2-.632 26.671 26.671 0 0 0 .024-5.905zm-10.29 10.478c-3.021 1.544-6.07 3.051-9.051 4.672-.511-1.171-.981-2.359-1.548-3.506a.331.331 0 0 0-.04-.051.486.486 0 0 0 .054-.013c6.773-3 13.461-6.555 19.959-10.112a34.258 34.258 0 0 0 .156 4.224 99.554 99.554 0 0 0-9.529 4.785z" class="prefix__cls-23" data-name="Path 24865" transform="translate(-66.332 -168.451)"/>
                </g>
            </g>
        </g>
    </g>
</svg>
