<svg xmlns="http://www.w3.org/2000/svg" id="Group_3490" width="14.731" height="11.211" data-name="Group 3490" viewBox="0 0 14.731 11.211">
    <defs>
        <style>
            .cls-1{fill:#fb9202}
        </style>
    </defs>
    <path id="Path_861" d="M12.933 57.75H1.8a1.8 1.8 0 0 0-1.8 1.8v7.608a1.8 1.8 0 0 0 1.8 1.8h11.13a1.8 1.8 0 0 0 1.8-1.8v-7.6a1.8 1.8 0 0 0-1.797-1.808zm.978 9.409a.98.98 0 0 1-.978.978H1.8a.98.98 0 0 1-.978-.978v-7.6a.98.98 0 0 1 .978-.978h11.13a.98.98 0 0 1 .978.978v7.6z" class="cls-1" data-name="Path 861" transform="translate(0 -57.75)"/>
    <path id="Path_862" d="M63.343 112.854l3.6-3.231a.412.412 0 1 0-.552-.613l-4.968 4.459-.969-.866s-.006-.006-.006-.009a.61.61 0 0 0-.067-.058l-3.944-3.53a.412.412 0 1 0-.549.616l3.645 3.258-3.63 3.4a.413.413 0 0 0-.018.582.421.421 0 0 0 .3.131.412.412 0 0 0 .28-.11l3.685-3.447 1 .893a.41.41 0 0 0 .549 0l1.027-.921 3.664 3.481a.413.413 0 0 0 .582-.015.413.413 0 0 0-.015-.582z" class="cls-1" data-name="Path 862" transform="translate(-54.053 -107.343)"/>
</svg>
