<svg xmlns="http://www.w3.org/2000/svg" width="26.301" height="26.301" viewBox="0 0 26.301 26.301">
    <g id="prefix__linkedin_2_" data-name="linkedin (2)">
        <circle id="prefix__Ellipse_328" cx="13.15" cy="13.15" r="13.15" data-name="Ellipse 328" style="fill:#fff"/>
        <g id="prefix__Group_4866" data-name="Group 4866" transform="translate(6.345 5.619)">
            <path id="prefix__Path_13002" d="M41.73 32.559v5.421h-3.143v-5.058c0-1.27-.454-2.137-1.592-2.137a1.719 1.719 0 0 0-1.612 1.149 2.151 2.151 0 0 0-.1.766v5.28h-3.148s.042-8.567 0-9.454h3.144v1.34c-.006.011-.015.021-.021.031h.021v-.031a3.121 3.121 0 0 1 2.833-1.566c2.068 0 3.618 1.351 3.618 4.254zm-12.884-8.59a1.638 1.638 0 1 0-.041 3.267h.02a1.639 1.639 0 1 0 .021-3.267zM27.255 37.98H30.4v-9.454h-3.145z" data-name="Path 13002" transform="translate(-27.068 -23.969)"/>
        </g>
    </g>
</svg>
