<svg xmlns="http://www.w3.org/2000/svg" width="26.301" height="26.301" viewBox="0 0 26.301 26.301">
    <defs>
        <style>
            .prefix__cls-2{fill:#dc4e41}
        </style>
    </defs>
    <g id="prefix__google-plus">
        <g id="prefix__Group_4863" data-name="Group 4863">
            <circle id="prefix__XMLID_30_" cx="13.15" cy="13.15" r="13.15" style="fill:#fff"/>
        </g>
        <g id="prefix__Group_4865" data-name="Group 4865" transform="translate(4.575 8.309)">
            <path id="prefix__Path_12998" d="M19.52 40.875A5.419 5.419 0 0 0 23.176 46a5.348 5.348 0 0 0 5.846-1.558 6.129 6.129 0 0 0 1.1-4.336c-1.729-.015-3.459-.01-5.185-.008v1.846c1.035.029 2.071.015 3.107.036a3 3 0 0 1-1.76 2.053 3.425 3.425 0 1 1-2.307-6.444 3.808 3.808 0 0 1 3.205.627c.481-.451.932-.932 1.375-1.419a5.451 5.451 0 0 0-9.035 4.077z" class="prefix__cls-2" data-name="Path 12998" transform="translate(-19.517 -35.446)"/>
            <path id="prefix__Path_12999" d="M74 48.668c-.005.515-.011 1.033-.013 1.548-.518.005-1.033.008-1.548.01v1.543c.515 0 1.033.005 1.548.011.013.52.013 1.03.013 1.548h1.543c0-.518.005-1.033.011-1.551l1.546-.007v-1.543c-.515 0-1.033-.005-1.548-.01 0-.515-.008-1.033-.011-1.548z" class="prefix__cls-2" data-name="Path 12999" transform="translate(-60.035 -45.568)"/>
            <g id="prefix__Group_4864" data-name="Group 4864">
                <path id="prefix__Path_13000" d="M19.52 40.875a5.451 5.451 0 0 1 9.035-4.075c-.443.487-.893.968-1.375 1.419a3.808 3.808 0 0 0-3.205-.627 3.425 3.425 0 1 0 2.307 6.444 3 3 0 0 0 1.76-2.053c-1.035-.021-2.071-.008-3.107-.036 0-.616-.005-1.23 0-1.846 1.727 0 3.456-.008 5.185.008a6.127 6.127 0 0 1-1.1 4.336A5.348 5.348 0 0 1 23.175 46a5.419 5.419 0 0 1-3.655-5.125z" data-name="Path 13000" transform="translate(-19.517 -35.445)"/>
                <path id="prefix__Path_13001" d="M74 48.668h1.54c0 .515.008 1.033.011 1.548.515.005 1.033.008 1.548.01v1.543l-1.548.008c-.005.518-.008 1.033-.011 1.551h-1.543c0-.518 0-1.033-.01-1.548-.515-.005-1.033-.008-1.548-.011v-1.543q.773 0 1.548-.01c.006-.516.013-1.033.013-1.548z" data-name="Path 13001" transform="translate(-60.035 -45.568)"/>
            </g>
        </g>
    </g>
</svg>
