<svg xmlns="http://www.w3.org/2000/svg" width="32.72" height="26.23" viewBox="0 0 32.72 26.23">
    <defs>
        <style>
            .cls-1{fill:#d9d9d9}.cls-2{fill:#f2f2f2}.cls-3{fill:#fff}.cls-4{fill:#e8e8e8}
        </style>
    </defs>
    <g id="Group_5398" data-name="Group 5398" transform="translate(-421.27 -194)">
        <path id="Path_13187" d="M923.471 1951.714a8.717 8.717 0 0 1-3.5-5.407c-.07-.292.021-.662-.359-.823v-.177a3.536 3.536 0 0 0 0-1.769v-.177a16.516 16.516 0 0 1 .724-2.677 10.128 10.128 0 0 1 3.563-4.229 9.452 9.452 0 0 1 6.948-1.3 10.062 10.062 0 0 1 4.879 2.694c.794.824.807 1.008.024 1.807q-1.3 1.323-2.621 2.622c-.812.8-.881.792-1.661-.053a3.269 3.269 0 0 0-4.251-.589 3.323 3.323 0 0 0-1.275 4.109c.306.8 1.074 1.144 1.534 1.78a.7.7 0 0 1-.254.627c-1.13 1.155-2.259 2.31-3.433 3.42a.713.713 0 0 1-.318.142z" class="cls-1" data-name="Path 13187" transform="translate(-498.342 -1733.425)"/>
        <path id="Path_13188" d="M1019.617 1910.569a11.782 11.782 0 0 1 3.677 5.5 2.252 2.252 0 0 0 .779 1.121 9.192 9.192 0 0 1-5.7 16.35c-2.383.009-4.766-.021-7.15-.034a.727.727 0 0 1-.241-.55 32.342 32.342 0 0 1 .081-4.917c.273-.483.755-.388 1.179-.392 1.942-.017 3.884.006 5.826-.012a3.319 3.319 0 0 0 2.827-1.371 3.2 3.2 0 0 0-1.748-5.083 1.283 1.283 0 0 1-1.114-1.394 6.738 6.738 0 0 0-1.914-4.441 2.062 2.062 0 0 1-.519-.7.644.644 0 0 1 .26-.612q1.59-1.627 3.216-3.217a.646.646 0 0 1 .541-.248z" class="cls-2" data-name="Path 13188" transform="translate(-573.509 -1713.348)"/>
        <path id="Path_13189" d="M964.233 1895.6l-3.946 3.983a1.009 1.009 0 0 1-.82-.24 6.714 6.714 0 0 0-8.07.588 4.667 4.667 0 0 1-.682.4 10.071 10.071 0 0 0-7.07 1.3 12.374 12.374 0 0 1 9.062-8.858 20.873 20.873 0 0 1 2.25-.4l1.95.007a12.65 12.65 0 0 1 7.326 3.22z" class="cls-3" data-name="Path 13189" transform="translate(-518.125 -1698.374)"/>
        <path id="Path_13190" d="M954.017 2006.406v5.59a68.383 68.383 0 0 1-8.71-.135 7.192 7.192 0 0 1-3.879-1.734l3.994-4.071a.438.438 0 0 1 .4-.127 62.925 62.925 0 0 0 6.956.171c.432.017.898-.081 1.239.306z" class="cls-4" data-name="Path 13190" transform="translate(-516.3 -1791.839)"/>
    </g>
</svg>
