<svg xmlns="http://www.w3.org/2000/svg" width="33.874" height="30.161" viewBox="0 0 33.874 30.161">
    <defs>
        <style>
            .cls-1{fill:#fefefe}
        </style>
    </defs>
    <g id="GOOGLE" transform="translate(936.325 -746.487)">
        <path id="Path_13151" d="M-902.467 761.172a2.357 2.357 0 0 0-.318-1.2c-.381-.645-.752-1.3-1.125-1.945q-1.8-3.122-3.6-6.239c-.741-1.284-1.463-2.578-2.229-3.846a2.693 2.693 0 0 0-2.5-1.459h-14.3a2.575 2.575 0 0 0-1.016.158 3.146 3.146 0 0 0-1.472 1.3c-.94 1.613-1.87 3.232-2.8 4.849l-4.024 6.969a2.759 2.759 0 0 0-.428 1.033 6.559 6.559 0 0 0-.025 1.255 2.2 2.2 0 0 0 .275.952c1.119 1.955 2.249 3.9 3.375 5.855q1.77 3.07 3.545 6.138a3.017 3.017 0 0 0 2.807 1.646c3.966-.02 7.932-.007 11.9-.007h2.066c.061 0 .133.028.177-.043a1.756 1.756 0 0 0 .393-.057 3.026 3.026 0 0 0 2-1.5l3.319-5.749q.619-1.074 1.233-2.151a.217.217 0 0 0 .035.02c.092.01.1-.072.132-.124q1.108-1.907 2.207-3.821a2.23 2.23 0 0 0 .355-.972 2.764 2.764 0 0 1 .038-.4v-.6c-.025-.007-.02-.034-.02-.062zm-9.844 7.021c-.143.152-.29.3-.445.443a.288.288 0 0 1-.451 0c-.046-.04-.088-.084-.13-.127l-2.07-2.068c-.175-.175-.177-.173-.373-.032a6.023 6.023 0 0 1-3.48 1.176 6.067 6.067 0 0 1-3.117-.787 6.75 6.75 0 0 1-.621-.409.391.391 0 0 0-.054-.036 6.167 6.167 0 0 1-.856-.8 5.93 5.93 0 0 1-1.466-4.713 5.792 5.792 0 0 1 2.009-3.829 5.9 5.9 0 0 1 4.7-1.461 5.933 5.933 0 0 1 3.553 1.7c.235.227.424.491.636.737.011.012.022.031.033.043l.017.03c.042.071.09.139.134.209a6 6 0 0 1 .683 5.088 5.95 5.95 0 0 1-.925 1.817c-.119.163-.114.173.03.318.318.321.638.639.957.959.413.414.83.823 1.237 1.241.177.188.175.313-.002.501z" class="cls-1" data-name="Path 13151"/>
        <path id="Path_13152" d="M-559.969 1061.18a4.666 4.666 0 0 0-4.651 4.654 4.667 4.667 0 0 0 4.662 4.66 4.666 4.666 0 0 0 4.651-4.655 4.665 4.665 0 0 0-4.662-4.659zm-1.77 7.452c-.051.034-.092-.017-.13-.044a3.33 3.33 0 0 1-.944-.98.392.392 0 0 1-.062-.218v-1.6c0-.146.05-.193.191-.188.269.008.54.006.809 0 .122 0 .163.046.162.166v2.741c-.003.041.013.097-.026.123zm2.316.28c0 .224 0 .233-.226.254a3.371 3.371 0 0 1-.775-.014.156.156 0 0 1-.159-.183v-.843-3.885c0-.25 0-.25.245-.251h.678c.233 0 .236 0 .237.244v2.331l.001 2.346zm2.4-1.592a.38.38 0 0 1-.06.2 3.346 3.346 0 0 1-.94 1.027c-.038.027-.077.081-.129.052s-.028-.09-.028-.137v-.957-.941c0-.13.047-.174.174-.172.275.006.55.006.825 0 .123 0 .165.048.162.167-.002.254 0 .507.002.761z" class="cls-1" data-name="Path 13152" transform="translate(-359.415 -304.29)"/>
    </g>
</svg>
