<svg xmlns="http://www.w3.org/2000/svg" width="26.723" height="26.728" viewBox="0 0 26.723 26.728">
    <defs>
        <style>
            .cls-1{fill:#fefefe}
        </style>
    </defs>
    <g id="GREENPLUM" transform="translate(-607.979 -421.579)">
        <path id="Path_13135" d="M621.546 421.58a13.364 13.364 0 1 0 13.156 13.4 13.233 13.233 0 0 0-13.156-13.4zm8.161 10.157a7.675 7.675 0 0 1-.992.98 39.471 39.471 0 0 0-8.635 9.532c-2.2 3.246-3.955 3.278-6.664.426a11.343 11.343 0 0 1 7.994-19.043 11.337 11.337 0 0 1 8.289 3.422c1.582 1.659 1.57 2.966.009 4.683z" class="cls-1" data-name="Path 13135"/>
        <path id="Path_13136" d="M636.9 444.922a25.069 25.069 0 0 0-4.461 5.027c-1.04 1.573-1.9 1.5-3-.08a5.494 5.494 0 0 1-.944-2.983 5.551 5.551 0 0 1 7.963-4.886c1.742.891 1.892 1.656.442 2.922z" class="cls-1" data-name="Path 13136" transform="translate(-12.347 -11.939)"/>
    </g>
</svg>
