<svg xmlns="http://www.w3.org/2000/svg" width="38.949" height="34.5" viewBox="0 0 38.949 34.5">
    <defs>
        <style>
            .cls-1{fill:#fff}
        </style>
    </defs>
    <g id="Group_5394" data-name="Group 5394" transform="translate(-167 -189)">
        <path id="Path_13174" d="M3433.814 253.38c-.127.52-.159 1.057-.289 1.579a10.1 10.1 0 0 1-8.371 7.62 10.867 10.867 0 0 1-1.567.11q-10.041-.007-20.082 0a8.525 8.525 0 0 1-8.53-7.249 8.177 8.177 0 0 1 1.171-5.739c.2-.322.4-.316.645-.118a4.267 4.267 0 0 0 .513.392c.24.14.108.334.016.5a7.8 7.8 0 0 0-.858 2.331 7.083 7.083 0 0 0 6.154 8.337 9.968 9.968 0 0 0 1.11.06h19.813a8.621 8.621 0 0 0 8.737-7.659 8.3 8.3 0 0 0-1.879-6.449 8.492 8.492 0 0 0-5.358-3.1c-.5-.087-.5-.084-.443-.611.1-.9.1-.9 1-.728a10.114 10.114 0 0 1 8.125 8.55c.027.188-.022.388.088.562z" class="cls-1" data-name="Path 13174" transform="translate(-3227.865 -39.189)"/>
        <path id="Path_13175" d="M3639.886 55.377a.905.905 0 0 1 .545.958c-.018 1.24 0 2.481-.006 3.722a.749.749 0 0 1-.579.834.709.709 0 0 1-.875-.681 220.168 220.168 0 0 1 0-4.144c0-.355.249-.541.532-.689z" class="cls-1" data-name="Path 13175" transform="translate(-3453.215 133.623)"/>
        <path id="Path_13176" d="M3490.053 160.259a11.258 11.258 0 0 1 4.424.686c.445.153.457.18.277.592-.366.838-.362.82-1.242.589a11.592 11.592 0 0 0-10.962 2.373 11.728 11.728 0 0 0-4.076 7.6 11.858 11.858 0 0 0-.092 1.26c-.009.234-.11.375-.335.385a6.938 6.938 0 0 1-.88-.021c-.211-.018-.15-.206-.155-.334a11.293 11.293 0 0 1 1.013-5.187 13.074 13.074 0 0 1 10.744-7.931 8.973 8.973 0 0 1 1.284-.012z" class="cls-1" data-name="Path 13176" transform="translate(-3303.696 36.816)"/>
        <path id="Path_13177" d="M3408.534 189.047a.9.9 0 0 1 .436.135c1.095.636 2.192 1.267 3.285 1.907.485.283.617.675.385 1.084a.726.726 0 0 1-1.1.21q-1.7-.962-3.39-1.955a.732.732 0 0 1 .382-1.38z" class="cls-1" data-name="Path 13177" transform="translate(-3239.761 10.219)"/>
        <path id="Path_13178" d="M3828.456 189.325a.679.679 0 0 1 .743.516.7.7 0 0 1-.368.843q-1.425.831-2.854 1.656a7.516 7.516 0 0 1-.672.37.721.721 0 0 1-.707-1.254c1.176-.7 2.366-1.376 3.551-2.06a.6.6 0 0 1 .307-.071z" class="cls-1" data-name="Path 13178" transform="translate(-3624.284 9.963)"/>
        <path id="Path_13179" d="M3506.627 91.347a.668.668 0 0 1 .594.355c.664 1.149 1.335 2.294 1.99 3.449a.736.736 0 1 1-1.271.725c-.649-1.114-1.3-2.228-1.923-3.355-.334-.602-.017-1.187.61-1.174z" class="cls-1" data-name="Path 13179" transform="translate(-3330.357 100.416)"/>
        <path id="Path_13180" d="M3749.6 92.078a1.132 1.132 0 0 1-.218.618c-.591 1.031-1.188 2.06-1.776 3.093a.807.807 0 0 1-.818.513.725.725 0 0 1-.514-1.137c.424-.774.875-1.532 1.316-2.3.23-.4.46-.8.7-1.191a.662.662 0 0 1 .834-.287.64.64 0 0 1 .476.691z" class="cls-1" data-name="Path 13180" transform="translate(-3552.174 100.417)"/>
    </g>
</svg>
