<?xml version="1.0" encoding="utf-8"?>
<!-- Generator: Adobe Illustrator 23.0.4, SVG Export Plug-In . SVG Version: 6.00 Build 0)  -->
<svg version="1.1" id="Layer_1" xmlns="http://www.w3.org/2000/svg" xmlns:xlink="http://www.w3.org/1999/xlink" x="0px" y="0px"
	 viewBox="0 0 24 24" style="enable-background:new 0 0 24 24;" xml:space="preserve">
<g>
	<path d="M8.2,16c1.1,0,2,0.9,2,2s-0.9,2-2,2s-2-0.9-2-2S7.1,16,8.2,16 M8.2,10c1.1,0,2,0.9,2,2s-0.9,2-2,2s-2-0.9-2-2
		S7.1,10,8.2,10 M8.2,4c1.1,0,2,0.9,2,2s-0.9,2-2,2s-2-0.9-2-2S7.1,4,8.2,4z"/>
	<path d="M15.8,16c1.1,0,2,0.9,2,2s-0.9,2-2,2s-2-0.9-2-2S14.7,16,15.8,16 M15.8,10c1.1,0,2,0.9,2,2s-0.9,2-2,2s-2-0.9-2-2
		S14.7,10,15.8,10 M15.8,4c1.1,0,2,0.9,2,2s-0.9,2-2,2s-2-0.9-2-2S14.7,4,15.8,4z"/>
</g>
</svg>
