<svg xmlns="http://www.w3.org/2000/svg" width="70" height="70" viewBox="0 0 70 70">
    <defs>
        <style>
            .cls-1{fill:#efefef}.cls-2{fill:none}.cls-3{fill:#ec5900}
        </style>
    </defs>
    <g id="Group_3370" data-name="Group 3370" transform="translate(-1093 -277)">
        <ellipse id="Ellipse_47" cx="35" cy="35" class="cls-1" data-name="Ellipse 47" rx="35" ry="35" transform="translate(1093 277)"/>
        <g id="certificate" transform="translate(1112 296)">
            <path id="Rectangle_2071" d="M0 0h32v32H0z" class="cls-2" data-name="Rectangle 2071"/>
            <g id="Group_1733" data-name="Group 1733" transform="translate(-1111 -575)">
                <g id="Group_1630" data-name="Group 1630" transform="translate(1112 576)">
                    <g id="Group_1629" data-name="Group 1629">
                        <path id="Path_210" d="M28.127 0H1.877A1.871 1.871 0 0 0 0 1.867v21.156a1.871 1.871 0 0 0 1.877 1.867h15v-1.245h-15a.624.624 0 0 1-.625-.622V1.867a.624.624 0 0 1 .625-.622h26.25a.624.624 0 0 1 .625.622v21.156a.624.624 0 0 1-.625.622h-1.25v1.245h1.25A1.871 1.871 0 0 0 30 23.023V1.867A1.871 1.871 0 0 0 28.127 0z" class="cls-3" data-name="Path 210" transform="translate(-.002)"/>
                    </g>
                </g>
                <g id="Group_1632" data-name="Group 1632" transform="translate(1115.194 579.194)">
                    <g id="Group_1631" data-name="Group 1631">
                        <path id="Path_211" d="M76.326 56.527a2.521 2.521 0 0 1-2.485-2.555.63.63 0 0 0-.621-.639H57.063a.63.63 0 0 0-.621.639 2.521 2.521 0 0 1-2.486 2.555.63.63 0 0 0-.621.639v11.5a.63.63 0 0 0 .621.639 2.521 2.521 0 0 1 2.486 2.555.63.63 0 0 0 .621.639h8.078v-1.281h-7.508a3.792 3.792 0 0 0-3.055-3.141V57.751a3.792 3.792 0 0 0 3.055-3.141h15.016a3.792 3.792 0 0 0 3.051 3.141v5.163h1.243v-5.748a.63.63 0 0 0-.617-.639z" class="cls-3" data-name="Path 211" transform="translate(-53.335 -53.333)"/>
                    </g>
                </g>
                <g id="Group_1634" data-name="Group 1634" transform="translate(1127.948 588.951)">
                    <g id="Group_1633" data-name="Group 1633">
                        <path id="Path_212" d="M283.085 224a5.749 5.749 0 1 0 5.749 5.749 5.749 5.749 0 0 0-5.749-5.749zm0 10.22a4.471 4.471 0 1 1 4.471-4.471 4.471 4.471 0 0 1-4.471 4.471z" class="cls-3" data-name="Path 212" transform="translate(-277.336 -224)"/>
                    </g>
                </g>
                <g id="Group_1636" data-name="Group 1636" transform="translate(1129.864 598.335)">
                    <g id="Group_1635" data-name="Group 1635">
                        <path id="Path_213" d="M315.723 384v5.7l-2.156-1.725a.639.639 0 0 0-.8 0l-2.156 1.725V384h-1.277v7.026a.639.639 0 0 0 1.038.5l2.795-2.236 2.795 2.236a.639.639 0 0 0 1.038-.5V384z" class="cls-3" data-name="Path 213" transform="translate(-309.336 -384)"/>
                    </g>
                </g>
                <g id="Group_1638" data-name="Group 1638" transform="translate(1119.974 582.23)">
                    <g id="Group_1637" data-name="Group 1637">
                        <path id="Path_214" d="M152.083 106.667h-12.775a.639.639 0 0 0-.639.639v2.555a.639.639 0 0 0 .639.639h12.775a.639.639 0 0 0 .639-.639v-2.555a.639.639 0 0 0-.639-.639zm-.639 2.555h-11.5v-1.277h11.5z" class="cls-3" data-name="Path 214" transform="translate(-138.669 -106.667)"/>
                    </g>
                </g>
                <g id="Group_1640" data-name="Group 1640" transform="translate(1119.493 587.863)">
                    <g id="Group_1639" data-name="Group 1639">
                        <path id="Rectangle_364" d="M0 0h1.277v1.277H0z" class="cls-3" data-name="Rectangle 364"/>
                    </g>
                </g>
                <g id="Group_1642" data-name="Group 1642" transform="translate(1121.991 587.863)">
                    <g id="Group_1641" data-name="Group 1641">
                        <path id="Rectangle_365" d="M0 0h1.277v1.277H0z" class="cls-3" data-name="Rectangle 365"/>
                    </g>
                </g>
                <g id="Group_1644" data-name="Group 1644" transform="translate(1119.445 590.361)">
                    <g id="Group_1643" data-name="Group 1643">
                        <path id="Rectangle_366" d="M0 0h7.665v1.277H0z" class="cls-3" data-name="Rectangle 366"/>
                    </g>
                </g>
                <g id="Group_1646" data-name="Group 1646" transform="translate(1130.642 591.534)">
                    <g id="Group_1645" data-name="Group 1645">
                        <path id="Path_215" d="M323.2 266.667a3.194 3.194 0 1 0 3.194 3.194 3.194 3.194 0 0 0-3.194-3.194zm0 5.11a1.916 1.916 0 1 1 1.916-1.916 1.916 1.916 0 0 1-1.916 1.916z" class="cls-3" data-name="Path 215" transform="translate(-320.003 -266.667)"/>
                    </g>
                </g>
                <g id="Group_1648" data-name="Group 1648" transform="translate(1115.194 596.605)">
                    <g id="Group_1647" data-name="Group 1647">
                        <path id="Rectangle_367" d="M0 0h1.277v1.277H0z" class="cls-3" data-name="Rectangle 367"/>
                    </g>
                </g>
                <g id="Group_1650" data-name="Group 1650" transform="translate(1137.529 579.194)">
                    <g id="Group_1649" data-name="Group 1649">
                        <path id="Rectangle_368" d="M0 0h1.277v1.277H0z" class="cls-3" data-name="Rectangle 368"/>
                    </g>
                </g>
                <g id="Group_1652" data-name="Group 1652" transform="translate(1115.194 579.194)">
                    <g id="Group_1651" data-name="Group 1651">
                        <path id="Rectangle_369" d="M0 0h1.277v1.277H0z" class="cls-3" data-name="Rectangle 369"/>
                    </g>
                </g>
            </g>
        </g>
    </g>
</svg>
