<svg xmlns="http://www.w3.org/2000/svg" width="14" height="14" viewBox="0 0 14 14">
    <defs>
        <style>
            .cls-1{fill:#ff9f00}
        </style>
    </defs>
    <g id="file_1_" data-name="file (1)" transform="translate(-.5)">
        <path id="Path_13047" d="M14.228 12.417l-2.17-2.17a3.549 3.549 0 0 0-.512-4.224v-3.07a.273.273 0 0 0-.079-.193L8.787.08A.273.273 0 0 0 8.593 0H1.32A.821.821 0 0 0 .5.82v12.36a.821.821 0 0 0 .82.82h9.406a.821.821 0 0 0 .82-.82v-.822l1.371 1.371a.927.927 0 1 0 1.311-1.311zm-5.252-.933a3.008 3.008 0 1 1 3.008-3.008 3.011 3.011 0 0 1-3.007 3.008zM8.867.934l1.746 1.746H9.14a.274.274 0 0 1-.273-.273zM11 13.18a.274.274 0 0 1-.273.273H1.32a.274.274 0 0 1-.273-.273V.82A.274.274 0 0 1 1.32.547h7v1.859a.821.821 0 0 0 .82.82H11v2.329a3.554 3.554 0 0 0-5.4 4.019H2.254a.273.273 0 1 0 0 .547h3.492a.271.271 0 0 0 .074-.011 3.552 3.552 0 0 0 4.927 1.448l.252.252zm2.842.162a.381.381 0 0 1-.538 0l-2.1-2.1a3.586 3.586 0 0 0 .538-.538l2.1 2.1a.381.381 0 0 1 0 .538zm0 0" class="cls-1" data-name="Path 13047"/>
        <path id="Path_13049" d="M57.387 280.793h-2.461a.273.273 0 0 0 0 .547h2.461a.273.273 0 0 0 0-.547zm0 0" class="cls-1" data-name="Path 13049" transform="translate(-52.672 -273.115)"/>
        <path id="Path_13050" d="M57.549 211.461h-2.623a.273.273 0 0 0 0 .547h2.623a.273.273 0 0 0 0-.547zm0 0" class="cls-1" data-name="Path 13050" transform="translate(-52.672 -205.679)"/>
        <path id="Path_13051" d="M180.773 419.461a.273.273 0 1 0 .194.08.275.275 0 0 0-.194-.08zm0 0" class="cls-1" data-name="Path 13051" transform="translate(-175.078 -407.991)"/>
        <path id="Path_13052" d="M57.244 419.461h-2.318a.273.273 0 0 0 0 .547h2.318a.273.273 0 0 0 0-.547zm0 0" class="cls-1" data-name="Path 13052" transform="translate(-52.672 -407.991)"/>
        <path id="Path_13053" d="M54.922 142.676a.273.273 0 1 0-.193-.08.275.275 0 0 0 .193.08zm0 0" class="cls-1" data-name="Path 13053" transform="translate(-52.668 -138.243)"/>
        <path id="Path_13054" d="M101.4 142.129h-4.087a.273.273 0 0 0 0 .547h4.087a.273.273 0 1 0 0-.547zm0 0" class="cls-1" data-name="Path 13054" transform="translate(-93.899 -138.243)"/>
        <path id="Path_13055" d="M54.926 73.34h5.246a.273.273 0 0 0 0-.547h-5.246a.273.273 0 0 0 0 .547zm0 0" class="cls-1" data-name="Path 13055" transform="translate(-52.672 -70.803)"/>
    </g>
</svg>
