<svg xmlns="http://www.w3.org/2000/svg" width="20" height="20" viewBox="0 0 20 20">
    <defs>
        <style>
            .cls-1{fill:#f0f0f0}.cls-2{fill:none}
        </style>
    </defs>
    <g id="Group_4984" data-name="Group 4984" transform="translate(-15719 -11144)">
        <g id="paint-brushes" transform="translate(15722.109 11147)">
            <g id="Group_4960" data-name="Group 4960" transform="translate(13.416 2.375)">
                <g id="Group_4959" data-name="Group 4959">
                    <path id="Path_12997" d="M492.568 77.228a.336.336 0 1 0 0 .475.336.336 0 0 0 0-.475z" class="cls-1" data-name="Path 12997" transform="translate(-491.994 -77.13)"/>
                </g>
            </g>
            <g id="Group_4962" data-name="Group 4962" transform="translate(12.466 .475)">
                <g id="Group_4961" data-name="Group 4961">
                    <path id="Path_12998" d="M464.285 20.658a.336.336 0 1 0 0 .475.336.336 0 0 0 0-.475z" class="cls-1" data-name="Path 12998" transform="translate(-463.711 -20.56)"/>
                </g>
            </g>
            <g id="Group_4964" data-name="Group 4964" transform="translate(10.717)">
                <g id="Group_4963" data-name="Group 4963">
                    <path id="Path_12999" d="M393.575 6.518a.336.336 0 1 0 0 .475.337.337 0 0 0 0-.475z" class="cls-1" data-name="Path 12999" transform="translate(-393.001 -6.42)"/>
                </g>
            </g>
            <g id="Group_4966" data-name="Group 4966" transform="translate(1.441 11.654)">
                <g id="Group_4965" data-name="Group 4965">
                    <path id="Path_13000" d="M43.476 442.779a.336.336 0 1 0 0 .475.337.337 0 0 0 0-.475z" class="cls-1" data-name="Path 13000" transform="translate(-42.902 -442.681)"/>
                </g>
            </g>
            <g id="Group_4968" data-name="Group 4968" transform="translate(2.113 9.219)">
                <g id="Group_4967" data-name="Group 4967">
                    <path id="Path_13001" d="M73.542 360.061a.336.336 0 0 0-.475.006l-1.784 1.833a.336.336 0 1 0 .481.469l1.784-1.828a.336.336 0 0 0-.006-.48z" class="cls-1" data-name="Path 13001" transform="translate(-71.187 -359.966)"/>
                </g>
            </g>
            <g id="Group_4970" data-name="Group 4970" transform="translate(0 .95)">
                <g id="Group_4969" data-name="Group 4969">
                    <path id="Path_13002" d="M12.584 40.175l-.951-.96-1.14-1.151L9.344 36.9 8.2 35.75l-.952-.96a.268.268 0 0 0-.381 0l-3.055 3.075-.382.385a1.372 1.372 0 0 0 0 1.925l.763.77a.274.274 0 0 1 0 .385l-.376.38L.55 44.662a1.851 1.851 0 0 0-.077.073 1.646 1.646 0 0 0 0 2.31 1.609 1.609 0 0 0 2.288 0c.025-.025.049-.051.074-.08l2.89-3.332.375-.379a.268.268 0 0 1 .381 0l.763.77a1.339 1.339 0 0 0 1.907 0l.382-.385 3.051-3.079a.274.274 0 0 0 0-.385zM2.43 46.606l-.05.054a1.073 1.073 0 0 1-1.525 0 1.1 1.1 0 0 1 0-1.54.92.92 0 0 1 .055-.051l3.082-2.786 1.167 1.177zm6.34-2.967a.8.8 0 0 1-1.144 0l-.763-.77a.8.8 0 0 0-1.144 0l-.191.192-1.144-1.154.191-.192a.822.822 0 0 0 0-1.155l-.763-.77a.823.823 0 0 1 0-1.155L4 38.442l4.958 5zm.572-.577l-4.958-5 2.669-2.694.572.577-1.334 1.343a.274.274 0 0 0 0 .385.268.268 0 0 0 .381 0l1.335-1.347.763.77-1.335 1.346a.274.274 0 0 0 0 .385.268.268 0 0 0 .381 0l1.335-1.347.763.77-1.335 1.35a.274.274 0 0 0 0 .385.268.268 0 0 0 .381 0l1.34-1.35.763.77-1.34 1.347a.274.274 0 0 0 0 .385.268.268 0 0 0 .381 0l1.336-1.347.572.577z" class="cls-1" data-name="Path 13002" transform="translate(0 -34.706)"/>
                </g>
            </g>
            <g id="Group_4972" data-name="Group 4972" transform="translate(9.045 .95)">
                <g id="Group_4971" data-name="Group 4971">
                    <path id="Path_13003" d="M337.96 34.8a.336.336 0 0 0-.475 0l-.95.95a.336.336 0 0 0 .475.475l.95-.95a.336.336 0 0 0 0-.475z" class="cls-1" data-name="Path 13003" transform="translate(-336.436 -34.706)"/>
                </g>
            </g>
            <g id="Group_4974" data-name="Group 4974" transform="translate(7.962)">
                <g id="Group_4973" data-name="Group 4973">
                    <path id="Path_13004" d="M295.055 6.514a.336.336 0 0 0-.475 0l-.475.475a.336.336 0 1 0 .475.475l.475-.475a.336.336 0 0 0 0-.475z" class="cls-1" data-name="Path 13004" transform="translate(-294.007 -6.415)"/>
                </g>
            </g>
            <g id="Group_4976" data-name="Group 4976" transform="translate(9.616 1.425)">
                <g id="Group_4975" data-name="Group 4975">
                    <path id="Path_13005" d="M381.331 48.944a.336.336 0 0 0-.475 0l-1.9 1.9a.336.336 0 0 0 .475.475l1.9-1.9a.336.336 0 0 0 0-.475z" class="cls-1" data-name="Path 13005" transform="translate(-378.857 -48.846)"/>
                </g>
            </g>
            <g id="Group_4978" data-name="Group 4978" transform="translate(11.041 2.645)">
                <g id="Group_4977" data-name="Group 4977">
                    <path id="Path_13006" d="M423.286 105.513a.336.336 0 0 0-.475 0l-1.425 1.425a.336.336 0 1 0 .475.475l1.425-1.425a.336.336 0 0 0 0-.475z" class="cls-1" data-name="Path 13006" transform="translate(-421.287 -105.415)"/>
                </g>
            </g>
            <g id="Group_4980" data-name="Group 4980" transform="translate(12.467 4.606)">
                <g id="Group_4979" data-name="Group 4979">
                    <path id="Path_13007" d="M464.766 176.224a.336.336 0 0 0-.475 0l-.475.475a.336.336 0 1 0 .475.475l.475-.475a.336.336 0 0 0 0-.475z" class="cls-1" data-name="Path 13007" transform="translate(-463.717 -176.126)"/>
                </g>
            </g>
        </g>
    </g>
</svg>
