<svg xmlns="http://www.w3.org/2000/svg" width="15" height="15" viewBox="0 0 15 15">
    <defs>
        <style>
            .cls-1{fill:#f0f0f0}
        </style>
    </defs>
    <g id="Group_5052" data-name="Group 5052" transform="translate(0 -.001)">
        <g id="Group_4" data-name="Group 4" transform="translate(0 .001)">
            <path id="Path_4" d="M190.029 133.4l-6.3-3.636a.309.309 0 1 0-.309.536l6.3 3.636a.309.309 0 0 0 .309-.536z" class="cls-1" data-name="Path 4" transform="translate(-178.477 -125.153)"/>
            <path id="Path_13" d="M190.029 133.4l-6.3-3.636a.309.309 0 1 0-.309.536l6.3 3.636a.309.309 0 0 0 .309-.536z" class="cls-1" data-name="Path 13" transform="translate(-179.393 -123.53)"/>
            <path id="Path_10" d="M179.677 320.3l-1.126-.65a.309.309 0 1 0-.309.536l1.126.65a.309.309 0 1 0 .309-.536z" class="cls-1" data-name="Path 10" transform="translate(-172.888 -310.264)"/>
            <path id="Path_11" d="M251.826 361.951l-.281-.162a.309.309 0 1 0-.309.536l.281.162a.309.309 0 0 0 .309-.536z" class="cls-1" data-name="Path 11" transform="translate(-243.737 -351.165)"/>
            <path id="Path_12" d="M14.959 9.279l-.88-1.524.88-1.524a.3.3 0 0 0-.11-.411l-2.83-1.634L9.69.151a.3.3 0 0 0-.411-.11l-2.22 1.282L5.722.551a.3.3 0 0 0-.411.11L3.863 3.168.151 5.311a.3.3 0 0 0-.11.411l1.173 2.033L.04 9.789a.3.3 0 0 0 .11.411l3.712 2.143L5.31 14.85a.3.3 0 0 0 .411.11l1.337-.772.455.263a.3.3 0 0 0 .228.03l2.784-.746a.3.3 0 0 0 .183-.14l1.311-2.27 2.83-1.634a.3.3 0 0 0 .11-.412zM9.319.713l1.658 2.871L7.661 1.67zM.712 5.682l2.549-1.471-1.7 2.942zm4.969 8.606l-.775-1.343 1.55.9zm2.607-.577l.5-.874.874.5zm2.049-.678l-1.5-.868a.3.3 0 0 0-.411.11l-.868 1.5L.712 9.829l4.969-8.606 8.606 4.969zm2.284-2.752l1.11-1.923.555.962z" class="cls-1" data-name="Path 12" transform="translate(0 -.001)"/>
        </g>
    </g>
</svg>
