<svg xmlns="http://www.w3.org/2000/svg" width="17.5" height="20.749" viewBox="0 0 17.5 20.749">
    <defs>
        <style>
            .prefix__cls-1{fill:#fff}
        </style>
    </defs>
    <g id="prefix__light-bulb_1_" data-name="light-bulb (1)" transform="translate(-40.081)">
        <path id="prefix__Path_28371" d="M173.433 320.8l-1.28 2.24a.408.408 0 0 1-.708 0l-1.28-2.24a.3.3 0 0 0-.528.3l1.28 2.24a1.016 1.016 0 0 0 1.764 0l1.28-2.24a.3.3 0 0 0-.528-.3z" class="prefix__cls-1" data-name="Path 28371" transform="translate(-124.268 -307.65)"/>
        <path id="prefix__Path_28372" d="M219.344 0a.3.3 0 0 0-.3.3v2.62h-.472l-.011-.008a1.273 1.273 0 0 0-1.063-.3 1.279 1.279 0 0 0 .225 2.537 1.271 1.271 0 0 0 .839-.318l.009-.007h.473v2.302a.629.629 0 0 0 .629.629h2.295v.472l-.008.011a1.273 1.273 0 0 0-.3 1.063 1.289 1.289 0 0 0 1.032 1.033 1.311 1.311 0 0 0 .225.019 1.275 1.275 0 0 0 .963-2.117l-.007-.009v-.472h2.62a.3.3 0 0 0 .3-.3A7.459 7.459 0 0 0 219.344 0zm4.512 7.147a.594.594 0 0 0-.593.593v.5a.6.6 0 0 0 .158.4.656.656 0 0 1 .167.437.671.671 0 0 1-.794.66.681.681 0 0 1-.537-.539.659.659 0 0 1 .156-.558.608.608 0 0 0 .159-.4v-.5a.594.594 0 0 0-.593-.593h-2.31a.021.021 0 0 1-.021-.021v-2.31a.594.594 0 0 0-.593-.593h-.5a.6.6 0 0 0-.4.158.656.656 0 0 1-.437.167.671.671 0 0 1-.66-.794.681.681 0 0 1 .539-.537.659.659 0 0 1 .558.155.608.608 0 0 0 .4.159h.495a.594.594 0 0 0 .593-.593V.615a6.852 6.852 0 0 1 6.532 6.532z" class="prefix__cls-1" data-name="Path 28372" transform="translate(-169.214)"/>
        <path id="prefix__Path_28373" d="M54.653 73.808a.3.3 0 0 0-.342.26A6.839 6.839 0 0 1 50 79.514a1.288 1.288 0 0 0-.761.788h-3.42a1.286 1.286 0 0 0-.76-.787A6.849 6.849 0 0 1 46.6 66.354a.3.3 0 1 0-.083-.6 7.451 7.451 0 0 0-1.676 14.329.673.673 0 0 1 .439.627v.547a1.28 1.28 0 0 0 .975 1.242v.383c0 .535.562.954 1.278.954s1.278-.419 1.278-.954V82.5a1.28 1.28 0 0 0 .975-1.242v-.547a.674.674 0 0 1 .44-.628 7.447 7.447 0 0 0 4.689-5.931.3.3 0 0 0-.262-.344zm-7.122 9.418c-.409 0-.671-.2-.671-.346v-.346h1.34v.346c0 .141-.259.346-.669.346zm.975-1.3h-1.949a.671.671 0 0 1-.671-.671v-.345h3.29v.346a.671.671 0 0 1-.67.67z" class="prefix__cls-1" data-name="Path 28373" transform="translate(0 -63.085)"/>
        <path id="prefix__Path_28374" d="M153.592 128.866a.656.656 0 0 1 .437.167.6.6 0 0 0 .4.158h.46a.3.3 0 1 0 0-.608h-.452l-.009-.007a1.273 1.273 0 0 0-1.817.138 1.277 1.277 0 0 0 1.816 1.784l.011-.008h.472v2.295a.629.629 0 0 0 .629.629h2.295v.473l-.007.009a1.276 1.276 0 0 0 .963 2.117 1.315 1.315 0 0 0 .225-.019 1.289 1.289 0 0 0 1.032-1.033 1.273 1.273 0 0 0-.3-1.063l-.008-.011v-.487a.3.3 0 0 0-.608 0v.495a.608.608 0 0 0 .159.4.659.659 0 0 1 .155.558.681.681 0 0 1-.537.539.671.671 0 0 1-.794-.66.656.656 0 0 1 .167-.437.6.6 0 0 0 .158-.4v-.5a.594.594 0 0 0-.593-.593h-2.31a.021.021 0 0 1-.021-.021v-2.31a.594.594 0 0 0-.593-.593h-.495a.608.608 0 0 0-.4.159.659.659 0 0 1-.558.156.681.681 0 0 1-.539-.537.671.671 0 0 1 .66-.794z" class="prefix__cls-1" data-name="Path 28374" transform="translate(-107.685 -123.06)"/>
    </g>
</svg>
