<svg xmlns="http://www.w3.org/2000/svg" width="25.238" height="25.238" viewBox="0 0 25.238 25.238">
    <path id="prefix__linkedin_4_" d="M12.619 0a12.619 12.619 0 1 0 12.619 12.619A12.621 12.621 0 0 0 12.619 0zM8.952 19.077H5.879V9.83h3.073zM7.416 8.568H7.4a1.6 1.6 0 1 1 .04-3.195 1.6 1.6 0 1 1-.02 3.195zm12.618 10.509h-3.073V14.13c0-1.243-.445-2.091-1.557-2.091a1.682 1.682 0 0 0-1.577 1.124 2.1 2.1 0 0 0-.1.75v5.163h-3.074s.04-8.379 0-9.246h3.073v1.31A3.051 3.051 0 0 1 16.5 9.613c2.022 0 3.538 1.321 3.538 4.161zm0 0" data-name="linkedin (4)" style="fill:#0075b2"/>
</svg>
