<svg xmlns="http://www.w3.org/2000/svg" width="26" height="26" viewBox="0 0 26 26">
    <path id="prefix__twitter_7_" d="M13 0a13 13 0 1 0 13 13A13 13 0 0 0 13 0zm5.936 10.136q.009.192.009.386a8.432 8.432 0 0 1-8.49 8.49 8.446 8.446 0 0 1-4.574-1.34 6.069 6.069 0 0 0 .712.041 5.987 5.987 0 0 0 3.707-1.278 2.987 2.987 0 0 1-2.788-2.073 2.974 2.974 0 0 0 1.348-.051 2.985 2.985 0 0 1-2.394-2.925v-.038a2.963 2.963 0 0 0 1.351.373 2.986 2.986 0 0 1-.924-3.984 8.472 8.472 0 0 0 6.15 3.118 2.985 2.985 0 0 1 5.085-2.721 5.985 5.985 0 0 0 1.895-.724 3 3 0 0 1-1.312 1.65 5.951 5.951 0 0 0 1.713-.47 6.064 6.064 0 0 1-1.488 1.546zm0 0" data-name="twitter (7)" style="fill:#fff"/>
</svg>
