<svg xmlns="http://www.w3.org/2000/svg" width="18.5" height="18.5" viewBox="0 0 18.5 18.5">
    <defs>
        <style>
            .prefix__cls-1{fill:#fff}
        </style>
    </defs>
    <g id="prefix__pen-tool" transform="translate(-16 -16)">
        <path id="prefix__Path_28375" d="M184.007 131.769l.917 3.974v1.815a.308.308 0 0 0 .308.308h3.083a.308.308 0 0 0 .308-.308v-1.815l.917-3.974a.308.308 0 0 0-.07-.274 4.672 4.672 0 0 1-1.464-3.18.308.308 0 0 0-.306-.315h-1.85a.308.308 0 0 0-.308.33 4.636 4.636 0 0 1-1.467 3.168.308.308 0 0 0-.068.271zm1.534 5.481v-1.233h2.467v1.233zm1.542-4.933a.308.308 0 1 1-.308-.308.308.308 0 0 1 .307.308zm-.921-3.7h.3v2.828a.925.925 0 1 0 .617 0v-2.828h.314a5.365 5.365 0 0 0 1.508 3.168l-.834 3.616h-2.593l-.835-3.618a5.45 5.45 0 0 0 1.522-3.166z" class="prefix__cls-1" data-name="Path 28375" transform="translate(-161.524 -107.683)"/>
        <path id="prefix__Path_28376" d="M34.192 24.017h-.708a8.324 8.324 0 0 0-5.09-6.475h1.843a.925.925 0 1 0 0-.617h-3.754v-.617a.308.308 0 0 0-.308-.308h-1.85a.308.308 0 0 0-.308.308v.617h-3.753a.925.925 0 1 0 0 .617h3.753v.617a.308.308 0 0 0 .308.308h1.85a.308.308 0 0 0 .308-.308v-.519a7.712 7.712 0 0 1 6.376 6.377h-.518a.308.308 0 0 0-.308.308v1.85a.308.308 0 0 0 .308.308h.518a7.712 7.712 0 0 1-6.376 6.377v-.518a.308.308 0 0 0-.308-.308h-1.85a.308.308 0 0 0-.308.308v.518a7.712 7.712 0 0 1-6.376-6.376h.518a.308.308 0 0 0 .308-.308v-1.85a.308.308 0 0 0-.308-.308h-1.85a.308.308 0 0 0-.308.308v1.85a.308.308 0 0 0 .308.308h.708a8.327 8.327 0 0 0 7 7v.708a.308.308 0 0 0 .308.308h1.85a.308.308 0 0 0 .308-.308v-.708a8.327 8.327 0 0 0 7-7h.708a.308.308 0 0 0 .308-.308v-1.85a.308.308 0 0 0-.307-.309zm-14.8-6.475a.308.308 0 1 1 .308-.308.308.308 0 0 1-.308.308zm11.717-.617a.308.308 0 1 1-.308.308.308.308 0 0 1 .308-.308zm-5.242.925h-1.234v-1.233h1.233zm-9.25 6.783h1.233v1.233h-1.233zm9.25 9.25h-1.234V32.65h1.233zm8.017-8.017H32.65v-1.233h1.233z" class="prefix__cls-1" data-name="Path 28376"/>
    </g>
</svg>
