<svg xmlns="http://www.w3.org/2000/svg" width="19" height="19" viewBox="0 0 19 19">
    <defs>
        <style>
            .cls-1{fill:#f0f0f0}
        </style>
    </defs>
    <g id="printer" transform="translate(-8 -8)">
        <path id="Path_13080" d="M26.6 11.958h-1.183V9.979a.4.4 0 0 0-.4-.4h-1.184V8.4a.4.4 0 0 0-.4-.4H11.562a.4.4 0 0 0-.4.4v1.183H9.979a.4.4 0 0 0-.4.4v1.979H8.4a.4.4 0 0 0-.4.4v3.167a.4.4 0 1 0 .792 0V12.75h17.416v8.708h-2.375v-1.583h1.187a.4.4 0 1 0 0-.792H9.979a.4.4 0 0 0 0 .792h1.187v1.583H8.792V17.9a.4.4 0 0 0-.792 0v6.333a.4.4 0 0 0 .4.4h2.771V26.6a.4.4 0 0 0 .4.4h11.866a.4.4 0 0 0 .4-.4v-1.975H26.6a.4.4 0 0 0 .4-.4V12.354a.4.4 0 0 0-.4-.396zm-15.437 0h-.792v-1.583h.792zm11.875 0h-11.08V8.792h11.084zm1.583 0h-.792v-1.583h.792zM11.167 23.833H8.792V22.25h2.375zm11.875.394v1.981H11.958v-6.333h11.084zm3.167-.394h-2.376V22.25h2.375z" class="cls-1" data-name="Path 13080"/>
        <circle id="Ellipse_367" cx=".396" cy=".396" r=".396" class="cls-1" data-name="Ellipse 367" transform="translate(8 16.313)"/>
    </g>
</svg>
