<svg xmlns="http://www.w3.org/2000/svg" width="33.462" height="41.85" viewBox="0 0 33.462 41.85">
    <defs>
        <style>
            .cls-1{fill:#fff}
        </style>
    </defs>
    <g id="budget" transform="translate(-51.306)">
        <g id="Group_5436" data-name="Group 5436" transform="translate(54.801 3.495)">
            <g id="Group_5435" data-name="Group 5435">
                <path id="Path_13331" d="M97.468 47.144v-2.277c.483.158.786.477.786.772a.655.655 0 0 0 1.311 0 2.324 2.324 0 0 0-2.1-2.124v-.1a.655.655 0 0 0-1.311 0v.1a2.325 2.325 0 0 0-2.1 2.124 2.663 2.663 0 0 0 2.1 2.427v2.277c-.483-.158-.786-.477-.786-.772a.655.655 0 0 0-1.311 0 2.324 2.324 0 0 0 2.1 2.124v.1a.655.655 0 0 0 1.311 0v-.1a2.325 2.325 0 0 0 2.1-2.124 2.663 2.663 0 0 0-2.1-2.427zm-1.31-.508c-.653-.32-.786-.6-.786-1 0-.3.3-.614.786-.772zm1.31 3.707v-1.769c.653.32.786.6.786 1 .001.292-.303.611-.786.769z" class="cls-1" data-name="Path 13331" transform="translate(-94.061 -42.756)"/>
            </g>
        </g>
        <g id="Group_5438" data-name="Group 5438" transform="translate(61.79 4.893)">
            <g id="Group_5437" data-name="Group 5437">
                <path id="Path_13332" d="M185.821 59.858h-5.592a.655.655 0 1 0 0 1.311h5.592a.655.655 0 0 0 0-1.311z" class="cls-1" data-name="Path 13332" transform="translate(-179.574 -59.858)"/>
            </g>
        </g>
        <g id="Group_5440" data-name="Group 5440" transform="translate(61.79 10.484)">
            <g id="Group_5439" data-name="Group 5439">
                <path id="Path_13333" d="M180.928 128.268h-.7a.655.655 0 0 0 0 1.311h.7a.655.655 0 0 0 0-1.311z" class="cls-1" data-name="Path 13333" transform="translate(-179.574 -128.268)"/>
            </g>
        </g>
        <g id="Group_5442" data-name="Group 5442" transform="translate(54.801 15.377)">
            <g id="Group_5441" data-name="Group 5441">
                <path id="Path_13334" d="M114.288 188.124H94.717a.655.655 0 1 0 0 1.311h19.571a.655.655 0 0 0 0-1.311z" class="cls-1" data-name="Path 13334" transform="translate(-94.062 -188.124)"/>
            </g>
        </g>
        <g id="Group_5444" data-name="Group 5444" transform="translate(58.994 19.57)">
            <g id="Group_5443" data-name="Group 5443">
                <path id="Path_13335" d="M148.12 239.431h-2.1a.655.655 0 1 0 0 1.311h2.1a.655.655 0 1 0 0-1.311z" class="cls-1" data-name="Path 13335" transform="translate(-145.368 -239.431)"/>
            </g>
        </g>
        <g id="Group_5446" data-name="Group 5446" transform="translate(54.801 19.57)">
            <g id="Group_5445" data-name="Group 5445">
                <path id="Path_13336" d="M96.115 239.431h-1.4a.655.655 0 1 0 0 1.311h1.4a.655.655 0 0 0 0-1.311z" class="cls-1" data-name="Path 13336" transform="translate(-94.062 -239.431)"/>
            </g>
        </g>
        <g id="Group_5448" data-name="Group 5448" transform="translate(58.994 22.366)">
            <g id="Group_5447" data-name="Group 5447">
                <path id="Path_13337" d="M148.12 273.636h-2.1a.655.655 0 1 0 0 1.311h2.1a.655.655 0 1 0 0-1.311z" class="cls-1" data-name="Path 13337" transform="translate(-145.368 -273.636)"/>
            </g>
        </g>
        <g id="Group_5450" data-name="Group 5450" transform="translate(54.801 22.366)">
            <g id="Group_5449" data-name="Group 5449">
                <path id="Path_13338" d="M96.115 273.636h-1.4a.655.655 0 1 0 0 1.311h1.4a.655.655 0 1 0 0-1.311z" class="cls-1" data-name="Path 13338" transform="translate(-94.062 -273.636)"/>
            </g>
        </g>
        <g id="Group_5452" data-name="Group 5452" transform="translate(58.994 25.162)">
            <g id="Group_5451" data-name="Group 5451">
                <path id="Path_13339" d="M148.12 307.841h-2.1a.655.655 0 1 0 0 1.311h2.1a.655.655 0 1 0 0-1.311z" class="cls-1" data-name="Path 13339" transform="translate(-145.368 -307.841)"/>
            </g>
        </g>
        <g id="Group_5454" data-name="Group 5454" transform="translate(54.801 25.162)">
            <g id="Group_5453" data-name="Group 5453">
                <path id="Path_13340" d="M96.115 307.841h-1.4a.655.655 0 1 0 0 1.311h1.4a.655.655 0 1 0 0-1.311z" class="cls-1" data-name="Path 13340" transform="translate(-94.062 -307.841)"/>
            </g>
        </g>
        <g id="Group_5456" data-name="Group 5456" transform="translate(58.994 27.958)">
            <g id="Group_5455" data-name="Group 5455">
                <path id="Path_13341" d="M148.12 342.045h-2.1a.655.655 0 1 0 0 1.311h2.1a.655.655 0 1 0 0-1.311z" class="cls-1" data-name="Path 13341" transform="translate(-145.368 -342.045)"/>
            </g>
        </g>
        <g id="Group_5458" data-name="Group 5458" transform="translate(54.801 27.958)">
            <g id="Group_5457" data-name="Group 5457">
                <path id="Path_13342" d="M96.115 342.045h-1.4a.655.655 0 1 0 0 1.311h1.4a.655.655 0 1 0 0-1.311z" class="cls-1" data-name="Path 13342" transform="translate(-94.062 -342.045)"/>
            </g>
        </g>
        <g id="Group_5460" data-name="Group 5460" transform="translate(58.994 30.754)">
            <g id="Group_5459" data-name="Group 5459">
                <path id="Path_13343" d="M148.12 376.25h-2.1a.655.655 0 1 0 0 1.311h2.1a.655.655 0 1 0 0-1.311z" class="cls-1" data-name="Path 13343" transform="translate(-145.368 -376.25)"/>
            </g>
        </g>
        <g id="Group_5462" data-name="Group 5462" transform="translate(54.801 30.754)">
            <g id="Group_5461" data-name="Group 5461">
                <path id="Path_13344" d="M96.115 376.25h-1.4a.655.655 0 1 0 0 1.311h1.4a.655.655 0 1 0 0-1.311z" class="cls-1" data-name="Path 13344" transform="translate(-94.062 -376.25)"/>
            </g>
        </g>
        <g id="Group_5464" data-name="Group 5464" transform="translate(68.78 10.484)">
            <g id="Group_5463" data-name="Group 5463">
                <path id="Path_13345" d="M266.44 128.268h-.7a.655.655 0 0 0 0 1.311h.7a.655.655 0 1 0 0-1.311z" class="cls-1" data-name="Path 13345" transform="translate(-265.086 -128.268)"/>
            </g>
        </g>
        <g id="Group_5466" data-name="Group 5466" transform="translate(72.275 10.484)">
            <g id="Group_5465" data-name="Group 5465">
                <path id="Path_13346" d="M309.2 128.268h-.7a.655.655 0 0 0 0 1.311h.7a.655.655 0 1 0 0-1.311z" class="cls-1" data-name="Path 13346" transform="translate(-307.841 -128.268)"/>
            </g>
        </g>
        <g id="Group_5468" data-name="Group 5468" transform="translate(65.285 10.484)">
            <g id="Group_5467" data-name="Group 5467">
                <path id="Path_13347" d="M223.684 128.268h-.7a.655.655 0 1 0 0 1.311h.7a.655.655 0 1 0 0-1.311z" class="cls-1" data-name="Path 13347" transform="translate(-222.33 -128.268)"/>
            </g>
        </g>
        <g id="Group_5470" data-name="Group 5470" transform="translate(61.79 7.688)">
            <g id="Group_5469" data-name="Group 5469">
                <path id="Path_13348" d="M187.218 94.063h-6.99a.655.655 0 1 0 0 1.311h6.99a.655.655 0 1 0 0-1.311z" class="cls-1" data-name="Path 13348" transform="translate(-179.573 -94.063)"/>
            </g>
        </g>
        <g id="Group_5472" data-name="Group 5472" transform="translate(51.306)">
            <g id="Group_5471" data-name="Group 5471">
                <path id="Path_13349" d="M82.016 18.173h-2.839V7.645a.655.655 0 0 0-.192-.463L72 .192A.655.655 0 0 0 71.532 0H53.359a2.055 2.055 0 0 0-2.053 2.053V35.6a2.055 2.055 0 0 0 2.053 2.053h10.528V39.1a2.755 2.755 0 0 0 2.752 2.752h15.377a2.755 2.755 0 0 0 2.752-2.752V20.925a2.755 2.755 0 0 0-2.752-2.752zM72.187 2.237L76.94 6.99h-3.311a1.443 1.443 0 0 1-1.442-1.442zm-8.3 18.688v15.42H53.359a.744.744 0 0 1-.743-.743V2.053a.744.744 0 0 1 .743-.743h17.518v4.238A2.755 2.755 0 0 0 73.629 8.3h4.237v9.873H66.639a2.755 2.755 0 0 0-2.752 2.752zM83.458 39.1a1.443 1.443 0 0 1-1.442 1.442H66.639A1.443 1.443 0 0 1 65.2 39.1V20.925a1.443 1.443 0 0 1 1.442-1.442h15.374a1.443 1.443 0 0 1 1.442 1.442z" class="cls-1" data-name="Path 13349" transform="translate(-51.306)"/>
            </g>
        </g>
        <g id="Group_5474" data-name="Group 5474" transform="translate(66.683 20.968)">
            <g id="Group_5473" data-name="Group 5473">
                <path id="Path_13350" d="M253.367 256.533h-12.581a1.356 1.356 0 0 0-1.354 1.354v2.8a1.356 1.356 0 0 0 1.354 1.354h12.581a1.356 1.356 0 0 0 1.354-1.354v-2.8a1.356 1.356 0 0 0-1.354-1.354zm.044 4.15a.044.044 0 0 1-.044.044h-12.581a.044.044 0 0 1-.044-.044v-2.8a.044.044 0 0 1 .044-.044h12.581a.044.044 0 0 1 .044.044v2.8z" class="cls-1" data-name="Path 13350" transform="translate(-239.432 -256.533)"/>
            </g>
        </g>
        <g id="Group_5476" data-name="Group 5476" transform="translate(66.683 28.657)">
            <g id="Group_5475" data-name="Group 5475">
                <path id="Path_13351" d="M242.184 350.6h-1.4a1.356 1.356 0 0 0-1.354 1.354v1.4a1.356 1.356 0 0 0 1.354 1.354h1.4a1.356 1.356 0 0 0 1.354-1.354v-1.4a1.356 1.356 0 0 0-1.354-1.354zm.044 2.752a.044.044 0 0 1-.044.044h-1.4a.044.044 0 0 1-.044-.044v-1.4a.044.044 0 0 1 .044-.044h1.4a.044.044 0 0 1 .044.044v1.4z" class="cls-1" data-name="Path 13351" transform="translate(-239.432 -350.596)"/>
            </g>
        </g>
        <g id="Group_5478" data-name="Group 5478" transform="translate(77.866 28.657)">
            <g id="Group_5477" data-name="Group 5477">
                <path id="Path_13352" d="M379 350.6h-1.4a1.356 1.356 0 0 0-1.354 1.354v1.4a1.356 1.356 0 0 0 1.354 1.354h1.4a1.356 1.356 0 0 0 1.354-1.354v-1.4A1.356 1.356 0 0 0 379 350.6zm.044 2.752a.044.044 0 0 1-.044.044h-1.4a.044.044 0 0 1-.044-.044v-1.4a.044.044 0 0 1 .044-.044h1.4a.044.044 0 0 1 .044.044z" class="cls-1" data-name="Path 13352" transform="translate(-376.251 -350.596)"/>
            </g>
        </g>
        <g id="Group_5480" data-name="Group 5480" transform="translate(72.275 28.657)">
            <g id="Group_5479" data-name="Group 5479">
                <path id="Path_13353" d="M310.594 350.6h-1.4a1.356 1.356 0 0 0-1.354 1.354v1.4a1.356 1.356 0 0 0 1.36 1.346h1.4a1.356 1.356 0 0 0 1.354-1.354v-1.4a1.356 1.356 0 0 0-1.36-1.346zm.044 2.752a.044.044 0 0 1-.044.044h-1.4a.044.044 0 0 1-.044-.044v-1.4a.044.044 0 0 1 .044-.044h1.4a.044.044 0 0 1 .044.044z" class="cls-1" data-name="Path 13353" transform="translate(-307.842 -350.596)"/>
            </g>
        </g>
        <g id="Group_5482" data-name="Group 5482" transform="translate(66.683 34.249)">
            <g id="Group_5481" data-name="Group 5481">
                <path id="Path_13354" d="M242.184 419.006h-1.4a1.356 1.356 0 0 0-1.354 1.354v1.4a1.356 1.356 0 0 0 1.354 1.354h1.4a1.356 1.356 0 0 0 1.354-1.354v-1.4a1.356 1.356 0 0 0-1.354-1.354zm.044 2.752a.044.044 0 0 1-.044.044h-1.4a.044.044 0 0 1-.044-.044v-1.4a.044.044 0 0 1 .044-.044h1.4a.044.044 0 0 1 .044.044v1.4z" class="cls-1" data-name="Path 13354" transform="translate(-239.432 -419.006)"/>
            </g>
        </g>
        <g id="Group_5484" data-name="Group 5484" transform="translate(77.866 34.249)">
            <g id="Group_5483" data-name="Group 5483">
                <path id="Path_13355" d="M379 419.006h-1.4a1.356 1.356 0 0 0-1.354 1.354v1.4a1.356 1.356 0 0 0 1.354 1.354h1.4a1.356 1.356 0 0 0 1.354-1.354v-1.4a1.356 1.356 0 0 0-1.354-1.354zm.044 2.752a.044.044 0 0 1-.044.044h-1.4a.044.044 0 0 1-.044-.044v-1.4a.044.044 0 0 1 .044-.044h1.4a.044.044 0 0 1 .044.044z" class="cls-1" data-name="Path 13355" transform="translate(-376.251 -419.006)"/>
            </g>
        </g>
        <g id="Group_5486" data-name="Group 5486" transform="translate(72.275 34.249)">
            <g id="Group_5485" data-name="Group 5485">
                <path id="Path_13356" d="M310.594 419.006h-1.4a1.356 1.356 0 0 0-1.354 1.354v1.4a1.356 1.356 0 0 0 1.354 1.354h1.4a1.356 1.356 0 0 0 1.354-1.354v-1.4a1.356 1.356 0 0 0-1.354-1.354zm.044 2.752a.044.044 0 0 1-.044.044h-1.4a.044.044 0 0 1-.044-.044v-1.4a.044.044 0 0 1 .044-.044h1.4a.044.044 0 0 1 .044.044z" class="cls-1" data-name="Path 13356" transform="translate(-307.842 -419.006)"/>
            </g>
        </g>
    </g>
</svg>
