<svg xmlns="http://www.w3.org/2000/svg" width="11.891" height="10.777" viewBox="0 0 11.891 10.777">
    <defs>
        <style>
            .cls-1{fill:#fff}
        </style>
    </defs>
    <g id="undo_1_" data-name="undo (1)" transform="translate(.001)">
        <g id="group-30svg">
            <path id="path-1_22_" d="M37.532 34.907a.29.29 0 0 0 0-.58 4.842 4.842 0 0 1-.906-.085.29.29 0 0 0-.109.57 5.428 5.428 0 0 0 1.015.095zm-1.887-.361a.29.29 0 0 0 .107-.56 4.8 4.8 0 0 1-.809-.416.29.29 0 0 0-.313.489 5.392 5.392 0 0 0 .907.467.292.292 0 0 0 .108.02zm-1.618-1.037a.29.29 0 0 0 .2-.5 4.857 4.857 0 0 1-.6-.686.29.29 0 1 0-.471.339 5.445 5.445 0 0 0 .67.768.289.289 0 0 0 .201.079zm-1.121-1.561a.29.29 0 0 0 .263-.412 4.8 4.8 0 0 1-.3-.859.29.29 0 1 0-.563.14 5.368 5.368 0 0 0 .338.963.29.29 0 0 0 .262.167zm-.462-1.866h.015a.29.29 0 0 0 .275-.305c0-.085-.007-.174-.007-.261a.292.292 0 0 0-.29-.292.292.292 0 0 0-.289.293c0 .1 0 .194.008.289a.291.291 0 0 0 .288.275z" class="cls-1" transform="translate(-32.147 -24.13)"/>
            <path id="path-2_21_" d="M6.319 8.556a.29.29 0 0 0 .29-.29 4.8 4.8 0 0 1 9.567-.645.29.29 0 1 0 .575-.077 5.385 5.385 0 0 0-10.722.722.29.29 0 0 0 .29.29z" class="cls-1" transform="translate(-6.029 -2.877)"/>
            <path id="path-3_20_" d="M1.763 20.119l.9-.288a.329.329 0 0 1 .427.327.428.428 0 0 1-.042.164l-.822 1.591a.325.325 0 0 1-.439.139L.2 21.229a.421.421 0 0 1-.128-.107.33.33 0 0 1 .159-.514l.951-.3z" class="cls-1" transform="translate(8.797 -16.542)"/>
        </g>
    </g>
</svg>
