<svg xmlns="http://www.w3.org/2000/svg"  viewBox="0 0 64.118 84.059">
    <defs>
        <style>
            .cls-1{fill:#fff}
        </style>
    </defs>
    <g id="Group_5355" data-name="Group 5355" transform="translate(-8012.376 -1041.346)">
        <path id="Rectangle_2108" d="M0 0h29.406v3.921H0z" class="cls-1" data-name="Rectangle 2108" transform="translate(8033.366 1041.683)"/>
        <path id="Rectangle_2109" d="M0 0h29.406v3.921H0z" class="cls-1" data-name="Rectangle 2109" transform="translate(8033.366 1049.525)"/>
        <path id="Rectangle_2110" d="M0 0h35.287v3.921H0z" class="cls-1" data-name="Rectangle 2110" transform="translate(8033.366 1088.732)"/>
        <path id="Rectangle_2111" d="M0 0h35.287v3.921H0z" class="cls-1" data-name="Rectangle 2111" transform="translate(8033.366 1096.574)"/>
        <path id="Path_13325" d="M19.055 33.293l-4.5 4.5-4.5-4.5-2.762 2.772 4.5 4.5-4.5 4.5 2.772 2.772 4.5-4.5 4.5 4.5 2.772-2.772-4.5-4.5 4.5-4.5z" class="cls-1" data-name="Path 13325" transform="translate(8005.083 1054.053)"/>
        <path id="Path_13327" d="M19.055 33.293l-4.5 4.5-4.5-4.5-2.762 2.772 4.5 4.5-4.5 4.5 2.772 2.772 4.5-4.5 4.5 4.5 2.772-2.772-4.5-4.5 4.5-4.5z" class="cls-1" data-name="Path 13327" transform="translate(8005.083 1032.053)"/>
        <path id="Path_13328" d="M19.055 33.293l-4.5 4.5-4.5-4.5-2.762 2.772 4.5 4.5-4.5 4.5 2.772 2.772 4.5-4.5 4.5 4.5 2.772-2.772-4.5-4.5 4.5-4.5z" class="cls-1" data-name="Path 13328" transform="translate(8005.083 1008.053)"/>
        <path id="Rectangle_2112" d="M0 0h33.327v3.921H0z" class="cls-1" data-name="Rectangle 2112" transform="translate(8033.366 1112.257)"/>
        <path id="Rectangle_2113" d="M0 0h33.327v3.921H0z" class="cls-1" data-name="Rectangle 2113" transform="translate(8033.366 1120.098)"/>
        <path id="Path_13326" d="M19.055 45.293l-4.5 4.5-4.5-4.5-2.762 2.772 4.5 4.5-4.5 4.5 2.772 2.772 4.5-4.5 4.5 4.5 2.772-2.772-4.5-4.5 4.5-4.5z" class="cls-1" data-name="Path 13326" transform="translate(8005.083 1065.578)"/>
        <path id="Rectangle_2114" d="M0 0h43.128v3.921H0z" class="cls-1" data-name="Rectangle 2114" transform="translate(8033.366 1065.208)"/>
        <path id="Rectangle_2115" d="M0 0h43.128v3.921H0z" class="cls-1" data-name="Rectangle 2115" transform="translate(8033.366 1073.049)"/>
    </g>
</svg>
