<svg xmlns="http://www.w3.org/2000/svg" width="23.3" height="23.302" viewBox="0 0 23.3 23.302">
  <defs>
    <style>
      .cls-1 {
        fill: none;
        stroke: #3c3c3c;
        stroke-width: 1.3px;
      }
    </style>
  </defs>
  <g id="puzzle-piece" transform="translate(0.65 -12.484)">
    <path id="Path_437" data-name="Path 437" class="cls-12345" d="M21.386,26.494a1.963,1.963,0,0,0-1.684-.826,2.944,2.944,0,0,0-1.1.21,3.325,3.325,0,0,0-.853.463,5.055,5.055,0,0,1-.7.463,1.412,1.412,0,0,1-.666.21,1.631,1.631,0,0,1-1.175-.644,2.413,2.413,0,0,1-.462-1.637,23.917,23.917,0,0,1,.316-3.429,2.876,2.876,0,0,0,.047-.3c.022-.173.044-.331.066-.476a1.709,1.709,0,0,1,.045-.246v-.028q-.62.028-2.154.238a18.762,18.762,0,0,1-2.378.21,2.392,2.392,0,0,1-1.356-.361,1.305,1.305,0,0,1-.554-1.168,2.248,2.248,0,0,1,.232-.993,3.663,3.663,0,0,1,.5-.791,3.439,3.439,0,0,0,.5-.826,2.593,2.593,0,0,0,.232-1.081,2.174,2.174,0,0,0-.713-1.728,2.6,2.6,0,0,0-1.77-.618,2.91,2.91,0,0,0-1.9.636,2.174,2.174,0,0,0-.79,1.781,3.454,3.454,0,0,0,.2,1.161,3.678,3.678,0,0,0,.437.9,5.465,5.465,0,0,1,.437.741,1.625,1.625,0,0,1,.2.707A1.791,1.791,0,0,1,5.74,20.31a2.1,2.1,0,0,1-1.546.49,20.2,20.2,0,0,1-3.237-.335,2.387,2.387,0,0,0-.284-.049q-.235-.036-.437-.074A1.438,1.438,0,0,1,0,20.295V34.623q0,.014.026.014a.1.1,0,0,0,.039.014l.172.028a3.414,3.414,0,0,0,.363.056,3.415,3.415,0,0,1,.363.056,20.181,20.181,0,0,0,3.237.335,2.1,2.1,0,0,0,1.546-.49,1.791,1.791,0,0,0,.608-1.245,1.627,1.627,0,0,0-.2-.707,5.482,5.482,0,0,0-.437-.741,3.691,3.691,0,0,1-.437-.9,3.454,3.454,0,0,1-.2-1.161,2.176,2.176,0,0,1,.78-1.784,2.889,2.889,0,0,1,1.9-.636,2.614,2.614,0,0,1,1.783.618,2.174,2.174,0,0,1,.713,1.728,2.593,2.593,0,0,1-.232,1.081,3.451,3.451,0,0,1-.5.826,3.666,3.666,0,0,0-.5.791,2.244,2.244,0,0,0-.232.993,1.306,1.306,0,0,0,.554,1.169,2.4,2.4,0,0,0,1.361.371A12.9,12.9,0,0,0,12,34.966q.687-.07,1.525-.188t1.288-.154q.146-.014.437-.014v-.07a8.027,8.027,0,0,0-.2-1.609,9.026,9.026,0,0,1-.211-1.609q0-1.735,1.458-1.735a1.934,1.934,0,0,1,.938.246,3.445,3.445,0,0,1,.747.531,3.216,3.216,0,0,0,.78.531,2.226,2.226,0,0,0,1.021.246,1.95,1.95,0,0,0,1.632-.755A2.985,2.985,0,0,0,22,28.5,3.306,3.306,0,0,0,21.386,26.494Z"/>
  </g>
</svg>
