<svg xmlns="http://www.w3.org/2000/svg" width="11" height="8" viewBox="0 0 11 8">
    <defs>
        <style>
            .cls-1{fill:#fff}
        </style>
    </defs>
    <g id="view" transform="translate(0 -12.644)">
        <path id="Path_13492" d="M9.488 14.748a4.867 4.867 0 0 0-8.012 0L0 16.621l1.512 1.92a5.115 5.115 0 0 0 4.006 2.1 5.114 5.114 0 0 0 4.006-2.1L11 16.667zm-.226 3.459a4.548 4.548 0 0 1-7.487 0l-1.25-1.586 1.213-1.54a4.548 4.548 0 0 1 7.487 0l1.249 1.586z" class="cls-1" data-name="Path 13492"/>
        <path id="Path_13493" d="M23.19 21.57a1.62 1.62 0 0 0-1.618 1.618.231.231 0 1 0 .462 0 1.157 1.157 0 0 1 1.156-1.156.231.231 0 0 0 0-.462z" class="cls-1" data-name="Path 13493" transform="translate(-17.717 -6.807)"/>
        <path id="Path_13494" d="M19.717 16.57a3.086 3.086 0 1 0 3.145 3.085 3.119 3.119 0 0 0-3.145-3.085zm0 5.7a2.611 2.611 0 1 1 2.661-2.611 2.639 2.639 0 0 1-2.661 2.607z" class="cls-1" data-name="Path 13494" transform="translate(-14.221 -3.018)"/>
    </g>
</svg>
