<svg xmlns="http://www.w3.org/2000/svg" id="prefix__check_2_" width="19.494" height="19.494" data-name="check (2)" viewBox="0 0 19.494 19.494">
    <defs>
        <style>
            .prefix__cls-hgfdxcgvhbjnk{fill:#bf48ff !important}
        </style>
    </defs>
    <g id="prefix__Group_14339" data-name="Group 14339">
        <g id="prefix__Group_14338" data-name="Group 14338">
            <path id="prefix__Path_28483" d="M9.747 0a9.747 9.747 0 1 0 9.747 9.747A9.747 9.747 0 0 0 9.747 0zm0 18.865a9.118 9.118 0 1 1 9.118-9.118 9.118 9.118 0 0 1-9.118 9.118z" class="prefix__cls-hgfdxcgvhbjnk" data-name="Path 28483"/>
            <path id="prefix__Path_28484" d="M122.248 156.187l-6.38 6.38-3.236-3.236a.314.314 0 0 0-.445.445l3.459 3.459a.314.314 0 0 0 .445 0l6.6-6.6a.314.314 0 0 0-.445-.445z" class="prefix__cls-hgfdxcgvhbjnk" data-name="Path 28484" transform="translate(-107.693 -149.964)"/>
        </g>
    </g>
</svg>
