<svg xmlns="http://www.w3.org/2000/svg" width="9.393" height="9.39" viewBox="0 0 9.393 9.39">
    <defs>
        <style>
            .cls-1{fill:#fff}
        </style>
    </defs>
    <g id="hidden">
        <path id="Path_826" d="M5.579 124.772A5.044 5.044 0 0 1 2 123.292l-1.06-1.06a.191.191 0 0 1-.051-.123.173.173 0 0 1 .051-.123L2 120.927a5.059 5.059 0 0 1 7.155 0l1.06 1.06a.192.192 0 0 1 .051.122.173.173 0 0 1-.051.123l-1.06 1.06a5.043 5.043 0 0 1-3.576 1.48zm-4.318-2.662l.961.961a4.752 4.752 0 0 0 6.712 0l.961-.961-.961-.961a4.746 4.746 0 0 0-6.712 0zm0 0" class="cls-1" data-name="Path 826" transform="translate(-.874 -117.254)"/>
        <path id="Path_827" d="M180.678 181.985a1.409 1.409 0 0 1-1.22-2.113.156.156 0 1 1 .271.157 1.094 1.094 0 1 0 .538-.468.156.156 0 0 1-.118-.29 1.409 1.409 0 1 1 .528 2.714zm0 0" class="cls-1" data-name="Path 827" transform="translate(-175.981 -175.881)"/>
        <path id="Path_828" d="M.158 9.392a.157.157 0 0 1-.111-.267L9.124.048a.156.156 0 1 1 .221.221L.268 9.346a.156.156 0 0 1-.11.046zm0 0" class="cls-1" data-name="Path 828" transform="translate(-.001 -.002)"/>
        <path id="Path_829" d="M113.676 124.766a2.661 2.661 0 1 1 2.661-2.661 2.664 2.664 0 0 1-2.661 2.661zm0-5.008a2.348 2.348 0 1 0 2.348 2.348 2.35 2.35 0 0 0-2.348-2.348zm0 0" class="cls-1" data-name="Path 829" transform="translate(-108.979 -117.254)"/>
    </g>
</svg>
