<svg xmlns="http://www.w3.org/2000/svg" width="11.279" height="9.587" viewBox="0 0 11.279 9.587">
    <defs>
        <style>
            .deploy-icon-cls{fill:#f0f0f0}
        </style>
    </defs>
    <g id="cloud-computing" transform="translate(0 -4.5)">
        <path id="Path_13480" d="M9.582 7.544A3.219 3.219 0 0 0 6.407 4.5a3.314 3.314 0 0 0-2.621 1.317l-.043-.019a1.968 1.968 0 0 0-.114-.051l-.065-.024a1.965 1.965 0 0 0-.116-.036l-.066-.017a1.371 1.371 0 0 0-.128-.023L3.2 5.639a1.744 1.744 0 0 0-.189-.011A1.694 1.694 0 0 0 1.316 7.32v.072A2.6 2.6 0 0 0 0 9.6a2.417 2.417 0 0 0 2.415 2.415h.969a.188.188 0 0 0 0-.376h-.969A2.041 2.041 0 0 1 .376 9.6a2.235 2.235 0 0 1 1.209-1.923l.107-.051v-.118-.138-.049a1.307 1.307 0 0 1 1.488-1.3l.044.007a1.291 1.291 0 0 1 .149.033h.019a1.29 1.29 0 0 1 .158.061l.039.019a1.286 1.286 0 0 1 .133.075 1.315 1.315 0 0 1 .6 1.1.188.188 0 0 0 .376 0 1.688 1.688 0 0 0-.6-1.292 2.977 2.977 0 0 1 2.309-1.148A2.838 2.838 0 0 1 9.2 7.486a3.579 3.579 0 0 0-.768.023.188.188 0 0 0 .028.374h.029a3.466 3.466 0 0 1 .88 0A1.927 1.927 0 0 1 10.9 9.758a1.887 1.887 0 0 1-1.885 1.885h-.744a.188.188 0 1 0 0 .376h.747a2.264 2.264 0 0 0 2.261-2.261 2.313 2.313 0 0 0-1.697-2.214z" class="deploy-icon-cls" data-name="Path 13480"/>
        <path id="Path_13481" d="M23.825 30.556a.186.186 0 0 0-.061-.041.189.189 0 0 0-.2.041l-1.5 1.5a.188.188 0 1 0 .266.266l1.17-1.179v3.87a.188.188 0 0 0 .376 0v-3.87l1.183 1.183a.188.188 0 0 0 .266-.266z" class="deploy-icon-cls" data-name="Path 13481" transform="translate(-17.864 -21.114)"/>
    </g>
</svg>
