<svg xmlns="http://www.w3.org/2000/svg" id="prefix__facebook_2_" width="25.238" height="25.238" data-name="facebook (2)" viewBox="0 0 25.238 25.238">
    <defs>
        <style>
            .prefix__cls-1{fill:#fff}
        </style>
    </defs>
    <path id="prefix__Path_24467" d="M291.172 508.668q-.158.026-.317.047.159-.021.317-.047zm0 0" class="prefix__cls-1" data-name="Path 24467" transform="translate(-276.518 -483.594)"/>
    <path id="prefix__Path_24468" d="M299.491 507.793l-.151.026zm0 0" class="prefix__cls-1" data-name="Path 24468" transform="translate(-284.584 -482.762)"/>
    <path id="prefix__Path_24469" d="M277.98 510.34q-.185.021-.371.037.191-.016.371-.037zm0 0" class="prefix__cls-1" data-name="Path 24469" transform="translate(-263.925 -485.183)"/>
    <path id="prefix__Path_24470" d="M286.623 509.738l-.178.022zm0 0" class="prefix__cls-1" data-name="Path 24470" transform="translate(-272.325 -484.611)"/>
    <path id="prefix__Path_24471" d="M306.8 506.41l-.133.028zm0 0" class="prefix__cls-1" data-name="Path 24471" transform="translate(-291.548 -481.447)"/>
    <path id="prefix__Path_24472" d="M324.592 502.113l-.107.03zm0 0" class="prefix__cls-1" data-name="Path 24472" transform="translate(-308.489 -477.362)"/>
    <path id="prefix__Path_24473" d="M319.176 503.543l-.117.03zm0 0" class="prefix__cls-1" data-name="Path 24473" transform="translate(-303.331 -478.722)"/>
    <path id="prefix__Path_24474" d="M312.191 505.254l-.124.028zm0 0" class="prefix__cls-1" data-name="Path 24474" transform="translate(-296.684 -480.348)"/>
    <path id="prefix__Path_24475" d="M273.68 511.09l-.2.015zm0 0" class="prefix__cls-1" data-name="Path 24475" transform="translate(-260 -485.896)"/>
    <path id="prefix__Path_24476" d="M25.238 12.619a12.619 12.619 0 1 0-12.619 12.619h.222v-9.826H10.13v-3.16h2.711V9.927a3.8 3.8 0 0 1 4.052-4.164 22.318 22.318 0 0 1 2.431.124v2.819h-1.66c-1.309 0-1.562.622-1.562 1.534v2.012h3.129l-.408 3.16H16.1v9.339a12.626 12.626 0 0 0 9.138-12.132zm0 0" class="prefix__cls-1" data-name="Path 24476"/>
    <path id="prefix__Path_24477" d="M265.286 511.43q-.2.013-.4.02.203-.007.4-.02zm0 0" class="prefix__cls-1" data-name="Path 24477" transform="translate(-251.833 -486.22)"/>
    <path id="prefix__Path_24478" d="M260.713 511.836l-.21.005zm0 0" class="prefix__cls-1" data-name="Path 24478" transform="translate(-247.663 -486.606)"/>
</svg>
