<svg xmlns="http://www.w3.org/2000/svg" width="16.648" height="16.648" viewBox="0 0 16.648 16.648">
    <path id="prefix__refer" d="M8.158 8.841h.32a7.161 7.161 0 0 1 3.322.9.65.65 0 0 0 .632-1.141 8.4 8.4 0 0 0-1.461-.639 4.422 4.422 0 1 0-5.293 0 8.457 8.457 0 0 0-5.636 6.3 1.976 1.976 0 0 0 1.931 2.383h5.082a.65.65 0 1 0 0-1.3H1.973a.661.661 0 0 1-.52-.247.679.679 0 0 1-.138-.57 7.185 7.185 0 0 1 6.843-5.686zM5.2 4.422A3.121 3.121 0 1 1 8.478 7.54h-.307A3.125 3.125 0 0 1 5.2 4.422zm11.447 7.668a1.607 1.607 0 0 1-.478 1.15l-1.21 1.2a.65.65 0 1 1-.917-.922l.811-.806h-3.685a1.317 1.317 0 0 0-.016 2.633.65.65 0 1 1 0 1.3 2.576 2.576 0 0 1-1.845-.769 2.623 2.623 0 0 1 1.861-4.465h3.626l-.75-.741a.65.65 0 0 1 .915-.925l1.208 1.194a1.608 1.608 0 0 1 .48 1.151zm0 0" style="fill:#fff"/>
</svg>
