<svg xmlns="http://www.w3.org/2000/svg" width="18" height="18" viewBox="0 0 18 18">
    <defs>
        <style>
            .cls-1{fill:#ff9f00}.cls-2{fill:none}
        </style>
    </defs>
    <g id="Group_3478" data-name="Group 3478" transform="translate(-38 -74)">
        <g id="upload-to-cloud" transform="translate(40 44.622)">
            <path id="Path_856" d="M10.8 36.74a3.737 3.737 0 0 0-3.809-3.362 3.737 3.737 0 0 0-3.809 3.363A3.512 3.512 0 0 0 0 40.149a3.551 3.551 0 0 0 3.645 3.439h5.544a.27.27 0 1 0 0-.539H3.645a2.9 2.9 0 1 1-.167-5.792.277.277 0 0 0 .27-.269v-.016a3.163 3.163 0 0 1 3.246-3.055 3.163 3.163 0 0 1 3.246 3.056v.015a.277.277 0 0 0 .271.269 2.976 2.976 0 0 1 2.917 2.892 2.831 2.831 0 0 1-1.135 2.251.259.259 0 0 0-.041.379.3.3 0 0 0 .4.039A3.356 3.356 0 0 0 14 40.149a3.511 3.511 0 0 0-3.2-3.409z" class="cls-1" data-name="Path 856"/>
            <path id="Path_857" d="M140.966 135.381v3.869a.3.3 0 0 0 .607 0v-3.869a.3.3 0 1 0-.607 0z" class="cls-1" data-name="Path 857" transform="translate(-134.275 -97.502)"/>
            <path id="Path_858" d="M110.424 108.23a.3.3 0 0 0 .215-.518l-1.735-1.735a.3.3 0 0 0-.429 0l-1.735 1.735a.3.3 0 0 0 .429.429l1.521-1.521 1.521 1.521a.3.3 0 0 0 .213.089z" class="cls-1" data-name="Path 858" transform="translate(-101.694 -69.359)"/>
        </g>
        <path id="Rectangle_1819" d="M0 0h18v18H0z" class="cls-2" data-name="Rectangle 1819" transform="translate(38 74)"/>
    </g>
</svg>
