<svg xmlns="http://www.w3.org/2000/svg" id="chat-comment-oval-speech-bubble-with-text-lines" width="15" height="15" viewBox="0 0 15 15">
    <defs>
        <style>
            .cls-1{fill:#ff9f00}
        </style>
    </defs>
    <g id="_x32__26_">
        <g id="Group_5565" data-name="Group 5565">
            <path id="Path_13382" d="M9.844 7.969H5.156a.469.469 0 0 0 0 .938h4.688a.469.469 0 0 0 0-.938zm.938-2.812H4.219a.469.469 0 0 0 0 .938h6.563a.469.469 0 0 0 0-.937zM7.5 0C3.358 0 0 2.938 0 6.563a6.281 6.281 0 0 0 2.813 5.118V15L6.1 13.006a8.6 8.6 0 0 0 1.4.119c4.142 0 7.5-2.938 7.5-6.562S11.642 0 7.5 0zm0 12.188a7.586 7.586 0 0 1-1.584-.172l-2.207 1.326.03-2.174a5.435 5.435 0 0 1-2.8-4.605C.938 3.456 3.876.938 7.5.938s6.563 2.519 6.563 5.625-2.939 5.625-6.563 5.625z" class="cls-1" data-name="Path 13382"/>
        </g>
    </g>
</svg>
