<svg xmlns="http://www.w3.org/2000/svg" width="70" height="70" viewBox="0 0 70 70">
    <defs>
        <style>
            .cls-1{fill:#efefef}.cls-2{fill:none}.cls-3{fill:#ec5900}
        </style>
    </defs>
    <g id="Group_3348" data-name="Group 3348" transform="translate(-930 -155)">
        <circle id="Ellipse_36" cx="35" cy="35" r="35" class="cls-1" data-name="Ellipse 36" transform="translate(930 155)"/>
        <g id="wall-calendar-with-lines" transform="translate(949 174)">
            <path id="Rectangle_2074" d="M0 0h32v32H0z" class="cls-2" data-name="Rectangle 2074"/>
            <path id="Path_202" d="M27.753 26.817h-2.939v-1.769a1.343 1.343 0 0 0-1.27-1.376h-1.813a1.343 1.343 0 0 0-1.27 1.376v1.769H9.687v-1.769a1.343 1.343 0 0 0-1.27-1.376H6.6a1.343 1.343 0 0 0-1.27 1.376v1.769H2.25A2.362 2.362 0 0 0 0 29.256v21.977a2.362 2.362 0 0 0 2.25 2.439h25.5A2.362 2.362 0 0 0 30 51.233V29.256a2.359 2.359 0 0 0-2.247-2.439zM21.8 25.165h1.669v4.325H21.8v-4.325zm-15.128 0h1.674v4.325H6.677v-4.325zm-4.39 3.109h3.089v1.3a1.343 1.343 0 0 0 1.27 1.376h1.813a1.343 1.343 0 0 0 1.27-1.376v-1.3h10.737v1.3a1.343 1.343 0 0 0 1.27 1.376h1.814a1.343 1.343 0 0 0 1.27-1.376v-1.3h2.975a.939.939 0 0 1 .907.983v3.932H1.38v-3.933a.937.937 0 0 1 .907-.983zm25.471 23.942H2.287a.939.939 0 0 1-.907-.983V34.64h27.28v16.593a.939.939 0 0 1-.907.983zM7.3 38.612a.677.677 0 0 1-.652.706H4.467a.708.708 0 0 1 0-1.412h2.176a.655.655 0 0 1 .657.706zm6.274 0a.677.677 0 0 1-.652.706h-2.181a.708.708 0 0 1 0-1.412h2.176a.675.675 0 0 1 .652.706zm6.24 0a.677.677 0 0 1-.652.706h-2.18a.708.708 0 0 1 0-1.412h2.176a.655.655 0 0 1 .652.706zm6.274 0a.677.677 0 0 1-.652.706h-2.18a.708.708 0 0 1 0-1.412h2.176a.653.653 0 0 1 .652.706zM7.3 43.446a.677.677 0 0 1-.652.706H4.467a.708.708 0 0 1 0-1.412h2.176a.679.679 0 0 1 .657.706zm6.274 0a.677.677 0 0 1-.652.706h-2.181a.708.708 0 0 1 0-1.412h2.176a.7.7 0 0 1 .652.706zm6.24 0a.677.677 0 0 1-.652.706h-2.18a.708.708 0 0 1 0-1.412h2.176a.679.679 0 0 1 .652.706zm6.274 0a.677.677 0 0 1-.652.706h-2.18a.708.708 0 0 1 0-1.412h2.176a.677.677 0 0 1 .652.706zM7.3 48.324a.677.677 0 0 1-.652.706H4.467a.708.708 0 0 1 0-1.412h2.176c.357-.044.657.273.657.706zm6.274 0a.677.677 0 0 1-.652.706h-2.181a.708.708 0 0 1 0-1.412h2.176a.649.649 0 0 1 .652.706zm6.24 0a.677.677 0 0 1-.652.706h-2.18a.708.708 0 0 1 0-1.412h2.176c.359-.044.652.273.652.706zm6.274 0a.677.677 0 0 1-.652.706h-2.18a.708.708 0 0 1 0-1.412h2.176c.363-.044.652.273.652.706z" class="cls-3" data-name="Path 202" transform="translate(.999 -22.672)"/>
        </g>
    </g>
</svg>
