<svg xmlns="http://www.w3.org/2000/svg" id="prefix__call" width="17.286" height="17.286" viewBox="0 0 17.286 17.286">
    <g id="prefix__Group_13822" data-name="Group 13822">
        <path id="prefix__Path_26736" d="M15.9 11.346a9.814 9.814 0 0 1-3.082-.491 1.357 1.357 0 0 0-1.37.289L9.5 12.611a10.741 10.741 0 0 1-4.826-4.828L6.1 5.89a1.4 1.4 0 0 0 .344-1.416 9.829 9.829 0 0 1-.493-3.087A1.389 1.389 0 0 0 4.561 0H1.387A1.389 1.389 0 0 0 0 1.387a15.917 15.917 0 0 0 15.9 15.9 1.389 1.389 0 0 0 1.386-1.387v-3.167a1.389 1.389 0 0 0-1.386-1.387zm.427 4.553a.427.427 0 0 1-.427.427A14.955 14.955 0 0 1 .96 1.387.427.427 0 0 1 1.387.96h3.175a.427.427 0 0 1 .427.427 10.768 10.768 0 0 0 .539 3.381.478.478 0 0 1-.152.492L3.725 7.447a.48.48 0 0 0-.045.507A11.92 11.92 0 0 0 9.331 13.6a.478.478 0 0 0 .508-.044l2.236-1.694a.424.424 0 0 1 .435-.1 10.783 10.783 0 0 0 3.388.541.427.427 0 0 1 .427.427z" data-name="Path 26736" style="fill:#fff"/>
    </g>
</svg>
