<svg xmlns="http://www.w3.org/2000/svg" id="prefix__warming" width="27.378" height="24.588" viewBox="0 0 27.378 24.588">
    <defs>
        <style>
            .prefix__cls-1{fill:#fb9b02}
        </style>
    </defs>
    <path id="prefix__Path_15696" d="M27.172 19.993l-11.61-21.2a1.714 1.714 0 0 0-2.96-.04L6.262 9.635a.539.539 0 0 0 .93.542l6.34-10.884a.627.627 0 0 1 1.085.015l11.61 21.2a.627.627 0 0 1-.547.923H1.693a.627.627 0 0 1-.538-.938l3.86-6.623a.539.539 0 0 0-.93-.542l-3.86 6.624a1.717 1.717 0 0 0 1.468 2.558H25.68a1.714 1.714 0 0 0 1.492-2.517zm0 0" class="prefix__cls-1" data-name="Path 15696" transform="translate(.001 2.078)"/>
    <path id="prefix__Path_15697" d="M282.709 176.448a1.409 1.409 0 0 0 1.4-1.3l.407-5.6a1.4 1.4 0 0 0-1.4-1.506h-.816a1.4 1.4 0 0 0-1.4 1.506l.408 5.6a1.409 1.409 0 0 0 1.401 1.3zm-.647-7.228a.325.325 0 0 1 .24-.1h.816a.327.327 0 0 1 .326.351l-.407 5.6a.328.328 0 0 1-.326.3.329.329 0 0 1-.326-.3l-.408-5.6a.327.327 0 0 1 .087-.246zm0 0" class="prefix__cls-1" data-name="Path 15697" transform="translate(-268.858 -160.748)"/>
    <path id="prefix__Path_15698" d="M279.962 392.542a1.935 1.935 0 1 0-1.935-1.935 1.937 1.937 0 0 0 1.935 1.935zm0-2.793a.858.858 0 1 1-.858.858.859.859 0 0 1 .858-.858zm0 0" class="prefix__cls-1" data-name="Path 15698" transform="translate(-266.111 -371.924)"/>
    <path id="prefix__Path_15699" d="M118.963 309.229a.538.538 0 1 0-.537-.562.545.545 0 0 0 .537.562zm0 0" class="prefix__cls-1" data-name="Path 15699" transform="translate(-113.35 -294.855)"/>
</svg>
