<svg xmlns="http://www.w3.org/2000/svg" width="20.284" height="18.256" viewBox="0 0 20.284 18.256">
    <path id="prefix__suitcase_1_" d="M19.27 3.043h-4.395V1.69A1.692 1.692 0 0 0 13.185 0H7.1a1.692 1.692 0 0 0-1.69 1.69v1.353H1.014A1.014 1.014 0 0 0 0 4.057v7.525a1.019 1.019 0 0 0 .676.954v4.7a1.014 1.014 0 0 0 1.014 1.02h16.9a1.014 1.014 0 0 0 1.014-1.014v-4.7a1.019 1.019 0 0 0 .676-.955v-7.53a1.014 1.014 0 0 0-1.01-1.014zM6.085 1.69A1.014 1.014 0 0 1 7.1.676h6.085A1.014 1.014 0 0 1 14.2 1.69v1.353h-.676V1.69a.338.338 0 0 0-.338-.338H7.1a.338.338 0 0 0-.338.338v1.353h-.677zm6.761 1.352H7.438V2.028h5.409zm6.085 14.2a.338.338 0 0 1-.338.338H1.69a.338.338 0 0 1-.338-.338v-4.589l7.438 1.026v.858a1.014 1.014 0 0 0 1.01 1.014h.676a1.014 1.014 0 0 0 1.014-1.014v-.858l7.438-1.026zm-8.114-2.7a.338.338 0 0 1-.338.338H9.8a.338.338 0 0 1-.338-.338v-2.033a.338.338 0 0 1 .338-.338h.676a.338.338 0 0 1 .338.338zm8.79-2.955a.338.338 0 0 1-.291.335l-.094.013L11.494 13v-.487a1.014 1.014 0 0 0-1.014-1.014H9.8a1.014 1.014 0 0 0-1.01 1.01V13L.967 11.917a.338.338 0 0 1-.291-.335V4.057a.338.338 0 0 1 .338-.338H19.27a.338.338 0 0 1 .338.338zm0 0" data-name="suitcase (1)" style="fill:#fff"/>
</svg>
