<svg xmlns="http://www.w3.org/2000/svg" width="19.683" height="20.858" viewBox="0 0 19.683 20.858">
    <defs>
        <style>
            .prefix__cls-1{fill:#fff}
        </style>
    </defs>
    <g id="prefix__experience" transform="translate(-14.416)">
        <path id="prefix__Path_26984" d="M144.485 50.12l-.353.128a1.662 1.662 0 0 0-1.06 1.243l-.12.627a1.058 1.058 0 0 0 1.039 1.257h3.058a1.058 1.058 0 0 0 1.042-1.244l-.112-.624a1.658 1.658 0 0 0-1.064-1.263l-.374-.136v-.551a.3.3 0 0 0 0-.045 1.5 1.5 0 0 0 .429-1.044v-.821a1.454 1.454 0 0 0-2.908 0v.847a1.45 1.45 0 0 0 .428 1.026.3.3 0 0 0 0 .038zm2.893 1.495l.112.624a.447.447 0 0 1-.44.525h-3.058a.447.447 0 0 1-.439-.531l.12-.627a1.047 1.047 0 0 1 .668-.784l.231-.084.018.017a1.409 1.409 0 0 0 1.848 0 .3.3 0 0 0 .027-.026l.244.088a1.045 1.045 0 0 1 .669.798zm-2.707-3.968a.842.842 0 0 1 1.658-.21c-.039.019-.08.037-.121.054a1.016 1.016 0 0 1-.766.07.306.306 0 1 0-.351.5 1.012 1.012 0 0 0 .583.157 2.033 2.033 0 0 0 .682-.13v.38a.885.885 0 0 1-.265.627.854.854 0 0 1-.263.177l-.02.008a.789.789 0 0 1-.311.056.847.847 0 0 1-.826-.843zm.814 2.3h.028a1.418 1.418 0 0 0 .418-.063v.489a.8.8 0 0 1-.835 0v-.488a1.434 1.434 0 0 0 .389.062z" class="prefix__cls-1" data-name="Path 26984" transform="translate(-123.282 -44.311)"/>
        <path id="prefix__Path_26985" d="M81.07 336.515h9.515a.306.306 0 0 0 0-.611H81.07a.306.306 0 0 0 0 .611z" class="prefix__cls-1" data-name="Path 26985" transform="translate(-63.645 -322.22)"/>
        <path id="prefix__Path_26986" d="M81.07 376.956h9.515a.306.306 0 0 0 0-.611H81.07a.306.306 0 0 0 0 .611z" class="prefix__cls-1" data-name="Path 26986" transform="translate(-63.645 -361.014)"/>
        <path id="prefix__Path_26987" d="M81.07 417.4h9.515a.306.306 0 1 0 0-.611H81.07a.306.306 0 1 0 0 .611z" class="prefix__cls-1" data-name="Path 26987" transform="translate(-63.645 -399.805)"/>
        <path id="prefix__Path_26988" d="M81.07 457.836h9.515a.306.306 0 1 0 0-.611H81.07a.306.306 0 1 0 0 .611z" class="prefix__cls-1" data-name="Path 26988" transform="translate(-63.645 -438.599)"/>
        <path id="prefix__Path_26989" d="M80.764 255.33a.305.305 0 0 0 .306.306h9.515a.306.306 0 1 0 0-.611H81.07a.306.306 0 0 0-.306.305z" class="prefix__cls-1" data-name="Path 26989" transform="translate(-63.645 -244.635)"/>
        <path id="prefix__Path_26990" d="M81.07 296.075h9.515a.306.306 0 0 0 0-.611H81.07a.306.306 0 0 0 0 .611z" class="prefix__cls-1" data-name="Path 26990" transform="translate(-63.645 -283.427)"/>
        <path id="prefix__Path_26991" d="M53.348 336.489a.307.307 0 1 0-.307-.307.307.307 0 0 0 .307.307z" class="prefix__cls-1" data-name="Path 26991" transform="translate(-37.051 -322.193)"/>
        <path id="prefix__Path_26992" d="M53.348 255.609a.307.307 0 1 0-.307-.307.307.307 0 0 0 .307.307z" class="prefix__cls-1" data-name="Path 26992" transform="translate(-37.051 -244.608)"/>
        <path id="prefix__Path_26993" d="M53.348 296.049a.307.307 0 1 0-.307-.307.307.307 0 0 0 .307.307z" class="prefix__cls-1" data-name="Path 26993" transform="translate(-37.051 -283.401)"/>
        <path id="prefix__Path_26994" d="M53.348 376.929a.307.307 0 1 0-.307-.307.307.307 0 0 0 .307.307z" class="prefix__cls-1" data-name="Path 26994" transform="translate(-37.051 -360.986)"/>
        <path id="prefix__Path_26995" d="M53.348 417.37a.307.307 0 1 0-.307-.307.307.307 0 0 0 .307.307z" class="prefix__cls-1" data-name="Path 26995" transform="translate(-37.051 -399.779)"/>
        <path id="prefix__Path_26996" d="M53.348 457.81a.307.307 0 1 0-.307-.307.307.307 0 0 0 .307.307z" class="prefix__cls-1" data-name="Path 26996" transform="translate(-37.051 -438.572)"/>
        <path id="prefix__Path_26997" d="M33.612 4.812a2.112 2.112 0 0 1-.3-.439 2.227 2.227 0 0 1-.11-.545 1.7 1.7 0 0 0-.379-1.051 1.7 1.7 0 0 0-1.047-.377 2.228 2.228 0 0 1-.546-.11 2.11 2.11 0 0 1-.439-.3 2.3 2.3 0 0 0-.73-.44v-.092A1.46 1.46 0 0 0 28.6 0H15.874a1.46 1.46 0 0 0-1.458 1.458v1.18a.306.306 0 0 0 .611 0v-1.18a.848.848 0 0 1 .847-.847H28.6a.848.848 0 0 1 .847.847v.092a2.3 2.3 0 0 0-.73.44 2.113 2.113 0 0 1-.439.3 2.231 2.231 0 0 1-.546.11 1.7 1.7 0 0 0-1.051.379 1.7 1.7 0 0 0-.381 1.048 2.227 2.227 0 0 1-.11.545 2.111 2.111 0 0 1-.3.439 1.714 1.714 0 0 0-.487 1.035 1.715 1.715 0 0 0 .497 1.037 2.112 2.112 0 0 1 .3.439 2.227 2.227 0 0 1 .11.546 1.7 1.7 0 0 0 .379 1.051 1.7 1.7 0 0 0 1.051.379c.107.013.211.026.307.044v4.618a.469.469 0 0 0 .758.369l.649-.509v5.58a.848.848 0 0 1-.847.847H15.874a.848.848 0 0 1-.847-.847V3.983a.306.306 0 1 0-.611 0V19.4a1.46 1.46 0 0 0 1.458 1.458H28.6a1.46 1.46 0 0 0 1.461-1.458v-5.579l.649.508a.469.469 0 0 0 .759-.369v-3.41a.306.306 0 0 0-.611 0v3.119l-.812-.636a.47.47 0 0 0-.58 0l-.813.637V9.651l.067.053a1.715 1.715 0 0 0 1.036.487 1.715 1.715 0 0 0 1.035-.491 2.113 2.113 0 0 1 .439-.3 2.231 2.231 0 0 1 .546-.11 1.7 1.7 0 0 0 1.051-.379 1.7 1.7 0 0 0 .379-1.051 2.229 2.229 0 0 1 .11-.546 2.111 2.111 0 0 1 .3-.439 1.714 1.714 0 0 0 .484-1.028 1.715 1.715 0 0 0-.487-1.035zM33.133 6.5a2.56 2.56 0 0 0-.381.584 2.687 2.687 0 0 0-.152.7 1.264 1.264 0 0 1-.2.694 1.264 1.264 0 0 1-.694.2 2.688 2.688 0 0 0-.7.152 2.559 2.559 0 0 0-.584.381 1.261 1.261 0 0 1-.657.355 1.26 1.26 0 0 1-.657-.355 2.561 2.561 0 0 0-.584-.381l-.077-.029a3.039 3.039 0 0 0-.628-.123 1.264 1.264 0 0 1-.694-.2 1.264 1.264 0 0 1-.2-.694 2.688 2.688 0 0 0-.152-.7 2.561 2.561 0 0 0-.381-.584 1.26 1.26 0 0 1-.355-.657 1.26 1.26 0 0 1 .355-.657 2.56 2.56 0 0 0 .381-.584 2.685 2.685 0 0 0 .152-.7 1.264 1.264 0 0 1 .2-.694A1.264 1.264 0 0 1 27.81 3a2.688 2.688 0 0 0 .7-.152 2.559 2.559 0 0 0 .584-.381 1.264 1.264 0 0 1 .656-.355 1.264 1.264 0 0 1 .656.355 2.561 2.561 0 0 0 .594.385 2.686 2.686 0 0 0 .7.148 1.264 1.264 0 0 1 .694.2 1.264 1.264 0 0 1 .2.694 2.687 2.687 0 0 0 .152.7 2.561 2.561 0 0 0 .381.584 1.26 1.26 0 0 1 .355.657 1.26 1.26 0 0 1-.349.665z" class="prefix__cls-1" data-name="Path 26997"/>
        <path id="prefix__Path_26998" d="M340.114 87.6l-1.04-.294-.6-.9a.386.386 0 0 0-.641 0l-.6.9-1.04.294a.386.386 0 0 0-.2.61l.668.849-.041 1.079a.386.386 0 0 0 .519.377l1.014-.373 1.014.373a.386.386 0 0 0 .519-.377l-.041-1.08.668-.849a.386.386 0 0 0-.2-.61zm-1 1.146a.386.386 0 0 0-.082.253l.032.826-.776-.286a.386.386 0 0 0-.267 0l-.776.286.032-.827a.387.387 0 0 0-.082-.253l-.511-.65.8-.225a.387.387 0 0 0 .215-.157l.46-.687.46.687a.387.387 0 0 0 .216.157l.8.225z" class="prefix__cls-1" data-name="Path 26998" transform="translate(-308.397 -82.728)"/>
    </g>
</svg>
