<svg xmlns="http://www.w3.org/2000/svg" width="20" height="20" viewBox="0 0 20 20">
    <defs>
        <style>
            .cls-1{fill:none}.cls-2{fill:#f0f0f0}
        </style>
    </defs>
    <g id="Group_5060" data-name="Group 5060" transform="translate(-1071.11 -64.389)">
        <path id="user_2_" d="M18.841 11.668l-2.758-1.3a.713.713 0 0 1-.422-.643v-.92c.066-.076.136-.163.208-.259a6.1 6.1 0 0 0 .853-1.578 1.078 1.078 0 0 0 .672-.984V4.9a1.05 1.05 0 0 0-.289-.714v-1.45A2.339 2.339 0 0 0 16.5.961 3.762 3.762 0 0 0 13.64 0a3.763 3.763 0 0 0-2.86.96 2.34 2.34 0 0 0-.6 1.775v1.448a1.05 1.05 0 0 0-.289.714v1.088a1.06 1.06 0 0 0 .432.846A5.591 5.591 0 0 0 11.331 8.8v.9a.714.714 0 0 1-.4.631l-2.574 1.324A2.436 2.436 0 0 0 7 13.81v.881c0 1.291 4.344 1.632 6.64 1.632s6.64-.341 6.64-1.632v-.828a2.431 2.431 0 0 0-1.439-2.195zm.862 3.023c0 .369-2.14 1.088-6.063 1.088s-6.063-.719-6.063-1.088v-.881a1.9 1.9 0 0 1 1.056-1.677l2.576-1.324a1.254 1.254 0 0 0 .7-1.109V8.607l-.067-.076a5.037 5.037 0 0 1-.984-1.922L10.83 6.5l-.1-.06a.536.536 0 0 1-.267-.456V4.9a.524.524 0 0 1 .193-.4l.1-.081V2.685a1.81 1.81 0 0 1 .463-1.366A3.216 3.216 0 0 1 13.64.544a3.223 3.223 0 0 1 2.421.769 1.835 1.835 0 0 1 .469 1.371v1.73l.1.081a.523.523 0 0 1 .193.4v1.09a.546.546 0 0 1-.411.517l-.144.042-.046.135a5.571 5.571 0 0 1-.822 1.553 3.616 3.616 0 0 1-.242.294l-.072.077v1.122a1.251 1.251 0 0 0 .741 1.13l2.758 1.3a1.891 1.891 0 0 1 1.12 1.708z" class="cls-2" data-name="user (2)" transform="translate(1067.111 66.389)"/>
    </g>
</svg>
