<svg xmlns="http://www.w3.org/2000/svg" width="11.891" height="10.777" viewBox="0 0 11.891 10.777">
    <defs>
        <style>
            .cls-1{fill:#fff}
        </style>
    </defs>
    <g id="undo_1_" data-name="undo (1)" transform="translate(0 -2.877)">
        <g id="group-30svg" transform="translate(0 2.877)">
            <path id="path-1_22_" d="M32.437 34.907a.29.29 0 0 1 0-.58 4.842 4.842 0 0 0 .906-.085.29.29 0 0 1 .109.57 5.428 5.428 0 0 1-1.015.095zm1.887-.361a.29.29 0 0 1-.107-.56 4.8 4.8 0 0 0 .809-.416.29.29 0 0 1 .313.489 5.392 5.392 0 0 1-.907.467.292.292 0 0 1-.108.02zm1.618-1.037a.29.29 0 0 1-.2-.5 4.857 4.857 0 0 0 .6-.686.29.29 0 1 1 .471.339 5.445 5.445 0 0 1-.67.768.289.289 0 0 1-.201.079zm1.121-1.561a.29.29 0 0 1-.263-.412 4.8 4.8 0 0 0 .3-.859.29.29 0 1 1 .563.14 5.368 5.368 0 0 1-.338.963.29.29 0 0 1-.262.167zm.462-1.866h-.015a.29.29 0 0 1-.275-.305c0-.085.007-.174.007-.261a.292.292 0 0 1 .29-.292.292.292 0 0 1 .289.293c0 .1 0 .194-.008.289a.291.291 0 0 1-.288.275z" class="cls-1" transform="translate(-25.932 -24.13)"/>
            <path id="path-2_21_" d="M16.463 8.556a.29.29 0 0 1-.29-.29 4.8 4.8 0 0 0-9.567-.645.29.29 0 1 1-.575-.077 5.385 5.385 0 0 1 10.721.722.29.29 0 0 1-.289.29z" class="cls-1" transform="translate(-4.863 -2.877)"/>
            <path id="path-3_20_" d="M1.33 20.119l-.9-.288a.329.329 0 0 0-.43.327.428.428 0 0 0 .042.164l.822 1.591a.325.325 0 0 0 .439.139l1.597-.823a.421.421 0 0 0 .128-.107.33.33 0 0 0-.159-.514l-.951-.3z" class="cls-1" transform="translate(0 -16.542)"/>
        </g>
    </g>
</svg>
