<svg xmlns="http://www.w3.org/2000/svg" id="upload_1_" width="10.929" height="10.129" data-name="upload (1)" viewBox="0 0 10.929 10.129">
    <defs>
        <style>
            .download-cls-1{fill:#f0f0f0}
        </style>
    </defs>
    <g id="Group_3463" data-name="Group 3463">
        <path id="Path_830" d="M10.616 228.2a.312.312 0 0 0-.313.313v2.848a1.405 1.405 0 0 1-1.4 1.4H2.029a1.405 1.405 0 0 1-1.4-1.4v-2.895a.313.313 0 0 0-.626 0v2.895a2.032 2.032 0 0 0 2.029 2.029H8.9a2.032 2.032 0 0 0 2.029-2.029v-2.851a.313.313 0 0 0-.313-.31z" class="download-cls-1" data-name="Path 830" transform="translate(0 -223.258)"/>
        <path id="Path_831" d="M136.858 22.459l1.457 1.457v-6.353a.313.313 0 0 1 .626 0v6.353l1.457-1.457a.315.315 0 0 1 .22-.093.3.3 0 0 1 .22.093.312.312 0 0 1 0 .443l-1.99 1.99a.317.317 0 0 1-.22.093.3.3 0 0 1-.22-.093l-1.99-1.99a.312.312 0 0 1 .441-.443z" class="download-cls-1" data-name="Path 831" transform="translate(-133.163 -17.25)"/>
    </g>
</svg>
