<svg xmlns="http://www.w3.org/2000/svg" width="70" height="70" viewBox="0 0 70 70">
    <defs>
        <style>
            .cls-1{fill:#efefef}.cls-2{fill:none}.cls-3{fill:#ec5900}
        </style>
    </defs>
    <g id="Group_3345" data-name="Group 3345" transform="translate(-929 -277)">
        <circle id="Ellipse_45" cx="35" cy="35" r="35" class="cls-1" data-name="Ellipse 45" transform="translate(929 277)"/>
        <g id="file" transform="translate(948 296)">
            <path id="Rectangle_2072" d="M0 0h32v32H0z" class="cls-2" data-name="Rectangle 2072"/>
            <g id="group-58svg" transform="translate(1.001 1)">
                <path id="path-1_104_" d="M34.5 25.476c0 2.5-2.363 4.524-5.278 4.524H9.778C6.863 30 4.5 27.975 4.5 25.476V4.524C4.5 2.025 6.863 0 9.778 0h19.444C32.137 0 34.5 2.025 34.5 4.524zM32.833 4.524a3.383 3.383 0 0 0-3.611-3.1H9.778a3.383 3.383 0 0 0-3.611 3.1v20.952a3.383 3.383 0 0 0 3.611 3.1h19.444a3.383 3.383 0 0 0 3.611-3.1z" class="cls-3" transform="translate(-4.5)"/>
                <path id="path-2_103_" d="M33.889 12.566H13.426a.786.786 0 1 1 0-1.566h20.463a.786.786 0 1 1 0 1.566z" class="cls-3" transform="translate(-8.358 -5.787)"/>
                <path id="path-3_94_" d="M33.889 20.566H13.426a.786.786 0 1 1 0-1.566h20.463a.786.786 0 1 1 0 1.566z" class="cls-3" transform="translate(-8.358 -9.996)"/>
                <path id="path-4_79_" d="M23.589 31.409a3.431 3.431 0 0 1 .527-1.757 4.137 4.137 0 0 1 1.537-1.473 4.622 4.622 0 0 1 2.357-.584 4.82 4.82 0 0 1 2.211.487 3.646 3.646 0 0 1 1.48 1.328 3.385 3.385 0 0 1 .523 1.825 2.962 2.962 0 0 1-.3 1.36 4.133 4.133 0 0 1-.708 1.008q-.41.425-1.472 1.428a6.09 6.09 0 0 0-.47.5 2.015 2.015 0 0 0-.263.392 1.958 1.958 0 0 0-.134.355q-.048.178-.143.625a.98.98 0 0 1-1.028.95 1.019 1.019 0 0 1-.755-.311 1.262 1.262 0 0 1-.306-.922 3.565 3.565 0 0 1 .225-1.328 3.394 3.394 0 0 1 .6-.985 13.893 13.893 0 0 1 1-1.008q.552-.512.8-.771a2.609 2.609 0 0 0 .415-.579 1.461 1.461 0 0 0 .168-.693 1.655 1.655 0 0 0-.513-1.232 1.819 1.819 0 0 0-1.326-.5 1.775 1.775 0 0 0-1.4.507 4.1 4.1 0 0 0-.76 1.492q-.294 1.031-1.114 1.031a1.065 1.065 0 0 1-.816-.361 1.13 1.13 0 0 1-.335-.784zm4.213 10a1.315 1.315 0 0 1-.919-.361 1.3 1.3 0 0 1-.393-1.008 1.337 1.337 0 0 1 .38-.967 1.25 1.25 0 0 1 .932-.393 1.212 1.212 0 0 1 .915.393 1.354 1.354 0 0 1 .371.967 1.309 1.309 0 0 1-.388 1 1.274 1.274 0 0 1-.9.371z" class="cls-3" transform="translate(-12.702 -15.581)"/>
            </g>
        </g>
    </g>
</svg>
