<svg xmlns="http://www.w3.org/2000/svg" width="18" height="13" viewBox="0 0 18 13">
    <defs>
        <style>
            .cls-1{fill:#ededed}
        </style>
    </defs>
    <g id="reply" transform="translate(0 -64)">
        <g id="Group_5568" data-name="Group 5568" transform="translate(0 64)">
            <path id="Path_13395" d="M8.25 67.617v-2.534A1.106 1.106 0 0 0 7.125 64a1.135 1.135 0 0 0-.757.29l-.484.431C4.291 66.14 1.624 68.516.26 69.834a.986.986 0 0 0 0 1.333c1.365 1.317 4.031 3.693 5.624 5.112l.484.431a1.135 1.135 0 0 0 .757.29 1.106 1.106 0 0 0 1.125-1.083v-2.526c5.4.073 9 1.713 9 3.248a.375.375 0 0 0 .75 0c0-4.866-4.34-8.846-9.75-9.022zm-.375 5.05a.368.368 0 0 0-.375.361v2.889a.372.372 0 0 1-.623.264l-.484-.432C4.8 74.333 2.145 71.964.791 70.657a.32.32 0 0 1 0-.313c1.354-1.307 4.013-3.676 5.6-5.092l.484-.432a.372.372 0 0 1 .623.264v2.889a.368.368 0 0 0 .375.361c4.509 0 8.284 2.835 9.176 6.6-1.599-1.353-5.064-2.267-9.174-2.267z" class="cls-1" data-name="Path 13395" transform="translate(0 -64)"/>
        </g>
    </g>
</svg>
