<svg xmlns="http://www.w3.org/2000/svg" id="information-button" width="14.125" height="14.125" viewBox="0 0 14.125 14.125">
    <defs>
        <style>
            .cls-1{fill:#fff}
        </style>
    </defs>
    <path id="Path_13166" d="M7.062 0a7.063 7.063 0 1 0 7.063 7.062A7.063 7.063 0 0 0 7.062 0zm1.47 10.945q-.545.215-.87.328a2.3 2.3 0 0 1-.755.113 1.5 1.5 0 0 1-1.027-.322 1.04 1.04 0 0 1-.365-.817 2.969 2.969 0 0 1 .027-.394 5.09 5.09 0 0 1 .088-.454l.455-1.607c.04-.154.075-.3.1-.437a1.938 1.938 0 0 0 .041-.378.583.583 0 0 0-.126-.43.72.72 0 0 0-.486-.12 1.276 1.276 0 0 0-.362.054 5.56 5.56 0 0 0-.316.105l.12-.5q.447-.182.855-.311a2.526 2.526 0 0 1 .771-.13 1.476 1.476 0 0 1 1.018.321 1.053 1.053 0 0 1 .355.823q0 .1-.025.369a2.468 2.468 0 0 1-.091.485l-.453 1.6c-.037.129-.07.276-.1.44a2.327 2.327 0 0 0-.044.374.538.538 0 0 0 .143.435.8.8 0 0 0 .494.116 1.434 1.434 0 0 0 .374-.058 2.128 2.128 0 0 0 .3-.1zm-.08-6.5a1.08 1.08 0 0 1-.762.294 1.091 1.091 0 0 1-.765-.294.939.939 0 0 1-.319-.713.949.949 0 0 1 .319-.715 1.084 1.084 0 0 1 .765-.3 1.071 1.071 0 0 1 .762.3.963.963 0 0 1 0 1.428z" class="cls-1" data-name="Path 13166"/>
</svg>
