<svg xmlns="http://www.w3.org/2000/svg" width="53.041" height="53.041" viewBox="0 0 53.041 53.041">
    <defs>
        <style>
            .cls-1{fill:none}.cls-2{fill:#0471aa}
        </style>
    </defs>
    <g id="Group_5102" data-name="Group 5102" transform="translate(-36 -322)">
        <path id="Rectangle_1799" d="M0 0h53.041v53.041H0z" class="cls-1" data-name="Rectangle 1799" transform="translate(36 322)"/>
        <path id="Path_13083" d="M14.909 0a14.91 14.91 0 1 0 14.91 14.909A14.91 14.91 0 0 0 14.909 0zm3.1 23.107q-1.151.454-1.836.692a4.845 4.845 0 0 1-1.593.239 3.175 3.175 0 0 1-2.167-.68 2.2 2.2 0 0 1-.771-1.725 6.267 6.267 0 0 1 .058-.833c.039-.283.1-.6.186-.958l.961-3.393c.085-.326.158-.635.216-.923a4.091 4.091 0 0 0 .086-.8 1.23 1.23 0 0 0-.268-.9 1.52 1.52 0 0 0-1.026-.254 2.693 2.693 0 0 0-.764.114c-.259.08-.483.151-.668.222l.254-1.045q.943-.384 1.8-.658a5.332 5.332 0 0 1 1.628-.275 3.115 3.115 0 0 1 2.136.669A2.223 2.223 0 0 1 17 14.332q0 .222-.052.779a5.211 5.211 0 0 1-.192 1.024l-.956 3.382a9.592 9.592 0 0 0-.211.929 4.912 4.912 0 0 0-.092.79 1.135 1.135 0 0 0 .3.919 1.689 1.689 0 0 0 1.044.245 3.028 3.028 0 0 0 .79-.122 4.492 4.492 0 0 0 .639-.215zm-.169-13.73a2.28 2.28 0 0 1-1.606.623 2.3 2.3 0 0 1-1.616-.621 1.982 1.982 0 0 1-.673-1.506 2 2 0 0 1 .673-1.51 2.288 2.288 0 0 1 1.616-.627 2.262 2.262 0 0 1 1.609.627 2.033 2.033 0 0 1 0 3.015z" class="cls-2" data-name="Path 13083" transform="translate(48 334)"/>
    </g>
</svg>
