<svg xmlns="http://www.w3.org/2000/svg" width="14.768" height="15" viewBox="0 0 14.768 15">
    <defs>
        <style>
            .cls-1{fill:#fb9202}
        </style>
    </defs>
    <g id="Group_5099" data-name="Group 5099" transform="translate(-77.985 -412.389)">
        <g id="Group_3487" data-name="Group 3487" transform="translate(77.985 412.389)">
            <g id="Group_3486" data-name="Group 3486">
                <path id="Path_859" d="M13.675 0a5.073 5.073 0 0 0-4.741 6.869l-4.848 4.848a.37.37 0 0 0-.108.261v2.653a.369.369 0 0 0 .369.369h2.186a.369.369 0 0 0 .261-.108l.737-.736a.369.369 0 0 0 .108-.261v-.9h.9a.369.369 0 0 0 .369-.369v-.362h.362a.369.369 0 0 0 .369-.369V11.1h.795a.37.37 0 0 0 .261-.108l1.175-1.175A5.07 5.07 0 1 0 13.675 0zm0 9.4a4.3 4.3 0 0 1-1.738-.363.369.369 0 0 0-.406.074l-1.241 1.241H9.275a.369.369 0 0 0-.369.369v.8h-.363a.369.369 0 0 0-.369.369v.362h-.9a.369.369 0 0 0-.369.369v1.121l-.52.519H4.717v-.522l4.516-4.516a.333.333 0 0 0-.47-.47L4.717 12.8v-.667L9.63 7.218a.369.369 0 0 0 .074-.406A4.332 4.332 0 1 1 13.675 9.4z" class="cls-1" data-name="Path 859" transform="translate(-3.978)"/>
            </g>
        </g>
        <g id="Group_3489" data-name="Group 3489" transform="translate(87.841 414.531)">
            <g id="Group_3488" data-name="Group 3488">
                <path id="Path_860" d="M341.785 73.144a1.384 1.384 0 1 0 1.384 1.384 1.385 1.385 0 0 0-1.384-1.384zm0 2.029a.645.645 0 1 1 .645-.645.646.646 0 0 1-.645.645z" class="cls-1" data-name="Path 860" transform="translate(-340.401 -73.144)"/>
            </g>
        </g>
    </g>
</svg>
