<svg xmlns="http://www.w3.org/2000/svg" width="99.255" height="99" viewBox="0 0 99.255 99">
    <defs>
        <style>
            .prefix__cls-1{fill:#b45ce3}
        </style>
    </defs>
    <g id="prefix__Page-1" transform="translate(-.424)">
        <g id="prefix___026---Idea" data-name="026---Idea" transform="translate(.424)">
            <path id="prefix__Shape" d="M92.241 46.514a3.356 3.356 0 0 0-3.294-2.723h-3.24l-.238-1.428a3.373 3.373 0 0 0-2.8-2.78c-.319-.05-.641-.084-.958-.128a10.236 10.236 0 0 0-1.275-7.482 6.866 6.866 0 0 0-4.975-9.185 14.278 14.278 0 0 0-13.954-11.655c-.168 0-.317.022-.477.027a6.826 6.826 0 0 0-10.442-1.3A11.518 11.518 0 0 0 44.323 8a11.65 11.65 0 0 0-9.158 4.51 8.358 8.358 0 0 0-10.682 7.511 6.907 6.907 0 0 0-4.23 6.363 6.824 6.824 0 0 0 .168 1.431 13.5 13.5 0 0 0-1.609 11.578c-.45.062-.909.117-1.342.181a3.376 3.376 0 0 0-2.826 2.779l-.244 1.433h-3.244A3.356 3.356 0 0 0 7.864 46.5L.516 84.227a5.034 5.034 0 0 0 4.952 5.993H40.46c1.389 2.292 5.611 3.356 9.591 3.356 3.938 0 8.12-1.039 9.549-3.356h35.035a5.034 5.034 0 0 0 4.952-5.992zM25.327 29.421a3.544 3.544 0 0 1 1.812-6.581 3.48 3.48 0 0 1 2.817 1.423 1.678 1.678 0 1 0 2.695-2 6.779 6.779 0 0 0-4.759-2.685 5.1 5.1 0 0 1 4.975-4.039 5.23 5.23 0 0 1 .611.067 11.021 11.021 0 0 0-.352 1.05 1.678 1.678 0 0 0 3.249.839 8.16 8.16 0 0 1 .871-2.1 8.286 8.286 0 0 1 7.078-4.039 8.15 8.15 0 0 1 4.444 1.344 6.821 6.821 0 0 0-.394 2.2 1.678 1.678 0 1 0 3.356 0 3.53 3.53 0 0 1 7.059 0 1.678 1.678 0 1 0 3.356 0c0-.129-.032-.252-.039-.381a10.892 10.892 0 0 1 9.937 8.4A6.809 6.809 0 0 0 69.872 24a1.678 1.678 0 0 0 2.014 2.685 3.537 3.537 0 0 1 5.188 4.576 3.579 3.579 0 0 1-1.589 1.47 1.678 1.678 0 0 0 .715 3.188 1.656 1.656 0 0 0 .711-.159 6.891 6.891 0 0 0 1.253-.784 7.167 7.167 0 0 1-1.42 7.157l-.04.042a7.247 7.247 0 0 1-8.558 1.571 6.66 6.66 0 0 1-.812-.507 5.715 5.715 0 0 0 .443-5.906 1.679 1.679 0 1 0-3 1.51A2.5 2.5 0 0 1 63.97 42a2.532 2.532 0 0 1-3.645-.93 1.678 1.678 0 0 0-3 1.5 5.818 5.818 0 0 0 5.229 3.235 5.755 5.755 0 0 0 2.106-.414 9.932 9.932 0 0 0 1.967 1.342 10.336 10.336 0 0 0 7.751.716 10.7 10.7 0 0 1-6.91 4.237 1.678 1.678 0 0 0 .263 3.334 1.785 1.785 0 0 0 .267-.02 13.789 13.789 0 0 0 2.977-.869 15 15 0 0 1 1.252 2.881 1.73 1.73 0 0 1 .087.542 1.811 1.811 0 0 1-1.1 1.665 1.9 1.9 0 0 1-2.166-.582 10.71 10.71 0 0 0-4.911-3.264c-3.626-1.215-5.026-2.3-5.62-3.482a16.108 16.108 0 0 0 2.572-.537 1.678 1.678 0 0 0-.987-3.208 12.716 12.716 0 0 1-2.9.532 12.454 12.454 0 0 1-5.561-.839 1.678 1.678 0 0 0-1.881.468 7.185 7.185 0 0 1-11.588-8.4 1.683 1.683 0 0 0-2.888-1.73 10.479 10.479 0 0 0-.96 2.16 2.517 2.517 0 0 1-2.384-2.473v-.042a1.66 1.66 0 0 0-1.678-1.656 1.7 1.7 0 0 0-1.678 1.7 5.839 5.839 0 0 0 5.21 5.791 10.534 10.534 0 0 0 .153 1.678 10.254 10.254 0 0 1-11.6-14.043 6.764 6.764 0 0 0 1.248 1 1.678 1.678 0 0 0 1.732-2.874zM17.944 42.9c.774-.114 1.572-.215 2.366-.319a13.548 13.548 0 0 0 14.716 5.97 10.511 10.511 0 0 0 16.464 2.79 16.108 16.108 0 0 0 3.5.634c.81 3.074 3.153 4.937 8.074 6.586a7.437 7.437 0 0 1 3.416 2.25 5.344 5.344 0 0 0 4.054 1.9 5.1 5.1 0 0 0 1.992-.406 5.166 5.166 0 0 0 3.136-4.75 4.978 4.978 0 0 0-.255-1.587 18.343 18.343 0 0 0-1.483-3.415 14.145 14.145 0 0 0 5.576-8.522 10.511 10.511 0 0 0 .967-1.352c.562.072 1.124.136 1.69.23l6.057 36.435a57.6 57.6 0 0 0-36.486 0v-21a1.678 1.678 0 1 0-3.356 0V79.35a57.608 57.608 0 0 0-36.486-.013zM4.161 86.247a1.665 1.665 0 0 1-.352-1.376l7.348-37.724h2.685L8.576 78.792a3.368 3.368 0 0 0 4.331 3.749 56.136 56.136 0 0 1 27.715-1.759l-.5 6.083H5.468a1.69 1.69 0 0 1-1.307-.617zm45.891 3.973c-4.042 0-6.361-1.195-6.7-1.727l.577-6.964a35.86 35.86 0 0 1 5.4 1.811 1.693 1.693 0 0 0 .725.168 1.668 1.668 0 0 0 .727-.168 35.74 35.74 0 0 1 5.4-1.822l.577 6.974c-.341.534-2.66 1.728-6.7 1.728zm45.891-3.973a1.69 1.69 0 0 1-1.307.617H59.987l-.5-6.094a56.153 56.153 0 0 1 27.723 1.774 3.366 3.366 0 0 0 4.316-3.757l-5.26-31.638h2.684l7.35 37.72a1.665 1.665 0 0 1-.358 1.378z" class="prefix__cls-1" transform="translate(-.424 5.424)"/>
            <path id="prefix__Shape-2" d="M26.909 24.514a1.678 1.678 0 0 0-.119 2.369 10.118 10.118 0 0 0 5.378 3.1 5 5 0 0 1-4.084 2.106 1.678 1.678 0 0 0 0 3.356 8.321 8.321 0 0 0 7.816-5.38 10.127 10.127 0 0 0 8.284-8.054 1.678 1.678 0 1 0-3.3-.631 6.688 6.688 0 0 1-2.779 4.26 6.849 6.849 0 0 1-8.833-1.007 1.678 1.678 0 0 0-2.369-.119z" class="prefix__cls-1" data-name="Shape" transform="translate(17.158 13.551)"/>
            <path id="prefix__Shape-3" d="M23.878 25.4a1.678 1.678 0 0 0 1.678-1.678 4.363 4.363 0 0 1 4.363-4.363 1.678 1.678 0 1 0 0-3.356 7.727 7.727 0 0 0-7.719 7.716 1.678 1.678 0 0 0 1.678 1.681z" class="prefix__cls-1" data-name="Shape" transform="translate(14.339 10.847)"/>
            <path id="prefix__Shape-4" d="M32.356 3.356V1.678a1.678 1.678 0 1 0-3.356 0v1.678a1.678 1.678 0 1 0 3.356 0z" class="prefix__cls-1" data-name="Shape" transform="translate(18.95)"/>
            <path id="prefix__Shape-5" d="M47.295 7.383l-1.678 1.678a1.678 1.678 0 1 0 2.373 2.373l1.678-1.678a1.678 1.678 0 1 0-2.373-2.373z" class="prefix__cls-1" data-name="Shape" transform="translate(29.868 4.658)"/>
            <path id="prefix__Shape-6" d="M15.247 11.925a1.678 1.678 0 0 0 1.186-2.864l-1.677-1.678a1.678 1.678 0 1 0-2.373 2.373l1.678 1.678a1.678 1.678 0 0 0 1.186.492z" class="prefix__cls-1" data-name="Shape" transform="translate(7.337 4.658)"/>
            <path id="prefix__Shape-7" d="M23.043 8.924a1.7 1.7 0 0 0 .643-.128 1.678 1.678 0 0 0 .908-2.196l-1.928-4.648a1.678 1.678 0 1 0-3.1 1.285l1.926 4.651a1.678 1.678 0 0 0 1.55 1.035z" class="prefix__cls-1" data-name="Shape" transform="translate(12.458 .599)"/>
            <path id="prefix__Shape-8" d="M41.666 1.031a1.678 1.678 0 0 0-2.191.908L37.547 6.59a1.678 1.678 0 0 0 .908 2.195 1.7 1.7 0 0 0 .643.128 1.678 1.678 0 0 0 1.55-1.035l1.926-4.651a1.678 1.678 0 0 0-.908-2.195z" class="prefix__cls-1" data-name="Shape" transform="translate(24.657 .612)"/>
            <path id="prefix__Shape-9" d="M51.005 19.717a1.678 1.678 0 0 0 .643-.129l4.65-1.926a1.678 1.678 0 1 0-1.284-3.1l-4.651 1.926a1.678 1.678 0 0 0 .643 3.23z" class="prefix__cls-1" data-name="Shape" transform="translate(32.727 9.785)"/>
            <path id="prefix__Shape-10" d="M11.589 19.588a1.678 1.678 0 0 0 1.285-3.1l-4.651-1.927a1.678 1.678 0 1 0-1.284 3.1z" class="prefix__cls-1" data-name="Shape" transform="translate(3.291 9.785)"/>
        </g>
    </g>
</svg>
