<svg xmlns="http://www.w3.org/2000/svg" width="13.96" height="13" viewBox="0 0 13.96 13">
    <defs>
        <style>
            .cls-1{fill:#ff9f00}
        </style>
    </defs>
    <g id="link" transform="translate(0 -16.6)">
        <g id="Group_6135" data-name="Group 6135" transform="translate(0 16.6)">
            <path id="Path_13475" d="M7.379 188.64a.389.389 0 0 0 0 .552 1.625 1.625 0 0 1 0 2.3l-3.325 3.325a1.625 1.625 0 0 1-2.3 0l-.5-.5a1.625 1.625 0 0 1 0-2.3l3.325-3.325a.391.391 0 0 0-.552-.552l-3.321 3.325a2.4 2.4 0 0 0 0 3.4l.5.5a2.408 2.408 0 0 0 3.4 0l3.325-3.325a2.408 2.408 0 0 0 0-3.4.389.389 0 0 0-.552 0z" class="cls-1" data-name="Path 13475" transform="translate(0 -183.068)"/>
            <path id="Path_13476" d="M192.228 17.8l-.5-.5a2.408 2.408 0 0 0-3.4 0L185 20.628a2.408 2.408 0 0 0 0 3.4.391.391 0 0 0 .552-.552 1.625 1.625 0 0 1 0-2.3l3.325-3.325a1.625 1.625 0 0 1 2.3 0l.5.5a1.625 1.625 0 0 1 0 2.3l-3.325 3.325a.392.392 0 0 0 .275.668.381.381 0 0 0 .275-.116l3.325-3.325a2.4 2.4 0 0 0 0-3.4z" class="cls-1" data-name="Path 13476" transform="translate(-178.971 -16.6)"/>
        </g>
    </g>
</svg>
