<svg xmlns="http://www.w3.org/2000/svg" id="linked-in-square-button" width="20" height="20" viewBox="0 0 20 20">
    <defs>
        <style>
            .cls-1{fill:#0395ff}
        </style>
    </defs>
    <path id="LinkedIn__x28_alt_x29__3_" d="M18.52 0H1.482A1.46 1.46 0 0 0 0 1.434V18.57A1.458 1.458 0 0 0 1.482 20h17.037A1.457 1.457 0 0 0 20 18.57V1.434A1.458 1.458 0 0 0 18.52 0zM6.065 16.741H3.044V7.713h3.021v9.028zM4.552 6.482h-.02a1.567 1.567 0 1 1 .039-3.123 1.567 1.567 0 1 1-.019 3.123zm12.4 10.259h-3.011v-4.829c0-1.213-.443-2.047-1.537-2.047a1.639 1.639 0 0 0-1.546 1.107 2 2 0 0 0-.1.727v5.042H7.736s.038-8.182 0-9.028h3.023v1.28A2.992 2.992 0 0 1 13.477 7.5c1.99 0 3.478 1.291 3.478 4.064v5.177zM10.74 9.022a.056.056 0 0 1 .017-.028v.028z" class="cls-1"/>
</svg>
