<svg xmlns="http://www.w3.org/2000/svg" width="54" height="60" viewBox="0 0 54 60">
    <defs>
        <style>
            .prefix__cls-1{fill:#b45ce3}
        </style>
    </defs>
    <g id="prefix__Page-1">
        <g id="prefix___031---Microphone" data-name="031---Microphone">
            <path id="prefix__Shape" d="M54 17A26.68 26.68 0 0 0 48.266.383a1 1 0 1 0-1.574 1.234A24.7 24.7 0 0 1 52 17a1 1 0 0 0 2 0z" class="prefix__cls-1"/>
            <path id="prefix__Shape-2" d="M5.735.383A26.7 26.7 0 0 0 0 17a1 1 0 0 0 2 0A24.714 24.714 0 0 1 7.31 1.617 1 1 0 1 0 5.735.383z" class="prefix__cls-1" data-name="Shape"/>
            <path id="prefix__Shape-3" d="M49 18a1 1 0 0 0 1-1 22.747 22.747 0 0 0-4.715-13.937A1 1 0 1 0 43.7 4.277 20.768 20.768 0 0 1 48 17a1 1 0 0 0 1 1z" class="prefix__cls-1" data-name="Shape"/>
            <path id="prefix__Shape-4" d="M8.715 3.073A22.735 22.735 0 0 0 4 17a1 1 0 0 0 2 0 20.751 20.751 0 0 1 4.3-12.712 1 1 0 0 0-1.589-1.215z" class="prefix__cls-1" data-name="Shape"/>
            <path id="prefix__Shape-5" d="M40.7 5.307a1 1 0 0 0-.185 1.4A16.778 16.778 0 0 1 44 17a1 1 0 0 0 2 0 18.75 18.75 0 0 0-3.9-11.508 1 1 0 0 0-1.4-.185z" class="prefix__cls-1" data-name="Shape"/>
            <path id="prefix__Shape-6" d="M11.9 5.494A18.826 18.826 0 0 0 8 17a1 1 0 0 0 2 0 16.842 16.842 0 0 1 3.485-10.293A1 1 0 1 0 11.9 5.494z" class="prefix__cls-1" data-name="Shape"/>
            <path id="prefix__Shape-7" d="M27 2a15.017 15.017 0 0 0-15 15v10.184A2.966 2.966 0 0 0 11 27a3 3 0 0 0-3 3 18.019 18.019 0 0 0 14 17.536V50a2 2 0 0 0 2 2v2h-5a3 3 0 0 0-3 3v2a1 1 0 0 0 1 1h20a1 1 0 0 0 1-1v-2a3 3 0 0 0-3-3h-5v-2a2 2 0 0 0 2-2v-2.464A18.019 18.019 0 0 0 46 30a3 3 0 0 0-3-3 2.966 2.966 0 0 0-1 .184V17A15 15 0 0 0 27 2zm0 2a13.011 13.011 0 0 1 12 8h-9a1 1 0 0 0 0 2h9.638a13.074 13.074 0 0 1 .313 2H30a1 1 0 0 0 0 2h10v2H30a1 1 0 0 0 0 2h10v2H30a1 1 0 0 0 0 2h10v2H14v-2h5a1 1 0 0 0 0-2h-5v-2h5a1 1 0 0 0 0-2h-5v-2h5a1 1 0 0 0 0-2h-4.949a12.92 12.92 0 0 1 .312-2H19a1 1 0 0 0 0-2h-4a13.018 13.018 0 0 1 12-8zm13 26a12.013 12.013 0 0 1-12 12h-2a12.013 12.013 0 0 1-12-12zm-4 27v1H18v-1a1 1 0 0 1 1-1h16a1 1 0 0 1 1 1zm-8-3h-2v-2h2zm2-4h-6v-2.118A18.1 18.1 0 0 0 26 48h2a18.1 18.1 0 0 0 2-.118zm13-21a1 1 0 0 1 1 1 16.019 16.019 0 0 1-16 16h-2a16.019 16.019 0 0 1-16-16 1 1 0 0 1 2 0 14.015 14.015 0 0 0 14 14h2a14.015 14.015 0 0 0 14-14 1 1 0 0 1 1-1z" class="prefix__cls-1" data-name="Shape"/>
            <path id="prefix__Shape-8" d="M23 18h1a1 1 0 0 0 0-2h-1a1 1 0 0 0 0 2z" class="prefix__cls-1" data-name="Shape"/>
            <path id="prefix__Shape-9" d="M23 22h1a1 1 0 0 0 0-2h-1a1 1 0 0 0 0 2z" class="prefix__cls-1" data-name="Shape"/>
            <path id="prefix__Shape-10" d="M23 14h1a1 1 0 0 0 0-2h-1a1 1 0 0 0 0 2z" class="prefix__cls-1" data-name="Shape"/>
            <path id="prefix__Shape-11" d="M23 26h1a1 1 0 0 0 0-2h-1a1 1 0 0 0 0 2z" class="prefix__cls-1" data-name="Shape"/>
        </g>
    </g>
</svg>
