<svg xmlns="http://www.w3.org/2000/svg" id="prefix__surface1" width="23.292" height="19.524" viewBox="0 0 23.292 19.524">
    <defs>
        <style>
            .prefix__cls-1{fill:#fff}
        </style>
    </defs>
    <path id="prefix__Path_26711" d="M21.549 0H1.744A1.746 1.746 0 0 0 0 1.744V17.78a1.746 1.746 0 0 0 1.744 1.744h2.75a.346.346 0 1 0 0-.692h-2.75A1.053 1.053 0 0 1 .692 17.78V4.474h16.56a.346.346 0 0 0 0-.692H.692V1.744A1.053 1.053 0 0 1 1.744.692h19.8A1.053 1.053 0 0 1 22.6 1.744v2.038h-4.2a.346.346 0 1 0 0 .692h4.2V17.78a1.053 1.053 0 0 1-1.052 1.052H5.647a.346.346 0 1 0 0 .692h15.9a1.746 1.746 0 0 0 1.743-1.744V1.744A1.746 1.746 0 0 0 21.549 0zm0 0" class="prefix__cls-1" data-name="Path 26711"/>
    <path id="prefix__Path_26712" d="M33.457 23.527a1.222 1.222 0 1 0 1.222-1.227 1.224 1.224 0 0 0-1.222 1.227zm1.753 0a.53.53 0 1 1-.53-.53.531.531 0 0 1 .53.53zm0 0" class="prefix__cls-1" data-name="Path 26712" transform="translate(-31.935 -21.29)"/>
    <path id="prefix__Path_26713" d="M154.109 23.527a1.222 1.222 0 1 0 1.222-1.222 1.224 1.224 0 0 0-1.222 1.222zm1.753 0a.53.53 0 1 1-.53-.53.531.531 0 0 1 .53.53zm0 0" class="prefix__cls-1" data-name="Path 26713" transform="translate(-147.099 -21.29)"/>
    <path id="prefix__Path_26714" d="M93.785 23.527a1.222 1.222 0 1 0 1.222-1.227 1.224 1.224 0 0 0-1.222 1.227zm1.753 0a.53.53 0 1 1-.53-.53.531.531 0 0 1 .53.53zm0 0" class="prefix__cls-1" data-name="Path 26714" transform="translate(-89.519 -21.29)"/>
    <path id="prefix__Path_26715" d="M39.953 124.767v-12.222a.346.346 0 0 0-.346-.346h-5.765a.346.346 0 0 0-.346.346v12.222a.346.346 0 0 0 .346.346h5.765a.346.346 0 0 0 .346-.346zm-.692-.346h-5.073v-11.53h5.074zm0 0" class="prefix__cls-1" data-name="Path 26715" transform="translate(-31.972 -107.095)"/>
    <path id="prefix__Path_26716" d="M194.983 118.077H207.2a.346.346 0 0 0 .346-.346v-5.186a.346.346 0 0 0-.346-.346h-12.217a.346.346 0 0 0-.346.346v5.186a.346.346 0 0 0 .346.346zm.346-5.186h11.53v4.494h-11.53zm0 0" class="prefix__cls-1" data-name="Path 26716" transform="translate(-185.782 -107.095)"/>
    <path id="prefix__Path_26717" d="M194.637 272.388a.346.346 0 0 0 .346.346H207.2a.346.346 0 0 0 .346-.346V267.2a.346.346 0 0 0-.346-.346h-12.217a.346.346 0 0 0-.346.346zm.692-4.84h11.53v4.494h-11.53zm0 0" class="prefix__cls-1" data-name="Path 26717" transform="translate(-185.782 -254.716)"/>
    <path id="prefix__Path_26718" d="M65.276 153.95h2.906a.346.346 0 0 0 0-.692h-2.906a.346.346 0 1 0 0 .692zm0 0" class="prefix__cls-1" data-name="Path 26718" transform="translate(-61.976 -146.286)"/>
    <path id="prefix__Path_26719" d="M65.276 199.7h2.906a.346.346 0 0 0 0-.692h-2.906a.346.346 0 1 0 0 .692zm0 0" class="prefix__cls-1" data-name="Path 26719" transform="translate(-61.976 -189.951)"/>
    <path id="prefix__Path_26720" d="M65.276 245.446h2.906a.346.346 0 0 0 0-.692h-2.906a.346.346 0 1 0 0 .692zm0 0" class="prefix__cls-1" data-name="Path 26720" transform="translate(-61.976 -233.62)"/>
    <path id="prefix__Path_26721" d="M65.276 291.192h2.906a.346.346 0 0 0 0-.692h-2.906a.346.346 0 1 0 0 .692zm0 0" class="prefix__cls-1" data-name="Path 26721" transform="translate(-61.976 -277.285)"/>
    <path id="prefix__Path_26722" d="M65.276 336.942h2.906a.346.346 0 0 0 0-.692h-2.906a.346.346 0 1 0 0 .692zm0 0" class="prefix__cls-1" data-name="Path 26722" transform="translate(-61.976 -320.953)"/>
</svg>
