<svg xmlns="http://www.w3.org/2000/svg" width="27.476" height="34.096" viewBox="0 0 27.476 34.096">
    <defs>
        <style>
            .cls-1{fill:#0b233f}
        </style>
    </defs>
    <g id="MS_SQL" data-name="MS SQL" transform="translate(-1026.834 -339.473)">
        <path id="Path_13137" d="M1026.834 554.762a6 6 0 0 1 .26-1.114 9.737 9.737 0 0 1 1.7-2.755 4.333 4.333 0 0 1 1.624-1.234c1.846-.826 3.665-1.713 5.525-2.507 1.611-.687 3.274-1.236 4.933-1.792 1.434-.481 2.877-.934 4.32-1.383.16-.05.191-.013.211.14a10.129 10.129 0 0 1 .094 1.179 35.508 35.508 0 0 1-.213 4.745 30.653 30.653 0 0 1-1.989 7.867c-.4.983-.876 1.932-1.35 2.881h-.279a.728.728 0 0 0-.116-.028c-.469-.037-.937-.07-1.406-.107-1.747-.136-3.489-.309-5.218-.6a17.358 17.358 0 0 1-4.269-1.212 8.416 8.416 0 0 1-3.419-2.61 1.917 1.917 0 0 1-.367-.852c-.013-.078.009-.164-.043-.235z" class="cls-1" data-name="Path 13137" transform="translate(0 -187.219)"/>
        <path id="Path_13138" d="M1093.912 402.322c3.574.829 7.111 1.6 10.662 2.287a.189.189 0 0 1-.044.138 36.827 36.827 0 0 1-2.044 3.355.192.192 0 0 1-.254.091 36.1 36.1 0 0 0-4.65-1.012c-.063-.009-.119-.013-.146-.093a8.965 8.965 0 0 0-2.13-3.246c-.446-.472-.884-.953-1.326-1.43-.016-.012-.027-.035-.068-.09z" class="cls-1" data-name="Path 13138" transform="translate(-61.415 -57.542)"/>
        <path id="Path_13139" d="M1101.868 345.743a354.995 354.995 0 0 1-9.911-2.168c.025-.066.081-.077.124-.1l6.73-3.96c.118-.07.152-.046.2.073.531 1.291 1.04 2.592 1.659 3.845.351.712.731 1.409 1.1 2.113.03.054.055.111.098.197z" class="cls-1" data-name="Path 13139" transform="translate(-59.625)"/>
        <path id="Path_13140" d="M1267.842 458.122c-.047 0-.083-.028-.122-.051a37.64 37.64 0 0 0-2.485-1.324c-.106-.052-.12-.084-.038-.179a35.46 35.46 0 0 0 2.792-3.731c.064-.1.112-.092.2-.045a10.776 10.776 0 0 1 2.843 2.269 19.328 19.328 0 0 1 1.4 1.661c.051.068.118.122-.032.162q-2.257.607-4.512 1.222z" class="cls-1" data-name="Path 13140" transform="translate(-218.191 -103.72)"/>
        <path id="Path_13141" d="M1131.7 492.462c-.69.722-1.388 1.4-2.116 2.05q-.838.747-1.72 1.441a.727.727 0 0 1-.228.121 59.807 59.807 0 0 0-5.642 2.065c-.02.009-.041.014-.111.038.375-.314.714-.592 1.045-.877a36.334 36.334 0 0 0 5.474-5.866.223.223 0 0 1 .3-.093c.959.311 1.906.654 2.834 1.048.048.019.095.041.164.073z" class="cls-1" data-name="Path 13141" transform="translate(-87.026 -139.025)"/>
        <path id="Path_13142" d="M1212.929 432.983c.412.094.825.186 1.237.283a25.516 25.516 0 0 1 2.588.742c.136.048.149.087.069.207a37.687 37.687 0 0 1-2.776 3.658.188.188 0 0 1-.261.061 31.522 31.522 0 0 0-3.019-1.152c-.147-.048-.145-.091-.066-.206a36.186 36.186 0 0 0 2.073-3.46c.033-.06.044-.156.155-.133z" class="cls-1" data-name="Path 13142" transform="translate(-168.295 -85.611)"/>
        <path id="Path_13143" d="M1085.324 485.386c.4-.411.786-.807 1.17-1.208.743-.775 1.483-1.553 2.166-2.383a6.068 6.068 0 0 0 1.351-4.547 2.385 2.385 0 0 0-.04-.345c-.04-.166.029-.182.168-.157a37.72 37.72 0 0 1 2.131.43c.412.1.82.207 1.232.3.138.032.165.065.067.19a36.635 36.635 0 0 1-2.247 2.636 35.506 35.506 0 0 1-5.818 4.987c-.043.029-.086.059-.13.087-.007.008-.019.006-.05.01z" class="cls-1" data-name="Path 13143" transform="translate(-53.552 -125.674)"/>
        <path id="Path_13144" d="M1231.263 513.769a.163.163 0 0 1 .074-.109 36.36 36.36 0 0 0 1.713-1.733c.059-.063.1-.11.2-.061.537.26 1.071.526 1.594.813a.423.423 0 0 1 .053.05c-1.222.332-2.428.671-3.634 1.04z" class="cls-1" data-name="Path 13144" transform="translate(-187.169 -157.818)"/>
    </g>
</svg>
