<svg xmlns="http://www.w3.org/2000/svg" width="35.596" height="27.5" viewBox="0 0 35.596 27.5">
    <defs>
        <style>
            .cls-1{fill:#fff}
        </style>
    </defs>
    <g id="Group_5391" data-name="Group 5391" transform="translate(-43 -192)">
        <path id="Path_13172" d="M932.713 476.382c-.148.186-.354.1-.531.1q-12.961.008-25.923 0c-.164 0-.351.074-.492-.084 1.9-.326 3.806-.648 5.708-.98q5.121-.895 10.24-1.8c.092-.016.18-.052.331-.1-.63-.755-1.232-1.481-1.838-2.2q-3.269-3.9-6.541-7.793a.561.561 0 0 1-.171-.628c1.468-4.008 2.923-8.02 4.418-12.13z" class="cls-1" data-name="Path 13172" transform="translate(-854.117 -257.001)"/>
        <path id="Path_13173" d="M857.056 436.933l-1.43 3.086q-4.872 10.451-9.737 20.9a.626.626 0 0 1-.666.44q-3.638-.027-7.276 0c-.418 0-.449-.083-.246-.434q4.366-7.541 8.712-15.094a1.588 1.588 0 0 1 .357-.437q5.01-4.2 10.016-8.4c.057-.048.122-.088.184-.131z" class="cls-1" data-name="Path 13173" transform="translate(-794.578 -244.861)"/>
    </g>
</svg>
