<svg xmlns="http://www.w3.org/2000/svg" width="31.877" height="31.877" viewBox="0 0 31.877 31.877">
    <defs>
        <style>
            .cls-1{fill:#f9f9f9}
        </style>
    </defs>
    <g id="mysql" transform="translate(0 -.002)">
        <g id="Group_5134" data-name="Group 5134" transform="translate(0 .002)">
            <path id="Path_13128" d="M31.755 30.831a10.14 10.14 0 0 0-2.367-2.085 9.291 9.291 0 0 1-2.563-2.346c1.968-.411 4.459-1.156 4.579-1.192a.664.664 0 0 0 .318-1.064 20.281 20.281 0 0 0-8.01-5.426c-.215-.43-.454-.981-.732-1.619C21.019 12.6 16.95 3.273 6.215 2.017 5.359 1.439 3.118 0 1.992 0 .6 0 0 .6 0 1.994c0 .68.553 1.474 1.455 2.715a8.433 8.433 0 0 1 1.2 1.934 14.465 14.465 0 0 0 2.529 6.111l-.108.228a9.715 9.715 0 0 0-1.092 4.95c0 3.488 1.671 5.313 3.32 5.313 1.024 0 1.534-1.162 1.779-2.523a15.424 15.424 0 0 0 4.479 5.722.665.665 0 1 0 .767-1.086c-3.3-2.331-5.048-7.579-5.065-7.633a.664.664 0 0 0-1.3.206c0 1.824-.348 3.767-.664 3.985-.958 0-1.992-1.523-1.992-3.985a8.409 8.409 0 0 1 .964-4.381c.1-.212.2-.43.307-.662a.665.665 0 0 0-.173-.773C5.383 11.234 3.98 7.523 3.98 6.641c0-.68-.553-1.474-1.455-2.715a8.433 8.433 0 0 1-1.2-1.934c0-.664 0-.664.664-.664A12.047 12.047 0 0 1 5.6 3.206a.663.663 0 0 0 .3.112C16 4.413 19.748 13.013 21.762 17.633c.339.778.632 1.451.9 1.942a.663.663 0 0 0 .372.315 19.18 19.18 0 0 1 6.945 4.35c-1.131.317-2.937.8-4.184 1.007a.664.664 0 0 0-.535.816c.408 1.634 1.973 2.764 3.354 3.76A9.3 9.3 0 0 1 30.67 31.6a.664.664 0 0 0 1.084-.768z" class="cls-1" data-name="Path 13128" transform="translate(0 -.002)"/>
            <path id="Path_13129" d="M96 75.333a.664.664 0 0 0 .664.664.665.665 0 0 1 .664.664.664.664 0 1 0 1.328 0 1.994 1.994 0 0 0-1.992-1.992.664.664 0 0 0-.664.664z" class="cls-1" data-name="Path 13129" transform="translate(-90.023 -70.02)"/>
        </g>
        <path id="Path_13130" d="M31.755 30.831a10.14 10.14 0 0 0-2.367-2.085 9.291 9.291 0 0 1-2.563-2.346c1.968-.411 4.459-1.156 4.579-1.192a.664.664 0 0 0 .318-1.064 20.281 20.281 0 0 0-8.01-5.426c-.215-.43-.454-.981-.732-1.619C21.019 12.6 16.95 3.273 6.215 2.017 5.359 1.439 3.118 0 1.992 0 .6 0 0 .6 0 1.994c0 .68.553 1.474 1.455 2.715a8.433 8.433 0 0 1 1.2 1.934 14.465 14.465 0 0 0 2.529 6.111l-.108.228a9.715 9.715 0 0 0-1.092 4.95c0 3.488 1.671 5.313 3.32 5.313 1.024 0 1.534-1.162 1.779-2.523a15.424 15.424 0 0 0 4.479 5.722.665.665 0 1 0 .767-1.086c-3.3-2.331-5.048-7.579-5.065-7.633a.664.664 0 0 0-1.3.206c0 1.824-.348 3.767-.664 3.985-.958 0-1.992-1.523-1.992-3.985a8.409 8.409 0 0 1 .964-4.381c.1-.212.2-.43.307-.662a.665.665 0 0 0-.173-.773C5.383 11.234 3.98 7.523 3.98 6.641c0-.68-.553-1.474-1.455-2.715a8.433 8.433 0 0 1-1.2-1.934c0-.664 0-.664.664-.664A12.047 12.047 0 0 1 5.6 3.206a.663.663 0 0 0 .3.112C16 4.413 19.748 13.013 21.762 17.633c.339.778.632 1.451.9 1.942a.663.663 0 0 0 .372.315 19.18 19.18 0 0 1 6.945 4.35c-1.131.317-2.937.8-4.184 1.007a.664.664 0 0 0-.535.816c.408 1.634 1.973 2.764 3.354 3.76A9.3 9.3 0 0 1 30.67 31.6a.664.664 0 0 0 1.084-.768zM5.977 5.315a.664.664 0 0 0 .664.664.665.665 0 0 1 .664.664.664.664 0 1 0 1.328 0 1.994 1.994 0 0 0-1.992-1.992.664.664 0 0 0-.664.664z" class="cls-1" data-name="Path 13130"/>
    </g>
</svg>
