<svg xmlns="http://www.w3.org/2000/svg" id="prefix__file_1_" width="20.143" height="21.776" data-name="file(1)" viewBox="0 0 20.143 21.776">
    <defs>
        <style>
            .prefix__cls-1{fill:#fff}
        </style>
    </defs>
    <path id="prefix__Path_24460" d="M39.339 8.433a5.156 5.156 0 0 0-1.52-3.67L34.577 1.52A5.156 5.156 0 0 0 30.906 0h-5.85a.319.319 0 1 0 0 .638h5.132a2.419 2.419 0 0 1 2.416 2.416v1.665a2.017 2.017 0 0 0 2.016 2.015h1.665A2.419 2.419 0 0 1 38.7 9.142v10.619a1.379 1.379 0 0 1-1.377 1.377H23.391a1.372 1.372 0 0 1-1.331-1.022l-.014-1.968h10.347a2.55 2.55 0 0 0 2.546-2.548v-.69a.319.319 0 1 0-.638 0v.69a1.911 1.911 0 0 1-1.909 1.909H20.958a1.125 1.125 0 0 1-1.124-1.124v-6.9a1.753 1.753 0 0 0 1.124.406h11.434A1.911 1.911 0 0 1 34.3 11.8v1.839a.319.319 0 1 0 .638 0V11.8a2.55 2.55 0 0 0-2.547-2.547H22.014V2.015A1.379 1.379 0 0 1 23.391.638h.39a.319.319 0 0 0 0-.638h-.39a2.017 2.017 0 0 0-2.015 2.015v4.35h-.419A1.764 1.764 0 0 0 19.2 8.127v8.26a1.764 1.764 0 0 0 1.762 1.762h.451l.014 2.01a.32.32 0 0 0 .009.072 2.008 2.008 0 0 0 1.96 1.545h13.929a2.017 2.017 0 0 0 2.015-2.015zM20.958 7h.419v2.251h-.419a1.124 1.124 0 0 1 0-2.247zm15.327-.9H34.62a1.379 1.379 0 0 1-1.377-1.377V3.054a3.046 3.046 0 0 0-.935-2.2 4.531 4.531 0 0 1 1.817 1.115l3.243 3.243a4.531 4.531 0 0 1 1.115 1.817 3.046 3.046 0 0 0-2.198-.929z" class="prefix__cls-1" data-name="Path 24460" transform="translate(-19.196)"/>
    <path id="prefix__Path_24461" d="M277.051 267.411a.319.319 0 1 0 0-.638h-1.645a.319.319 0 0 0-.319.319v4.058a.319.319 0 1 0 .638 0v-1.75h1.2a.319.319 0 0 0 0-.638h-1.2v-1.352z" class="prefix__cls-1" data-name="Path 24461" transform="translate(-264.203 -255.427)"/>
    <path id="prefix__Path_24462" d="M177.065 266.773a.319.319 0 0 0-.319.32v3.988a.315.315 0 0 0 .009.072.319.319 0 0 0 .319.313c.035 0 .853 0 1.179-.009a1.8 1.8 0 0 0 1.419-.722 2.663 2.663 0 0 0 .5-1.617c0-1.4-.787-2.348-1.958-2.348zm2.469 2.348c0 .988-.531 1.688-1.292 1.7-.194 0-.576.006-.851.007v-1.713-1.705h.83c.631.001 1.313.45 1.313 1.711z" class="prefix__cls-1" data-name="Path 24462" transform="translate(-170.045 -255.427)"/>
    <path id="prefix__Path_24463" d="M95.4 266.069a.319.319 0 0 0-.319.318v4.088a.319.319 0 1 0 .638 0v-1.458h.819a1.473 1.473 0 1 0 0-2.945H95.4zm2 1.473a.857.857 0 0 1-.857.835h-.813v-.838-.835h.818a.857.857 0 0 1 .852.838z" class="prefix__cls-1" data-name="Path 24463" transform="translate(-91.853 -254.753)"/>
</svg>
