<svg xmlns="http://www.w3.org/2000/svg" width="36.116" height="39.698" viewBox="0 0 36.116 39.698">
    <defs>
        <style>
            .cls-1{fill:#fff}
        </style>
    </defs>
    <g id="POSTGRE" transform="translate(2355.878 -670.561)">
        <g id="Group_5166" data-name="Group 5166" transform="translate(-2355.878 670.561)">
            <path id="Path_13153" d="M-2355.857 690.351c0-2.137-.055-4.276.014-6.411a7.085 7.085 0 0 1 3.6-6.119q5.331-3.21 10.76-6.259a7.162 7.162 0 0 1 7.348.026q5.384 3.03 10.686 6.205a7.281 7.281 0 0 1 3.672 6.556q.032 6.046 0 12.092a7.325 7.325 0 0 1-3.712 6.626q-5.219 3.132-10.522 6.122a7.361 7.361 0 0 1-7.675-.018q-5.253-2.984-10.443-6.076a7.212 7.212 0 0 1-3.725-6.332c-.049-2.136-.01-4.274-.01-6.412zm35.082.093c0-1.955-.031-3.911.007-5.866a6.538 6.538 0 0 0-3.484-6.115c-3.367-1.983-6.755-3.931-10.137-5.888a6.462 6.462 0 0 0-6.874 0c-3.439 1.982-6.879 3.961-10.292 5.987a6.409 6.409 0 0 0-3.343 5.74q-.048 6.1 0 12.19a6.305 6.305 0 0 0 3.157 5.659q5.372 3.239 10.849 6.3a5.99 5.99 0 0 0 6.135 0c3.646-2.048 7.27-4.14 10.847-6.306a6.225 6.225 0 0 0 3.14-5.655c-.014-2.013-.006-4.03-.005-6.046z" class="cls-1" data-name="Path 13153" transform="translate(2355.878 -670.561)"/>
            <path id="Path_13154" d="M-2299.726 727.812a2.287 2.287 0 0 0 1.182-.068c.642-.077 1.259-.049 1.582.614.343.7-.031 1.236-.531 1.692a4.954 4.954 0 0 1-3.362 1.245c-.592.01-.785.192-.806.782a10.739 10.739 0 0 1-.492 3.156 4.036 4.036 0 0 1-4.461 2.715 2.508 2.508 0 0 1-1.98-1.711 9.028 9.028 0 0 1-.546-3.507c.006-.56-.1-.755-.721-.6a3.685 3.685 0 0 1-2.994-.441.663.663 0 0 0-.739-.047 2.106 2.106 0 0 1-2.774-.628 7.829 7.829 0 0 1-1.377-2.363 31.914 31.914 0 0 1-1.969-7.511 7.3 7.3 0 0 1 .214-2.907 4.672 4.672 0 0 1 5.157-3.614c2.059.129 4.044.552 6.168.009a32.686 32.686 0 0 1 4.242-.288 7.11 7.11 0 0 1 5.479 1.587 3.941 3.941 0 0 1 1.5 3.634 19.78 19.78 0 0 1-2.28 7.295c-.151.296-.304.59-.492.956zm-9 3.11c.07 1.375.077 2.6.206 3.8.177 1.654 1.075 2.6 2.4 2.661a3.122 3.122 0 0 0 3.416-2.424c.247-1.193.391-2.41.521-3.622.06-.559.192-.782.828-.731a4.461 4.461 0 0 0 3.189-.895c.332-.259.771-.535.593-1.029-.2-.549-.7-.334-1.11-.278-.151.021-.3.051-.454.063-.513.039-1.186.268-1.486-.119-.319-.411.282-.85.5-1.254a21.76 21.76 0 0 0 2.478-7.141 3.71 3.71 0 0 0-1.873-4.027 6.74 6.74 0 0 0-4.656-.961 13.1 13.1 0 0 1-3.714.2 2.653 2.653 0 0 0-1.7.283 2.489 2.489 0 0 1-2.346.1 4.544 4.544 0 0 0-.8-.178c-4.359-.826-6.8 1.352-6.316 5.751a26.043 26.043 0 0 0 2.107 7.746 5.628 5.628 0 0 0 1.191 1.833 1.441 1.441 0 0 0 2.255 0 9.37 9.37 0 0 0 1.2-1.38 1.248 1.248 0 0 1 1.986-.42c-.241.678-.865.741-1.446.9-.451.124-1.077.158-1.042.814.032.591.6.7 1.073.832a3.75 3.75 0 0 0 3-.524z" class="cls-1" data-name="Path 13154" transform="translate(2326.396 -706.271)"/>
            <path id="Path_13155" d="M-2273.692 723.372c2.25.062 4.078 1.439 5.313 3.736.231.429.236.612-.357.658-1.758.139-2.426 1.143-1.972 2.907a18.216 18.216 0 0 0 2.069 4.367c.2.358.349.587-.075.9a1.519 1.519 0 0 0-.442 1.159c-.17 1.576-.342 3.152-.574 4.72a2.443 2.443 0 0 1-2.667 2.221c-.99-.021-1.672-.766-1.755-2.085-.087-1.369-.071-2.744-.1-4.117-.007-.3.008-.612-.029-.913-.053-.438-.2-.924-.618-1.062-.911-.3-.645-.831-.371-1.388a6.958 6.958 0 0 0 .567-4.452c-.344-1.894-1.248-2.511-3.087-1.992-.86.243-.923.18-.72-.719.61-2.685 2.065-3.998 4.818-3.94z" class="cls-1" data-name="Path 13155" transform="translate(2292.773 -713.688)"/>
            <path id="Path_13156" d="M-2307.71 723.625a8.22 8.22 0 0 1 2.039.277c.424.1.657.227.309.721a8.444 8.444 0 0 0-1.389 5.213 24.262 24.262 0 0 1-.07 2.927 3.446 3.446 0 0 0 .72 2.49c.164.217.378.426.118.718-.547.616-1.073 1.251-1.64 1.849a.724.724 0 0 1-1.13-.043 3.916 3.916 0 0 1-.836-1.194 26.083 26.083 0 0 1-2.255-8.162 6.262 6.262 0 0 1-.01-1.006c.127-2.621 1.394-3.815 4.144-3.79z" class="cls-1" data-name="Path 13156" transform="translate(2319.938 -713.893)"/>
            <path id="Path_13157" d="M-2232.18 732.738c.036-1.9-.02-3.722.025-5.544s-1.248-3.175-2.583-4.345c-.315-.276-.668-.509-1.032-.783a5.567 5.567 0 0 1 5.683 1.849 2.467 2.467 0 0 1 .322 1.491 17.207 17.207 0 0 1-2.415 7.332z" class="cls-1" data-name="Path 13157" transform="translate(2257.79 -712.464)"/>
            <path id="Path_13158" d="M-2276.691 753.288c.932 2.127.346 4.112-.556 6.073-.146.318-.346.257-.6.19a2.47 2.47 0 0 1-1.709-2.164c-.071-1.158.141-2.308.115-3.473-.019-.826 1.85-1.207 2.77-.6a3.53 3.53 0 0 0-.514-.183.6.6 0 0 0-.723.238c-.1.188.022.349.153.481a.649.649 0 0 0 .752.174.5.5 0 0 0 .312-.736z" class="cls-1" data-name="Path 13158" transform="translate(2293.559 -737.899)"/>
            <path id="Path_13159" d="M-2229.663 757.095c-.885-1.43-1.845-2.807-1.748-4.7.323.2.522.411.747.444.431.063.8-.06.717-.634-.019-.132-.323-.157-.175-.286.087-.076.342.016.51.069a.263.263 0 0 1 .11.229c-.364 1.611.16 3.246-.161 4.878z" class="cls-1" data-name="Path 13159" transform="translate(2254.236 -736.978)"/>
            <path id="Path_13160" d="M-2274.322 796.542a3.345 3.345 0 0 0 1.851-1.252c.132-.186.323-.424.594-.192a.517.517 0 0 1 .013.8 2.158 2.158 0 0 1-2.458.644z" class="cls-1" data-name="Path 13160" transform="translate(2289.274 -772.187)"/>
            <path id="Path_13161" d="M-2219.349 794.986a3.492 3.492 0 0 1-2.126.512c-.269-.01-.607-.009-.552-.412a.459.459 0 0 1 .683-.373 8.215 8.215 0 0 0 1.995.273z" class="cls-1" data-name="Path 13161" transform="translate(2246.571 -771.911)"/>
        </g>
    </g>
</svg>
