<svg xmlns="http://www.w3.org/2000/svg" width="18" height="18" viewBox="0 0 18 18">
    <defs>
        <style>
            .cls-1{fill:#f0f0f0}.cls-2{fill:none}
        </style>
    </defs>
    <g id="Group_3480" data-name="Group 3480" transform="translate(-358 -68)">
        <g id="folder" transform="translate(361 71)">
            <path id="Path_852" d="M12.456 5.85H11.7V4.492a.593.593 0 0 0-.592-.592h-.275V0H2.167v.433h-.65v.434h-.65v1.516H.592A.593.593 0 0 0 0 2.975v9.466A.553.553 0 0 0 .556 13h9.7a.55.55 0 0 0 .531-.393L13 6.532v-.038a.58.58 0 0 0-.544-.644zm-1.348-1.517a.159.159 0 0 1 .159.159V5.85h-.433V4.333zM10.4.433V5.85H2.758a.554.554 0 0 0-.146.021H2.6V.433zM2.167.867V6.41l-.014.037L1.95 7V.867zM1.3 1.3h.217v6.892l-.217.594V1.3zM.433 2.975a.159.159 0 0 1 .159-.159h.275v7.138l-.434 1.182zm9.938 9.5a.122.122 0 0 1-.118.09H.556a.12.12 0 0 1-.1-.048.117.117 0 0 1-.027-.088l.435-1.192.65-1.782.65-1.782.419-1.149.015-.04.035-.1.006-.018a.123.123 0 0 1 .118-.09h9.7c.082 0 .1.118.109.177z" class="cls-1" data-name="Path 852"/>
            <path id="Path_853" d="M17.208 15.417h5a.208.208 0 1 0 0-.417h-5a.208.208 0 1 0 0 .417z" class="cls-1" data-name="Path 853" transform="translate(-13.208 -11.746)"/>
            <path id="Path_854" d="M17.208 8.417h2.083a.208.208 0 0 0 0-.417h-2.083a.208.208 0 1 0 0 .417z" class="cls-1" data-name="Path 854" transform="translate(-13.281 -6.333)"/>
            <path id="Path_855" d="M17.208 22.417h5a.208.208 0 1 0 0-.417h-5a.208.208 0 1 0 0 .417z" class="cls-1" data-name="Path 855" transform="translate(-13.208 -17.227)"/>
        </g>
        <path id="Rectangle_1821" d="M0 0h18v18H0z" class="cls-2" data-name="Rectangle 1821" transform="translate(358 68)"/>
    </g>
</svg>
