<svg xmlns="http://www.w3.org/2000/svg" id="Artboard_1_copy_5" width="32.143" height="38.232" data-name="Artboard 1 copy 5" viewBox="0 0 32.143 38.232">
    <defs>
        <style>
            .cls-1{fill:#fff}
        </style>
    </defs>
    <path id="Path_13468" d="M118.034 114.6v28.49a1.122 1.122 0 0 1-1.18 1.039H87.07a1.117 1.117 0 0 1-1.18-1.039V114.6a1.122 1.122 0 0 1 1.18-1.039h11.81a1.048 1.048 0 1 1 0 2.079H88.251v26.412h27.422v-26.413h-10.63a1.048 1.048 0 1 1 0-2.079h11.81a1.127 1.127 0 0 1 1.181 1.04z" class="cls-1" data-name="Path 13468" transform="translate(-85.89 -105.896)"/>
    <path id="Path_13469" d="M198.082 38.78a1.182 1.182 0 0 1 0-1.669l4.325-4.325a1.17 1.17 0 0 1 .834-.346 1.183 1.183 0 0 1 .453.094 1.17 1.17 0 0 1 .378.256l4.34 4.332a1.18 1.18 0 1 1-1.669 1.669l-2.321-2.321v25.661a1.181 1.181 0 1 1-2.362 0V36.47l-2.308 2.31a1.182 1.182 0 0 1-1.67 0z" class="cls-1" data-name="Path 13469" transform="translate(-187.17 -32.44)"/>
</svg>
