<svg xmlns="http://www.w3.org/2000/svg" id="Artboard_1_copy_8" width="36.674" height="44.186" data-name="Artboard 1 copy 8" viewBox="0 0 36.674 44.186">
    <defs>
        <style>
            .cls-1{fill:#fff}
        </style>
    </defs>
    <path id="Path_13474" d="M307.114 265.069a10.77 10.77 0 0 1-1.848 6.047l-1.86-1.727c.035-.057.068-.114.1-.172s.057-.094.082-.147l.022-.044c.023-.041.044-.081.065-.123l.043-.083c.014-.027.043-.084.062-.127a.311.311 0 0 0 .017-.036c.027-.053.052-.107.076-.161s.042-.094.062-.143c.008-.014.013-.029.02-.043s.024-.056.034-.084c.041-.094.078-.195.114-.294.046-.128.095-.257.131-.387a7.8 7.8 0 0 0 .205-.8c.01-.051.021-.1.03-.153q.028-.154.051-.309l.021-.156.017-.142c.01-.094.02-.189.026-.283 0-.048.007-.094.009-.144q.014-.244.014-.49c0-.141 0-.283-.01-.42v-.07c0-.048-.006-.095-.009-.144a9.012 9.012 0 0 0-.026-.283l-.017-.142-.021-.156q-.023-.154-.051-.309l-.03-.153a7.787 7.787 0 0 0-.205-.8 9.767 9.767 0 0 0-.131-.387 3.633 3.633 0 0 0-.095-.236.835.835 0 0 0-.043-.1l-.094-.223a9.296 9.296 0 0 0-.574-1.061q-.053-.084-.111-.167c-.041-.06-.081-.119-.124-.178l-.109-.149c-.078-.1-.159-.208-.243-.309a8.3 8.3 0 0 0-1.134-1.134c-.051-.043-.1-.085-.156-.126s-.1-.082-.159-.122l-.122-.094a6.022 6.022 0 0 0-.247-.171q-.125-.083-.252-.162a9.505 9.505 0 0 0-.392-.227l-.156-.082c-.052-.027-.1-.054-.158-.079l-.137-.066-.035-.016-.134-.06-.029-.012-.079-.035c-.024-.009-.046-.02-.07-.028-.055-.024-.11-.045-.165-.066s-.111-.043-.167-.062-.111-.041-.168-.06l-.195-.063c-.13-.042-.263-.078-.395-.111s-.267-.065-.4-.094q-.306-.063-.618-.1a7.425 7.425 0 0 0-.571-.053h-.07c-.14-.007-.283-.01-.42-.01s-.283 0-.42.01h-.07a8.682 8.682 0 0 0-.362.029l-.242.028q-.295.037-.585.094c-.136.028-.27.059-.4.094s-.265.07-.395.111l-.195.063-.2.072a6.82 6.82 0 0 0-.367.145l-.189.082-.138.063c-.032.015-.064.03-.094.047l1.942 1.121-1.181 2.048-3.79-2.189v-4.876h2.362v1.446a10.833 10.833 0 0 1 15.162 9.933z" class="cls-1" data-name="Path 13474" transform="translate(-270.439 -232.786)"/>
    <path id="Path_13475" d="M101.465 144.161H88.07a1.117 1.117 0 0 1-1.18-1.039v-28.483a1.122 1.122 0 0 1 1.18-1.039h11.81a1.048 1.048 0 1 1 0 2.079H89.251v26.411h11.338l.094.295c.03.095.071.2.108.295q.172.454.378.891c.046.1.094.2.144.295l.152.295z" class="cls-1" data-name="Path 13475" transform="translate(-86.89 -105.932)"/>
    <path id="Path_13476" d="M291.282 114.6v12.66c-.095-.058-.2-.114-.295-.168s-.2-.107-.295-.158a12.431 12.431 0 0 0-1.181-.536c-.094-.039-.2-.076-.295-.111s-.2-.071-.295-.1v-10.548h-10.63a1.048 1.048 0 1 1 0-2.079H290.1a1.127 1.127 0 0 1 1.182 1.04z" class="cls-1" data-name="Path 13476" transform="translate(-259.138 -105.896)"/>
    <path id="Path_13477" d="M209.752 37.956a1.18 1.18 0 0 1-2.015.835l-2.32-2.321v18.872q-.15.136-.3.277c-.1.094-.2.194-.295.294a12.726 12.726 0 0 0-1.18 1.407c-.1.14-.2.283-.3.427s-.2.31-.295.468V36.47l-2.31 2.31a1.18 1.18 0 1 1-1.669-1.669l4.325-4.325a1.17 1.17 0 0 1 1.665 0l4.34 4.337a1.172 1.172 0 0 1 .354.833z" class="cls-1" data-name="Path 13477" transform="translate(-188.164 -32.439)"/>
    <path id="Path_13478" d="M289.382 304.72v.05l-.022-.012z" class="cls-1" data-name="Path 13478" transform="translate(-270.231 -278.995)"/>
    <path id="Path_13479" d="M406.524 448.55a2.31 2.31 0 0 1-.124.077v-.077z" class="cls-1" data-name="Path 13479" transform="translate(-376.213 -409.236)"/>
    <path id="Path_13480" d="M259.527 322.713l-1.181 2.042 1.425.823c-.094.041-.2.079-.3.115-.063.025-.128.046-.189.068l-.195.063c-.13.042-.263.078-.395.112s-.267.065-.4.094q-.306.064-.618.1a7.425 7.425 0 0 1-.571.053q-.244.014-.49.014t-.49-.014a8.682 8.682 0 0 1-.571-.053q-.312-.039-.618-.1c-.136-.028-.27-.059-.4-.094s-.265-.07-.395-.112l-.195-.063c-.057-.019-.112-.039-.168-.06s-.111-.04-.167-.062-.111-.042-.165-.066c-.024-.008-.046-.019-.07-.028l-.079-.035-.029-.012-.134-.06-.035-.016c-.046-.021-.094-.043-.137-.066s-.106-.052-.158-.079l-.156-.082a7.989 7.989 0 0 1-.392-.227q-.128-.077-.252-.162a7.798 7.798 0 0 1-.247-.171l-.122-.09a8.153 8.153 0 0 1-.462-.37 6.517 6.517 0 0 1-.439-.409c-.071-.071-.14-.143-.208-.215s-.135-.147-.2-.223c-.049-.057-.094-.114-.145-.173a8 8 0 0 1-.529-.723 8.73 8.73 0 0 1-.347-.581c-.026-.049-.053-.095-.078-.147s-.042-.08-.06-.121-.045-.094-.067-.136c-.043-.094-.084-.181-.124-.274l-.021-.047c-.013-.031-.026-.062-.038-.095s-.038-.094-.055-.138-.038-.094-.056-.146c-.046-.128-.094-.257-.131-.387a7.79 7.79 0 0 1-.216-.809c-.01-.051-.021-.1-.03-.153q-.028-.154-.051-.309a5.415 5.415 0 0 1-.021-.156l-.017-.142a6.76 6.76 0 0 1-.026-.283c0-.048-.007-.094-.009-.144q-.014-.244-.014-.49c0-.141 0-.283.01-.42v-.07c0-.048.006-.095.009-.144.007-.094.016-.189.026-.283l.017-.142.021-.156q.023-.154.051-.309l.03-.153a7.791 7.791 0 0 1 .205-.8 9.767 9.767 0 0 1 .279-.765c.012-.028.012-.029.02-.043l.062-.143c.055-.124.113-.245.176-.365.029-.06.06-.119.094-.178s.061-.112.094-.168L247.508 312a10.832 10.832 0 0 0 13.446 15.794v1.978h2.362v-4.819l.023-.04zm1.428 2.188h.124a2.31 2.31 0 0 1-.124.077z" class="cls-1" data-name="Path 13480" transform="translate(-230.767 -285.587)"/>
    <path id="Path_13481" d="M406.524 448.55a2.31 2.31 0 0 1-.124.077v-.077z" class="cls-1" data-name="Path 13481" transform="translate(-376.213 -409.236)"/>
</svg>
