<svg xmlns="http://www.w3.org/2000/svg" width="41.522" height="27.765" viewBox="0 0 41.522 27.765">
    <defs>
        <style>
            .cls-1{fill:#f9f9f9}
        </style>
    </defs>
    <g id="SAP" transform="translate(-433.68 -1067.2)">
        <path id="Path_13146" d="M450.927 1074.968l-1.171 3.5h2.353zm0 0l-1.171 3.5h2.353zm-17.247-7.768v20.45l27.1-.423 14.42-20.027zm8.172 14.842c-2.053 0-3.659-1.021-3.727-2.952h2.475a1.1 1.1 0 0 0 1.183 1.089c.679 0 1.115-.341 1.115-.9 0-1.768-4.775-.817-4.748-4.2 0-1.808 1.482-2.815 3.482-2.815 2.082 0 3.483 1.034 3.578 2.856h-2.51a1.034 1.034 0 0 0-1.1-.993.847.847 0 0 0-.981.871c0 1.659 4.722.911 4.722 4.108-.006 1.603-1.258 2.936-3.489 2.936zm11.428-.094l-.573-1.688h-3.564l-.571 1.688h-2.434l3.454-9.55h2.694l3.455 9.55zm7.278-3.429h-1.442v3.429h-2.326v-9.55h3.768c2.34 0 3.509 1.319 3.509 3.074 0 1.577-1.074 3.047-3.51 3.047zm-.177-4.244h-1.266v2.393h1.266c.925 0 1.319-.462 1.319-1.2s-.395-1.193-1.319-1.193zm-10.625 4.189h2.353l-1.182-3.5z" class="cls-1" data-name="Path 13146"/>
        <g id="Group_5148" data-name="Group 5148" transform="translate(433.68 1089.439)">
            <path id="Path_13147" d="M437.12 1216.456h-2.094v2.275h-1.346v-5.526h1.346v2.165h2.094v-2.165h1.346v5.526h-1.346z" class="cls-1" data-name="Path 13147" transform="translate(-433.68 -1213.205)"/>
            <path id="Path_13148" d="M472.885 1217.755h-2.062l-.331.976h-1.409l2-5.526h1.559l2 5.526h-1.425zm-1.031-3.062l-.677 2.023h1.362z" class="cls-1" data-name="Path 13148" transform="translate(-463.691 -1213.205)"/>
            <path id="Path_13149" d="M514.495 1213.205v5.526h-1.346l-2.251-3.409v3.409h-1.346v-5.526h1.348l2.251 3.424v-3.424z" class="cls-1" data-name="Path 13149" transform="translate(-497.995 -1213.205)"/>
            <path id="Path_13150" d="M549.841 1217.755h-2.062l-.331.976h-1.409l2-5.526h1.561l2 5.526h-1.425zm-1.031-3.062l-.677 2.023h1.362z" class="cls-1" data-name="Path 13150" transform="translate(-528.925 -1213.205)"/>
        </g>
    </g>
</svg>
