<svg xmlns="http://www.w3.org/2000/svg" width="18.416" height="18.416" viewBox="0 0 18.416 18.416">
    <defs>
        <style>
            .prefix__cls-1{fill:#fff}
        </style>
    </defs>
    <g id="prefix__settings_1_" data-name="settings (1)">
        <path id="prefix__Path_26978" d="M9.786 18.416H8.63a1.7 1.7 0 0 1-1.7-1.7v-.386a7.435 7.435 0 0 1-1.15-.48l-.277.277a1.7 1.7 0 0 1-2.4 0l-.817-.817a1.7 1.7 0 0 1 0-2.4l.277-.277a7.435 7.435 0 0 1-.479-1.154H1.7A1.7 1.7 0 0 1 0 9.786V8.63a1.7 1.7 0 0 1 1.7-1.7h.391a7.437 7.437 0 0 1 .475-1.15l-.278-.28a1.7 1.7 0 0 1 0-2.4l.817-.817a1.7 1.7 0 0 1 2.4 0l.277.277a7.442 7.442 0 0 1 1.154-.479V1.7A1.7 1.7 0 0 1 8.63 0h1.156a1.7 1.7 0 0 1 1.7 1.7v.391a7.435 7.435 0 0 1 1.154.479l.277-.277a1.7 1.7 0 0 1 2.4 0l.817.817a1.7 1.7 0 0 1 0 2.4l-.277.277a7.435 7.435 0 0 1 .479 1.154h.391a1.7 1.7 0 0 1 1.7 1.7v1.145a1.7 1.7 0 0 1-1.7 1.7h-.397a7.437 7.437 0 0 1-.479 1.154l.277.277a1.7 1.7 0 0 1 0 2.4l-.817.817a1.7 1.7 0 0 1-2.4 0l-.277-.277a7.442 7.442 0 0 1-1.154.479v.391a1.7 1.7 0 0 1-1.694 1.689zm-3.825-3.7a6.36 6.36 0 0 0 1.648.684.539.539 0 0 1 .4.522v.8a.617.617 0 0 0 .616.616h1.161a.617.617 0 0 0 .616-.616v-.8a.539.539 0 0 1 .4-.522 6.36 6.36 0 0 0 1.648-.684.54.54 0 0 1 .656.083l.564.564a.616.616 0 0 0 .871 0l.817-.817a.616.616 0 0 0 0-.871l-.565-.565a.54.54 0 0 1-.083-.656 6.359 6.359 0 0 0 .684-1.648.54.54 0 0 1 .522-.4h.8a.617.617 0 0 0 .616-.616V8.63a.617.617 0 0 0-.616-.616h-.8a.54.54 0 0 1-.522-.4 6.36 6.36 0 0 0-.684-1.648.54.54 0 0 1 .09-.666l.564-.564a.616.616 0 0 0 0-.871l-.817-.817a.616.616 0 0 0-.871 0l-.564.565a.54.54 0 0 1-.656.083 6.36 6.36 0 0 0-1.648-.684.539.539 0 0 1-.4-.522V1.7a.617.617 0 0 0-.616-.616H8.63a.617.617 0 0 0-.616.616v.8a.539.539 0 0 1-.4.522 6.36 6.36 0 0 0-1.653.678.54.54 0 0 1-.661-.084l-.56-.565a.616.616 0 0 0-.871 0l-.817.817a.616.616 0 0 0 0 .871l.565.565a.54.54 0 0 1 .083.656 6.359 6.359 0 0 0-.684 1.648.54.54 0 0 1-.522.4H1.7a.617.617 0 0 0-.616.616v1.162a.617.617 0 0 0 .616.614h.8a.54.54 0 0 1 .522.4 6.36 6.36 0 0 0 .678 1.655.54.54 0 0 1-.083.656l-.564.564a.616.616 0 0 0 0 .871l.817.817a.616.616 0 0 0 .871 0L5.3 14.8a.542.542 0 0 1 .656-.083z" class="prefix__cls-1" data-name="Path 26978"/>
        <path id="prefix__Path_26979" d="M148.607 152.614a4.007 4.007 0 1 1 4.007-4.007 4.011 4.011 0 0 1-4.007 4.007zm0-6.935a2.928 2.928 0 1 0 2.928 2.928 2.931 2.931 0 0 0-2.928-2.928z" class="prefix__cls-1" data-name="Path 26979" transform="translate(-139.399 -139.399)"/>
    </g>
</svg>
