<svg xmlns="http://www.w3.org/2000/svg" width="18.755" height="21.722" viewBox="0 0 18.755 21.722">
    <path id="prefix__simulation" d="M24.245 7.175l-8.31-4.713a1.07 1.07 0 0 0-1.048 0L6.578 7.175a1.055 1.055 0 0 0-.578.95v10.121a1.093 1.093 0 0 0 .542.95l8.31 4.713a1.07 1.07 0 0 0 1.048 0l8.31-4.713a1.093 1.093 0 0 0 .542-.95V8.125a.994.994 0 0 0-.507-.95zm-3.432-1.132l.867.475-.867.585zm-2.89-1.608l1.662.95-1.662.877zM17.2 6.664l-1.084.585-.361-.183a.731.731 0 0 0-.723.037L12.467 8.71a.72.72 0 0 0-.325.621v1.206l-1.806-1.023V7.87L12.9 6.262l.361.183a.758.758 0 0 0 .686 0L17.2 4.654zm-4.336 2.7L15.43 7.76l.361.183a.758.758 0 0 0 .686 0L20.09 5.9v1.641L18.248 8.71l-.361-.183a.731.731 0 0 0-.723.037L14.6 10.171a.72.72 0 0 0-.325.621v.95l-1.445-.8V9.368zm2.71 2.923a.325.325 0 0 1-.361 0l-.181-.11v-1.348L17.6 9.221l.361.183a.731.731 0 0 0 .723-.037l3.613-2.338v1.462zm7.406-5.006l.723.4-.723.4zm-7.768-4.2a.325.325 0 0 1 .361 0l1.445.84-3.432 1.9-.361-.183a.731.731 0 0 0-.723.037l-2.564 1.61a.72.72 0 0 0-.325.621v1.206L7.084 7.687zM6.9 18.539a.385.385 0 0 1-.181-.329v-7.746l1.228.621a.42.42 0 0 1 .217.329v.329a1.073 1.073 0 0 0-.65 1.388 1.054 1.054 0 0 0 1.373.658 1.1 1.1 0 0 0 .65-1.388 1.062 1.062 0 0 0-.65-.658v-.329a1.078 1.078 0 0 0-.614-.987l-1.55-.767V8.308l8.129 4.6c.036.037.108.037.181.073v3.946l-3.072-1.677a.385.385 0 0 1-.181-.329v-.731a1.073 1.073 0 0 0 .65-1.388 1.084 1.084 0 0 0-1.373-.658 1.073 1.073 0 0 0-.65 1.388 1.062 1.062 0 0 0 .65.658v.731a1.055 1.055 0 0 0 .578.95l3.4 1.863v3.544L11.961 19.6a.385.385 0 0 1-.181-.329v-1.354a1.139 1.139 0 0 0-.542-.95l-1.265-.731v-.146a1.084 1.084 0 1 0-1.084 1.1 1.159 1.159 0 0 0 .759-.292l1.265.767a.385.385 0 0 1 .181.329v1.352a1.055 1.055 0 0 0 .578.95l3.4 1.863v.987zM8.89 12.8a.361.361 0 1 1-.361-.365.343.343 0 0 1 .361.365zm2.168.365a.361.361 0 1 1 .361.365.343.343 0 0 1-.361-.362zm-1.806 2.926a.361.361 0 1 1-.361-.365.343.343 0 0 1 .361.365zm14.632 2.448l-8.129 4.6v-3.175l3.4-1.863a1.055 1.055 0 0 0 .578-.95v-1.316a.351.351 0 0 1 .217-.329l1.59-.8a1.071 1.071 0 0 0 1.517-.037 1.1 1.1 0 0 0-.036-1.535 1.071 1.071 0 0 0-1.517.037.924.924 0 0 0-.325.731v.146l-1.59.8a1.1 1.1 0 0 0-.614.987v1.315a.385.385 0 0 1-.181.329l-3.035 1.644v-3.544l1.048-.548a1.071 1.071 0 0 0 1.517-.037 1.1 1.1 0 0 0-.036-1.535 1.071 1.071 0 0 0-1.517.037 1.187 1.187 0 0 0-.289.767v.146l-.723.365v-1.79c.072 0 .108-.037.181-.073l8.129-4.6v7.2l-1.77.913a1.071 1.071 0 0 0-1.517.037 1.1 1.1 0 0 0 .036 1.535 1.071 1.071 0 0 0 1.517-.037 1.187 1.187 0 0 0 .289-.767v-.146l1.445-.731v1.9a.385.385 0 0 1-.181.329zM21.9 13.9a.361.361 0 1 1 .361.365.343.343 0 0 1-.361-.365zm-4.7.365a.361.361 0 1 1 .361.365.343.343 0 0 1-.361-.366zm4.7 2.923a.361.361 0 1 1-.361-.365.343.343 0 0 1 .361.364z" transform="translate(-6 -2.325)" style="fill:#fff"/>
</svg>
