<svg id="certificate_2_" data-name="certificate (2)" xmlns="http://www.w3.org/2000/svg" width="21.721" height="21.722" viewBox="0 0 21.721 21.722">
  <defs>
    <style>
      .cls-1 {
        fill: #fff;
      }
    </style>
  </defs>
  <g id="Group_10520" data-name="Group 10520" transform="translate(0)">
    <g id="Group_10519" data-name="Group 10519">
      <path id="Path_24442" data-name="Path 24442" class="cls-1" d="M19.01,3.946a.424.424,0,0,0,.424-.424V1.273A1.274,1.274,0,0,0,18.162,0H1.277A1.274,1.274,0,0,0,0,1.273V20.449a1.274,1.274,0,0,0,1.273,1.273H18.162a1.274,1.274,0,0,0,1.273-1.273V19.261a.424.424,0,0,0-.849,0v1.188a.425.425,0,0,1-.424.424H1.277a.425.425,0,0,1-.424-.424V1.273A.425.425,0,0,1,1.277.849H18.162a.425.425,0,0,1,.424.424V3.521A.424.424,0,0,0,19.01,3.946Z" transform="translate(-0.004)"/>
    </g>
  </g>
  <g id="Group_10522" data-name="Group 10522" transform="translate(2.036 2.036)">
    <g id="Group_10521" data-name="Group 10521">
      <path id="Path_24443" data-name="Path 24443" class="cls-1" d="M62.932,48H48.422a.424.424,0,0,0-.424.424v8.867a.424.424,0,1,0,.849,0V48.848H62.508v.679a.424.424,0,1,0,.848,0v-1.1A.424.424,0,0,0,62.932,48Z" transform="translate(-47.998 -48)"/>
    </g>
  </g>
  <g id="Group_10524" data-name="Group 10524" transform="translate(2.036 12.473)">
    <g id="Group_10523" data-name="Group 10523">
      <path id="Path_24444" data-name="Path 24444" class="cls-1" d="M48.718,294.124a.424.424,0,1,0,.124.3A.427.427,0,0,0,48.718,294.124Z" transform="translate(-47.994 -294)"/>
    </g>
  </g>
  <g id="Group_10526" data-name="Group 10526" transform="translate(2.036 14.106)">
    <g id="Group_10525" data-name="Group 10525">
      <path id="Path_24445" data-name="Path 24445" class="cls-1" d="M62.932,336.3a.424.424,0,0,0-.424.424v.509H48.847v-4.306a.424.424,0,0,0-.849,0v4.73a.424.424,0,0,0,.424.424h14.51a.424.424,0,0,0,.424-.424v-.933A.424.424,0,0,0,62.932,336.3Z" transform="translate(-47.998 -332.5)"/>
    </g>
  </g>
  <g id="Group_10528" data-name="Group 10528" transform="translate(9.531 14.866)">
    <g id="Group_10527" data-name="Group 10527">
      <path id="Path_24446" data-name="Path 24446" class="cls-1" d="M228.278,350.531a.424.424,0,0,0-.6,0l-.838.839-.521-.521a.845.845,0,0,0-1.194,0l-.339.339a.424.424,0,0,0,.6.6l.336-.336.521.521a.845.845,0,0,0,1.194,0l.842-.842A.424.424,0,0,0,228.278,350.531Z" transform="translate(-224.661 -350.406)"/>
    </g>
  </g>
  <g id="Group_10530" data-name="Group 10530" transform="translate(4.912 4.611)">
    <g id="Group_10529" data-name="Group 10529">
      <path id="Path_24447" data-name="Path 24447" class="cls-1" d="M132.393,112.98a1.234,1.234,0,0,0-.472-1.762.387.387,0,0,1-.208-.361,1.234,1.234,0,0,0-1.29-1.29.386.386,0,0,1-.361-.208,1.234,1.234,0,0,0-1.762-.472.387.387,0,0,1-.416,0,1.234,1.234,0,0,0-1.762.472.387.387,0,0,1-.361.208,1.234,1.234,0,0,0-1.29,1.29.387.387,0,0,1-.208.361,1.232,1.232,0,0,0-.656,1.263h-7.4a.424.424,0,0,0,0,.849h7.62a.383.383,0,0,1-.034.068,1.237,1.237,0,0,0-.153.986,1.217,1.217,0,0,0,.045.135H116.2a.424.424,0,1,0,0,.848h8.242a.384.384,0,0,1,.025.154,1.234,1.234,0,0,0,1.29,1.29.386.386,0,0,1,.361.208,1.232,1.232,0,0,0,.189.269v3.962a.424.424,0,0,0,.723.3l1.058-1.053,1.058,1.053a.424.424,0,0,0,.723-.3v-3.962a1.231,1.231,0,0,0,.189-.269.387.387,0,0,1,.361-.208,1.234,1.234,0,0,0,1.29-1.29.387.387,0,0,1,.208-.361,1.234,1.234,0,0,0,.472-1.763A.387.387,0,0,1,132.393,112.98Zm-3.369,7.249-.634-.631a.424.424,0,0,0-.6,0l-.634.631v-2.545a1.237,1.237,0,0,0,.725-.193.387.387,0,0,1,.416,0,1.237,1.237,0,0,0,.667.2l.058,0Zm2.7-6.066a.381.381,0,0,1-.2.243,1.238,1.238,0,0,0-.666,1.154.386.386,0,0,1-.4.4,1.237,1.237,0,0,0-1.154.666.386.386,0,0,1-.551.148,1.238,1.238,0,0,0-1.332,0,.386.386,0,0,1-.551-.148,1.237,1.237,0,0,0-1.154-.666.386.386,0,0,1-.4-.4,1.237,1.237,0,0,0-.336-.9l-.02-.021a1.227,1.227,0,0,0-.31-.229.386.386,0,0,1-.148-.551,1.237,1.237,0,0,0,0-1.332.386.386,0,0,1,.148-.551,1.238,1.238,0,0,0,.666-1.154.386.386,0,0,1,.4-.4,1.237,1.237,0,0,0,1.154-.666.386.386,0,0,1,.551-.148,1.237,1.237,0,0,0,1.332,0,.386.386,0,0,1,.551.148,1.237,1.237,0,0,0,1.154.666.386.386,0,0,1,.4.4,1.238,1.238,0,0,0,.666,1.154.386.386,0,0,1,.148.551,1.237,1.237,0,0,0,0,1.332A.381.381,0,0,1,131.726,114.162Z" transform="translate(-115.778 -108.691)"/>
    </g>
  </g>
  <g id="Group_10532" data-name="Group 10532" transform="translate(15.949 7.83)">
    <g id="Group_10531" data-name="Group 10531">
      <path id="Path_24448" data-name="Path 24448" class="cls-1" d="M379.231,184.682a.424.424,0,0,0-.6,0l-1.408,1.408-.561-.561a.424.424,0,1,0-.6.6l.861.861a.424.424,0,0,0,.6,0l1.708-1.708A.424.424,0,0,0,379.231,184.682Z" transform="translate(-375.938 -184.557)"/>
    </g>
  </g>
  <g id="Group_10534" data-name="Group 10534" transform="translate(4.455 5.006)">
    <g id="Group_10533" data-name="Group 10533">
      <path id="Path_24449" data-name="Path 24449" class="cls-1" d="M105.728,118.124a.424.424,0,1,0,.124.3A.427.427,0,0,0,105.728,118.124Z" transform="translate(-105.004 -118)"/>
    </g>
  </g>
  <g id="Group_10536" data-name="Group 10536" transform="translate(6.038 5.006)">
    <g id="Group_10535" data-name="Group 10535">
      <path id="Path_24450" data-name="Path 24450" class="cls-1" d="M144.819,118h-2.065a.424.424,0,1,0,0,.848h2.065a.424.424,0,1,0,0-.848Z" transform="translate(-142.33 -118)"/>
    </g>
  </g>
  <g id="Group_10538" data-name="Group 10538" transform="translate(7.573 12.473)">
    <g id="Group_10537" data-name="Group 10537">
      <path id="Path_24451" data-name="Path 24451" class="cls-1" d="M183.79,294h-4.85a.424.424,0,1,0,0,.849h4.85a.424.424,0,0,0,0-.849Z" transform="translate(-178.516 -294)"/>
    </g>
  </g>
</svg>
