<svg xmlns="http://www.w3.org/2000/svg" id="prefix__calendar_2_" width="19.547" height="21.722" data-name="calendar(2)" viewBox="0 0 19.547 21.722">
    <path id="prefix__Path_24429" d="M41.129 10.668h1.515a.622.622 0 0 0 .621-.621V8.532a.622.622 0 0 0-.621-.621h-1.515a.622.622 0 0 0-.621.621v1.515a.622.622 0 0 0 .621.621zm.015-2.121h1.485v1.485h-1.485zm-.015 6.153h1.515a.622.622 0 0 0 .621-.621v-1.517a.622.622 0 0 0-.621-.621h-1.515a.622.622 0 0 0-.621.621v1.515a.622.622 0 0 0 .621.623zm.015-2.121h1.485v1.485h-1.485zM36.8 10.668h1.52a.622.622 0 0 0 .621-.621V8.532a.622.622 0 0 0-.621-.621H36.8a.622.622 0 0 0-.621.621v1.515a.622.622 0 0 0 .621.621zm.015-2.121H38.3v1.485h-1.48zm-7.148 7.235h-1.51a.622.622 0 0 0-.621.621v1.515a.622.622 0 0 0 .621.621h1.515a.622.622 0 0 0 .621-.621V16.4a.622.622 0 0 0-.621-.618zm-.01 2.118h-1.485v-1.481h1.485zm.015-9.993h-1.515a.622.622 0 0 0-.621.621v1.515a.622.622 0 0 0 .621.621h1.515a.622.622 0 0 0 .621-.621V8.532a.622.622 0 0 0-.621-.622zm-.015 2.121h-1.485V8.547h1.485zM36.8 14.6h1.52a.622.622 0 0 0 .621-.621v-1.512a.622.622 0 0 0-.621-.621H36.8a.622.622 0 0 0-.621.621v1.515a.622.622 0 0 0 .621.618zm.015-2.121H38.3v1.485h-1.48zm6.766-11.025h-1.36V.968A.969.969 0 0 0 41.253 0h-.146a.969.969 0 0 0-.968.968v.486h-9.477V.968A.969.969 0 0 0 29.694 0h-.146a.969.969 0 0 0-.968.968v.486h-1.36a1.6 1.6 0 0 0-1.593 1.593v17.084a1.593 1.593 0 0 0 1.591 1.591h16.365a1.593 1.593 0 0 0 1.591-1.591V3.047a1.6 1.6 0 0 0-1.593-1.593zM40.776.968a.332.332 0 0 1 .331-.331h.146a.332.332 0 0 1 .331.331v.486h-.809zm-11.559 0a.332.332 0 0 1 .331-.331h.146a.332.332 0 0 1 .331.331v.486h-.808V.968zm15.321 19.163a.956.956 0 0 1-.955.955H27.218a.956.956 0 0 1-.955-.955 1.585 1.585 0 0 0 .957.32h12.9a1.583 1.583 0 0 0 1.126-.467l3.291-3.291zm-3.615-.724a1.361 1.361 0 0 0 .039-.321v-2.124a.727.727 0 0 1 .726-.726h2.124a1.361 1.361 0 0 0 .321-.039zM44.538 6H30.98a.318.318 0 1 0 0 .636h13.558v8.235a.727.727 0 0 1-.726.726h-2.124a1.364 1.364 0 0 0-1.363 1.363v2.124a.727.727 0 0 1-.726.726H27.22a.958.958 0 0 1-.957-.957V6.638h3.444a.318.318 0 1 0 0-.636h-3.444V3.047a.958.958 0 0 1 .957-.957h1.36v.936a.969.969 0 0 0 .968.968.318.318 0 1 0 0-.636.332.332 0 0 1-.331-.331V2.09h10.922v.936a.969.969 0 0 0 .968.968.318.318 0 0 0 0-.636.332.332 0 0 1-.331-.331V2.09h2.805a.958.958 0 0 1 .957.957zm-14.866 5.846h-1.515a.622.622 0 0 0-.621.621v1.515a.622.622 0 0 0 .621.621h1.515a.622.622 0 0 0 .621-.621v-1.515a.622.622 0 0 0-.621-.621zm-.015 2.121h-1.485v-1.484h1.485zm2.824-3.3H34a.622.622 0 0 0 .621-.621V8.532A.622.622 0 0 0 34 7.91h-1.519a.622.622 0 0 0-.621.621v1.515a.622.622 0 0 0 .621.622zm.019-2.12h1.485v1.485H32.5zm4.32 9.353a.318.318 0 0 0-.636.015.622.622 0 0 0 .621.621h1.515a.622.622 0 0 0 .621-.621V16.4a.622.622 0 0 0-.621-.621H36.8a.622.622 0 0 0-.621.621v.437a.318.318 0 1 0 .636 0v-.422H38.3V17.9zm-4.339-3.3H34a.622.622 0 0 0 .621-.621v-1.512a.622.622 0 0 0-.621-.621h-1.519a.622.622 0 0 0-.621.621v1.515a.622.622 0 0 0 .621.618zm.015-2.121h1.485v1.485H32.5zm-.015 6.057H34a.622.622 0 0 0 .621-.621V16.4a.622.622 0 0 0-.621-.618h-1.519a.622.622 0 0 0-.621.621v1.515a.622.622 0 0 0 .621.622zm.015-2.121h1.485V17.9H32.5z" data-name="Path 24429" transform="translate(-25.627)" style="fill:#fff"/>
</svg>
