<svg xmlns="http://www.w3.org/2000/svg" id="prefix__quiz" width="21.732" height="21.722" viewBox="0 0 21.732 21.722">
    <defs>
        <style>
            .prefix__cls-1{fill:#fff}
        </style>
    </defs>
    <path id="prefix__Path_24430" d="M19.506 4.575a4.626 4.626 0 0 0-.7 2.384 4.5 4.5 0 0 0 .631 2.313.355.355 0 1 0 .6-.386 4.366 4.366 0 0 1-.526-1.612h.351a.351.351 0 0 0 0-.7h-.315a3.82 3.82 0 0 1 3.47-3.47v.351a.351.351 0 0 0 .7 0v-.317a3.82 3.82 0 0 1 3.47 3.47h-.315a.351.351 0 1 0 0 .7h.315a3.82 3.82 0 0 1-3.47 3.47v-.315a.351.351 0 0 0-.7 0v.315a3.613 3.613 0 0 1-1.472-.456.361.361 0 1 0-.351.631 4.66 4.66 0 0 0 2.173.561 4.548 4.548 0 0 0 4.557-4.557 4.319 4.319 0 0 0-.7-2.384l.6-.561a.705.705 0 0 0 0-1.016l-.456-.491a.719.719 0 0 0-1.016 0l-.6.6a4.9 4.9 0 0 0-1.332-.561V1.7h.351a.331.331 0 0 0 .351-.351.331.331 0 0 0-.358-.349h-2.8a.331.331 0 0 0-.351.351.331.331 0 0 0 .351.351h.351v.841a4.125 4.125 0 0 0-1.332.561l-.561-.6a.753.753 0 0 0-1.016 0l-.491.456a.719.719 0 0 0 0 1.016zM26.867 3l.491.491-.526.491a3.248 3.248 0 0 0-.491-.491zm-3.856-1.3h.7v.736a2.35 2.35 0 0 0-.7 0zM19.892 3l.526.491a3.248 3.248 0 0 0-.491.491l-.527-.528z" class="prefix__cls-1" data-name="Path 24430" transform="translate(-12.496 -1)"/>
    <path id="prefix__Path_24431" d="M31.6 13.894l2-2a.347.347 0 0 0-.491-.491l-2 2a.339.339 0 0 0 0 .491.325.325 0 0 0 .491 0z" class="prefix__cls-1" data-name="Path 24431" transform="translate(-20.485 -7.69)"/>
    <path id="prefix__Path_24432" d="M13.864 31.037H7.309a5.617 5.617 0 0 1-.981-11.146.357.357 0 1 0-.14-.7 6.326 6.326 0 0 0 1.121 12.547h6.555a.331.331 0 0 0 .351-.351.351.351 0 0 0-.351-.35z" class="prefix__cls-1" data-name="Path 24432" transform="translate(-1 -12.811)"/>
    <path id="prefix__Path_24433" d="M42.052 53h-.7a.351.351 0 1 0 0 .7h.7a.351.351 0 1 0 0-.7z" class="prefix__cls-1" data-name="Path 24433" transform="translate(-26.979 -34.773)"/>
    <path id="prefix__Path_24434" d="M52.153 29.77a.355.355 0 1 0-.666.245 5.365 5.365 0 0 1 .421 2.1v8.1l-3.645-2.454h-.911a.351.351 0 0 0 0 .7h.6l4.1 2.734c.386.175.561-.07.561-.28v-8.762a6.262 6.262 0 0 0-.456-2.384z" class="prefix__cls-1" data-name="Path 24434" transform="translate(-30.876 -19.535)"/>
    <path id="prefix__Path_24435" d="M47.207 19.956a5.542 5.542 0 0 1 3.293 1.893.433.433 0 0 0 .28.14.376.376 0 0 0 .21-.07.341.341 0 0 0 .035-.491 6.288 6.288 0 0 0-3.715-2.138.364.364 0 0 0-.421.28.354.354 0 0 0 .318.386z" class="prefix__cls-1" data-name="Path 24435" transform="translate(-30.803 -12.876)"/>
    <path id="prefix__Path_24436" d="M43 34.052a.351.351 0 1 0 .7 0 .351.351 0 1 1 .351.351.331.331 0 0 0-.351.351v1.4a.351.351 0 1 0 .7 0v-1.121a1.021 1.021 0 0 0 .7-.981 1.052 1.052 0 1 0-2.1 0z" class="prefix__cls-1" data-name="Path 24436" transform="translate(-28.278 -21.784)"/>
    <path id="prefix__Path_24437" d="M23.763 39h-8.412a.351.351 0 1 0 0 .7h8.412a.351.351 0 1 0 0-.7z" class="prefix__cls-1" data-name="Path 24437" transform="translate(-10.093 -25.68)"/>
    <path id="prefix__Path_24438" d="M23.763 45h-8.412a.351.351 0 1 0 0 .7h8.412a.351.351 0 1 0 0-.7z" class="prefix__cls-1" data-name="Path 24438" transform="translate(-10.093 -29.577)"/>
    <path id="prefix__Path_24439" d="M23.763 33h-8.412a.351.351 0 1 0 0 .7h8.412a.351.351 0 1 0 0-.7z" class="prefix__cls-1" data-name="Path 24439" transform="translate(-10.093 -21.784)"/>
    <path id="prefix__Path_24440" d="M5 36.751v.911a.351.351 0 0 0 .7 0v-.911a.351.351 0 1 0-.7 0z" class="prefix__cls-1" data-name="Path 24440" transform="translate(-3.598 -23.992)"/>
    <path id="prefix__Path_24441" d="M6.781 27.024a4.254 4.254 0 0 1 2.243-2.243.345.345 0 0 0-.28-.631 5.062 5.062 0 0 0-2.594 2.594.348.348 0 0 0 .175.456.367.367 0 0 0 .456-.176z" class="prefix__cls-1" data-name="Path 24441" transform="translate(-4.328 -16.018)"/>
    <circle id="prefix__Ellipse_661" cx=".5" cy=".5" r=".5" class="prefix__cls-1" data-name="Ellipse 661" transform="translate(16 16.1)"/>
</svg>
