<svg xmlns="http://www.w3.org/2000/svg" id="Artboard_1_copy_7" width="36.676" height="43.117" data-name="Artboard 1 copy 7" viewBox="0 0 36.676 43.117">
    <defs>
        <style>
            .cls-1{fill:#fff}
        </style>
    </defs>
    <path id="Path_13470" d="M256.564 259.46a10.834 10.834 0 1 0 10.836 10.834 10.834 10.834 0 0 0-10.836-10.834zm3.243 18.511a8.331 8.331 0 0 1-10.119-12.383L261.514 277a8.265 8.265 0 0 1-1.707.971zm-6.485-15.355a8.329 8.329 0 0 1 9.953 12.616l-11.887-11.47a8.255 8.255 0 0 1 1.933-1.145z" class="cls-1" data-name="Path 13470" transform="translate(-230.723 -238.011)"/>
    <path id="Path_13471" d="M101.465 144.161H88.07a1.117 1.117 0 0 1-1.18-1.039v-28.483a1.122 1.122 0 0 1 1.18-1.039h11.81a1.048 1.048 0 1 1 0 2.079H89.251v26.411h11.338l.094.295c.03.095.071.2.108.295q.172.454.378.891c.046.1.094.2.144.295l.152.295z" class="cls-1" data-name="Path 13471" transform="translate(-86.89 -105.932)"/>
    <path id="Path_13472" d="M291.282 114.6v12.66c-.095-.058-.2-.114-.295-.168s-.2-.107-.295-.158a12.431 12.431 0 0 0-1.181-.536c-.094-.039-.2-.076-.295-.111s-.2-.071-.295-.1v-10.548h-10.63a1.048 1.048 0 1 1 0-2.079H290.1a1.127 1.127 0 0 1 1.182 1.04z" class="cls-1" data-name="Path 13472" transform="translate(-259.138 -105.896)"/>
    <path id="Path_13473" d="M209.752 37.956a1.18 1.18 0 0 1-2.015.835l-2.32-2.321v18.872q-.15.136-.3.277c-.1.094-.2.194-.295.294a12.726 12.726 0 0 0-1.18 1.407c-.1.14-.2.283-.3.427s-.2.31-.295.468V36.47l-2.31 2.31a1.18 1.18 0 1 1-1.669-1.669l4.325-4.325a1.17 1.17 0 0 1 1.665 0l4.34 4.337a1.172 1.172 0 0 1 .354.833z" class="cls-1" data-name="Path 13473" transform="translate(-188.164 -32.439)"/>
</svg>
