<svg xmlns="http://www.w3.org/2000/svg" width="44.335" height="19.592" viewBox="0 0 44.335 19.592">
    <defs>
        <style>
            .prefix__cls-1{fill:#123569}
        </style>
    </defs>
    <g id="prefix__Group_6839" data-name="Group 6839" transform="translate(-21 -12.001)">
        <path id="prefix__Path_606" d="M3975.03 1596.7l3.915-6.512h.055l.819 5.388a24.526 24.526 0 013.638-.472l-1.471-8.914h-4.429l-8.081 13.635a22.116 22.116 0 015.554-3.125z" class="prefix__cls-1" data-name="Path 606" transform="translate(-3944.977 -1574.191)"/>
        <path id="prefix__Path_607" d="M3964.568 1610.542h4.36s1.638-6.956 10.039-6.956l1.152 6.956h3.721l-1.208-7.262c-.014-.001-14.218-3.375-18.064 7.262z" class="prefix__cls-1" data-name="Path 607" transform="translate(-3943.568 -1578.949)"/>
        <path id="prefix__Path_608" d="M3965.7 1605.021c8.012-6.5 18.176-4.415 18.176-4.415l.861-1.4 1.083-1.653c.014.014-12.329-1.014-20.119 7.47" data-name="Path 608" transform="translate(-3943.893 -1577.443)" style="fill:#f69321"/>
        <path id="prefix__Path_609" d="M4019.94 1607.336v-6.236h-5.264v6.236h-3.433v-15.278h3.433v5.818h5.264v-5.818h3.173v15.278z" class="prefix__cls-1" data-name="Path 609" transform="translate(-3957.777 -1575.875)"/>
        <path id="prefix__Path_610" d="M3997.6 1607.336v-12.386h-3.75v-2.892h11.05v2.892h-3.912v12.386z" class="prefix__cls-1" data-name="Path 610" transform="translate(-3952.471 -1575.875)"/>
    </g>
</svg>
