<svg id="Layer_1" data-name="Layer 1" xmlns="http://www.w3.org/2000/svg" xmlns:xlink="http://www.w3.org/1999/xlink" viewBox="0 0 654 265"><defs><style>.cls-1{fill:url(#linear-gradient);}.cls-2{fill:#fff;}</style><linearGradient id="linear-gradient" x1="12.7" y1="156.94" x2="647.29" y2="156.94" gradientUnits="userSpaceOnUse"><stop offset="0.2" stop-color="#1a0035"/><stop offset="1" stop-color="#f0f"/></linearGradient></defs><path class="cls-1" d="M647.29,66.67,612.46,109l-27.71,36s-55.7-10.34-139.15-10.36c-27.31,0-57.6,1.08-89.88,4q-20.16,1.81-41.3,4.66c-14.22,1.92-28.73,4.22-43.44,7q-15.68,2.9-31.63,6.49-20.64,4.65-41.61,10.54-7.47,2.1-15,4.37c-18.12,5.51-36.34,11.78-54.52,18.89Q104.44,200,80.78,211.31a642.86,642.86,0,0,0-67.43,37.48H12.7A600.86,600.86,0,0,1,61,211.31a671.12,671.12,0,0,1,80.11-47.89q19.95-10.17,40.21-19A839.88,839.88,0,0,1,271,111.37,999.78,999.78,0,0,1,384.47,83.85Q399,81.18,413.18,79c24.41-3.8,47.77-6.62,69.63-8.67C579.82,61.17,647.48,66.83,647.29,66.67Z"/><path class="cls-2" d="M55.79,211.31v-141H12.06v178.5h.64A600.86,600.86,0,0,1,61,211.31Z"/><path class="cls-2" d="M167.29,109V141.1h21.78c-22.06,9.34-44,19.82-65.51,31.56V70.29H241.67V109Z"/><path class="cls-2" d="M321.14,64.34h-7.73l-18.9,40.13q20.53-5.72,40.73-10.4Z"/><path class="cls-2" d="M593.12,141.69c-1.57-.46-3.16-.9-4.74-1.33-13.65-3.74-26.79-6.9-26.79-18.9,0-11.6,9.22-17.25,18.74-17.25,12.2,0,18.45,8.33,18.45,18.44h41.05c-.93-12.89-4.35-24.6-10.54-34.09-8.06-12.39-20.83-21-38.89-23.48a82.22,82.22,0,0,0-11.26-.74,63.69,63.69,0,0,0-11.31,1c-20.44,3.69-37.2,17.17-44.86,35C515,84.65,499.85,73,478.88,70.69a71.3,71.3,0,0,0-7.56-.4H396.64V223.55l-40.25-84.87c-26.59,2.38-54.54,6-83.31,11.3l-28.89,61.33h-76.9V179.18H236V157.62a765.24,765.24,0,0,0-112.45,34.9v18.79H80.78a642.86,642.86,0,0,0-67.43,37.48H273.54l8.63-18.44h70.51l8.92,18.44h78.48V184.53h31.24c25,0,45.35-13.61,53.8-34.66,7.47,12.71,21.09,20.77,40,27.52,14.58,5.06,32.13,8.93,32.13,22.32,0,9.22-6.84,15.47-17.85,15.47A18.61,18.61,0,0,1,561,196.43H518.45c0,32.13,22,58.32,61,58.32,33.62,0,60.39-26.19,60.39-57.72C639.83,169.06,625,151.21,593.12,141.69ZM295.85,199.11l20.83-45.22h.59l20.53,45.22ZM483,135.42c-2.56,6.58-8,11.63-15.85,11.63H440.08V107.48h27.07c11.6,0,17.55,8.93,17.55,18.74A25.5,25.5,0,0,1,483,135.42Z"/><path class="cls-2" d="M27.78,36.93H17.89l-1.7,4.82h-4l8.46-23.66H25.1l8.46,23.66H29.48ZM22.85,22.78,19,33.77H26.7Z"/><path class="cls-2" d="M50.53,31.28c0-3.43-1.87-5.2-4.69-5.2s-4.73,1.77-4.73,5.2V41.75H37.24V23h3.87v2.14a7.2,7.2,0,0,1,5.58-2.44c4.38,0,7.68,2.75,7.68,8v11H50.53Z"/><path class="cls-2" d="M66.85,22.72a8,8,0,0,1,6.49,3V23h3.91V41.75H73.34V39a8.08,8.08,0,0,1-6.56,3.09c-4.86,0-8.77-4-8.77-9.76S61.92,22.72,66.85,22.72Zm.82,3.36c-2.89,0-5.68,2.18-5.68,6.22s2.79,6.39,5.68,6.39,5.67-2.27,5.67-6.32S70.59,26.08,67.67,26.08Z"/><path class="cls-2" d="M82.35,16.6h3.88V41.75H82.35Z"/><path class="cls-2" d="M104.18,23h4L96.7,50.56h-4l3.81-9.11L89.12,23h4.32L98.71,37.3Z"/><path class="cls-2" d="M111.73,26.18h-2.21V23h2.21V18.36h3.91V23h4.55v3.16h-4.55V36.55c0,1.4.54,2,2.17,2h2.38v3.23h-3.06c-3.33,0-5.4-1.39-5.4-5.2Z"/><path class="cls-2" d="M124.38,26.18h-2.21V23h2.21V18.36h3.91V23h4.55v3.16h-4.55V36.55c0,1.4.54,2,2.17,2h2.38v3.23h-3.06c-3.33,0-5.4-1.39-5.4-5.2Z"/><path class="cls-2" d="M135.9,18.06a2.47,2.47,0,1,1,2.49,2.48A2.46,2.46,0,0,1,135.9,18.06Zm.51,5h3.88V41.75h-3.88Z"/><path class="cls-2" d="M153.28,22.72c4.59,0,7.58,2.27,8.63,6.22h-4.18a4.38,4.38,0,0,0-4.45-3c-3.13,0-5.21,2.31-5.21,6.39s2.08,6.43,5.21,6.43a4.27,4.27,0,0,0,4.45-3h4.18c-1,3.67-4,6.22-8.63,6.22-5.38,0-9.18-3.81-9.18-9.69S147.9,22.72,153.28,22.72Z"/><path class="cls-2" d="M173.34,22.72a8,8,0,0,1,6.49,3V23h3.91V41.75h-3.91V39a8.08,8.08,0,0,1-6.56,3.09c-4.86,0-8.77-4-8.77-9.76S168.41,22.72,173.34,22.72Zm.81,3.36c-2.89,0-5.68,2.18-5.68,6.22s2.79,6.39,5.68,6.39,5.68-2.27,5.68-6.32S177.08,26.08,174.15,26.08Z"/><path class="cls-2" d="M196.46,18.13H213v3.16h-6.29V41.75h-3.88V21.29h-6.32Z"/><path class="cls-2" d="M220.73,41.75h-3.87V23h3.87v2.72a6.1,6.1,0,0,1,5.61-3v4h-1c-2.86,0-4.63,1.19-4.63,5.17Z"/><path class="cls-2" d="M238,42.06c-5.37,0-9.35-3.81-9.35-9.69s3.81-9.65,9.35-9.65c5.34,0,9.11,3.7,9.11,9.21a11,11,0,0,1-.14,1.9H232.63a5.15,5.15,0,0,0,5.34,5,4.55,4.55,0,0,0,4.42-2.62h4.18C245.52,39.44,242.56,42.06,238,42.06Zm-5.3-11.35H243C243,27.82,240.69,26,237.8,26A5.09,5.09,0,0,0,232.67,30.71Z"/><path class="cls-2" d="M258.44,22.72a8,8,0,0,1,6.49,3V23h3.91V41.75h-3.91V39a8.08,8.08,0,0,1-6.56,3.09c-4.86,0-8.77-4-8.77-9.76S253.51,22.72,258.44,22.72Zm.81,3.36c-2.89,0-5.67,2.18-5.67,6.22s2.78,6.39,5.67,6.39,5.68-2.27,5.68-6.32S262.18,26.08,259.25,26.08Z"/><path class="cls-2" d="M280.74,42.06c-4.49,0-7.65-2.65-7.82-6.05h4c.14,1.53,1.6,2.79,3.74,2.79s3.44-1,3.44-2.25c0-3.67-10.88-1.56-10.88-8.43,0-3,2.79-5.4,7.2-5.4,4.25,0,7,2.27,7.25,6H283.8c-.14-1.63-1.39-2.75-3.5-2.75s-3.16.85-3.16,2.11c0,3.77,10.57,1.66,10.77,8.43C287.91,39.68,285.16,42.06,280.74,42.06Z"/><path class="cls-2" d="M309.06,41.75h-3.87V39.51A7,7,0,0,1,299.64,42c-4.38,0-7.71-2.76-7.71-8V23h3.84V33.46c0,3.43,1.87,5.2,4.69,5.2s4.73-1.77,4.73-5.2V23h3.87Z"/><path class="cls-2" d="M318,41.75h-3.88V23H318v2.72a6.1,6.1,0,0,1,5.61-3v4h-1c-2.85,0-4.62,1.19-4.62,5.17Z"/><path class="cls-2" d="M335.28,42.06c-5.38,0-9.35-3.81-9.35-9.69s3.8-9.65,9.35-9.65c5.33,0,9.11,3.7,9.11,9.21a12.06,12.06,0,0,1-.14,1.9H329.94a5.15,5.15,0,0,0,5.34,5,4.52,4.52,0,0,0,4.41-2.62h4.19A8.57,8.57,0,0,1,335.28,42.06ZM330,30.71h10.37C340.27,27.82,338,26,335.11,26A5.11,5.11,0,0,0,330,30.71Z"/><path class="cls-2" d="M363.19,31.42H352.07V41.75H348.2V18.13h3.87V28.26h11.12V18.13h3.87V41.75h-3.87Z"/><path class="cls-2" d="M389.13,41.75h-3.88V39.51A7,7,0,0,1,379.71,42c-4.38,0-7.71-2.76-7.71-8V23h3.84V33.46c0,3.43,1.87,5.2,4.69,5.2s4.72-1.77,4.72-5.2V23h3.88Z"/><path class="cls-2" d="M407.52,31.28c0-3.43-1.87-5.2-4.69-5.2s-4.72,1.77-4.72,5.2V41.75h-3.88V23h3.88v2.14a7.18,7.18,0,0,1,5.57-2.44c4.39,0,7.69,2.75,7.69,8v11h-3.85Z"/><path class="cls-2" d="M416.91,26.18H414.7V23h2.21V18.36h3.91V23h4.55v3.16h-4.55V36.55c0,1.4.54,2,2.17,2h2.38v3.23h-3.06c-3.33,0-5.4-1.39-5.4-5.2Z"/><path class="cls-2" d="M431.36,20a8.68,8.68,0,1,1,17.35,0,8.68,8.68,0,1,1-17.35,0Zm1.58,0c0,4.26,2.82,7.33,7.12,7.33s7.07-3.07,7.07-7.33-2.81-7.34-7.07-7.34S432.94,15.69,432.94,20Zm8.61.83,2.64,3.78-2.24,0-2.42-3.73h-1V24.6h-1.89V15.16h4.09c1.93,0,3.16,1.1,3.16,2.85A2.65,2.65,0,0,1,441.55,20.78Zm-3-3.91v2.42h2.07c.79,0,1.4-.35,1.4-1.23s-.61-1.19-1.4-1.19Z"/></svg>