<svg xmlns="http://www.w3.org/2000/svg" viewBox="0 0 117.148 53.143">
    <defs>
        <style>
            .atoms-1-cls-1{fill:#fff}.atoms-1-cls-2{clip-path:url(#clip-path)}.atoms-1-cls-3{clip-path:url(#clip-path-2)}.atoms-1-cls-4{clip-path:url(#clip-path-3)}.atoms-1-cls-5{clip-path:url(#clip-path-4)}.atoms-1-cls-6{clip-path:url(#clip-path-5)}.atoms-1-cls-7{clip-path:url(#clip-path-6)}.atoms-1-cls-8{clip-path:url(#clip-path-7)}.atoms-1-cls-9{clip-path:url(#clip-path-8)}.atoms-1-cls-10{clip-path:url(#clip-path-9)}.atoms-1-cls-11{clip-path:url(#clip-path-10)}.atoms-1-cls-12{clip-path:url(#clip-path-11)}.atoms-1-cls-13{clip-path:url(#clip-path-12)}.atoms-1-cls-14{fill:#f67d0f}.atoms-1-cls-15{fill:#d5d5d5;font-size:10px;font-family:HelveticaNeue-Medium,Helvetica Neue;font-weight:500}
        </style>
        <clipPath id="clip-path">
            <path id="Path_515" d="M14.245 152.65v-8.879h-3.092v-1.091h7.4v1.113h-3.089v8.879h-1.219v-.021z" class="atoms-1-cls-1" data-name="Path 515" transform="translate(-11.153 -142.679)"/>
        </clipPath>
        <clipPath id="clip-path-2">
            <path id="Path_516" d="M48.06 152.65l-2.482-3.98h-1.96v3.98H42.4v-9.971h3.919a2.889 2.889 0 0 1 3.07 3.017 2.76 2.76 0 0 1-2.548 2.91l2.635 4.065H48.06v-.021zm.087-6.975a1.842 1.842 0 0 0-1.96-1.9h-2.569v3.83h2.569a1.859 1.859 0 0 0 1.96-1.926z" class="atoms-1-cls-1" data-name="Path 516" transform="translate(-42.399 -142.679)"/>
        </clipPath>
        <clipPath id="clip-path-3">
            <path id="Path_517" d="M73.419 152.65v-9.97h6.4v1.113h-5.181v3.231h5.073v1.113h-5.073v3.445h5.182v1.113h-6.4v-.043z" class="atoms-1-cls-1" data-name="Path 517" transform="translate(-73.419 -142.679)"/>
        </clipPath>
        <clipPath id="clip-path-4">
            <path id="Path_518" d="M106.808 152.65l-.871-2.225h-4.855l-.871 2.225h-1.372l3.941-9.971h1.5l3.919 9.992h-1.393v-.021zm-3.288-8.708l-2.068 5.392h4.137l-2.068-5.392z" class="atoms-1-cls-1" data-name="Path 518" transform="translate(-98.839 -142.679)"/>
        </clipPath>
        <clipPath id="clip-path-5">
            <path id="Path_519" d="M133.036 150.836l.74-.963a3.975 3.975 0 0 0 3.048 1.434c1.742 0 2.308-.963 2.308-1.733 0-2.567-5.77-1.134-5.77-4.707 0-1.647 1.437-2.781 3.375-2.781a4.587 4.587 0 0 1 3.463 1.414l-.74.92a3.684 3.684 0 0 0-2.831-1.2c-1.154 0-2 .642-2 1.583 0 2.247 5.77.963 5.77 4.686 0 1.434-.958 2.931-3.593 2.931a4.853 4.853 0 0 1-3.767-1.583z" class="atoms-1-cls-1" data-name="Path 519" transform="translate(-133.036 -142.085)"/>
        </clipPath>
        <clipPath id="clip-path-6">
            <path id="Path_520" d="M164.887 148.777v-6.1h1.219v6.077c0 1.819.958 2.974 2.743 2.974 1.807 0 2.765-1.155 2.765-2.974v-6.077h1.219v6.1c0 2.482-1.35 4.065-3.984 4.065-2.613 0-3.963-1.6-3.963-4.065z" class="atoms-1-cls-1" data-name="Path 520" transform="translate(-164.887 -142.679)"/>
        </clipPath>
        <clipPath id="clip-path-7">
            <path id="Path_521" d="M206.182 152.65l-2.482-3.958h-1.96v3.98h-1.219v-9.992h3.919a2.89 2.89 0 0 1 3.07 3.017 2.76 2.76 0 0 1-2.548 2.91l2.635 4.065h-1.415v-.021zm.087-6.975a1.842 1.842 0 0 0-1.96-1.9h-2.569v3.83h2.569a1.858 1.858 0 0 0 1.96-1.926z" class="atoms-1-cls-1" data-name="Path 521" transform="translate(-200.521 -142.679)"/>
        </clipPath>
        <clipPath id="clip-path-8">
            <path id="Path_522" d="M231.464 152.65v-9.97h6.4v1.113h-5.182v3.231h5.073v1.113h-5.073v3.445h5.182v1.113h-6.4v-.043z" class="atoms-1-cls-1" data-name="Path 522" transform="translate(-231.464 -142.679)"/>
        </clipPath>
        <clipPath id="clip-path-9">
            <path id="Path_523" d="M273.347 152.713v-4.224h-5.112v4.224h-2.31v-10.034h2.31v3.937h5.112v-3.937h2.324v10.034z" class="atoms-1-cls-1" data-name="Path 523" transform="translate(-265.924 -142.679)"/>
        </clipPath>
        <clipPath id="clip-path-10">
            <path id="Path_524" d="M307.153 148.694v-6.015h2.338v5.96a2.549 2.549 0 0 0 5.085 0v-5.96h2.351v6.015c0 2.488-1.586 4.2-4.894 4.2-3.281 0-4.88-1.722-4.88-4.2z" class="atoms-1-cls-1" data-name="Path 524" transform="translate(-307.153 -142.679)"/>
        </clipPath>
        <clipPath id="clip-path-11">
            <path id="Path_525" d="M356.049 152.713l-5.167-6.548v6.548h-2.31v-10.034h2.365l5.017 6.3v-6.3h2.31v10.034z" class="atoms-1-cls-1" data-name="Path 525" transform="translate(-348.572 -142.679)"/>
        </clipPath>
        <clipPath id="clip-path-12">
            <path id="Path_526" d="M390.55 152.713v-8.147h-3.171v-1.886h8.639v1.886h-3.144v8.147z" class="atoms-1-cls-1" data-name="Path 526" transform="translate(-387.378 -142.679)"/>
        </clipPath>
    </defs>
    <g id="Group_6809" data-name="Group 6809" transform="translate(-566.001 -690.357)">
        <g id="Group_5466" data-name="Group 5466" transform="translate(-485.568 15.087)">
            <g id="Group_3196" data-name="Group 3196" transform="translate(1051.713 718.03)">
                <g id="Group_3173" data-name="Group 3173" transform="translate(0 .171)">
                    <g id="Group_3172" class="atoms-1-cls-2" data-name="Group 3172">
                        <path id="Rectangle_2267" d="M0 0h16.139v18.728H0z" class="atoms-1-cls-1" data-name="Rectangle 2267" transform="translate(-4.368 -4.368)"/>
                    </g>
                </g>
                <g id="Group_3175" data-name="Group 3175" transform="translate(8.992 .171)">
                    <g id="Group_3174" class="atoms-1-cls-3" data-name="Group 3174">
                        <path id="Rectangle_2268" d="M0 0h15.813v18.728H0z" class="atoms-1-cls-1" data-name="Rectangle 2268" transform="translate(-4.368 -4.368)"/>
                    </g>
                </g>
                <g id="Group_3177" data-name="Group 3177" transform="translate(17.92 .171)">
                    <g id="Group_3176" class="atoms-1-cls-4" data-name="Group 3176">
                        <path id="Rectangle_2269" d="M0 0h15.138v18.75H0z" class="atoms-1-cls-1" data-name="Rectangle 2269" transform="translate(-4.368 -4.368)"/>
                    </g>
                </g>
                <g id="Group_3179" data-name="Group 3179" transform="translate(25.235 .171)">
                    <g id="Group_3178" class="atoms-1-cls-5" data-name="Group 3178">
                        <path id="Rectangle_2270" d="M0 0h18.099v18.728H0z" class="atoms-1-cls-1" data-name="Rectangle 2270" transform="translate(-4.368 -4.368)"/>
                    </g>
                </g>
                <g id="Group_3181" data-name="Group 3181" transform="translate(35.077)">
                    <g id="Group_3180" class="atoms-1-cls-6" data-name="Group 3180">
                        <path id="Rectangle_2271" d="M0 0h16.096v19.071H0z" class="atoms-1-cls-1" data-name="Rectangle 2271" transform="translate(-4.368 -4.368)"/>
                    </g>
                </g>
                <g id="Group_3183" data-name="Group 3183" transform="translate(44.244 .171)">
                    <g id="Group_3182" class="atoms-1-cls-7" data-name="Group 3182">
                        <path id="Rectangle_2272" d="M0 0h16.684v18.899H0z" class="atoms-1-cls-1" data-name="Rectangle 2272" transform="translate(-4.368 -4.368)"/>
                    </g>
                </g>
                <g id="Group_3185" data-name="Group 3185" transform="translate(54.499 .171)">
                    <g id="Group_3184" class="atoms-1-cls-8" data-name="Group 3184">
                        <path id="Rectangle_2273" d="M0 0h15.813v18.728H0z" class="atoms-1-cls-1" data-name="Rectangle 2273" transform="translate(-4.368 -4.368)"/>
                    </g>
                </g>
                <g id="Group_3187" data-name="Group 3187" transform="translate(63.404 .171)">
                    <g id="Group_3186" class="atoms-1-cls-9" data-name="Group 3186">
                        <path id="Rectangle_2274" d="M0 0h15.138v18.75H0z" class="atoms-1-cls-1" data-name="Rectangle 2274" transform="translate(-4.368 -4.368)"/>
                    </g>
                </g>
                <g id="Group_3189" data-name="Group 3189" transform="translate(73.322 .171)">
                    <g id="Group_3188" class="atoms-1-cls-10" data-name="Group 3188">
                        <path id="Rectangle_2275" d="M0 0h15.214v15.502H0z" class="atoms-1-cls-1" data-name="Rectangle 2275" transform="translate(-2.734 -2.734)"/>
                    </g>
                </g>
                <g id="Group_3191" data-name="Group 3191" transform="translate(85.187 .171)">
                    <g id="Group_3190" class="atoms-1-cls-11" data-name="Group 3190">
                        <path id="Rectangle_2276" d="M0 0h15.242v15.679H0z" class="atoms-1-cls-1" data-name="Rectangle 2276" transform="translate(-2.734 -2.734)"/>
                    </g>
                </g>
                <g id="Group_3193" data-name="Group 3193" transform="translate(97.107 .171)">
                    <g id="Group_3192" class="atoms-1-cls-12" data-name="Group 3192">
                        <path id="Rectangle_2277" d="M0 0h15.16v15.502H0z" class="atoms-1-cls-1" data-name="Rectangle 2277" transform="translate(-2.734 -2.734)"/>
                    </g>
                </g>
                <g id="Group_3195" data-name="Group 3195" transform="translate(108.275 .171)">
                    <g id="Group_3194" class="atoms-1-cls-13" data-name="Group 3194">
                        <path id="Rectangle_2278" d="M0 0h14.107v15.502H0z" class="atoms-1-cls-1" data-name="Rectangle 2278" transform="translate(-2.734 -2.734)"/>
                    </g>
                </g>
            </g>
            <g id="Group_3197" data-name="Group 3197" transform="translate(1079.928 695.233)">
                <path id="Path_527" d="M109.194 63.831h2.536l4.844 7.787h.033v-7.787H119v11.607h-2.552l-4.828-7.771h-.033v7.771h-2.39z" class="atoms-1-cls-1" data-name="Path 527" transform="translate(-109.194 -63.554)"/>
                <path id="Path_528" d="M151.164 63.831h2.617l4.341 11.607h-2.65l-.878-2.585h-4.34l-.91 2.585h-2.585zm-.244 7.12h3.007l-1.463-4.259h-.032z" class="atoms-1-cls-1" data-name="Path 528" transform="translate(-135.947 -63.554)"/>
                <path id="Path_529" d="M189.745 63.831h2.555v9.462h5.657v2.146h-8.21z" class="atoms-1-cls-1" data-name="Path 529" transform="translate(-166.563 -63.554)"/>
                <path id="Path_530" d="M216.842 70.919l-4.276-7.088h2.877l2.715 4.584 2.7-4.584h2.842l-4.308 7.153v4.454h-2.552z" class="atoms-1-cls-1" data-name="Path 530" transform="translate(-182.816 -63.554)"/>
                <path id="Path_531" d="M254.965 65.977h-3.479v-2.146H261v2.146h-3.479v9.462h-2.552z" class="atoms-1-cls-1" data-name="Path 531" transform="translate(-210.535 -63.554)"/>
                <path id="Path_532" d="M289.479 65.977H286v-2.146h9.51v2.146h-3.479v9.462h-2.553z" class="atoms-1-cls-1" data-name="Path 532" transform="translate(-235.116 -63.554)"/>
                <path id="Path_533" d="M323.677 63.831h2.552v11.607h-2.552z" class="atoms-1-cls-1" data-name="Path 533" transform="translate(-261.95 -63.554)"/>
                <path id="Path_534" d="M346.831 67.048a2.085 2.085 0 0 0-.293-.8 2.572 2.572 0 0 0-.569-.642 2.664 2.664 0 0 0-1.674-.585 2.978 2.978 0 0 0-1.463.334 2.759 2.759 0 0 0-.976.894 3.916 3.916 0 0 0-.545 1.276 6.364 6.364 0 0 0-.17 1.475 5.919 5.919 0 0 0 .171 1.423 3.841 3.841 0 0 0 .545 1.244 2.788 2.788 0 0 0 .976.886 2.978 2.978 0 0 0 1.463.333 2.349 2.349 0 0 0 1.829-.724 3.332 3.332 0 0 0 .8-1.878h2.475a5.907 5.907 0 0 1-.5 1.967 4.724 4.724 0 0 1-1.073 1.5 4.667 4.667 0 0 1-1.561.951 5.593 5.593 0 0 1-1.967.333 5.848 5.848 0 0 1-2.406-.471 5.244 5.244 0 0 1-1.788-1.284 5.634 5.634 0 0 1-1.122-1.918 7.031 7.031 0 0 1-.39-2.357 7.276 7.276 0 0 1 .39-2.406 5.786 5.786 0 0 1 1.122-1.951 5.151 5.151 0 0 1 1.788-1.3 6.246 6.246 0 0 1 4.219-.195 4.906 4.906 0 0 1 1.528.8 4.356 4.356 0 0 1 1.114 1.309 4.679 4.679 0 0 1 .553 1.788z" class="atoms-1-cls-1" data-name="Path 534" transform="translate(-272.571 -62.87)"/>
                <path id="Path_535" d="M382.311 63.831h2.618l4.34 11.607h-2.65l-.878-2.585H381.4l-.911 2.585H377.9zm-.244 7.12h3.008l-1.463-4.259h-.033z" class="atoms-1-cls-1" data-name="Path 535" transform="translate(-300.572 -63.554)"/>
            </g>
            <g id="Group_3202" data-name="Group 3202" transform="translate(1051.568 680.335)">
                <g id="Group_3198" data-name="Group 3198">
                    <path id="Path_536" d="M34.674 25.417l5.314-8.827h.069l1.114 7.3a32.544 32.544 0 0 1 4.953-.634L44.1 11.105h-5.981l-10.97 18.546a30.788 30.788 0 0 1 7.525-4.234z" class="atoms-1-cls-1" data-name="Path 536" transform="translate(-22.401 -11.105)"/>
                    <path id="Path_537" d="M10.652 77.477h5.913s2.211-9.377 13.61-9.377l1.543 9.375h5.056l-1.629-9.785c0-.017-19.265-4.645-24.493 9.787z" class="atoms-1-cls-1" data-name="Path 537" transform="translate(-10.652 -50.892)"/>
                </g>
                <g id="Group_3201" data-name="Group 3201" transform="translate(.101 32.388)">
                    <g id="Group_3200" data-name="Group 3200">
                        <g id="Group_3199" data-name="Group 3199">
                            <path id="Rectangle_2279" d="M0 0h117.047v.796H0z" class="atoms-1-cls-1" data-name="Rectangle 2279"/>
                        </g>
                    </g>
                </g>
                <path id="Path_538" d="M41.767 49.5s-16.729-1.423-27.3 10.113c0 0 .24-.223.686-.6-.446.377-.686.6-.686.6 10.867-8.827 24.665-6 24.665-6l1.183-1.885z" class="atoms-1-cls-14" data-name="Path 538" transform="translate(-13.366 -38.411)"/>
            </g>
            <text id="Powered_By" class="atoms-1-cls-15" data-name="Powered By" transform="translate(1112.716 685.27)">
                <tspan x="0" y="0">Powered By</tspan>
            </text>
        </g>
    </g>
</svg>
