<svg id="Layer_1" data-name="Layer 1" xmlns="http://www.w3.org/2000/svg" xmlns:xlink="http://www.w3.org/1999/xlink" viewBox="0 0 656 247"><defs><style>.cls-1{fill:#ff9b35;}.cls-2{fill:url(#linear-gradient);}.cls-3{fill:#fff;}</style><linearGradient id="linear-gradient" x1="11.7" y1="120.94" x2="646.29" y2="120.94" gradientUnits="userSpaceOnUse"><stop offset="0.2" stop-color="#1a0035"/><stop offset="1" stop-color="#f0f"/></linearGradient></defs><path class="cls-1" d="M73.3,224.75l.48-.31-.45.39Z"/><path class="cls-2" d="M646.29,30.67,611.46,73l-27.71,36S528.05,98.74,444.6,98.72c-27.31,0-57.6,1.08-89.88,4q-20.16,1.82-41.3,4.66c-14.22,1.92-28.73,4.22-43.44,7q-15.68,2.89-31.63,6.49-20.64,4.65-41.61,10.54-7.47,2.1-15,4.37c-18.12,5.51-36.34,11.78-54.52,18.89Q103.44,164,79.78,175.31a642.86,642.86,0,0,0-67.43,37.48H11.7A600.86,600.86,0,0,1,60,175.31a671.12,671.12,0,0,1,80.11-47.89q19.95-10.17,40.21-19A839.88,839.88,0,0,1,270,75.37,999.78,999.78,0,0,1,383.47,47.85Q398,45.18,412.18,43c24.41-3.8,47.77-6.62,69.63-8.67C578.82,25.17,646.48,30.83,646.29,30.67Z"/><path class="cls-3" d="M54.79,175.31v-141H11.06v178.5h.64A600.86,600.86,0,0,1,60,175.31Z"/><path class="cls-3" d="M166.29,73V105.1h21.78c-22.06,9.34-44,19.82-65.51,31.56V34.29H240.67V73Z"/><path class="cls-3" d="M320.14,28.34h-7.73l-18.9,40.13q20.53-5.72,40.73-10.4Z"/><path class="cls-3" d="M592.12,105.69c-1.57-.46-3.16-.9-4.74-1.33-13.65-3.74-26.79-6.9-26.79-18.9,0-11.6,9.22-17.25,18.74-17.25,12.2,0,18.45,8.33,18.45,18.44h41.05c-.93-12.89-4.35-24.6-10.54-34.09-8.06-12.39-20.83-21-38.89-23.48a82.22,82.22,0,0,0-11.26-.74,63.69,63.69,0,0,0-11.31,1C546.39,33,529.63,46.52,522,64.3,514,48.65,498.85,37,477.88,34.69a71.3,71.3,0,0,0-7.56-.4H395.64V187.55l-40.25-84.87c-26.59,2.38-54.54,6-83.31,11.3l-28.89,61.33h-76.9V143.18H235V121.62a765.24,765.24,0,0,0-112.45,34.9v18.79H79.78a642.86,642.86,0,0,0-67.43,37.48H272.54l8.63-18.44h70.51l8.92,18.44h78.48V148.53h31.24c25,0,45.35-13.61,53.8-34.66,7.47,12.71,21.09,20.77,40,27.52,14.58,5.06,32.13,8.93,32.13,22.32,0,9.22-6.84,15.47-17.85,15.47A18.61,18.61,0,0,1,560,160.43H517.45c0,32.13,22,58.32,61,58.32,33.62,0,60.39-26.19,60.39-57.72C638.83,133.06,624,115.21,592.12,105.69ZM294.85,163.11l20.83-45.22h.59l20.53,45.22ZM482,99.42c-2.56,6.58-8,11.63-15.85,11.63H439.08V71.48h27.07c11.6,0,17.55,8.93,17.55,18.74A25.5,25.5,0,0,1,482,99.42Z"/></svg>